<svg version="1.1" xmlns="http://www.w3.org/2000/svg" viewBox="0 0 209.27686522605563 1535.1862211169446" width="209.27686522605563" height="1535.1862211169446" class="excalidraw-svg">
  <!-- svg-source:excalidraw -->
  
  <defs>
    <style class="style-fonts">
      
    </style>
    
  </defs>
  <g transform="translate(83.02969360351562 10) rotate(0 -30.429061889648438 91.66744995117188)" stroke="none"><path fill="#FFFFFF" d="M 5.04,-1.26 Q 5.04,-1.26 5.76,2.27 6.48,5.81 7.28,7.96 8.08,10.10 9.14,13.17 10.20,16.24 10.55,19.28 10.90,22.32 10.79,25.14 10.68,27.96 10.32,31.22 9.96,34.48 10.14,36.78 10.32,39.09 10.44,41.49 10.56,43.90 10.63,47.88 10.70,51.87 10.69,54.02 10.69,56.16 10.59,59.04 10.48,61.92 10.47,64.24 10.46,66.56 10.49,70.33 10.51,74.11 10.66,78.44 10.81,82.76 11.07,85.17 11.34,87.58 11.83,89.66 12.33,91.74 12.79,94.45 13.26,97.16 13.65,99.84 14.04,102.52 14.38,105.44 14.73,108.37 15.45,113.57 16.16,118.78 16.35,122.58 16.53,126.37 16.62,129.83 16.72,133.30 16.53,136.69 16.35,140.08 15.73,143.82 15.11,147.56 14.43,150.75 13.75,153.95 12.50,157.00 11.24,160.06 9.81,162.70 8.38,165.35 5.44,168.58 2.50,171.82 -0.34,174.36 -3.19,176.89 -7.13,179.09 -11.07,181.29 -14.57,182.75 -18.08,184.21 -22.46,184.98 -26.85,185.75 -30.71,186.11 -34.56,186.46 -38.09,186.46 -41.62,186.45 -46.07,185.12 -50.52,183.79 -54.71,181.54 -58.89,179.29 -62.03,176.44 -65.16,173.59 -67.48,170.23 -69.80,166.86 -71.23,161.10 -72.65,155.33 -73.38,150.56 -74.10,145.80 -74.51,141.97 -74.91,138.14 -75.54,135.77 -76.16,133.40 -76.18,132.85 -76.20,132.29 -76.04,131.76 -75.88,131.23 -75.56,130.78 -75.24,130.32 -74.79,130.00 -74.34,129.67 -73.81,129.51 -73.29,129.34 -72.73,129.35 -72.18,129.36 -71.66,129.55 -71.13,129.74 -70.70,130.08 -70.26,130.42 -69.96,130.89 -69.66,131.35 -69.52,131.89 -69.39,132.43 -69.43,132.98 -69.47,133.53 -69.68,134.05 -69.90,134.56 -70.27,134.97 -70.63,135.39 -71.11,135.66 -71.60,135.94 -72.14,136.05 -72.68,136.16 -73.23,136.09 -73.78,136.01 -74.28,135.77 -74.78,135.53 -75.17,135.14 -75.57,134.75 -75.82,134.25 -76.07,133.76 -76.15,133.21 -76.23,132.66 -76.13,132.12 -76.02,131.57 -75.75,131.09 -75.49,130.60 -75.08,130.23 -74.66,129.86 -74.16,129.63 -73.65,129.41 -73.10,129.36 -72.54,129.31 -72.01,129.44 -71.47,129.57 -71.00,129.87 -70.53,130.16 -70.18,130.59 -69.83,131.02 -69.63,131.54 -69.44,132.06 -69.44,132.06 -69.44,132.06 -69.04,134.82 -68.64,137.58 -68.39,141.19 -68.14,144.80 -67.31,149.30 -66.49,153.80 -65.31,158.52 -64.12,163.25 -62.35,166.03 -60.59,168.82 -58.22,171.17 -55.85,173.53 -52.23,175.30 -48.61,177.07 -45.00,177.99 -41.39,178.92 -38.30,179.06 -35.21,179.21 -31.73,178.90 -28.25,178.59 -24.63,177.79 -21.01,176.99 -18.02,175.80 -15.04,174.60 -11.95,172.60 -8.85,170.60 -6.47,168.40 -4.09,166.20 -1.94,163.45 0.21,160.70 1.50,158.50 2.80,156.31 3.85,154.16 4.90,152.01 5.52,149.15 6.14,146.28 6.52,142.96 6.90,139.63 7.02,136.69 7.14,133.76 6.91,130.57 6.68,127.38 6.10,123.74 5.51,120.11 5.06,117.21 4.61,114.30 4.24,112.08 3.88,109.86 3.43,107.07 2.98,104.27 2.54,101.72 2.11,99.17 1.65,96.79 1.19,94.40 0.55,91.69 -0.09,88.99 -0.45,86.32 -0.80,83.64 -1.09,78.88 -1.39,74.11 -1.36,70.34 -1.33,66.56 -1.35,64.25 -1.36,61.94 -1.47,59.07 -1.58,56.20 -1.60,52.19 -1.62,48.18 -1.70,44.61 -1.77,41.05 -1.87,37.40 -1.97,33.75 -1.78,31.17 -1.58,28.59 -0.98,25.65 -0.37,22.71 -0.31,20.56 -0.25,18.41 -0.80,15.87 -1.34,13.33 -2.16,10.76 -2.98,8.18 -4.01,4.72 -5.04,1.26 -5.12,0.63 -5.20,0.01 -5.12,-0.60 -5.05,-1.22 -4.83,-1.81 -4.61,-2.40 -4.26,-2.91 -3.90,-3.43 -3.43,-3.85 -2.96,-4.27 -2.41,-4.56 -1.86,-4.85 -1.25,-5.01 -0.64,-5.16 -0.01,-5.16 0.61,-5.16 1.21,-5.01 1.82,-4.87 2.38,-4.58 2.94,-4.29 3.41,-3.87 3.88,-3.46 4.24,-2.94 4.59,-2.43 4.82,-1.84 5.04,-1.26 5.04,-1.26 L 5.04,-1.26 Z"></path></g><g transform="translate(93.18129987162263 160.09053448446434) rotate(0 -22.821727079503717 80.99492690142466)" stroke="none"><path fill="#FFFFFF" d="M 4.37,-0.36 Q 4.37,-0.36 4.65,2.72 4.92,5.80 5.16,7.95 5.39,10.09 5.70,12.92 6.00,15.75 6.75,20.38 7.50,25.01 8.10,28.60 8.71,32.20 9.37,36.07 10.04,39.94 10.68,43.17 11.31,46.40 12.08,49.44 12.84,52.49 13.32,56.62 13.81,60.74 14.26,64.50 14.71,68.25 15.34,72.07 15.96,75.89 16.41,80.77 16.85,85.66 17.34,89.46 17.83,93.26 17.95,97.86 18.07,102.45 17.68,106.41 17.30,110.36 16.66,113.89 16.03,117.43 14.28,122.13 12.53,126.83 11.40,130.30 10.26,133.78 9.37,136.63 8.48,139.48 6.66,142.93 4.85,146.39 4.01,148.36 3.18,150.34 0.97,152.93 -1.24,155.51 -4.25,157.53 -7.26,159.55 -10.30,161.68 -13.33,163.81 -18.92,165.10 -24.51,166.39 -27.99,165.98 -31.48,165.56 -37.25,162.02 -43.03,158.48 -47.19,154.46 -51.35,150.44 -54.23,145.89 -57.11,141.34 -58.84,136.65 -60.56,131.96 -61.67,128.76 -62.78,125.57 -63.25,120.79 -63.72,116.01 -63.07,113.87 -62.42,111.73 -61.10,109.08 -59.77,106.43 -57.76,104.42 -55.76,102.41 -55.01,102.10 -54.26,101.79 -53.44,101.73 -52.63,101.67 -51.84,101.88 -51.06,102.08 -50.38,102.53 -49.70,102.98 -49.19,103.62 -48.69,104.26 -48.42,105.02 -48.15,105.79 -48.13,106.60 -48.12,107.42 -48.37,108.19 -48.61,108.97 -49.10,109.62 -49.58,110.28 -50.25,110.75 -50.91,111.21 -51.69,111.44 -52.47,111.67 -53.29,111.64 -54.10,111.61 -54.86,111.32 -55.62,111.03 -56.25,110.52 -56.88,110.00 -57.31,109.31 -57.74,108.62 -57.93,107.83 -58.11,107.03 -58.04,106.22 -57.96,105.41 -57.63,104.67 -57.30,103.93 -56.75,103.33 -56.20,102.73 -55.49,102.33 -54.78,101.94 -53.98,101.80 -53.18,101.65 -52.37,101.77 -51.57,101.89 -50.84,102.26 -50.11,102.63 -49.55,103.21 -48.98,103.79 -48.62,104.53 -48.27,105.26 -48.17,106.07 -48.07,106.88 -48.23,107.67 -48.39,108.47 -48.80,109.17 -49.21,109.88 -49.82,110.42 -50.44,110.95 -50.43,110.95 -50.43,110.95 -51.56,112.27 -52.68,113.58 -54.04,115.50 -55.41,117.42 -55.74,120.46 -56.07,123.50 -55.25,126.54 -54.43,129.59 -52.82,133.53 -51.21,137.47 -48.67,141.11 -46.12,144.76 -42.37,147.92 -38.62,151.07 -34.25,153.51 -29.89,155.95 -27.66,156.31 -25.44,156.66 -23.04,156.47 -20.63,156.28 -18.05,155.52 -15.47,154.75 -13.63,153.55 -11.79,152.35 -9.53,151.05 -7.27,149.75 -5.55,148.16 -3.84,146.57 -2.70,144.77 -1.55,142.97 0.06,139.96 1.68,136.96 2.83,134.29 3.97,131.62 5.21,128.16 6.45,124.70 7.87,120.37 9.29,116.03 10.04,112.82 10.80,109.61 11.26,106.18 11.72,102.74 11.42,98.44 11.12,94.13 10.61,90.30 10.10,86.46 9.41,81.86 8.72,77.25 7.88,73.27 7.05,69.30 6.49,65.61 5.92,61.92 5.24,58.22 4.55,54.52 3.76,51.26 2.98,48.00 2.39,44.87 1.80,41.73 0.79,37.90 -0.20,34.06 -1.11,30.42 -2.02,26.78 -2.67,21.74 -3.32,16.71 -3.61,11.62 -3.89,6.54 -4.13,3.45 -4.37,0.36 -4.35,-0.16 -4.33,-0.69 -4.18,-1.20 -4.04,-1.71 -3.78,-2.16 -3.51,-2.62 -3.15,-3.01 -2.78,-3.39 -2.33,-3.67 -1.89,-3.96 -1.39,-4.13 -0.88,-4.29 -0.36,-4.34 0.16,-4.38 0.68,-4.30 1.21,-4.22 1.69,-4.01 2.18,-3.80 2.60,-3.49 3.03,-3.17 3.36,-2.76 3.70,-2.35 3.93,-1.87 4.16,-1.40 4.26,-0.88 4.37,-0.36 4.37,-0.36 L 4.37,-0.36 Z"></path></g><g transform="translate(109.27354607613051 292.20528029127695) rotate(0 -38.03631591796881 115.63037109375011)" stroke="none"><path fill="#FFFFFF" d="M 3.12,0 Q 3.12,0 3.05,6.12 2.98,12.24 2.93,17.91 2.88,23.57 3.28,29.37 3.68,35.18 4.28,42.49 4.87,49.79 5.55,55.93 6.23,62.07 6.52,67.84 6.81,73.61 6.93,79.56 7.05,85.52 7.10,90.24 7.14,94.95 7.16,103.52 7.18,112.09 7.19,119.23 7.19,126.37 7.19,132.47 7.19,138.56 6.75,146.04 6.31,153.52 5.68,158.51 5.05,163.49 3.90,170.86 2.76,178.22 1.83,183.14 0.90,188.05 -0.87,192.54 -2.64,197.04 -4.25,201.05 -5.86,205.06 -8.93,208.84 -12.00,212.63 -15.51,215.96 -19.03,219.29 -24.17,222.56 -29.32,225.83 -33.74,228.10 -38.17,230.36 -43.95,230.99 -49.74,231.61 -55.08,230.45 -60.42,229.29 -66.08,224.62 -71.74,219.94 -75.10,214.10 -78.45,208.25 -77.70,199.19 -76.94,190.13 -74.25,183.52 -71.55,176.92 -67.05,172.95 -62.54,168.98 -57.75,167.26 -52.97,165.55 -49.18,164.75 -45.39,163.94 -41.89,163.36 -38.38,162.79 -37.86,162.82 -37.34,162.84 -36.85,163.03 -36.37,163.23 -35.97,163.56 -35.57,163.90 -35.30,164.35 -35.02,164.80 -34.91,165.31 -34.80,165.82 -34.85,166.34 -34.91,166.86 -35.12,167.33 -35.34,167.81 -35.70,168.19 -36.06,168.57 -36.52,168.82 -36.98,169.06 -37.50,169.15 -38.02,169.24 -38.53,169.15 -39.05,169.07 -39.51,168.83 -39.97,168.58 -40.34,168.20 -40.70,167.82 -40.92,167.35 -41.14,166.88 -41.20,166.36 -41.25,165.84 -41.14,165.33 -41.03,164.81 -40.76,164.36 -40.50,163.92 -40.10,163.58 -39.70,163.24 -39.21,163.04 -38.73,162.85 -38.21,162.82 -37.68,162.79 -37.18,162.93 -36.67,163.06 -36.24,163.36 -35.81,163.65 -35.49,164.06 -35.17,164.48 -35.00,164.98 -34.83,165.47 -34.83,165.99 -34.83,166.52 -35.00,167.01 -35.16,167.51 -35.48,167.93 -35.79,168.34 -36.23,168.64 -36.66,168.93 -37.16,169.08 -37.67,169.22 -37.67,169.22 -37.67,169.22 -41.03,169.41 -44.40,169.60 -47.84,170.06 -51.29,170.53 -55.28,171.79 -59.27,173.06 -63.07,176.11 -66.86,179.15 -69.30,184.95 -71.73,190.74 -72.75,198.49 -73.77,206.24 -71.01,211.14 -68.25,216.03 -63.63,220.17 -59.01,224.30 -54.58,225.34 -50.15,226.39 -45.29,226.02 -40.43,225.65 -36.27,223.51 -32.12,221.38 -27.37,218.42 -22.62,215.46 -19.33,212.36 -16.03,209.26 -13.37,206.15 -10.70,203.04 -9.11,199.06 -7.52,195.08 -5.89,191.07 -4.26,187.05 -3.35,182.23 -2.43,177.42 -1.30,170.12 -0.17,162.83 0.44,158.02 1.05,153.21 1.48,145.89 1.91,138.57 1.91,132.47 1.90,126.38 1.88,119.24 1.87,112.11 1.84,103.56 1.81,95.01 1.75,90.33 1.69,85.64 1.56,79.76 1.42,73.89 1.12,68.29 0.81,62.68 0.09,56.47 -0.63,50.26 -1.28,42.93 -1.93,35.59 -2.41,29.58 -2.88,23.57 -2.93,17.91 -2.98,12.24 -3.05,6.12 -3.12,0 -3.07,-0.37 -3.03,-0.74 -2.90,-1.09 -2.76,-1.45 -2.55,-1.76 -2.33,-2.07 -2.05,-2.32 -1.77,-2.57 -1.44,-2.74 -1.10,-2.92 -0.74,-3.01 -0.37,-3.10 0.00,-3.10 0.37,-3.10 0.74,-3.01 1.10,-2.92 1.44,-2.74 1.77,-2.57 2.05,-2.32 2.33,-2.07 2.55,-1.76 2.76,-1.45 2.90,-1.09 3.03,-0.74 3.07,-0.37 3.12,0.00 3.12,0.00 L 3.12,0 Z"></path></g><g transform="translate(117.28335239123453 499.5651125705423) rotate(0 -45.64349365234381 112.58740234375006)" stroke="none"><path fill="#FFFFFF" d="M 3.12,0 Q 3.12,0 3.05,4.37 2.98,8.74 2.93,13.23 2.88,17.71 2.41,23.66 1.93,29.61 1.28,36.48 0.63,43.36 -0.09,49.37 -0.81,55.38 -1.56,64.00 -2.30,72.62 -2.62,79.31 -2.94,86.00 -3.08,93.20 -3.22,100.41 -3.28,108.72 -3.34,117.03 -2.93,125.30 -2.53,133.58 -2.35,141.98 -2.18,150.38 -2.11,157.01 -2.03,163.64 -2.89,170.13 -3.74,176.63 -4.51,180.72 -5.28,184.80 -6.53,189.63 -7.77,194.46 -9.67,198.87 -11.58,203.29 -14.25,207.06 -16.92,210.84 -19.33,213.50 -21.74,216.17 -25.58,219.03 -29.41,221.89 -33.94,223.66 -38.47,225.42 -42.70,226.21 -46.93,226.99 -52.96,226.38 -58.99,225.76 -65.79,222.28 -72.58,218.80 -77.31,214.52 -82.05,210.24 -85.55,202.38 -89.04,194.52 -89.62,184.80 -90.19,175.08 -88.60,167.71 -87.01,160.34 -83.56,154.78 -80.11,149.22 -77.70,146.25 -75.30,143.28 -70.86,141.74 -66.41,140.20 -65.88,140.15 -65.34,140.11 -64.81,140.23 -64.29,140.36 -63.83,140.65 -63.37,140.95 -63.03,141.37 -62.69,141.79 -62.51,142.29 -62.32,142.80 -62.30,143.34 -62.29,143.88 -62.44,144.40 -62.60,144.92 -62.92,145.36 -63.23,145.80 -63.67,146.12 -64.11,146.43 -64.63,146.59 -65.14,146.75 -65.68,146.74 -66.22,146.73 -66.73,146.54 -67.24,146.35 -67.66,146.02 -68.09,145.68 -68.38,145.22 -68.67,144.77 -68.80,144.24 -68.93,143.72 -68.89,143.18 -68.85,142.64 -68.64,142.14 -68.42,141.64 -68.06,141.24 -67.70,140.84 -67.23,140.57 -66.76,140.30 -66.23,140.20 -65.70,140.10 -65.16,140.17 -64.63,140.24 -64.14,140.48 -63.65,140.72 -63.27,141.10 -62.89,141.48 -62.65,141.97 -62.41,142.45 -62.33,142.99 -62.26,143.52 -62.36,144.06 -62.46,144.59 -62.72,145.06 -62.99,145.53 -63.39,145.89 -63.79,146.25 -64.29,146.47 -64.79,146.68 -64.79,146.68 -64.79,146.68 -68.08,147.08 -71.37,147.48 -73.51,149.78 -75.64,152.07 -78.75,156.83 -81.86,161.59 -83.35,168.22 -84.85,174.86 -84.46,183.68 -84.07,192.50 -81.17,199.44 -78.27,206.38 -74.13,210.16 -69.98,213.94 -64.13,217.08 -58.27,220.22 -53.06,220.77 -47.85,221.32 -44.17,220.74 -40.48,220.15 -36.67,218.70 -32.85,217.25 -29.41,214.58 -25.97,211.92 -23.60,209.83 -21.24,207.74 -18.86,204.44 -16.48,201.14 -14.73,197.13 -12.98,193.12 -11.80,188.43 -10.61,183.74 -9.79,179.84 -8.97,175.93 -8.14,169.81 -7.31,163.69 -7.38,157.09 -7.46,150.49 -7.64,142.16 -7.81,133.84 -8.23,125.42 -8.65,116.99 -8.60,108.65 -8.55,100.31 -8.42,93.03 -8.30,85.75 -7.99,78.96 -7.68,72.16 -6.96,63.45 -6.23,54.74 -5.55,48.80 -4.87,42.86 -4.27,36.02 -3.68,29.18 -3.28,23.45 -2.88,17.71 -2.93,13.23 -2.98,8.74 -3.05,4.37 -3.12,0 -3.07,-0.37 -3.03,-0.74 -2.90,-1.09 -2.76,-1.45 -2.55,-1.76 -2.33,-2.07 -2.05,-2.32 -1.77,-2.57 -1.44,-2.74 -1.10,-2.92 -0.74,-3.01 -0.37,-3.10 0.00,-3.10 0.37,-3.10 0.74,-3.01 1.10,-2.92 1.44,-2.74 1.77,-2.57 2.05,-2.32 2.33,-2.07 2.55,-1.76 2.76,-1.45 2.90,-1.09 3.03,-0.74 3.07,-0.37 3.12,0.00 3.12,0.00 L 3.12,0 Z"></path></g><g transform="translate(123.36928989123453 781.4229006564798) rotate(0 0.00005000000000165983 0.00004999999998744897)" stroke="none"><path fill="#FFFFFF" d="M 3.14,-3.14 Q 3.14,-3.14 3.55,-2.55 3.97,-1.97 4.18,-1.28 4.40,-0.59 4.38,0.11 4.36,0.83 4.11,1.51 3.86,2.18 3.41,2.74 2.96,3.30 2.36,3.69 1.75,4.07 1.05,4.25 0.36,4.42 -0.35,4.36 -1.07,4.30 -1.73,4.02 -2.39,3.74 -2.92,3.26 -3.46,2.78 -3.81,2.15 -4.16,1.53 -4.30,0.82 -4.43,0.11 -4.34,-0.59 -4.24,-1.30 -3.92,-1.94 -3.60,-2.59 -3.09,-3.09 -2.59,-3.60 -1.94,-3.92 -1.30,-4.24 -0.59,-4.34 0.12,-4.43 0.82,-4.30 1.53,-4.16 2.15,-3.81 2.78,-3.46 3.26,-2.92 3.74,-2.39 4.02,-1.73 4.31,-1.07 4.36,-0.35 4.42,0.36 4.25,1.05 4.07,1.75 3.69,2.36 3.30,2.96 2.74,3.41 2.18,3.86 1.51,4.11 0.83,4.36 0.11,4.38 -0.60,4.40 -1.28,4.18 -1.97,3.97 -2.55,3.55 -3.14,3.13 -3.14,3.14 -3.14,3.14 -3.47,2.71 -3.80,2.29 -4.02,1.80 -4.24,1.32 -4.33,0.79 -4.43,0.26 -4.40,-0.26 -4.36,-0.80 -4.20,-1.31 -4.04,-1.82 -3.77,-2.28 -3.49,-2.73 -3.11,-3.11 -2.73,-3.49 -2.28,-3.77 -1.82,-4.05 -1.31,-4.20 -0.80,-4.36 -0.26,-4.40 0.26,-4.43 0.79,-4.33 1.32,-4.24 1.80,-4.02 2.29,-3.80 2.71,-3.47 3.14,-3.14 3.14,-3.14 L 3.14,-3.14 Z"></path></g><g transform="translate(120.32632114123453 869.667102316636) rotate(0 0.00005000000000165983 0.00004999999998744897)" stroke="none"><path fill="#FFFFFF" d="M 3.14,-3.14 Q 3.14,-3.14 3.55,-2.55 3.97,-1.97 4.18,-1.28 4.40,-0.59 4.38,0.11 4.36,0.83 4.11,1.51 3.86,2.18 3.41,2.74 2.96,3.30 2.36,3.69 1.75,4.07 1.05,4.25 0.36,4.42 -0.35,4.36 -1.07,4.30 -1.73,4.02 -2.39,3.74 -2.92,3.26 -3.46,2.78 -3.81,2.15 -4.16,1.53 -4.30,0.82 -4.43,0.11 -4.34,-0.59 -4.24,-1.30 -3.92,-1.94 -3.60,-2.59 -3.09,-3.09 -2.59,-3.60 -1.94,-3.92 -1.30,-4.24 -0.59,-4.34 0.12,-4.43 0.82,-4.30 1.53,-4.16 2.15,-3.81 2.78,-3.46 3.26,-2.92 3.74,-2.39 4.02,-1.73 4.31,-1.07 4.36,-0.35 4.42,0.36 4.25,1.05 4.07,1.75 3.69,2.36 3.30,2.96 2.74,3.41 2.18,3.86 1.51,4.11 0.83,4.36 0.11,4.38 -0.60,4.40 -1.28,4.18 -1.97,3.97 -2.55,3.55 -3.14,3.13 -3.14,3.14 -3.14,3.14 -3.47,2.71 -3.80,2.29 -4.02,1.80 -4.24,1.32 -4.33,0.79 -4.43,0.26 -4.40,-0.26 -4.36,-0.80 -4.20,-1.31 -4.04,-1.82 -3.77,-2.28 -3.49,-2.73 -3.11,-3.11 -2.73,-3.49 -2.28,-3.77 -1.82,-4.05 -1.31,-4.20 -0.80,-4.36 -0.26,-4.40 0.26,-4.43 0.79,-4.33 1.32,-4.24 1.80,-4.02 2.29,-3.80 2.71,-3.47 3.14,-3.14 3.14,-3.14 L 3.14,-3.14 Z"></path></g><g transform="translate(132.49795200060953 915.310657004136) rotate(0 0 0.760711669921875)" stroke="none"><path fill="#FFFFFF" d="M 4.62,0.87 Q 4.62,0.87 4.50,1.61 4.38,2.35 4.03,3.01 3.68,3.67 3.13,4.18 2.59,4.70 1.91,5.01 1.23,5.33 0.49,5.41 -0.25,5.49 -0.98,5.33 -1.71,5.17 -2.35,4.78 -2.99,4.40 -3.47,3.82 -3.96,3.25 -4.24,2.56 -4.51,1.86 -4.55,1.12 -4.59,0.37 -4.39,-0.34 -4.19,-1.06 -3.77,-1.68 -3.35,-2.30 -2.76,-2.75 -2.16,-3.21 -1.45,-3.45 -0.74,-3.68 0.00,-3.68 0.74,-3.68 1.45,-3.45 2.16,-3.21 2.76,-2.75 3.35,-2.30 3.77,-1.68 4.19,-1.06 4.39,-0.34 4.59,0.37 4.55,1.12 4.51,1.87 4.24,2.56 3.96,3.26 3.47,3.83 2.99,4.40 2.35,4.78 1.71,5.17 0.98,5.33 0.24,5.49 -0.49,5.41 -1.23,5.33 -1.91,5.01 -2.59,4.70 -3.14,4.18 -3.68,3.67 -4.03,3.01 -4.38,2.35 -4.50,1.61 -4.62,0.87 -4.62,0.87 -4.62,0.87 -4.66,0.30 -4.70,-0.25 -4.60,-0.81 -4.50,-1.37 -4.27,-1.89 -4.04,-2.41 -3.69,-2.86 -3.34,-3.30 -2.90,-3.66 -2.45,-4.01 -1.94,-4.25 -1.42,-4.48 -0.86,-4.59 -0.31,-4.69 0.25,-4.66 0.82,-4.63 1.36,-4.46 1.90,-4.30 2.39,-4.01 2.88,-3.72 3.28,-3.32 3.68,-2.92 3.98,-2.43 4.28,-1.95 4.45,-1.41 4.62,-0.87 4.62,0.00 L 4.62,0.87 Z"></path></g><g transform="translate(137.06228305529703 957.911242941636) rotate(0 0.00005000000000165983 0.00004999999998744897)" stroke="none"><path fill="#FFFFFF" d="M 3.14,-3.14 Q 3.14,-3.14 3.55,-2.55 3.97,-1.97 4.18,-1.28 4.40,-0.59 4.38,0.11 4.36,0.83 4.11,1.51 3.86,2.18 3.41,2.74 2.96,3.30 2.36,3.69 1.75,4.07 1.05,4.25 0.36,4.42 -0.35,4.36 -1.07,4.30 -1.73,4.02 -2.39,3.74 -2.92,3.26 -3.46,2.78 -3.81,2.15 -4.16,1.53 -4.30,0.82 -4.43,0.11 -4.34,-0.59 -4.24,-1.30 -3.92,-1.94 -3.60,-2.59 -3.09,-3.09 -2.59,-3.60 -1.94,-3.92 -1.30,-4.24 -0.59,-4.34 0.12,-4.43 0.82,-4.30 1.53,-4.16 2.15,-3.81 2.78,-3.46 3.26,-2.92 3.74,-2.39 4.02,-1.73 4.31,-1.07 4.36,-0.35 4.42,0.36 4.25,1.05 4.07,1.75 3.69,2.36 3.30,2.96 2.74,3.41 2.18,3.86 1.51,4.11 0.83,4.36 0.11,4.38 -0.60,4.40 -1.28,4.18 -1.97,3.97 -2.55,3.55 -3.14,3.13 -3.14,3.14 -3.14,3.14 -3.47,2.71 -3.80,2.29 -4.02,1.80 -4.24,1.32 -4.33,0.79 -4.43,0.26 -4.40,-0.26 -4.36,-0.80 -4.20,-1.31 -4.04,-1.82 -3.77,-2.28 -3.49,-2.73 -3.11,-3.11 -2.73,-3.49 -2.28,-3.77 -1.82,-4.05 -1.31,-4.20 -0.80,-4.36 -0.26,-4.40 0.26,-4.43 0.79,-4.33 1.32,-4.24 1.80,-4.02 2.29,-3.80 2.71,-3.47 3.14,-3.14 3.14,-3.14 L 3.14,-3.14 Z"></path></g><g transform="translate(141.62673618029703 1049.198352316636) rotate(0 -17.4967041015625 125.51977539062506)" stroke="none"><path fill="#FFFFFF" d="M 2.99,-0.88 Q 2.99,-0.88 5.11,6.57 7.24,14.02 9.00,20.73 10.77,27.43 13.23,35.47 15.70,43.51 17.63,50.49 19.56,57.46 21.24,63.48 22.93,69.49 24.10,76.11 25.28,82.73 26.62,88.49 27.97,94.24 29.00,101.64 30.04,109.05 30.90,115.21 31.77,121.37 32.57,127.94 33.38,134.52 34.16,140.81 34.93,147.09 35.27,155.12 35.61,163.14 35.75,167.84 35.89,172.53 36.06,176.29 36.23,180.04 36.23,185.58 36.22,191.12 36.21,196.10 36.20,201.08 35.74,206.37 35.29,211.67 33.73,217.19 32.17,222.71 28.78,228.74 25.38,234.76 21.16,239.21 16.94,243.66 11.83,246.56 6.71,249.46 -2.36,250.29 -11.43,251.13 -19.08,251.42 -26.72,251.72 -35.43,250.51 -44.14,249.31 -50.40,246.82 -56.66,244.32 -60.96,236.28 -65.26,228.24 -65.65,220.96 -66.05,213.68 -63.40,208.49 -60.76,203.30 -58.29,200.50 -55.81,197.70 -53.64,195.97 -51.46,194.24 -50.99,194.01 -50.51,193.78 -49.99,193.72 -49.47,193.65 -48.95,193.76 -48.44,193.86 -47.98,194.12 -47.53,194.39 -47.18,194.78 -46.83,195.18 -46.63,195.66 -46.43,196.15 -46.39,196.67 -46.35,197.20 -46.48,197.71 -46.62,198.22 -46.91,198.66 -47.19,199.10 -47.61,199.42 -48.02,199.75 -48.52,199.92 -49.01,200.10 -49.54,200.11 -50.06,200.12 -50.57,199.96 -51.07,199.80 -51.49,199.49 -51.91,199.17 -52.22,198.74 -52.52,198.31 -52.67,197.81 -52.82,197.30 -52.80,196.78 -52.78,196.25 -52.59,195.76 -52.40,195.27 -52.07,194.86 -51.74,194.46 -51.29,194.18 -50.84,193.90 -50.33,193.78 -49.82,193.66 -49.30,193.70 -48.77,193.75 -48.29,193.97 -47.81,194.18 -47.42,194.54 -47.03,194.89 -46.78,195.35 -46.53,195.81 -46.43,196.33 -46.34,196.85 -46.42,197.37 -46.49,197.89 -46.73,198.36 -46.97,198.83 -47.35,199.19 -47.72,199.56 -47.72,199.56 -47.72,199.56 -49.67,200.73 -51.61,201.89 -53.89,203.88 -56.17,205.86 -58.53,209.85 -60.88,213.85 -60.70,219.96 -60.51,226.07 -57.27,233.07 -54.02,240.07 -48.70,242.08 -43.38,244.10 -35.15,245.27 -26.91,246.44 -19.38,246.15 -11.86,245.86 -3.76,245.31 4.33,244.77 8.74,242.35 13.16,239.94 16.96,236.02 20.76,232.09 23.89,226.65 27.01,221.20 28.45,216.20 29.88,211.20 30.29,206.14 30.70,201.09 30.67,196.12 30.64,191.15 30.58,185.64 30.53,180.13 30.58,176.41 30.63,172.69 30.48,168.03 30.34,163.36 30.02,155.55 29.69,147.74 28.91,141.45 28.12,135.17 27.32,128.64 26.51,122.11 25.63,115.95 24.76,109.79 23.75,102.63 22.75,95.46 21.36,89.57 19.97,83.68 18.82,77.33 17.68,70.97 15.96,64.96 14.24,58.96 12.28,52.07 10.32,45.18 7.75,37.06 5.19,28.94 3.35,22.33 1.50,15.71 -0.74,8.29 -2.99,0.88 -3.05,0.51 -3.12,0.13 -3.09,-0.23 -3.06,-0.61 -2.94,-0.97 -2.82,-1.32 -2.62,-1.64 -2.42,-1.96 -2.15,-2.22 -1.88,-2.49 -1.56,-2.67 -1.23,-2.86 -0.87,-2.97 -0.51,-3.08 -0.13,-3.09 0.23,-3.11 0.60,-3.04 0.97,-2.96 1.31,-2.80 1.65,-2.64 1.95,-2.41 2.24,-2.17 2.47,-1.87 2.69,-1.57 2.84,-1.22 2.99,-0.88 2.99,-0.88 L 2.99,-0.88 Z"></path></g><g transform="translate(180.25871743959715 1302.0399605375173) rotate(0 -32.33083089192701 111.57313028971362)" stroke="none"><path fill="#FFFFFF" d="M 3.10,0.77 Q 3.10,0.77 1.93,5.13 0.76,9.48 0.04,12.82 -0.66,16.16 -1.06,20.22 -1.46,24.28 -1.67,29.68 -1.88,35.08 -1.63,39.83 -1.37,44.58 -0.57,49.04 0.22,53.50 1.27,57.56 2.31,61.62 3.15,66.03 3.98,70.44 5.39,75.83 6.80,81.23 8.13,85.70 9.45,90.18 10.74,94.27 12.02,98.35 13.32,103.45 14.62,108.55 15.88,113.22 17.15,117.89 18.43,123.20 19.70,128.51 20.30,132.71 20.90,136.90 21.13,141.66 21.36,146.41 21.10,150.73 20.84,155.04 20.35,160.48 19.86,165.93 18.90,170.23 17.93,174.54 15.99,179.07 14.06,183.61 11.73,187.15 9.41,190.69 8.33,192.89 7.24,195.09 4.74,198.07 2.25,201.04 -1.43,204.74 -5.12,208.44 -7.77,210.91 -10.43,213.38 -15.56,215.96 -20.69,218.54 -25.36,220.63 -30.02,222.73 -34.86,223.69 -39.69,224.65 -44.32,225.02 -48.94,225.39 -56.11,225.17 -63.28,224.94 -68.06,223.68 -72.83,222.41 -76.40,219.81 -79.98,217.20 -81.98,211.23 -83.98,205.25 -84.70,196.85 -85.42,188.45 -84.97,178.27 -84.51,168.08 -83.93,161.17 -83.34,154.25 -79.61,147.88 -75.88,141.51 -71.95,138.47 -68.02,135.43 -67.57,135.22 -67.11,135.01 -66.60,134.95 -66.10,134.90 -65.61,135.01 -65.11,135.12 -64.68,135.38 -64.25,135.65 -63.92,136.03 -63.60,136.42 -63.41,136.89 -63.23,137.36 -63.20,137.86 -63.18,138.37 -63.32,138.85 -63.45,139.34 -63.74,139.76 -64.02,140.18 -64.43,140.48 -64.83,140.78 -65.31,140.94 -65.79,141.10 -66.29,141.10 -66.80,141.10 -67.28,140.94 -67.76,140.77 -68.16,140.46 -68.56,140.16 -68.84,139.74 -69.12,139.32 -69.26,138.83 -69.39,138.34 -69.36,137.84 -69.33,137.33 -69.14,136.87 -68.95,136.40 -68.62,136.01 -68.29,135.63 -67.86,135.37 -67.43,135.11 -66.93,135.01 -66.44,134.90 -65.94,134.96 -65.43,135.01 -64.98,135.23 -64.52,135.44 -64.15,135.79 -63.79,136.14 -63.55,136.59 -63.32,137.03 -63.24,137.53 -63.16,138.03 -63.24,138.53 -63.33,139.03 -63.56,139.47 -63.80,139.92 -64.17,140.27 -64.54,140.61 -64.54,140.61 -64.54,140.61 -67.99,142.53 -71.43,144.44 -74.73,149.69 -78.03,154.94 -78.54,161.63 -79.05,168.32 -79.47,178.15 -79.88,187.99 -79.22,195.81 -78.55,203.63 -77.29,208.38 -76.03,213.13 -73.65,215.17 -71.27,217.21 -67.18,218.31 -63.09,219.40 -56.26,219.58 -49.43,219.75 -45.13,219.36 -40.83,218.96 -36.68,218.11 -32.52,217.26 -28.05,215.09 -23.57,212.93 -19.19,210.63 -14.82,208.34 -12.25,206.19 -9.69,204.05 -6.25,200.33 -2.81,196.61 -0.54,194.13 1.72,191.65 3.27,189.60 4.82,187.55 7.00,184.52 9.17,181.48 10.94,177.41 12.71,173.34 13.61,169.40 14.51,165.45 14.97,160.07 15.44,154.69 15.71,150.68 15.99,146.67 15.76,142.14 15.53,137.61 15.05,133.68 14.57,129.75 13.30,124.51 12.04,119.28 10.76,114.57 9.48,109.87 8.21,104.91 6.95,99.96 5.63,95.84 4.32,91.71 2.95,87.16 1.59,82.60 0.11,77.03 -1.36,71.47 -2.18,67.24 -3.01,63.02 -4.15,58.77 -5.29,54.53 -6.20,49.73 -7.11,44.94 -7.46,39.93 -7.81,34.92 -7.72,29.35 -7.63,23.78 -7.32,19.18 -7.02,14.59 -6.07,11.30 -5.13,8.01 -4.11,3.61 -3.10,-0.77 -2.96,-1.13 -2.82,-1.49 -2.60,-1.81 -2.38,-2.12 -2.09,-2.38 -1.80,-2.63 -1.46,-2.81 -1.12,-2.99 -0.74,-3.08 -0.37,-3.17 0.01,-3.17 0.39,-3.17 0.76,-3.07 1.14,-2.98 1.48,-2.80 1.82,-2.62 2.11,-2.36 2.39,-2.11 2.61,-1.79 2.83,-1.47 2.97,-1.11 3.10,-0.75 3.15,-0.37 3.19,0.01 3.14,0.39 3.10,0.77 3.10,0.77 L 3.10,0.77 Z"></path></g></svg>