<svg version="1.1" xmlns="http://www.w3.org/2000/svg" viewBox="0 0 239.20001220703125 395.2468960517013" width="239.20001220703125" height="395.2468960517013" class="excalidraw-svg">
  <!-- svg-source:excalidraw -->
  
  <defs>
    <style class="style-fonts">
      
    </style>
    
  </defs>
  <g stroke-linecap="round"><g transform="translate(134.79998779296875 126.04688384467005) rotate(0 -3.552713678800501e-15 36.40000915527344)"><path d="M0 0 C0 16.42, 0 32.84, 0 72.8 M0 0 C0 19.23, 0 38.47, 0 72.8" stroke="#E1E1E1" stroke-width="2" fill="none"></path></g></g><mask></mask><g stroke-linecap="round"><g transform="translate(95.5999755859375 126.04688384467005) rotate(0 0 36.40000915527344)"><path d="M0 0 C0 15.73, 0 31.47, 0 72.8 M0 0 C0 25.38, 0 50.76, 0 72.8" stroke="#E1E1E1" stroke-width="2" fill="none"></path></g></g><mask></mask><g stroke-linecap="round" transform="translate(10 65.2468960517013) rotate(0 109.60000610351562 160)"><path d="M219.2 160 C219.2 164.4, 219.07 168.82, 218.83 173.21 C218.58 177.6, 218.2 181.99, 217.71 186.34 C217.21 190.68, 216.59 195.01, 215.85 199.28 C215.11 203.55, 214.24 207.79, 213.26 211.95 C212.28 216.12, 211.18 220.24, 209.97 224.27 C208.76 228.3, 207.43 232.28, 205.99 236.15 C204.55 240.02, 203 243.82, 201.35 247.51 C199.7 251.2, 197.94 254.8, 196.09 258.27 C194.24 261.75, 192.28 265.12, 190.24 268.37 C188.19 271.61, 186.05 274.73, 183.83 277.72 C181.61 280.7, 179.3 283.56, 176.92 286.26 C174.54 288.97, 172.07 291.54, 169.55 293.95 C167.02 296.36, 164.42 298.62, 161.76 300.72 C159.11 302.81, 156.39 304.75, 153.63 306.52 C150.86 308.29, 148.04 309.9, 145.19 311.33 C142.33 312.76, 139.43 314.02, 136.51 315.1 C133.58 316.19, 130.62 317.09, 127.64 317.82 C124.66 318.54, 121.66 319.09, 118.65 319.45 C115.64 319.82, 112.62 320, 109.6 320 C106.58 320, 103.56 319.82, 100.55 319.45 C97.54 319.09, 94.54 318.54, 91.56 317.82 C88.58 317.09, 85.62 316.19, 82.69 315.1 C79.77 314.02, 76.87 312.76, 74.01 311.33 C71.16 309.9, 68.34 308.29, 65.57 306.52 C62.81 304.75, 60.09 302.81, 57.44 300.72 C54.78 298.62, 52.18 296.36, 49.65 293.95 C47.13 291.54, 44.66 288.97, 42.28 286.26 C39.9 283.56, 37.59 280.7, 35.37 277.72 C33.15 274.73, 31.01 271.61, 28.96 268.37 C26.92 265.12, 24.96 261.75, 23.11 258.27 C21.26 254.8, 19.5 251.2, 17.85 247.51 C16.2 243.82, 14.65 240.02, 13.21 236.15 C11.77 232.28, 10.44 228.3, 9.23 224.27 C8.02 220.24, 6.92 216.12, 5.94 211.95 C4.96 207.79, 4.09 203.55, 3.35 199.28 C2.61 195.01, 1.99 190.68, 1.49 186.34 C1 181.99, 0.62 177.6, 0.37 173.21 C0.13 168.82, 0 164.4, 0 160 C0 155.6, 0.13 151.18, 0.37 146.79 C0.62 142.4, 1 138.01, 1.49 133.66 C1.99 129.32, 2.61 124.99, 3.35 120.72 C4.09 116.45, 4.96 112.21, 5.94 108.05 C6.92 103.88, 8.02 99.76, 9.23 95.73 C10.44 91.7, 11.77 87.72, 13.21 83.85 C14.65 79.98, 16.2 76.18, 17.85 72.49 C19.5 68.8, 21.26 65.2, 23.11 61.73 C24.96 58.25, 26.92 54.88, 28.96 51.63 C31.01 48.39, 33.15 45.27, 35.37 42.28 C37.59 39.3, 39.9 36.44, 42.28 33.74 C44.66 31.03, 47.13 28.46, 49.65 26.05 C52.18 23.64, 54.78 21.38, 57.44 19.28 C60.09 17.19, 62.81 15.25, 65.57 13.48 C68.34 11.71, 71.16 10.1, 74.01 8.67 C76.87 7.24, 79.77 5.98, 82.69 4.9 C85.62 3.81, 88.58 2.91, 91.56 2.18 C94.54 1.46, 97.54 0.91, 100.55 0.55 C103.56 0.18, 106.58 0, 109.6 0 C112.62 0, 115.64 0.18, 118.65 0.55 C121.66 0.91, 124.66 1.46, 127.64 2.18 C130.62 2.91, 133.58 3.81, 136.51 4.9 C139.43 5.98, 142.33 7.24, 145.19 8.67 C148.04 10.1, 150.86 11.71, 153.63 13.48 C156.39 15.25, 159.11 17.19, 161.76 19.28 C164.42 21.38, 167.02 23.64, 169.55 26.05 C172.07 28.46, 174.54 31.03, 176.92 33.74 C179.3 36.44, 181.61 39.3, 183.83 42.28 C186.05 45.27, 188.19 48.39, 190.24 51.63 C192.28 54.88, 194.24 58.25, 196.09 61.73 C197.94 65.2, 199.7 68.8, 201.35 72.49 C203 76.18, 204.55 79.98, 205.99 83.85 C207.43 87.72, 208.76 91.7, 209.97 95.73 C211.18 99.76, 212.28 103.88, 213.26 108.05 C214.24 112.21, 215.11 116.45, 215.85 120.72 C216.59 124.99, 217.21 129.32, 217.71 133.66 C218.2 138.01, 218.58 142.4, 218.83 146.79 C219.07 151.18, 219.2 155.6, 219.2 160" stroke="#E1E1E1" stroke-width="2" fill="none"></path></g><g stroke-linecap="round"><g transform="translate(123.5999755859375 228.44687774115442) rotate(0 -17 17)"><path d="M0 0 C-7.82 7.82, -15.64 15.64, -34 34 M0 0 C-12.39 12.39, -24.78 24.78, -34 34" stroke="#E1E1E1" stroke-width="2" fill="none"></path></g></g><mask></mask><g stroke-linecap="round"><g transform="translate(89.47679572739263 262.37858588246667) rotate(0 18.049745517379677 10.421025433263395)"><path d="M0 0 C12.58 7.26, 25.16 14.52, 36.1 20.84 M0 0 C10.17 5.87, 20.34 11.74, 36.1 20.84" stroke="#E1E1E1" stroke-width="2" fill="none"></path></g></g><mask></mask><g stroke-linecap="round"><g transform="translate(71.58583427349873 321.2255185304762) rotate(0 49.44749169500664 13.096062344755175)"><path d="M0 0 C8.08 8.08, 16.16 16.16, 26.19 26.19 M0 0 C9.81 9.81, 19.61 19.61, 26.19 26.19 M26.19 26.19 C36.29 26.19, 46.38 26.19, 63.89 26.19 M26.19 26.19 C41.02 26.19, 55.85 26.19, 63.89 26.19 M63.89 26.19 C72.46 21.25, 81.03 16.3, 98.89 5.98 M63.89 26.19 C77.72 18.21, 91.55 10.23, 98.89 5.98" stroke="#E1E1E1" stroke-width="2" fill="none"></path></g></g><mask></mask><g stroke-linecap="round"><g transform="translate(75.1574339668764 32.18610853108953) rotate(0 19.935060834363323 16.507964220183723)"><path d="M0 0 C6.04 1.62, 12.07 3.23, 24.62 6.6 M0 0 C5.04 1.35, 10.09 2.7, 24.62 6.6 M24.62 6.6 C29.45 14.96, 34.28 23.33, 39.87 33.02 M24.62 6.6 C30.12 16.13, 35.63 25.67, 39.87 33.02" stroke="#E1E1E1" stroke-width="2" fill="none"></path></g></g><mask></mask><g stroke-linecap="round"><g transform="translate(116.82673287932528 64.33099020809254) rotate(0 6.977382174538963 -27.165495104046272)"><path d="M0 0 C0 -9.97, 0 -19.94, 0 -30.16 M0 0 C0 -10.96, 0 -21.92, 0 -30.16 M0 -30.16 C2.93 -35.23, 5.85 -40.3, 13.95 -54.33 M0 -30.16 C4.81 -38.49, 9.62 -46.83, 13.95 -54.33" stroke="#E1E1E1" stroke-width="2" fill="none"></path></g></g><mask></mask><g stroke-linecap="round"><g transform="translate(118.41414079811426 64.72783461846785) rotate(0 22.59112786240782 -14.647757230090505)"><path d="M0 0 C4.48 -7.76, 8.96 -15.52, 11.74 -20.33 M0 0 C3.06 -5.3, 6.12 -10.6, 11.74 -20.33 M11.74 -20.33 C24.48 -23.75, 37.23 -27.16, 45.18 -29.3 M11.74 -20.33 C24.28 -23.69, 36.81 -27.05, 45.18 -29.3" stroke="#E1E1E1" stroke-width="2" fill="none"></path></g></g><mask></mask></svg>