<svg version="1.1" xmlns="http://www.w3.org/2000/svg" viewBox="0 0 2740.000000000004 3770.0000000000064" width="2740.000000000004" height="3770.0000000000064" class="excalidraw-svg">
  <!-- svg-source:excalidraw -->
  
  <defs>
    <style class="style-fonts">
      
    </style>
    
  </defs>
  <g transform="translate(1242.0407391026606 2337.2554425278927) rotate(0 6 -166)" stroke="none"><path fill="#FFFFFF" d="M -3.33,0.11 Q -3.33,0.11 -4.10,-25.18 -4.87,-50.49 -5.16,-65.86 -5.46,-81.23 -5.27,-103.04 -5.09,-124.84 -4.42,-152.23 -3.75,-179.61 -1.44,-206.28 0.86,-232.94 3.58,-254.92 6.30,-276.90 8.03,-291.39 9.77,-305.88 9.93,-313.32 10.09,-320.75 8.42,-324.41 6.75,-328.07 6.65,-328.56 6.55,-329.06 6.62,-329.56 6.69,-330.06 6.91,-330.51 7.14,-330.97 7.49,-331.32 7.85,-331.68 8.30,-331.91 8.76,-332.13 9.26,-332.20 9.76,-332.27 10.25,-332.17 10.75,-332.08 11.19,-331.83 11.63,-331.58 11.97,-331.21 12.31,-330.83 12.51,-330.37 12.71,-329.90 12.75,-329.40 12.79,-328.90 12.67,-328.41 12.55,-327.91 12.27,-327.49 12.00,-327.06 11.61,-326.75 11.21,-326.43 10.74,-326.25 10.27,-326.08 9.76,-326.07 9.26,-326.05 8.77,-326.20 8.29,-326.35 7.88,-326.64 7.47,-326.94 7.17,-327.35 6.88,-327.76 6.73,-328.24 6.58,-328.72 6.60,-329.23 6.61,-329.73 6.78,-330.21 6.96,-330.68 7.27,-331.08 7.59,-331.47 8.01,-331.74 8.44,-332.01 8.93,-332.14 9.42,-332.26 9.92,-332.22 10.43,-332.18 10.89,-331.98 11.36,-331.78 11.73,-331.44 12.11,-331.10 12.36,-330.66 12.61,-330.23 12.61,-330.23 12.61,-330.23 14.02,-325.50 15.43,-320.77 15.29,-313.01 15.14,-305.25 13.43,-290.74 11.72,-276.24 9.05,-254.35 6.39,-232.47 4.14,-205.97 1.89,-179.48 1.30,-152.14 0.70,-124.81 0.62,-103.09 0.54,-81.37 0.98,-66.04 1.42,-50.70 2.38,-25.41 3.33,-0.11 3.30,0.28 3.27,0.68 3.14,1.07 3.01,1.45 2.79,1.79 2.57,2.12 2.28,2.40 1.99,2.68 1.64,2.88 1.29,3.08 0.90,3.19 0.51,3.30 0.11,3.31 -0.28,3.32 -0.68,3.24 -1.07,3.16 -1.44,2.98 -1.80,2.81 -2.11,2.55 -2.42,2.29 -2.66,1.97 -2.90,1.65 -3.06,1.28 -3.21,0.90 -3.27,0.51 -3.34,0.11 -3.33,0.11 L -3.33,0.11 Z"></path></g><g transform="translate(1154.0407391026606 2325.2554425278927) rotate(0 -18.5 -156)" stroke="none"><path fill="#FFFFFF" d="M -3.09,0.41 Q -3.09,0.41 -3.60,-3.90 -4.11,-8.23 -4.31,-16.54 -4.52,-24.85 -5.16,-37.19 -5.80,-49.54 -8.07,-71.70 -10.34,-93.86 -12.74,-115.08 -15.13,-136.30 -17.87,-160.27 -20.61,-184.25 -24.06,-207.91 -27.52,-231.57 -29.85,-249.72 -32.18,-267.86 -33.75,-279.88 -35.31,-291.89 -36.25,-297.52 -37.19,-303.16 -38.34,-306.40 -39.48,-309.64 -39.54,-310.13 -39.59,-310.62 -39.49,-311.10 -39.39,-311.58 -39.14,-312.00 -38.89,-312.42 -38.52,-312.74 -38.15,-313.07 -37.69,-313.25 -37.24,-313.44 -36.75,-313.47 -36.26,-313.50 -35.78,-313.37 -35.31,-313.24 -34.90,-312.97 -34.49,-312.70 -34.19,-312.31 -33.89,-311.92 -33.73,-311.46 -33.57,-310.99 -33.56,-310.50 -33.56,-310.01 -33.71,-309.55 -33.87,-309.08 -34.16,-308.69 -34.45,-308.29 -34.86,-308.01 -35.26,-307.73 -35.73,-307.60 -36.21,-307.46 -36.70,-307.49 -37.19,-307.51 -37.64,-307.69 -38.10,-307.86 -38.48,-308.18 -38.86,-308.49 -39.11,-308.91 -39.37,-309.33 -39.48,-309.81 -39.59,-310.29 -39.54,-310.78 -39.49,-311.27 -39.29,-311.71 -39.09,-312.16 -38.75,-312.52 -38.42,-312.88 -37.99,-313.11 -37.55,-313.35 -37.07,-313.43 -36.59,-313.51 -36.10,-313.44 -35.61,-313.36 -35.18,-313.14 -34.74,-312.91 -34.40,-312.56 -34.06,-312.20 -33.85,-311.76 -33.64,-311.31 -33.64,-311.32 -33.64,-311.32 -32.81,-307.68 -31.97,-304.04 -31.01,-298.31 -30.04,-292.58 -28.47,-280.56 -26.90,-268.55 -24.56,-250.45 -22.21,-232.35 -18.73,-208.60 -15.25,-184.86 -12.48,-160.89 -9.71,-136.92 -7.28,-115.67 -4.84,-94.43 -2.51,-72.14 -0.18,-49.85 0.53,-37.44 1.24,-25.02 1.53,-17.02 1.81,-9.01 2.45,-4.71 3.09,-0.41 3.10,-0.03 3.10,0.34 3.01,0.70 2.93,1.07 2.76,1.40 2.59,1.74 2.34,2.02 2.09,2.31 1.79,2.53 1.48,2.74 1.13,2.88 0.78,3.02 0.40,3.07 0.03,3.12 -0.33,3.08 -0.71,3.04 -1.06,2.91 -1.41,2.78 -1.73,2.57 -2.04,2.36 -2.29,2.08 -2.55,1.80 -2.72,1.47 -2.90,1.14 -3.00,0.77 -3.09,0.41 -3.09,0.41 L -3.09,0.41 Z"></path></g><g transform="translate(1045.0000000000014 2695.000000000004) rotate(0 125.00000000000045 -130.00000000000023)" stroke="none"><path fill="#FFFFFF" d="M -3.12,0 Q -3.12,0 -3.05,-10.07 -2.98,-20.15 -0.00,-30.56 2.97,-40.97 7.15,-51.12 11.34,-61.27 18.97,-72.93 26.61,-84.59 37.02,-99.54 47.42,-114.49 60.52,-130.96 73.62,-147.43 90.81,-163.17 108.00,-178.92 125.50,-190.00 142.99,-201.07 157.55,-210.04 172.11,-219.01 185.58,-225.74 199.05,-232.48 210.37,-239.57 221.70,-246.66 227.93,-251.09 234.17,-255.53 238.49,-257.55 242.81,-259.57 244.45,-260.61 246.09,-261.66 246.58,-261.79 247.07,-261.93 247.58,-261.90 248.09,-261.87 248.56,-261.68 249.03,-261.50 249.42,-261.17 249.81,-260.84 250.07,-260.40 250.33,-259.96 250.44,-259.47 250.55,-258.97 250.50,-258.46 250.44,-257.96 250.23,-257.50 250.02,-257.03 249.67,-256.66 249.31,-256.29 248.87,-256.06 248.42,-255.82 247.91,-255.74 247.41,-255.65 246.91,-255.74 246.41,-255.82 245.96,-256.06 245.51,-256.29 245.16,-256.66 244.81,-257.03 244.59,-257.50 244.38,-257.96 244.32,-258.46 244.27,-258.97 244.38,-259.47 244.49,-259.96 244.75,-260.40 245.01,-260.84 245.40,-261.17 245.79,-261.50 246.26,-261.68 246.74,-261.87 247.24,-261.90 247.75,-261.93 248.24,-261.79 248.73,-261.65 249.15,-261.37 249.58,-261.08 249.88,-260.68 250.19,-260.27 250.35,-259.79 250.52,-259.31 250.52,-258.80 250.52,-258.29 250.35,-257.81 250.19,-257.32 249.88,-256.92 249.57,-256.51 249.15,-256.23 248.73,-255.94 248.73,-255.94 248.73,-255.94 246.88,-255.37 245.02,-254.79 241.12,-253.01 237.21,-251.22 230.85,-246.70 224.50,-242.18 212.96,-234.96 201.42,-227.75 188.15,-221.12 174.89,-214.49 160.36,-205.53 145.84,-196.57 128.72,-185.76 111.61,-174.96 94.72,-159.51 77.84,-144.06 64.87,-127.72 51.90,-111.37 41.57,-96.47 31.23,-81.57 23.89,-70.34 16.54,-59.12 12.53,-49.25 8.52,-39.37 5.75,-29.73 2.98,-20.09 3.05,-10.04 3.12,0 3.07,0.37 3.03,0.74 2.90,1.09 2.76,1.45 2.55,1.76 2.33,2.07 2.05,2.32 1.77,2.57 1.44,2.74 1.10,2.92 0.74,3.01 0.37,3.10 -0.00,3.10 -0.37,3.10 -0.74,3.01 -1.10,2.92 -1.44,2.74 -1.77,2.57 -2.05,2.32 -2.33,2.07 -2.55,1.76 -2.76,1.45 -2.90,1.09 -3.03,0.74 -3.07,0.37 -3.12,-0.00 -3.12,-0.00 L -3.12,0 Z"></path></g><g transform="translate(980.0000000000014 2700.000000000004) rotate(0 172.50000000000045 92.50000000000023)" stroke="none"><path fill="#FFFFFF" d="M 0,-3.12 Q 0,-3.12 7.18,-3.05 14.37,-2.98 28.93,-2.93 43.49,-2.88 65.75,1.48 88.02,5.86 109.00,12.06 129.98,18.27 149.20,29.66 168.42,41.05 188.17,58.93 207.92,76.81 226.35,95.91 244.77,115.01 258.40,131.81 272.02,148.61 281.99,158.48 291.96,168.35 298.85,172.39 305.75,176.44 311.32,178.12 316.89,179.80 320.15,179.11 323.41,178.42 325.94,175.59 328.46,172.75 332.88,169.81 337.30,166.86 338.95,165.47 340.59,164.07 341.06,163.86 341.53,163.65 342.05,163.60 342.56,163.55 343.07,163.67 343.57,163.78 344.01,164.06 344.45,164.33 344.78,164.73 345.12,165.12 345.30,165.61 345.49,166.09 345.51,166.61 345.53,167.12 345.39,167.62 345.24,168.12 344.95,168.54 344.65,168.97 344.24,169.28 343.82,169.58 343.33,169.74 342.84,169.90 342.32,169.90 341.80,169.89 341.32,169.72 340.83,169.55 340.42,169.23 340.01,168.92 339.72,168.48 339.44,168.05 339.31,167.55 339.17,167.05 339.21,166.54 339.24,166.02 339.44,165.54 339.63,165.06 339.97,164.67 340.31,164.28 340.76,164.02 341.21,163.76 341.71,163.65 342.22,163.55 342.73,163.61 343.25,163.67 343.71,163.89 344.18,164.11 344.55,164.47 344.92,164.83 345.16,165.29 345.40,165.75 345.48,166.27 345.56,166.78 345.47,167.29 345.38,167.80 345.13,168.25 344.88,168.71 344.50,169.06 344.12,169.41 344.12,169.41 344.12,169.41 342.20,170.38 340.27,171.35 336.29,173.97 332.31,176.58 328.60,180.07 324.90,183.55 320.25,184.21 315.61,184.87 309.35,182.94 303.08,181.01 295.67,176.58 288.25,172.14 278.07,162.06 267.89,151.97 254.40,135.35 240.91,118.73 222.60,99.77 204.29,80.81 184.96,63.27 165.62,45.72 147.00,34.64 128.37,23.55 107.65,17.47 86.93,11.38 65.20,7.13 43.47,2.88 28.92,2.93 14.37,2.98 7.18,3.05 0,3.12 -0.37,3.07 -0.74,3.03 -1.09,2.90 -1.45,2.76 -1.76,2.55 -2.07,2.33 -2.32,2.05 -2.57,1.77 -2.74,1.44 -2.92,1.10 -3.01,0.74 -3.10,0.37 -3.10,-0.00 -3.10,-0.37 -3.01,-0.74 -2.92,-1.10 -2.74,-1.44 -2.57,-1.77 -2.32,-2.05 -2.07,-2.33 -1.76,-2.55 -1.45,-2.76 -1.09,-2.90 -0.74,-3.03 -0.37,-3.07 0.00,-3.12 0.00,-3.12 L 0,-3.12 Z"></path></g><g transform="translate(1810.0000000000032 2960.0000000000045) rotate(0 -512.5000000000009 160.00000000000023)" stroke="none"><path fill="#FFFFFF" d="M 3.08,-0.51 Q 3.08,-0.51 4.45,8.12 5.82,16.75 6.39,21.93 6.96,27.11 7.19,36.60 7.43,46.09 6.06,60.32 4.70,74.55 -3.17,92.42 -11.05,110.28 -23.07,129.38 -35.10,148.47 -53.26,168.20 -71.43,187.93 -99.45,206.50 -127.47,225.07 -159.52,241.57 -191.58,258.07 -225.37,272.28 -259.16,286.49 -298.09,296.88 -337.03,307.27 -386.79,311.70 -436.54,316.13 -499.51,310.81 -562.47,305.49 -623.73,296.02 -684.98,286.56 -739.79,275.35 -794.60,264.13 -840.93,252.17 -887.26,240.20 -921.52,224.98 -955.78,209.76 -977.76,190.17 -999.74,170.59 -1009.02,160.85 -1018.29,151.10 -1022.21,146.99 -1026.12,142.88 -1026.36,142.53 -1026.60,142.18 -1026.71,141.77 -1026.82,141.36 -1026.80,140.94 -1026.78,140.51 -1026.62,140.12 -1026.47,139.72 -1026.19,139.40 -1025.92,139.07 -1025.55,138.85 -1025.19,138.63 -1024.78,138.54 -1024.36,138.45 -1023.94,138.49 -1023.52,138.54 -1023.13,138.72 -1022.74,138.89 -1022.43,139.18 -1022.13,139.48 -1021.93,139.85 -1021.73,140.23 -1021.66,140.65 -1021.59,141.07 -1021.65,141.48 -1021.72,141.90 -1021.92,142.28 -1022.12,142.66 -1022.43,142.95 -1022.73,143.24 -1023.12,143.42 -1023.50,143.60 -1023.93,143.65 -1024.35,143.69 -1024.77,143.60 -1025.18,143.51 -1025.55,143.30 -1025.91,143.08 -1026.19,142.75 -1026.46,142.43 -1026.62,142.04 -1026.78,141.64 -1026.80,141.22 -1026.83,140.79 -1026.71,140.38 -1026.60,139.97 -1026.36,139.62 -1026.12,139.27 -1025.79,139.01 -1025.45,138.75 -1025.05,138.62 -1024.64,138.48 -1024.22,138.48 -1023.79,138.48 -1023.39,138.61 -1022.99,138.75 -1022.65,139.00 -1022.31,139.26 -1022.31,139.26 -1022.31,139.26 -1018.40,143.37 -1014.49,147.48 -1005.36,157.08 -996.23,166.67 -974.90,185.84 -953.58,205.00 -919.76,220.06 -885.94,235.11 -839.74,247.05 -793.54,258.98 -738.86,270.17 -684.18,281.36 -623.10,290.80 -562.03,300.24 -499.51,305.56 -437.00,310.87 -387.69,306.52 -338.37,302.16 -299.79,291.88 -261.21,281.61 -227.61,267.48 -194.01,253.34 -162.21,236.98 -130.40,220.62 -102.87,202.45 -75.34,184.28 -57.50,164.93 -39.65,145.58 -27.84,126.82 -16.03,108.06 -8.40,91.00 -0.77,73.94 0.51,60.09 1.79,46.24 1.51,37.02 1.22,27.79 0.57,22.76 -0.07,17.74 -1.57,9.12 -3.08,0.51 -3.09,0.13 -3.11,-0.23 -3.04,-0.60 -2.96,-0.97 -2.80,-1.31 -2.64,-1.65 -2.41,-1.95 -2.17,-2.24 -1.87,-2.47 -1.57,-2.69 -1.22,-2.84 -0.88,-2.99 -0.50,-3.05 -0.13,-3.12 0.23,-3.09 0.61,-3.06 0.97,-2.94 1.32,-2.82 1.64,-2.62 1.96,-2.42 2.22,-2.15 2.49,-1.88 2.67,-1.56 2.86,-1.23 2.97,-0.87 3.08,-0.51 3.08,-0.51 L 3.08,-0.51 Z"></path></g><g transform="translate(745.0000000000014 1100.0000000000016) rotate(0 687.5000000000009 1135.000000000002)" stroke="none"><path fill="#FFFFFF" d="M 2.67,1.60 Q 2.67,1.60 -1.70,8.77 -6.08,15.93 -9.62,19.25 -13.17,22.57 -20.11,33.64 -27.05,44.70 -38.68,66.67 -50.31,88.65 -66.80,118.18 -83.29,147.70 -106.12,186.14 -128.96,224.58 -154.44,272.47 -179.93,320.37 -202.20,379.40 -224.48,438.43 -246.90,505.23 -269.32,572.03 -293.24,640.70 -317.15,709.37 -344.60,773.14 -372.05,836.90 -400.96,899.93 -429.88,962.96 -450.74,1021.25 -471.61,1079.55 -484.76,1141.57 -497.91,1203.60 -504.94,1267.28 -511.96,1330.96 -517.83,1391.12 -523.70,1451.29 -529.07,1507.05 -534.44,1562.81 -535.28,1616.59 -536.12,1670.37 -529.30,1726.16 -522.48,1781.94 -508.10,1842.96 -493.73,1903.98 -476.13,1960.07 -458.54,2016.16 -439.58,2064.38 -420.62,2112.61 -395.38,2157.42 -370.14,2202.22 -339.35,2242.75 -308.56,2283.28 -268.21,2326.34 -227.86,2369.39 -183.44,2409.22 -139.03,2449.05 -90.07,2481.70 -41.12,2514.36 11.23,2541.15 63.59,2567.94 121.64,2586.46 179.69,2604.99 250.29,2618.61 320.90,2632.23 395.41,2639.45 469.92,2646.68 549.00,2649.75 628.08,2652.82 703.38,2654.13 778.68,2655.44 853.68,2648.81 928.68,2642.18 999.26,2626.45 1069.84,2610.72 1141.40,2582.53 1212.96,2554.33 1282.08,2513.66 1351.20,2472.99 1419.29,2415.54 1487.38,2358.10 1553.62,2280.59 1619.86,2203.09 1679.57,2105.56 1739.29,2008.04 1791.95,1884.75 1844.61,1761.47 1879.92,1647.31 1915.22,1533.16 1934.53,1444.45 1953.84,1355.74 1959.16,1249.21 1964.47,1142.68 1942.33,1025.75 1920.18,908.81 1873.46,790.22 1826.73,671.63 1748.03,550.92 1669.33,430.22 1564.11,322.96 1458.90,215.70 1320.89,124.20 1182.88,32.70 1049.54,-30.60 916.21,-93.90 736.01,-152.41 555.80,-210.92 401.61,-250.16 247.41,-289.40 110.05,-314.70 -27.29,-339.99 -147.43,-353.61 -267.57,-367.23 -351.64,-371.58 -435.72,-375.93 -485.73,-373.47 -535.74,-371.01 -557.05,-369.96 -578.36,-368.92 -578.79,-368.97 -579.21,-369.01 -579.59,-369.19 -579.98,-369.37 -580.28,-369.67 -580.59,-369.96 -580.79,-370.34 -580.99,-370.72 -581.05,-371.14 -581.12,-371.55 -581.05,-371.97 -580.98,-372.39 -580.78,-372.77 -580.58,-373.14 -580.27,-373.43 -579.96,-373.72 -579.57,-373.90 -579.18,-374.08 -578.76,-374.12 -578.34,-374.16 -577.92,-374.07 -577.51,-373.98 -577.14,-373.76 -576.78,-373.53 -576.51,-373.21 -576.23,-372.88 -576.08,-372.49 -575.92,-372.09 -575.90,-371.67 -575.88,-371.24 -576.00,-370.83 -576.11,-370.43 -576.35,-370.08 -576.60,-369.72 -576.93,-369.47 -577.27,-369.21 -577.68,-369.08 -578.08,-368.95 -578.51,-368.95 -578.93,-368.95 -579.33,-369.09 -579.74,-369.23 -580.07,-369.49 -580.41,-369.75 -580.65,-370.10 -580.88,-370.45 -580.99,-370.86 -581.11,-371.27 -581.08,-371.70 -581.05,-372.12 -580.90,-372.51 -580.74,-372.91 -580.46,-373.23 -580.18,-373.55 -579.82,-373.77 -579.45,-373.99 -579.04,-374.08 -578.62,-374.16 -578.62,-374.16 -578.62,-374.16 -557.31,-375.21 -536.00,-376.26 -485.73,-378.72 -435.45,-381.18 -351.21,-376.81 -266.97,-372.45 -146.66,-358.80 -26.34,-345.16 111.18,-319.83 248.71,-294.49 403.07,-255.20 557.43,-215.91 737.94,-157.28 918.46,-98.65 1052.12,-35.16 1185.77,28.32 1324.20,120.16 1462.63,212.00 1568.17,319.67 1673.71,427.33 1752.66,548.51 1831.61,669.68 1878.48,788.75 1925.34,907.81 1947.53,1025.36 1969.72,1142.91 1964.35,1249.88 1958.98,1356.85 1939.61,1445.78 1920.24,1534.71 1884.84,1649.12 1849.44,1763.53 1796.61,1887.15 1743.78,2010.78 1683.82,2108.64 1623.85,2206.49 1557.31,2284.30 1490.77,2362.11 1422.32,2419.81 1353.88,2477.51 1284.38,2518.36 1214.89,2559.21 1142.94,2587.53 1070.99,2615.85 1000.07,2631.63 929.15,2647.41 853.87,2654.05 778.59,2660.69 703.24,2659.38 627.88,2658.07 548.65,2654.99 469.41,2651.90 394.66,2644.64 319.90,2637.39 249.00,2623.69 178.09,2609.99 119.65,2591.31 61.21,2572.62 8.58,2545.68 -44.03,2518.73 -93.28,2485.85 -142.53,2452.96 -187.11,2412.97 -231.69,2372.99 -272.22,2329.72 -312.74,2286.46 -343.73,2245.63 -374.71,2204.81 -400.11,2159.67 -425.51,2114.54 -444.53,2066.14 -463.55,2017.73 -481.20,1961.46 -498.84,1905.19 -513.27,1843.89 -527.70,1782.58 -534.54,1726.44 -541.37,1670.30 -540.52,1616.30 -539.67,1562.31 -534.30,1506.54 -528.93,1450.78 -523.06,1390.58 -517.19,1330.38 -510.13,1266.45 -503.06,1202.51 -489.81,1140.14 -476.57,1077.78 -455.62,1019.27 -434.67,960.76 -405.79,897.79 -376.90,834.82 -349.53,771.22 -322.15,707.63 -298.25,638.98 -274.35,570.34 -251.91,503.45 -229.46,436.55 -207.06,377.20 -184.66,317.85 -159.13,269.84 -133.60,221.83 -110.83,183.44 -88.05,145.05 -71.63,115.56 -55.20,86.07 -43.52,63.88 -31.83,41.70 -24.49,30.04 -17.15,18.39 -14.16,15.60 -11.16,12.81 -6.92,5.60 -2.67,-1.60 -2.44,-1.90 -2.21,-2.20 -1.92,-2.43 -1.62,-2.66 -1.28,-2.82 -0.93,-2.97 -0.56,-3.04 -0.19,-3.11 0.17,-3.09 0.55,-3.07 0.91,-2.96 1.27,-2.85 1.59,-2.65 1.91,-2.46 2.18,-2.20 2.45,-1.93 2.64,-1.61 2.84,-1.29 2.95,-0.93 3.07,-0.57 3.09,-0.19 3.11,0.17 3.05,0.54 2.98,0.91 2.83,1.26 2.67,1.60 2.67,1.60 L 2.67,1.60 Z"></path></g><g transform="translate(1075.0000000000014 1000.0000000000016) rotate(0 645.0000000000014 -265.00000000000045)" stroke="none"><path fill="#FFFFFF" d="M -3.12,0 Q -3.12,0 -3.05,-7.18 -2.98,-14.37 -1.49,-37.66 0.00,-60.95 16.55,-102.85 33.11,-144.75 71.94,-194.33 110.76,-243.91 171.98,-292.37 233.19,-340.82 321.19,-381.61 409.19,-422.39 512.80,-451.22 616.42,-480.05 719.47,-495.18 822.52,-510.31 918.14,-513.86 1013.76,-517.41 1086.16,-510.28 1158.57,-503.14 1196.84,-485.63 1235.11,-468.12 1251.37,-457.76 1267.62,-447.40 1274.46,-443.03 1281.30,-438.67 1281.62,-438.38 1281.93,-438.10 1282.14,-437.73 1282.35,-437.36 1282.44,-436.94 1282.52,-436.52 1282.46,-436.10 1282.40,-435.68 1282.21,-435.29 1282.02,-434.91 1281.72,-434.61 1281.42,-434.31 1281.04,-434.12 1280.66,-433.93 1280.24,-433.87 1279.81,-433.81 1279.39,-433.89 1278.98,-433.97 1278.60,-434.18 1278.23,-434.39 1277.95,-434.71 1277.66,-435.03 1277.49,-435.42 1277.33,-435.81 1277.29,-436.23 1277.26,-436.66 1277.36,-437.07 1277.46,-437.49 1277.69,-437.85 1277.92,-438.21 1278.25,-438.47 1278.58,-438.74 1278.98,-438.89 1279.38,-439.03 1279.81,-439.05 1280.24,-439.06 1280.64,-438.93 1281.05,-438.81 1281.40,-438.56 1281.74,-438.31 1281.99,-437.97 1282.24,-437.62 1282.37,-437.21 1282.49,-436.80 1282.48,-436.38 1282.47,-435.95 1282.32,-435.55 1282.18,-435.15 1281.91,-434.82 1281.64,-434.49 1281.28,-434.26 1280.92,-434.03 1280.51,-433.92 1280.10,-433.82 1279.67,-433.86 1279.25,-433.89 1278.86,-434.06 1278.46,-434.23 1278.47,-434.23 1278.47,-434.23 1271.62,-438.59 1264.78,-442.95 1248.84,-453.14 1232.90,-463.32 1195.43,-480.61 1157.95,-497.90 1085.95,-505.00 1013.95,-512.11 918.62,-508.57 823.29,-505.03 720.57,-489.96 617.85,-474.89 514.65,-446.19 411.44,-417.48 323.99,-377.01 236.54,-336.53 175.82,-288.50 115.09,-240.47 76.71,-191.54 38.32,-142.62 22.03,-101.56 5.74,-60.51 4.36,-37.44 2.98,-14.37 3.05,-7.18 3.12,0 3.07,0.37 3.03,0.74 2.90,1.09 2.76,1.45 2.55,1.76 2.33,2.07 2.05,2.32 1.77,2.57 1.44,2.74 1.10,2.92 0.74,3.01 0.37,3.10 -0.00,3.10 -0.37,3.10 -0.74,3.01 -1.10,2.92 -1.44,2.74 -1.77,2.57 -2.05,2.32 -2.33,2.07 -2.55,1.76 -2.76,1.45 -2.90,1.09 -3.03,0.74 -3.07,0.37 -3.12,-0.00 -3.12,-0.00 L -3.12,0 Z"></path></g><g transform="translate(1160.0000000000023 1020.0000000000016) rotate(0 -575.0000000000011 -452.5000000000008)" stroke="none"><path fill="#FFFFFF" d="M -2.86,1.43 Q -2.86,1.43 -4.40,-1.37 -5.94,-4.17 -11.95,-10.83 -17.95,-17.49 -38.96,-30.30 -59.97,-43.12 -109.25,-71.69 -158.53,-100.26 -231.35,-152.75 -304.17,-205.25 -382.60,-275.06 -461.04,-344.87 -543.28,-430.65 -625.51,-516.43 -702.11,-597.42 -778.72,-678.42 -842.82,-737.21 -906.92,-796.00 -959.80,-826.59 -1012.68,-857.18 -1047.65,-861.49 -1082.62,-865.80 -1101.45,-857.72 -1120.27,-849.63 -1128.52,-846.16 -1136.77,-842.69 -1137.19,-842.59 -1137.61,-842.49 -1138.03,-842.53 -1138.46,-842.57 -1138.85,-842.74 -1139.24,-842.91 -1139.56,-843.20 -1139.87,-843.49 -1140.08,-843.86 -1140.29,-844.24 -1140.37,-844.66 -1140.44,-845.08 -1140.38,-845.50 -1140.32,-845.92 -1140.13,-846.31 -1139.93,-846.69 -1139.63,-846.99 -1139.33,-847.29 -1138.94,-847.48 -1138.56,-847.66 -1138.13,-847.72 -1137.71,-847.77 -1137.29,-847.69 -1136.87,-847.60 -1136.50,-847.39 -1136.13,-847.18 -1135.84,-846.86 -1135.56,-846.54 -1135.39,-846.14 -1135.23,-845.75 -1135.20,-845.32 -1135.17,-844.89 -1135.27,-844.48 -1135.38,-844.06 -1135.61,-843.71 -1135.85,-843.35 -1136.18,-843.08 -1136.52,-842.82 -1136.92,-842.67 -1137.32,-842.53 -1137.75,-842.52 -1138.18,-842.51 -1138.59,-842.64 -1138.99,-842.77 -1139.34,-843.02 -1139.68,-843.27 -1139.93,-843.62 -1140.18,-843.97 -1140.30,-844.38 -1140.42,-844.79 -1140.41,-845.22 -1140.39,-845.65 -1140.24,-846.05 -1140.09,-846.45 -1139.82,-846.78 -1139.55,-847.11 -1139.19,-847.34 -1138.82,-847.57 -1138.83,-847.57 -1138.83,-847.57 -1130.58,-851.04 -1122.33,-854.52 -1102.33,-862.78 -1082.33,-871.03 -1046.24,-866.45 -1010.16,-861.86 -956.73,-830.92 -903.31,-799.99 -839.04,-741.07 -774.77,-682.15 -698.16,-601.19 -621.54,-520.23 -539.43,-434.64 -457.32,-349.05 -379.07,-279.47 -300.82,-209.89 -228.20,-157.62 -155.58,-105.36 -106.18,-76.86 -56.78,-48.36 -35.01,-35.13 -13.23,-21.89 -6.52,-14.61 0.19,-7.32 1.53,-4.37 2.86,-1.43 2.99,-1.06 3.12,-0.70 3.16,-0.32 3.20,0.06 3.14,0.44 3.09,0.82 2.94,1.18 2.80,1.54 2.57,1.85 2.35,2.16 2.05,2.41 1.76,2.66 1.42,2.84 1.07,3.01 0.69,3.09 0.32,3.18 -0.06,3.17 -0.44,3.16 -0.82,3.06 -1.19,2.97 -1.53,2.78 -1.87,2.59 -2.15,2.33 -2.43,2.07 -2.65,1.75 -2.86,1.43 -2.86,1.43 L -2.86,1.43 Z"></path></g><g transform="translate(1180.0000000000023 905.0000000000014) rotate(0 190 -447.5000000000007)" stroke="none"><path fill="#FFFFFF" d="M -3.06,0.58 Q -3.06,0.58 -8.75,-29.61 -14.43,-59.81 -21.12,-85.49 -27.80,-111.17 -39.25,-150.85 -50.71,-190.52 -69.91,-241.80 -89.11,-293.08 -111.67,-360.97 -134.23,-428.86 -151.03,-502.40 -167.83,-575.94 -161.99,-637.84 -156.16,-699.74 -121.76,-743.71 -87.36,-787.68 -20.66,-816.51 46.04,-845.34 120.45,-860.39 194.86,-875.45 272.53,-881.83 350.20,-888.22 413.50,-885.17 476.80,-882.13 503.63,-880.83 530.46,-879.54 530.88,-879.45 531.29,-879.36 531.66,-879.14 532.03,-878.93 532.30,-878.60 532.58,-878.28 532.74,-877.88 532.90,-877.49 532.93,-877.06 532.95,-876.64 532.84,-876.23 532.73,-875.82 532.49,-875.46 532.26,-875.11 531.92,-874.85 531.58,-874.59 531.18,-874.45 530.77,-874.31 530.35,-874.31 529.92,-874.31 529.52,-874.44 529.11,-874.57 528.77,-874.83 528.43,-875.08 528.19,-875.44 527.95,-875.79 527.83,-876.20 527.71,-876.61 527.74,-877.03 527.76,-877.46 527.91,-877.86 528.07,-878.25 528.34,-878.58 528.62,-878.91 528.98,-879.13 529.34,-879.35 529.76,-879.44 530.17,-879.54 530.60,-879.49 531.02,-879.45 531.41,-879.27 531.80,-879.10 532.11,-878.81 532.42,-878.51 532.62,-878.14 532.82,-877.76 532.90,-877.34 532.97,-876.92 532.90,-876.50 532.83,-876.08 532.64,-875.70 532.44,-875.33 532.13,-875.03 531.82,-874.74 531.44,-874.55 531.05,-874.37 530.63,-874.32 530.20,-874.28 530.20,-874.28 530.21,-874.28 503.37,-875.57 476.54,-876.86 413.58,-879.91 350.62,-882.95 273.26,-876.60 195.90,-870.26 122.01,-855.35 48.11,-840.45 -17.65,-812.32 -83.43,-784.19 -117.21,-741.49 -151.00,-698.78 -156.78,-637.92 -162.56,-577.06 -145.81,-503.82 -129.06,-430.58 -106.49,-362.80 -83.93,-295.02 -64.61,-243.56 -45.29,-192.09 -33.75,-152.36 -22.21,-112.64 -15.39,-86.78 -8.56,-60.93 -2.74,-30.75 3.06,-0.58 3.09,-0.20 3.11,0.16 3.05,0.53 2.98,0.90 2.83,1.25 2.68,1.59 2.45,1.89 2.22,2.19 1.92,2.42 1.63,2.66 1.29,2.81 0.95,2.97 0.58,3.04 0.21,3.11 -0.16,3.09 -0.54,3.07 -0.90,2.96 -1.26,2.85 -1.58,2.66 -1.90,2.47 -2.17,2.20 -2.44,1.94 -2.64,1.62 -2.84,1.30 -2.95,0.94 -3.06,0.58 -3.06,0.58 L -3.06,0.58 Z"></path></g></svg>