<svg version="1.1" xmlns="http://www.w3.org/2000/svg" viewBox="0 0 10020 771.6875" width="10020" height="771.6875">
  <!-- svg-source:excalidraw -->
  
  <defs>
    <style>
      @font-face {
        font-family: "Virgil";
        src: url("https://excalidraw.com/Virgil.woff2");
      }
      @font-face {
        font-family: "Cascadia";
        src: url("https://excalidraw.com/Cascadia.woff2");
      }
    </style>
  </defs>
  <rect x="0" y="0" width="10020" height="771.6875" fill="#fff0"></rect><g stroke-linecap="round" transform="translate(10 10) rotate(0 5000 0.5)"><path d="M-0.52 -0.26 C3022.65 -30.2, 6044.59 -29.2, 9999.32 0.22 M0.38 -0.31 C3948.03 -0.44, 7895.41 0.2, 9999.95 0.08 M10000.08 -0.06 C10000.09 0.27, 10000.05 0.48, 10000.09 0.92 M9999.97 0.01 C9999.95 0.33, 9999.98 0.72, 10000 0.99 M10000.22 1.51 C7095.77 35.76, 4193.15 34.95, -0.25 0.75 M10000.01 1.13 C7827.97 2.74, 5656.23 3.35, -0.33 0.84 M-0.04 1.01 C0 0.63, -0.06 0.15, 0.05 -0.03 M-0.04 0.95 C-0.04 0.73, -0.03 0.59, -0.05 -0.02" stroke="transparent" stroke-width="1" fill="none"></path></g><g transform="translate(937 542.6875) rotate(0 4 97)" stroke="none"><path fill="#d9480f" d="M 1.38,0 Q 1.38,0 2.07,1.43 2.76,2.87 2.78,4.92 2.80,6.97 2.81,9.27 2.82,11.58 2.82,13.71 2.82,15.84 2.83,18.19 2.83,20.53 2.83,22.39 2.83,24.25 2.83,26.19 2.84,28.13 2.84,30.39 2.85,32.65 2.85,35.63 2.85,38.60 2.85,41.01 2.85,43.43 2.85,45.32 2.85,47.20 2.85,49.16 2.86,51.11 2.86,53.38 2.87,55.64 2.88,58.91 2.89,62.17 2.90,65.00 2.90,67.82 2.91,70.75 2.91,73.67 2.91,76.06 2.92,78.46 2.92,81.20 2.93,83.94 2.94,86.83 2.94,89.72 2.94,93.25 2.95,96.78 2.95,100.58 2.95,104.38 2.95,108.29 2.95,112.21 2.95,115.88 2.95,119.56 2.95,122.56 2.95,125.56 2.95,128.56 2.95,131.56 2.95,135.71 2.95,139.86 3.24,146.16 3.52,152.45 3.92,157.11 4.33,161.77 4.51,165.26 4.69,168.76 4.76,171.69 4.83,174.63 4.87,177.32 4.90,180.01 4.90,183.46 4.91,186.91 4.91,189.21 4.91,191.52 6.19,192.55 7.47,193.58 7.67,193.65 7.87,193.72 8.04,193.84 8.21,193.97 8.33,194.15 8.45,194.32 8.51,194.52 8.57,194.73 8.56,194.94 8.55,195.15 8.48,195.35 8.40,195.55 8.26,195.71 8.13,195.88 7.95,195.99 7.76,196.10 7.56,196.15 7.35,196.19 7.14,196.17 6.93,196.15 6.73,196.06 6.54,195.98 6.38,195.83 6.23,195.69 6.13,195.50 6.03,195.31 5.99,195.11 5.95,194.90 5.99,194.69 6.02,194.48 6.12,194.29 6.21,194.10 6.37,193.95 6.52,193.80 6.71,193.71 6.90,193.62 7.11,193.60 7.33,193.57 7.53,193.61 7.74,193.66 7.92,193.77 8.11,193.87 8.25,194.03 8.39,194.20 8.47,194.39 8.55,194.59 8.56,194.80 8.57,195.01 8.52,195.22 8.46,195.42 8.35,195.60 8.23,195.78 8.06,195.91 7.89,196.04 7.69,196.11 7.49,196.18 7.28,196.18 7.07,196.18 7.07,196.18 7.07,196.18 4.84,196.48 2.61,196.77 1.37,195.78 0.13,194.79 -0.39,193.20 -0.93,191.60 -0.94,189.27 -0.95,186.93 -0.97,183.51 -0.99,180.08 -1.02,177.43 -1.05,174.78 -1.13,171.92 -1.20,169.06 -1.37,165.67 -1.54,162.28 -1.96,157.50 -2.37,152.72 -2.66,146.29 -2.95,139.86 -2.95,135.71 -2.95,131.56 -2.95,128.56 -2.95,125.56 -2.95,122.56 -2.95,119.56 -2.95,115.88 -2.95,112.21 -2.95,108.29 -2.95,104.38 -2.95,100.58 -2.95,96.78 -2.94,93.25 -2.94,89.72 -2.94,86.83 -2.93,83.94 -2.92,81.20 -2.92,78.46 -2.91,76.06 -2.91,73.67 -2.91,70.75 -2.90,67.82 -2.90,65.00 -2.89,62.17 -2.88,58.91 -2.87,55.64 -2.86,53.38 -2.86,51.11 -2.85,49.16 -2.85,47.20 -2.85,45.32 -2.85,43.43 -2.85,41.01 -2.85,38.60 -2.85,35.63 -2.85,32.65 -2.84,30.39 -2.84,28.13 -2.83,26.19 -2.83,24.25 -2.83,22.39 -2.83,20.53 -2.83,18.19 -2.82,15.84 -2.82,13.71 -2.82,11.58 -2.81,9.27 -2.80,6.97 -2.78,4.92 -2.76,2.87 -2.07,1.43 -1.38,0 -1.36,-0.16 -1.34,-0.33 -1.28,-0.48 -1.22,-0.64 -1.13,-0.78 -1.03,-0.92 -0.91,-1.03 -0.78,-1.14 -0.64,-1.21 -0.49,-1.29 -0.32,-1.33 -0.16,-1.37 0.00,-1.37 0.16,-1.37 0.32,-1.33 0.49,-1.29 0.64,-1.21 0.78,-1.14 0.91,-1.03 1.03,-0.92 1.13,-0.78 1.22,-0.64 1.28,-0.48 1.34,-0.33 1.36,-0.16 1.38,0.00 1.38,0.00 L 1.38,0 Z"></path></g><g transform="translate(836 656.6875) rotate(0 107 -10.5)" stroke="none"><path fill="#d9480f" d="M -0.41,-1.67 Q -0.41,-1.67 1.74,-2.78 3.91,-3.89 5.33,-4.45 6.74,-5.00 8.42,-5.78 10.11,-6.56 12.16,-7.26 14.21,-7.97 16.39,-8.82 18.57,-9.68 21.93,-10.69 25.30,-11.70 28.50,-12.43 31.70,-13.17 34.47,-13.77 37.24,-14.37 40.18,-14.91 43.12,-15.46 48.02,-15.72 52.91,-15.97 56.96,-16.07 61.00,-16.17 64.73,-16.22 68.47,-16.26 71.93,-15.99 75.38,-15.71 78.86,-15.31 82.33,-14.90 86.25,-14.74 90.16,-14.58 93.57,-14.50 96.98,-14.43 100.15,-14.41 103.31,-14.38 106.10,-14.36 108.88,-14.34 112.50,-14.05 116.12,-13.75 118.97,-13.63 121.82,-13.51 124.75,-13.45 127.67,-13.40 130.35,-13.38 133.03,-13.36 135.90,-13.35 138.76,-13.34 141.42,-13.34 144.07,-13.33 147.79,-13.33 151.50,-13.33 154.81,-13.33 158.11,-13.33 161.24,-13.33 164.37,-13.33 167.87,-13.62 171.37,-13.90 174.25,-14.30 177.14,-14.70 179.66,-14.89 182.18,-15.07 184.20,-15.42 186.23,-15.76 188.23,-16.19 190.23,-16.61 192.23,-17.08 194.23,-17.55 197.21,-18.06 200.18,-18.57 202.38,-18.80 204.58,-19.02 206.11,-19.11 207.63,-19.21 209.18,-19.25 210.72,-19.29 211.64,-19.30 212.55,-19.32 212.96,-19.28 213.36,-19.24 213.74,-19.11 214.12,-18.98 214.46,-18.75 214.80,-18.53 215.07,-18.24 215.35,-17.94 215.54,-17.59 215.74,-17.24 215.85,-16.85 215.95,-16.46 215.96,-16.06 215.97,-15.65 215.89,-15.26 215.80,-14.86 215.62,-14.50 215.44,-14.14 215.18,-13.83 214.92,-13.52 214.60,-13.28 214.27,-13.05 213.90,-12.89 213.52,-12.74 213.12,-12.68 212.72,-12.62 211.42,-13.91 210.11,-15.20 209.32,-17.31 208.53,-19.41 208.43,-19.60 208.34,-19.79 208.30,-20.00 208.27,-20.21 208.31,-20.42 208.35,-20.63 208.45,-20.82 208.55,-21.00 208.71,-21.15 208.86,-21.29 209.06,-21.38 209.25,-21.46 209.46,-21.48 209.68,-21.50 209.88,-21.46 210.09,-21.41 210.27,-21.29 210.45,-21.18 210.59,-21.02 210.72,-20.85 210.80,-20.66 210.87,-20.46 210.88,-20.25 210.89,-20.03 210.83,-19.83 210.77,-19.63 210.65,-19.45 210.53,-19.28 210.36,-19.15 210.18,-19.02 209.98,-18.96 209.78,-18.89 209.57,-18.90 209.36,-18.90 209.15,-18.97 208.95,-19.04 208.79,-19.17 208.62,-19.30 208.50,-19.48 208.39,-19.66 208.33,-19.87 208.28,-20.07 208.29,-20.28 208.31,-20.49 208.39,-20.69 208.47,-20.89 208.61,-21.05 208.75,-21.21 208.93,-21.31 209.12,-21.42 209.33,-21.46 209.53,-21.51 209.74,-21.48 209.96,-21.45 210.15,-21.36 210.34,-21.27 210.49,-21.12 210.64,-20.97 210.64,-20.97 210.64,-20.97 212.53,-19.44 214.43,-17.92 213.49,-18.62 212.55,-19.32 212.95,-19.28 213.36,-19.24 213.74,-19.11 214.12,-18.98 214.46,-18.76 214.79,-18.53 215.07,-18.24 215.35,-17.94 215.54,-17.59 215.74,-17.24 215.85,-16.85 215.95,-16.46 215.96,-16.06 215.97,-15.65 215.89,-15.26 215.80,-14.86 215.62,-14.50 215.44,-14.14 215.18,-13.83 214.92,-13.52 214.60,-13.28 214.27,-13.05 213.90,-12.89 213.52,-12.74 213.12,-12.68 212.72,-12.62 211.80,-12.61 210.89,-12.59 209.46,-12.56 208.04,-12.52 206.64,-12.44 205.25,-12.36 203.27,-12.16 201.30,-11.97 198.53,-11.50 195.75,-11.04 193.69,-10.55 191.62,-10.07 189.47,-9.62 187.32,-9.16 184.99,-8.78 182.66,-8.40 180.35,-8.24 178.04,-8.08 174.97,-7.66 171.89,-7.24 168.13,-6.95 164.37,-6.66 161.24,-6.66 158.11,-6.67 154.80,-6.67 151.50,-6.67 147.78,-6.67 144.06,-6.67 141.40,-6.67 138.74,-6.68 135.86,-6.69 132.98,-6.70 130.27,-6.72 127.55,-6.74 124.54,-6.80 121.54,-6.85 118.55,-6.98 115.56,-7.11 112.21,-7.40 108.85,-7.68 106.05,-7.69 103.25,-7.71 100.04,-7.74 96.84,-7.77 93.36,-7.85 89.88,-7.92 85.72,-8.10 81.56,-8.28 78.20,-8.68 74.84,-9.08 71.69,-9.34 68.54,-9.61 64.85,-9.57 61.16,-9.53 57.20,-9.44 53.23,-9.35 48.77,-9.15 44.31,-8.95 41.45,-8.43 38.59,-7.91 35.85,-7.35 33.10,-6.79 30.08,-6.17 27.06,-5.54 23.91,-4.68 20.76,-3.82 18.43,-2.99 16.11,-2.16 14.32,-1.61 12.53,-1.06 10.59,-0.24 8.66,0.57 6.97,1.08 5.28,1.59 2.85,1.63 0.41,1.67 0.21,1.70 0.00,1.72 -0.20,1.70 -0.40,1.67 -0.60,1.60 -0.79,1.53 -0.96,1.41 -1.14,1.29 -1.27,1.14 -1.41,0.98 -1.51,0.80 -1.61,0.61 -1.66,0.41 -1.71,0.21 -1.71,0.00 -1.71,-0.20 -1.66,-0.40 -1.61,-0.60 -1.51,-0.79 -1.42,-0.97 -1.28,-1.13 -1.14,-1.28 -0.97,-1.40 -0.80,-1.52 -0.61,-1.59 -0.41,-1.67 -0.41,-1.67 L -0.41,-1.67 Z"></path></g><g transform="translate(944 681.6875) rotate(0 -11.5 -1.5)" stroke="none"><path fill="#d9480f" d="M 0,1.50 Q 0,1.50 -1.43,2.12 -2.87,2.73 -4.34,2.75 -5.82,2.77 -7.02,2.77 -8.22,2.78 -9.61,2.77 -11.01,2.77 -12.29,2.42 -13.58,2.06 -15.34,1.74 -17.10,1.41 -18.26,0.88 -19.43,0.35 -20.77,-1.97 -22.12,-4.30 -21.90,-4.28 -21.69,-4.26 -21.50,-4.17 -21.31,-4.08 -21.15,-3.93 -21.00,-3.79 -20.90,-3.60 -20.80,-3.41 -20.77,-3.20 -20.73,-2.99 -20.77,-2.78 -20.80,-2.57 -20.90,-2.39 -21.00,-2.20 -21.15,-2.05 -21.31,-1.91 -21.50,-1.82 -21.69,-1.73 -21.90,-1.70 -22.12,-1.68 -22.32,-1.73 -22.53,-1.77 -22.71,-1.88 -22.90,-1.99 -23.03,-2.15 -23.17,-2.32 -23.25,-2.51 -23.33,-2.71 -23.34,-2.92 -23.35,-3.13 -23.29,-3.34 -23.24,-3.54 -23.12,-3.72 -23.00,-3.90 -22.83,-4.02 -22.66,-4.15 -22.46,-4.22 -22.26,-4.29 -22.04,-4.29 -21.83,-4.29 -21.63,-4.22 -21.43,-4.15 -21.26,-4.02 -21.09,-3.90 -20.97,-3.72 -20.85,-3.54 -20.80,-3.34 -20.74,-3.13 -20.75,-2.92 -20.76,-2.71 -20.84,-2.51 -20.92,-2.31 -21.06,-2.15 -21.19,-1.99 -21.38,-1.88 -21.56,-1.77 -21.77,-1.73 -21.97,-1.68 -21.97,-1.68 -21.97,-1.68 -20.25,-3.55 -18.53,-5.43 -17.55,-4.94 -16.57,-4.46 -15.04,-4.01 -13.52,-3.55 -12.22,-3.16 -10.92,-2.77 -9.57,-2.77 -8.22,-2.78 -7.02,-2.77 -5.82,-2.77 -4.34,-2.75 -2.87,-2.73 -1.43,-2.12 0,-1.50 0.18,-1.48 0.36,-1.46 0.53,-1.40 0.70,-1.33 0.85,-1.23 1.00,-1.12 1.12,-0.99 1.24,-0.85 1.32,-0.69 1.41,-0.53 1.45,-0.35 1.49,-0.18 1.49,0.00 1.49,0.18 1.45,0.35 1.41,0.53 1.32,0.69 1.24,0.85 1.12,0.99 1.00,1.12 0.85,1.23 0.70,1.33 0.53,1.40 0.36,1.46 0.18,1.48 -0.00,1.50 -0.00,1.50 L 0,1.50 Z"></path></g><g transform="translate(892 655.6875) rotate(0 -1 -13.5)" stroke="none"><path fill="#d9480f" d="M -1.50,0.18 Q -1.50,0.18 -2.34,-2.04 -3.17,-4.27 -3.31,-6.48 -3.44,-8.70 -3.49,-10.79 -3.55,-12.89 -3.84,-14.43 -4.13,-15.97 -4.27,-17.06 -4.41,-18.14 -4.50,-19.58 -4.59,-21.01 -4.60,-22.11 -4.62,-23.21 -2.65,-24.62 -0.68,-26.04 -0.72,-25.83 -0.75,-25.62 -0.85,-25.43 -0.95,-25.24 -1.11,-25.10 -1.26,-24.95 -1.45,-24.86 -1.65,-24.78 -1.86,-24.75 -2.07,-24.73 -2.28,-24.78 -2.48,-24.82 -2.67,-24.93 -2.85,-25.04 -2.98,-25.20 -3.12,-25.37 -3.20,-25.56 -3.28,-25.76 -3.29,-25.97 -3.30,-26.19 -3.24,-26.39 -3.19,-26.60 -3.07,-26.77 -2.95,-26.95 -2.78,-27.08 -2.61,-27.20 -2.41,-27.27 -2.20,-27.34 -1.99,-27.34 -1.78,-27.34 -1.58,-27.27 -1.38,-27.20 -1.21,-27.07 -1.04,-26.94 -0.92,-26.77 -0.80,-26.59 -0.75,-26.39 -0.69,-26.18 -0.70,-25.97 -0.71,-25.76 -0.79,-25.56 -0.87,-25.36 -1.01,-25.20 -1.15,-25.04 -1.33,-24.93 -1.51,-24.82 -1.72,-24.78 -1.93,-24.73 -2.14,-24.75 -2.35,-24.78 -2.54,-24.87 -2.73,-24.96 -2.89,-25.10 -3.04,-25.25 -3.14,-25.44 -3.24,-25.63 -3.27,-25.83 -3.31,-26.04 -3.31,-26.04 -3.31,-26.04 -1.33,-24.65 0.63,-23.25 0.67,-21.69 0.70,-20.13 0.87,-18.51 1.04,-16.89 1.37,-14.96 1.70,-13.03 1.75,-11.02 1.80,-9.00 1.91,-6.96 2.02,-4.92 1.76,-2.55 1.50,-0.18 1.50,-0.00 1.50,0.17 1.46,0.35 1.41,0.53 1.33,0.69 1.25,0.85 1.13,0.99 1.00,1.13 0.85,1.23 0.70,1.34 0.53,1.40 0.36,1.47 0.18,1.49 0.00,1.51 -0.17,1.49 -0.35,1.47 -0.52,1.40 -0.69,1.34 -0.85,1.24 -1.00,1.13 -1.12,1.00 -1.24,0.86 -1.33,0.70 -1.41,0.54 -1.46,0.36 -1.50,0.18 -1.50,0.18 L -1.50,0.18 Z"></path></g><g transform="translate(882 672.6875) rotate(0 -2.5 -0.5)" stroke="none"><path fill="#d9480f" d="M 0,1.45 Q 0,1.45 -1.48,2.00 -2.97,2.55 -2.26,0.50 -1.55,-1.54 -1.35,-1.48 -1.15,-1.41 -0.98,-1.29 -0.80,-1.16 -0.68,-0.99 -0.56,-0.82 -0.50,-0.61 -0.43,-0.41 -0.44,-0.20 -0.45,0.00 -0.52,0.20 -0.60,0.40 -0.73,0.57 -0.86,0.73 -1.04,0.85 -1.22,0.96 -1.43,1.01 -1.63,1.06 -1.85,1.04 -2.06,1.02 -2.25,0.94 -2.45,0.85 -2.61,0.71 -2.76,0.57 -2.87,0.38 -2.97,0.20 -3.01,-0.00 -3.05,-0.21 -3.02,-0.42 -2.99,-0.63 -2.89,-0.82 -2.80,-1.01 -2.65,-1.16 -2.50,-1.31 -2.31,-1.40 -2.12,-1.50 -1.91,-1.52 -1.70,-1.55 -1.49,-1.51 -1.28,-1.47 -1.09,-1.36 -0.91,-1.26 -0.77,-1.10 -0.63,-0.94 -0.54,-0.75 -0.46,-0.55 -0.44,-0.34 -0.43,-0.13 -0.48,0.07 -0.53,0.27 -0.65,0.45 -0.76,0.63 -0.93,0.76 -1.09,0.90 -1.29,0.97 -1.49,1.04 -1.71,1.05 -1.92,1.05 -1.92,1.05 -1.92,1.05 -2.34,-0.74 -2.77,-2.55 -1.38,-2.00 0,-1.45 0.17,-1.43 0.34,-1.41 0.51,-1.35 0.67,-1.29 0.82,-1.19 0.96,-1.09 1.08,-0.95 1.19,-0.82 1.28,-0.67 1.36,-0.51 1.40,-0.34 1.44,-0.17 1.44,0.00 1.44,0.17 1.40,0.34 1.36,0.51 1.28,0.67 1.19,0.82 1.08,0.95 0.96,1.09 0.82,1.19 0.67,1.29 0.51,1.35 0.34,1.41 0.17,1.43 -0.00,1.45 -0.00,1.45 L 0,1.45 Z"></path></g><g transform="translate(882 672.6875) rotate(0 0.00004999999998744897 0.00005000000000165983)" stroke="none"><path fill="#d9480f" d="M 2.12,-2.12 Q 2.12,-2.12 2.40,-1.73 2.69,-1.33 2.83,-0.87 2.97,-0.40 2.96,0.08 2.95,0.56 2.78,1.02 2.61,1.47 2.31,1.85 2.00,2.23 1.59,2.49 1.18,2.76 0.71,2.87 0.24,2.99 -0.24,2.95 -0.72,2.91 -1.17,2.72 -1.61,2.53 -1.98,2.20 -2.34,1.88 -2.58,1.45 -2.82,1.03 -2.91,0.55 -3.00,0.08 -2.93,-0.40 -2.87,-0.88 -2.65,-1.31 -2.44,-1.75 -2.09,-2.09 -1.75,-2.44 -1.31,-2.65 -0.88,-2.87 -0.39,-2.93 0.08,-3.00 0.55,-2.91 1.03,-2.82 1.46,-2.58 1.88,-2.34 2.20,-1.97 2.53,-1.61 2.72,-1.17 2.91,-0.72 2.95,-0.23 2.99,0.24 2.87,0.71 2.76,1.18 2.49,1.59 2.23,2.00 1.85,2.31 1.47,2.61 1.02,2.78 0.56,2.95 0.07,2.96 -0.40,2.97 -0.87,2.83 -1.33,2.69 -1.73,2.40 -2.12,2.12 -2.12,2.12 -2.12,2.12 -2.34,1.83 -2.57,1.55 -2.72,1.22 -2.86,0.89 -2.93,0.53 -2.99,0.18 -2.97,-0.18 -2.95,-0.54 -2.84,-0.88 -2.74,-1.23 -2.55,-1.54 -2.36,-1.85 -2.10,-2.10 -1.85,-2.36 -1.54,-2.55 -1.23,-2.74 -0.88,-2.84 -0.54,-2.95 -0.17,-2.97 0.18,-2.99 0.53,-2.93 0.89,-2.86 1.22,-2.72 1.55,-2.57 1.84,-2.34 2.12,-2.12 2.12,-2.12 L 2.12,-2.12 Z"></path></g><g transform="translate(882 672.6875) rotate(0 9.5 1.5)" stroke="none"><path fill="#d9480f" d="M -1.09,-1.40 Q -1.09,-1.40 1.43,-3.50 3.95,-5.59 5.12,-6.45 6.28,-7.31 7.73,-7.68 9.18,-8.05 10.32,-7.76 11.47,-7.47 12.43,-6.46 13.39,-5.45 13.91,-3.43 14.42,-1.41 14.13,-0.04 13.84,1.32 13.05,2.85 12.26,4.37 11.68,5.48 11.09,6.58 10.08,7.52 9.08,8.46 9.35,7.40 9.62,6.34 11.27,6.36 12.92,6.37 14.38,6.40 15.84,6.44 17.69,7.60 19.53,8.76 19.68,8.91 19.83,9.06 19.92,9.26 20.01,9.45 20.04,9.66 20.06,9.87 20.02,10.08 19.97,10.29 19.86,10.47 19.76,10.65 19.60,10.79 19.43,10.93 19.24,11.01 19.04,11.09 18.83,11.10 18.62,11.12 18.41,11.06 18.21,11.01 18.03,10.89 17.85,10.77 17.72,10.60 17.59,10.44 17.52,10.23 17.45,10.03 17.45,9.82 17.45,9.61 17.52,9.41 17.58,9.20 17.71,9.03 17.84,8.86 18.01,8.74 18.19,8.62 18.39,8.56 18.60,8.51 18.81,8.52 19.02,8.53 19.22,8.60 19.42,8.68 19.58,8.82 19.74,8.95 19.85,9.13 19.96,9.31 20.01,9.52 20.06,9.73 20.04,9.94 20.02,10.15 19.93,10.35 19.84,10.54 19.70,10.69 19.55,10.85 19.36,10.95 19.18,11.05 18.97,11.09 18.76,11.12 18.55,11.09 18.34,11.06 18.15,10.96 17.96,10.86 17.96,10.86 17.96,10.86 16.84,11.16 15.73,11.46 14.19,11.42 12.66,11.39 10.96,11.29 9.26,11.18 8.00,10.79 6.74,10.39 5.94,9.39 5.14,8.39 5.87,6.26 6.61,4.13 7.18,3.02 7.75,1.91 8.53,0.45 9.31,-0.99 8.89,-2.00 8.46,-3.00 7.42,-2.73 6.39,-2.45 3.74,-0.52 1.09,1.40 0.91,1.51 0.72,1.62 0.52,1.69 0.31,1.75 0.10,1.76 -0.11,1.77 -0.32,1.73 -0.53,1.70 -0.73,1.61 -0.92,1.52 -1.09,1.38 -1.26,1.25 -1.39,1.08 -1.52,0.91 -1.61,0.72 -1.70,0.52 -1.74,0.31 -1.77,0.10 -1.76,-0.11 -1.75,-0.32 -1.68,-0.53 -1.62,-0.73 -1.51,-0.92 -1.39,-1.10 -1.24,-1.25 -1.09,-1.40 -1.09,-1.40 L -1.09,-1.40 Z"></path></g><g transform="translate(960 679.6875) rotate(0 -3 0)" stroke="none"><path fill="#d9480f" d="M 0,1.83 Q 0,1.83 -1.43,2.04 -2.87,2.25 -2.43,0.47 -1.98,-1.31 -1.77,-1.27 -1.56,-1.24 -1.37,-1.14 -1.19,-1.04 -1.04,-0.89 -0.89,-0.73 -0.80,-0.54 -0.72,-0.35 -0.69,-0.14 -0.67,0.07 -0.71,0.27 -0.76,0.48 -0.87,0.66 -0.98,0.85 -1.14,0.98 -1.30,1.12 -1.50,1.20 -1.70,1.28 -1.91,1.29 -2.12,1.30 -2.33,1.24 -2.53,1.19 -2.71,1.07 -2.88,0.95 -3.01,0.78 -3.14,0.61 -3.21,0.41 -3.28,0.21 -3.28,-0.00 -3.28,-0.21 -3.21,-0.41 -3.14,-0.61 -3.01,-0.78 -2.88,-0.95 -2.71,-1.07 -2.53,-1.19 -2.33,-1.24 -2.12,-1.30 -1.91,-1.29 -1.70,-1.28 -1.50,-1.20 -1.30,-1.12 -1.14,-0.98 -0.98,-0.84 -0.87,-0.66 -0.76,-0.48 -0.71,-0.27 -0.67,-0.07 -0.69,0.14 -0.72,0.35 -0.80,0.54 -0.89,0.73 -1.04,0.89 -1.19,1.04 -1.37,1.14 -1.56,1.24 -1.77,1.27 -1.98,1.31 -1.98,1.31 -1.98,1.31 -2.43,-0.47 -2.87,-2.25 -1.43,-2.04 0,-1.83 0.21,-1.80 0.43,-1.78 0.64,-1.70 0.85,-1.62 1.03,-1.49 1.21,-1.37 1.36,-1.20 1.51,-1.04 1.61,-0.84 1.71,-0.65 1.76,-0.43 1.82,-0.22 1.82,0.00 1.82,0.22 1.76,0.43 1.71,0.65 1.61,0.84 1.51,1.04 1.36,1.20 1.21,1.37 1.03,1.50 0.85,1.62 0.64,1.70 0.43,1.78 0.21,1.80 -0.00,1.83 -0.00,1.83 L 0,1.83 Z"></path></g><g transform="translate(968 669.6875) rotate(0 6 10)" stroke="none"><path fill="#d9480f" d="M 0.73,-1.47 Q 0.73,-1.47 2.07,-1.27 3.41,-1.07 4.35,-0.47 5.28,0.12 6.65,2.08 8.02,4.04 8.18,5.19 8.34,6.34 8.40,7.41 8.45,8.49 8.14,9.85 7.82,11.22 7.03,12.76 6.23,14.30 5.14,14.09 4.05,13.88 5.14,14.47 6.22,15.05 7.68,15.59 9.13,16.13 10.70,17.39 12.27,18.64 12.43,18.78 12.60,18.91 12.72,19.09 12.83,19.26 12.88,19.47 12.94,19.68 12.92,19.89 12.90,20.10 12.82,20.30 12.74,20.49 12.60,20.65 12.46,20.81 12.27,20.92 12.09,21.02 11.88,21.06 11.67,21.10 11.46,21.08 11.25,21.05 11.06,20.95 10.87,20.86 10.72,20.71 10.57,20.56 10.47,20.37 10.38,20.18 10.35,19.97 10.32,19.76 10.35,19.55 10.39,19.34 10.50,19.16 10.60,18.97 10.76,18.83 10.92,18.69 11.11,18.60 11.30,18.52 11.52,18.50 11.73,18.48 11.93,18.53 12.14,18.58 12.32,18.69 12.50,18.81 12.63,18.97 12.77,19.14 12.84,19.34 12.92,19.54 12.92,19.75 12.93,19.96 12.87,20.16 12.81,20.37 12.69,20.54 12.56,20.71 12.39,20.84 12.22,20.96 12.02,21.03 11.81,21.09 11.60,21.09 11.39,21.08 11.19,21.01 10.99,20.94 10.99,20.94 10.99,20.94 9.50,21.09 8.02,21.24 6.72,20.90 5.43,20.57 4.44,20.03 3.45,19.49 1.98,18.14 0.50,16.80 1.15,14.35 1.79,11.90 2.60,10.28 3.40,8.66 3.37,6.84 3.34,5.01 2.26,4.19 1.18,3.37 0.22,2.42 -0.73,1.47 -0.90,1.36 -1.06,1.25 -1.20,1.11 -1.33,0.96 -1.43,0.78 -1.53,0.61 -1.58,0.42 -1.63,0.23 -1.63,0.03 -1.64,-0.16 -1.59,-0.36 -1.55,-0.55 -1.46,-0.73 -1.37,-0.91 -1.24,-1.06 -1.11,-1.21 -0.95,-1.32 -0.79,-1.44 -0.61,-1.52 -0.42,-1.59 -0.22,-1.62 -0.03,-1.65 0.16,-1.63 0.36,-1.60 0.55,-1.54 0.73,-1.47 0.73,-1.47 L 0.73,-1.47 Z"></path></g><g transform="translate(998 657.6875) rotate(0 0 -17.5)" stroke="none"><path fill="#d9480f" d="M -1.47,0.73 Q -1.47,0.73 -2.39,-0.31 -3.31,-1.36 -3.41,-3.50 -3.50,-5.64 -3.22,-7.92 -2.95,-10.20 -2.83,-11.88 -2.72,-13.57 -2.67,-14.85 -2.62,-16.14 -2.59,-17.53 -2.57,-18.93 -2.56,-20.39 -2.55,-21.85 -2.24,-23.57 -1.93,-25.29 -1.81,-26.74 -1.69,-28.20 -1.22,-29.82 -0.76,-31.44 -0.72,-32.62 -0.69,-33.80 1.30,-33.17 3.30,-32.55 3.27,-32.34 3.24,-32.13 3.14,-31.94 3.04,-31.75 2.89,-31.61 2.74,-31.46 2.55,-31.37 2.35,-31.28 2.14,-31.25 1.93,-31.22 1.72,-31.27 1.52,-31.31 1.33,-31.42 1.15,-31.53 1.01,-31.69 0.87,-31.85 0.79,-32.04 0.71,-32.24 0.70,-32.45 0.68,-32.66 0.74,-32.87 0.79,-33.08 0.91,-33.25 1.03,-33.43 1.19,-33.56 1.36,-33.69 1.56,-33.76 1.76,-33.83 1.97,-33.83 2.19,-33.84 2.39,-33.77 2.59,-33.70 2.76,-33.58 2.93,-33.45 3.05,-33.28 3.17,-33.10 3.23,-32.90 3.29,-32.69 3.28,-32.48 3.27,-32.27 3.20,-32.07 3.12,-31.87 2.99,-31.71 2.85,-31.55 2.67,-31.43 2.49,-31.32 2.28,-31.27 2.07,-31.23 1.86,-31.25 1.65,-31.27 1.46,-31.35 1.26,-31.44 1.11,-31.59 0.95,-31.73 0.85,-31.92 0.75,-32.10 0.71,-32.31 0.68,-32.52 0.68,-32.52 0.68,-32.52 2.54,-31.96 4.41,-31.40 3.98,-29.60 3.54,-27.79 3.30,-26.05 3.07,-24.31 2.80,-23.05 2.52,-21.80 2.51,-20.32 2.50,-18.84 2.48,-17.39 2.45,-15.93 2.39,-14.56 2.33,-13.19 2.19,-11.34 2.05,-9.48 1.71,-7.49 1.37,-5.51 1.19,-4.37 1.01,-3.23 1.24,-1.98 1.47,-0.73 1.54,-0.55 1.61,-0.36 1.63,-0.16 1.65,0.03 1.62,0.22 1.59,0.42 1.52,0.61 1.44,0.79 1.33,0.95 1.21,1.12 1.06,1.25 0.91,1.37 0.73,1.46 0.55,1.55 0.36,1.60 0.16,1.64 -0.03,1.64 -0.23,1.63 -0.42,1.58 -0.61,1.53 -0.79,1.43 -0.96,1.34 -1.11,1.20 -1.25,1.07 -1.36,0.90 -1.47,0.73 -1.47,0.73 L -1.47,0.73 Z"></path></g><g transform="translate(1003 666.6875) rotate(0 6 14)" stroke="none"><path fill="#d9480f" d="M -0.64,-1.29 Q -0.64,-1.29 0.28,-2.32 1.21,-3.36 2.53,-3.73 3.86,-4.10 6.18,-3.66 8.50,-3.22 9.24,-2.05 9.97,-0.87 10.14,0.33 10.31,1.54 10.00,2.72 9.70,3.90 9.25,4.87 8.80,5.85 7.73,6.90 6.66,7.96 5.42,8.41 4.19,8.86 4.45,7.71 4.72,6.55 6.27,7.34 7.81,8.12 8.79,8.61 9.76,9.11 10.80,10.15 11.83,11.20 12.92,13.13 14.01,15.06 13.87,17.25 13.73,19.44 12.95,20.91 12.17,22.39 11.59,23.48 11.01,24.57 9.95,25.64 8.89,26.71 7.96,27.55 7.03,28.39 4.80,29.42 2.58,30.44 2.39,30.54 2.20,30.64 1.99,30.67 1.78,30.71 1.57,30.67 1.36,30.64 1.18,30.54 0.99,30.44 0.84,30.29 0.70,30.13 0.61,29.94 0.52,29.75 0.50,29.54 0.47,29.32 0.52,29.12 0.56,28.91 0.67,28.73 0.78,28.55 0.94,28.41 1.11,28.27 1.30,28.19 1.50,28.11 1.71,28.10 1.92,28.09 2.13,28.15 2.33,28.20 2.51,28.32 2.69,28.44 2.81,28.61 2.94,28.78 3.01,28.98 3.08,29.18 3.08,29.39 3.08,29.61 3.01,29.81 2.94,30.01 2.82,30.18 2.69,30.35 2.51,30.47 2.34,30.59 2.13,30.64 1.93,30.70 1.71,30.69 1.50,30.68 1.30,30.60 1.11,30.52 0.94,30.38 0.78,30.25 0.67,30.06 0.56,29.88 0.52,29.67 0.47,29.47 0.49,29.26 0.52,29.04 0.61,28.85 0.70,28.66 0.84,28.50 0.99,28.35 0.99,28.35 0.99,28.35 2.34,26.65 3.69,24.95 5.19,23.57 6.68,22.18 7.25,21.08 7.83,19.98 8.40,19.01 8.98,18.05 9.12,16.86 9.27,15.67 8.34,14.57 7.42,13.48 5.61,12.56 3.80,11.65 2.27,10.53 0.75,9.41 0.62,8.12 0.48,6.83 2.42,5.22 4.35,3.62 5.21,2.12 6.08,0.63 4.73,0.84 3.38,1.06 2.01,1.17 0.64,1.29 0.48,1.35 0.31,1.41 0.14,1.42 -0.02,1.44 -0.20,1.42 -0.37,1.39 -0.53,1.33 -0.69,1.26 -0.83,1.16 -0.98,1.06 -1.09,0.93 -1.20,0.79 -1.28,0.64 -1.36,0.48 -1.40,0.31 -1.43,0.14 -1.43,-0.02 -1.43,-0.20 -1.38,-0.37 -1.34,-0.53 -1.25,-0.69 -1.17,-0.84 -1.05,-0.97 -0.93,-1.10 -0.79,-1.19 -0.64,-1.29 -0.64,-1.29 L -0.64,-1.29 Z"></path></g><g transform="translate(954 727.6875) rotate(0 -16 -1)" stroke="none"><path fill="#d9480f" d="M 0,1.49 Q 0,1.49 -1.43,1.96 -2.87,2.43 -4.07,2.43 -5.26,2.43 -6.64,2.11 -8.02,1.78 -9.15,1.69 -10.27,1.61 -11.62,1.56 -12.98,1.52 -14.71,1.50 -16.43,1.48 -17.75,1.47 -19.06,1.46 -20.48,1.46 -21.90,1.45 -23.08,1.45 -24.25,1.45 -25.62,1.45 -26.98,1.45 -29.92,0.23 -32.85,-0.97 -32.96,-1.15 -33.07,-1.34 -33.11,-1.54 -33.16,-1.75 -33.13,-1.96 -33.11,-2.17 -33.02,-2.37 -32.93,-2.56 -32.78,-2.71 -32.63,-2.87 -32.44,-2.96 -32.25,-3.06 -32.04,-3.09 -31.83,-3.13 -31.62,-3.09 -31.42,-3.06 -31.23,-2.95 -31.04,-2.85 -30.90,-2.70 -30.75,-2.54 -30.66,-2.35 -30.58,-2.16 -30.55,-1.95 -30.53,-1.73 -30.58,-1.53 -30.63,-1.32 -30.74,-1.14 -30.85,-0.96 -31.01,-0.82 -31.17,-0.68 -31.37,-0.61 -31.57,-0.53 -31.78,-0.52 -32.00,-0.51 -32.20,-0.57 -32.40,-0.63 -32.58,-0.75 -32.75,-0.87 -32.88,-1.04 -33.01,-1.21 -33.07,-1.41 -33.14,-1.61 -33.14,-1.82 -33.14,-2.04 -33.07,-2.24 -33.00,-2.44 -32.87,-2.61 -32.74,-2.77 -32.56,-2.89 -32.39,-3.01 -32.18,-3.07 -31.98,-3.12 -31.76,-3.11 -31.55,-3.09 -31.36,-3.01 -31.16,-2.93 -31.00,-2.80 -30.84,-2.66 -30.84,-2.66 -30.84,-2.66 -28.91,-3.05 -26.98,-3.45 -25.61,-3.45 -24.25,-3.45 -23.07,-3.44 -21.88,-3.44 -20.45,-3.44 -19.02,-3.43 -17.70,-3.42 -16.37,-3.41 -14.59,-3.39 -12.80,-3.37 -11.31,-3.31 -9.82,-3.25 -7.52,-2.84 -5.22,-2.43 -4.05,-2.43 -2.87,-2.43 -1.43,-1.96 0,-1.49 0.17,-1.46 0.35,-1.44 0.52,-1.38 0.69,-1.31 0.84,-1.21 0.98,-1.11 1.10,-0.98 1.22,-0.84 1.31,-0.68 1.39,-0.52 1.43,-0.35 1.47,-0.17 1.47,0.00 1.47,0.17 1.43,0.35 1.39,0.52 1.31,0.68 1.22,0.84 1.10,0.98 0.98,1.11 0.84,1.21 0.69,1.31 0.52,1.38 0.35,1.44 0.17,1.46 -0.00,1.49 -0.00,1.49 L 0,1.49 Z"></path></g><g transform="translate(897 728.6875) rotate(0 -7.5 1.5)" stroke="none"><path fill="#d9480f" d="M 0.34,1.71 Q 0.34,1.71 -0.99,2.47 -2.34,3.23 -4.39,3.64 -6.43,4.06 -7.98,4.25 -9.53,4.44 -12.40,2.93 -15.27,1.42 -15.26,1.21 -15.25,0.99 -15.17,0.80 -15.09,0.60 -14.95,0.44 -14.82,0.27 -14.64,0.16 -14.45,0.05 -14.25,0.01 -14.04,-0.03 -13.83,-0.01 -13.62,0.00 -13.42,0.09 -13.23,0.18 -13.08,0.33 -12.92,0.47 -12.82,0.66 -12.72,0.85 -12.69,1.06 -12.65,1.27 -12.68,1.48 -12.72,1.69 -12.82,1.87 -12.92,2.06 -13.07,2.21 -13.22,2.36 -13.42,2.45 -13.61,2.54 -13.82,2.56 -14.03,2.58 -14.24,2.54 -14.45,2.49 -14.63,2.38 -14.81,2.28 -14.95,2.11 -15.09,1.95 -15.17,1.76 -15.25,1.56 -15.26,1.35 -15.27,1.13 -15.21,0.93 -15.16,0.72 -15.04,0.55 -14.92,0.37 -14.75,0.24 -14.58,0.11 -14.38,0.04 -14.18,-0.01 -13.97,-0.01 -13.76,-0.02 -13.55,0.04 -13.35,0.11 -13.18,0.24 -13.01,0.36 -12.89,0.54 -12.77,0.72 -12.72,0.92 -12.66,1.12 -12.66,1.12 -12.66,1.12 -11.42,0.08 -10.18,-0.95 -8.84,-1.11 -7.50,-1.27 -5.45,-1.68 -3.40,-2.08 -1.87,-1.90 -0.34,-1.71 -0.13,-1.72 0.07,-1.74 0.28,-1.71 0.49,-1.67 0.68,-1.59 0.87,-1.50 1.04,-1.38 1.21,-1.25 1.34,-1.09 1.48,-0.92 1.57,-0.73 1.65,-0.54 1.70,-0.34 1.74,-0.13 1.73,0.07 1.72,0.28 1.66,0.48 1.60,0.69 1.49,0.87 1.39,1.05 1.24,1.20 1.09,1.35 0.92,1.46 0.74,1.58 0.54,1.64 0.34,1.71 0.34,1.71 L 0.34,1.71 Z"></path></g><g transform="translate(901 716.6875) rotate(0 3.5 12.5)" stroke="none"><path fill="#d9480f" d="M 1.02,-1.02 Q 1.02,-1.02 2.48,-0.15 3.95,0.71 4.67,2.09 5.39,3.46 5.68,4.74 5.98,6.02 6.09,7.77 6.20,9.52 6.24,11.12 6.27,12.73 5.64,14.65 5.02,16.57 4.14,18.23 3.25,19.88 2.24,21.25 1.22,22.61 0.22,23.72 -0.77,24.83 -0.89,25.36 -1.02,25.90 -1.24,26.09 -1.45,26.28 -1.71,26.41 -1.96,26.55 -2.24,26.62 -2.52,26.69 -2.81,26.69 -3.10,26.69 -3.38,26.62 -3.66,26.55 -3.92,26.41 -4.17,26.28 -4.39,26.09 -4.60,25.90 -4.77,25.66 -4.93,25.42 -5.04,25.15 -5.14,24.88 -5.17,24.60 -5.21,24.31 -5.17,24.02 -5.14,23.74 -5.04,23.47 -4.93,23.20 -4.77,22.96 -4.61,22.72 -2.40,22.53 -0.20,22.34 1.26,22.41 2.73,22.47 4.24,22.51 5.76,22.54 7.91,23.11 10.05,23.67 10.26,23.71 10.47,23.75 10.66,23.85 10.84,23.95 10.99,24.10 11.13,24.26 11.22,24.45 11.31,24.65 11.33,24.86 11.35,25.07 11.30,25.28 11.25,25.48 11.14,25.66 11.03,25.85 10.87,25.98 10.71,26.12 10.51,26.19 10.31,26.27 10.10,26.28 9.88,26.29 9.68,26.23 9.48,26.17 9.30,26.05 9.13,25.93 9.00,25.76 8.87,25.59 8.81,25.39 8.74,25.18 8.74,24.97 8.75,24.76 8.82,24.56 8.89,24.36 9.02,24.19 9.15,24.02 9.32,23.91 9.50,23.79 9.71,23.73 9.91,23.68 10.12,23.69 10.33,23.71 10.53,23.79 10.73,23.87 10.89,24.01 11.05,24.15 11.16,24.33 11.26,24.51 11.31,24.72 11.35,24.93 11.33,25.14 11.30,25.35 11.21,25.54 11.12,25.73 10.97,25.89 10.82,26.04 10.63,26.14 10.45,26.23 10.24,26.27 10.03,26.30 10.03,26.30 10.03,26.30 7.84,26.82 5.65,27.34 4.07,27.31 2.48,27.27 0.73,26.58 -1.02,25.90 -1.24,26.09 -1.45,26.28 -1.71,26.41 -1.96,26.55 -2.24,26.62 -2.52,26.69 -2.81,26.69 -3.10,26.69 -3.38,26.62 -3.66,26.55 -3.92,26.41 -4.17,26.28 -4.39,26.09 -4.60,25.90 -4.77,25.66 -4.93,25.42 -5.04,25.15 -5.14,24.88 -5.17,24.60 -5.21,24.31 -5.17,24.02 -5.14,23.74 -5.04,23.47 -4.93,23.20 -4.77,22.96 -4.61,22.72 -4.49,22.33 -4.37,21.94 -3.43,20.86 -2.50,19.79 -1.67,18.72 -0.85,17.65 -0.11,16.30 0.62,14.94 1.12,13.83 1.61,12.72 1.57,11.25 1.53,9.78 1.46,8.36 1.40,6.94 1.02,5.41 0.64,3.88 -0.18,2.45 -1.02,1.02 -1.13,0.88 -1.23,0.74 -1.30,0.58 -1.38,0.43 -1.41,0.25 -1.44,0.08 -1.43,-0.08 -1.42,-0.26 -1.37,-0.42 -1.31,-0.59 -1.22,-0.74 -1.13,-0.89 -1.01,-1.01 -0.89,-1.13 -0.74,-1.22 -0.59,-1.31 -0.42,-1.37 -0.26,-1.42 -0.08,-1.43 0.08,-1.44 0.25,-1.41 0.43,-1.38 0.58,-1.30 0.74,-1.23 0.88,-1.13 1.02,-1.02 1.02,-1.02 L 1.02,-1.02 Z"></path></g><g transform="translate(915 718.6875) rotate(0 4.5 11.5)" stroke="none"><path fill="#d9480f" d="M 0,-1.48 Q 0,-1.48 1.43,-1.93 2.87,-2.38 4.44,-2.39 6.01,-2.40 7.98,-1.73 9.95,-1.06 10.46,0.03 10.96,1.12 11.09,2.57 11.22,4.01 10.96,5.94 10.70,7.87 10.29,9.80 9.88,11.73 9.42,13.95 8.96,16.17 8.44,17.81 7.93,19.45 5.96,21.68 3.99,23.91 3.80,24.00 3.60,24.08 3.39,24.10 3.18,24.12 2.97,24.07 2.77,24.02 2.59,23.91 2.41,23.80 2.27,23.63 2.14,23.47 2.06,23.27 1.99,23.07 1.98,22.86 1.97,22.65 2.03,22.44 2.09,22.24 2.22,22.07 2.34,21.89 2.51,21.77 2.68,21.64 2.88,21.58 3.09,21.51 3.30,21.52 3.51,21.52 3.71,21.59 3.91,21.66 4.08,21.80 4.25,21.93 4.36,22.10 4.48,22.28 4.53,22.49 4.58,22.69 4.57,22.91 4.55,23.12 4.47,23.31 4.39,23.51 4.25,23.67 4.11,23.83 3.92,23.93 3.74,24.04 3.53,24.08 3.32,24.12 3.11,24.10 2.90,24.07 2.71,23.98 2.52,23.89 2.37,23.74 2.22,23.59 2.12,23.40 2.02,23.21 1.99,23.00 1.96,22.79 2.00,22.58 2.04,22.37 2.14,22.18 2.25,22.00 2.40,21.85 2.56,21.71 2.56,21.71 2.56,21.71 3.02,19.88 3.48,18.04 3.93,16.64 4.38,15.23 4.83,13.00 5.27,10.76 5.64,8.97 6.02,7.18 6.01,4.79 6.01,2.40 4.44,2.39 2.87,2.38 1.43,1.93 0,1.48 -0.17,1.46 -0.35,1.44 -0.52,1.37 -0.68,1.31 -0.83,1.21 -0.98,1.11 -1.10,0.97 -1.22,0.84 -1.30,0.68 -1.38,0.52 -1.42,0.35 -1.47,0.17 -1.47,-0.00 -1.47,-0.17 -1.42,-0.35 -1.38,-0.52 -1.30,-0.68 -1.22,-0.84 -1.10,-0.97 -0.98,-1.11 -0.83,-1.21 -0.68,-1.31 -0.52,-1.37 -0.35,-1.44 -0.17,-1.46 0.00,-1.48 0.00,-1.48 L 0,-1.48 Z"></path></g><g transform="translate(924 731.6875) rotate(0 -6.5 -1)" stroke="none"><path fill="#d9480f" d="M 0,1.55 Q 0,1.55 -1.72,1.87 -3.44,2.19 -4.75,2.19 -6.06,2.19 -7.20,2.19 -8.34,2.19 -10.76,0.79 -13.17,-0.59 -13.34,-0.72 -13.50,-0.85 -13.62,-1.03 -13.74,-1.21 -13.79,-1.42 -13.84,-1.62 -13.82,-1.83 -13.81,-2.05 -13.73,-2.24 -13.64,-2.44 -13.50,-2.60 -13.36,-2.76 -13.18,-2.86 -12.99,-2.97 -12.79,-3.01 -12.58,-3.05 -12.37,-3.02 -12.16,-3.00 -11.96,-2.90 -11.77,-2.81 -11.62,-2.66 -11.47,-2.51 -11.38,-2.32 -11.28,-2.13 -11.25,-1.92 -11.22,-1.71 -11.26,-1.50 -11.30,-1.29 -11.40,-1.11 -11.50,-0.92 -11.66,-0.78 -11.82,-0.64 -12.01,-0.55 -12.21,-0.47 -12.42,-0.45 -12.63,-0.43 -12.84,-0.48 -13.04,-0.53 -13.22,-0.64 -13.40,-0.75 -13.54,-0.92 -13.67,-1.08 -13.75,-1.28 -13.82,-1.48 -13.83,-1.69 -13.83,-1.91 -13.77,-2.11 -13.71,-2.31 -13.59,-2.49 -13.47,-2.66 -13.30,-2.79 -13.12,-2.91 -12.92,-2.97 -12.72,-3.04 -12.51,-3.03 -12.29,-3.03 -12.09,-2.96 -11.89,-2.88 -11.89,-2.89 -11.89,-2.89 -10.10,-2.54 -8.30,-2.19 -7.18,-2.19 -6.06,-2.19 -4.75,-2.19 -3.44,-2.19 -1.72,-1.87 0,-1.55 0.18,-1.53 0.37,-1.51 0.54,-1.44 0.72,-1.38 0.87,-1.27 1.03,-1.16 1.15,-1.02 1.28,-0.88 1.37,-0.71 1.45,-0.55 1.50,-0.37 1.54,-0.18 1.54,0.00 1.54,0.18 1.50,0.37 1.45,0.55 1.37,0.71 1.28,0.88 1.15,1.02 1.03,1.16 0.87,1.27 0.72,1.38 0.54,1.44 0.37,1.51 0.18,1.53 -0.00,1.55 -0.00,1.55 L 0,1.55 Z"></path></g><g transform="translate(825 740.6875) rotate(0 92 -17.5)" stroke="none"><path fill="#d9480f" d="M -0.69,-1.16 Q -0.69,-1.16 0.67,-2.11 2.05,-3.06 2.78,-3.88 3.51,-4.70 5.16,-6.07 6.80,-7.44 7.48,-8.42 8.16,-9.40 8.52,-11.16 8.88,-12.91 9.88,-14.50 10.88,-16.09 11.84,-17.94 12.79,-19.79 13.57,-21.46 14.34,-23.14 14.81,-24.63 15.29,-26.11 16.18,-28.00 17.08,-29.89 18.12,-31.08 19.16,-32.28 20.20,-33.33 21.24,-34.37 22.39,-35.09 23.53,-35.81 24.72,-36.45 25.90,-37.09 26.74,-37.95 27.57,-38.81 28.97,-39.67 30.36,-40.54 31.41,-41.07 32.45,-41.60 33.42,-42.09 34.40,-42.59 35.64,-43.36 36.88,-44.12 38.00,-44.73 39.12,-45.33 39.83,-46.12 40.55,-46.90 41.54,-47.42 42.52,-47.94 43.45,-48.47 44.38,-48.99 45.96,-49.64 47.53,-50.28 48.53,-50.70 49.54,-51.12 51.19,-51.57 52.85,-52.01 54.17,-52.44 55.48,-52.87 56.80,-53.00 58.11,-53.13 59.97,-53.16 61.82,-53.18 63.00,-53.19 64.18,-53.20 65.71,-53.21 67.25,-53.22 68.33,-53.23 69.40,-53.23 71.04,-53.24 72.68,-53.24 74.63,-53.24 76.58,-53.24 78.00,-52.89 79.43,-52.55 80.80,-52.44 82.18,-52.32 83.55,-52.29 84.92,-52.25 86.15,-51.83 87.37,-51.41 89.61,-50.97 91.84,-50.53 93.74,-50.06 95.64,-49.59 97.29,-49.06 98.93,-48.54 99.84,-47.97 100.75,-47.40 102.20,-46.89 103.64,-46.39 104.95,-45.94 106.26,-45.49 107.48,-45.05 108.70,-44.61 110.56,-44.04 112.41,-43.47 113.74,-43.01 115.07,-42.56 116.04,-42.10 117.02,-41.65 118.76,-41.06 120.51,-40.47 121.53,-39.98 122.56,-39.50 123.64,-38.96 124.71,-38.42 126.36,-37.40 128.01,-36.38 129.54,-35.38 131.06,-34.38 132.62,-33.53 134.18,-32.68 135.13,-32.19 136.09,-31.71 137.47,-30.86 138.86,-30.00 139.92,-29.42 140.97,-28.84 141.90,-28.18 142.83,-27.52 144.17,-26.56 145.51,-25.60 146.95,-24.42 148.40,-23.23 149.48,-22.18 150.57,-21.14 151.88,-20.23 153.19,-19.32 154.06,-18.20 154.92,-17.09 156.21,-15.69 157.51,-14.28 158.89,-13.26 160.28,-12.23 161.43,-11.40 162.58,-10.57 164.31,-9.09 166.04,-7.61 167.12,-6.82 168.20,-6.03 169.40,-4.98 170.59,-3.94 172.29,-2.72 173.98,-1.50 175.05,-0.91 176.12,-0.32 177.13,0.19 178.13,0.70 179.16,1.21 180.19,1.72 181.72,3.10 183.25,4.48 184.52,5.75 185.80,7.03 186.37,8.17 186.94,9.31 187.12,10.71 187.30,12.12 184.74,13.73 182.18,15.34 181.98,15.28 181.77,15.22 181.60,15.10 181.43,14.97 181.30,14.80 181.18,14.63 181.12,14.43 181.05,14.22 181.06,14.01 181.06,13.80 181.14,13.60 181.21,13.40 181.34,13.23 181.48,13.07 181.65,12.95 181.83,12.84 182.04,12.79 182.25,12.73 182.46,12.75 182.67,12.77 182.86,12.85 183.06,12.94 183.22,13.08 183.38,13.22 183.48,13.40 183.59,13.59 183.63,13.80 183.67,14.00 183.64,14.22 183.61,14.43 183.52,14.62 183.42,14.81 183.27,14.96 183.12,15.11 182.93,15.20 182.74,15.30 182.53,15.33 182.32,15.36 182.11,15.32 181.90,15.28 181.72,15.17 181.53,15.07 181.39,14.91 181.25,14.75 181.17,14.56 181.08,14.36 181.06,14.15 181.05,13.94 181.10,13.73 181.15,13.53 181.26,13.35 181.38,13.17 181.54,13.03 181.71,12.90 181.91,12.83 182.11,12.75 182.32,12.75 182.53,12.74 182.53,12.74 182.53,12.74 181.31,11.68 180.08,10.62 179.39,9.58 178.69,8.53 177.46,7.75 176.23,6.96 175.19,6.44 174.16,5.92 172.98,5.32 171.81,4.72 170.20,3.74 168.59,2.76 167.38,1.93 166.17,1.10 165.18,0.22 164.19,-0.65 162.83,-1.67 161.46,-2.70 160.27,-3.77 159.08,-4.84 157.44,-6.08 155.79,-7.33 154.81,-7.90 153.83,-8.46 152.56,-9.79 151.29,-11.11 150.36,-12.17 149.44,-13.23 148.74,-14.07 148.04,-14.91 146.97,-15.62 145.91,-16.33 144.92,-17.29 143.93,-18.24 142.97,-19.07 142.02,-19.89 140.97,-20.56 139.92,-21.22 138.82,-22.11 137.71,-22.99 136.53,-23.65 135.35,-24.31 134.19,-25.04 133.03,-25.76 132.03,-26.27 131.04,-26.79 130.04,-27.32 129.05,-27.85 127.56,-28.84 126.07,-29.83 124.63,-30.77 123.19,-31.71 122.09,-32.38 121.00,-33.05 118.95,-34.04 116.90,-35.03 115.57,-35.33 114.24,-35.64 112.77,-36.33 111.30,-37.02 110.14,-37.51 108.98,-37.99 106.97,-38.53 104.96,-39.06 103.61,-39.40 102.26,-39.73 101.13,-40.41 100.00,-41.09 98.64,-41.48 97.29,-41.88 96.29,-42.45 95.28,-43.01 93.71,-43.48 92.14,-43.95 90.89,-44.17 89.63,-44.38 88.45,-44.66 87.27,-44.95 85.14,-45.36 83.00,-45.77 81.56,-45.86 80.13,-45.95 78.32,-46.35 76.51,-46.75 74.59,-46.75 72.68,-46.75 71.04,-46.75 69.40,-46.76 68.33,-46.76 67.25,-46.77 65.72,-46.78 64.18,-46.79 63.01,-46.80 61.84,-46.81 60.58,-46.80 59.32,-46.80 58.08,-46.81 56.83,-46.83 54.81,-46.33 52.79,-45.82 51.39,-45.22 49.98,-44.62 48.00,-43.82 46.02,-43.02 44.48,-42.37 42.95,-41.71 41.46,-40.71 39.97,-39.70 38.45,-38.71 36.93,-37.71 35.93,-37.21 34.92,-36.71 33.94,-36.22 32.95,-35.72 32.04,-34.93 31.12,-34.14 30.02,-33.43 28.91,-32.71 27.95,-31.89 26.99,-31.06 25.69,-30.13 24.39,-29.20 23.50,-28.28 22.60,-27.36 22.03,-26.39 21.46,-25.41 20.73,-24.06 19.99,-22.70 19.14,-21.25 18.29,-19.79 18.01,-18.55 17.72,-17.32 17.21,-16.32 16.70,-15.32 16.18,-14.34 15.67,-13.36 15.10,-12.39 14.53,-11.41 13.72,-10.05 12.90,-8.68 11.71,-7.30 10.52,-5.92 9.59,-5.38 8.65,-4.84 7.24,-3.67 5.82,-2.50 4.76,-1.44 3.69,-0.38 2.19,0.39 0.69,1.16 0.54,1.23 0.39,1.29 0.23,1.32 0.07,1.35 -0.08,1.34 -0.24,1.33 -0.40,1.28 -0.56,1.23 -0.70,1.15 -0.84,1.06 -0.95,0.94 -1.07,0.83 -1.15,0.69 -1.24,0.55 -1.28,0.39 -1.33,0.24 -1.34,0.07 -1.35,-0.08 -1.32,-0.24 -1.29,-0.40 -1.22,-0.55 -1.15,-0.70 -1.05,-0.83 -0.95,-0.96 -0.82,-1.06 -0.69,-1.16 -0.69,-1.16 L -0.69,-1.16 Z"></path></g><g transform="translate(851 707.6875) rotate(0 -14 27)" stroke="none"><path fill="#d9480f" d="M 1.11,0.83 Q 1.11,0.83 0.59,2.26 0.08,3.68 -0.78,4.40 -1.65,5.12 -2.96,6.45 -4.27,7.78 -4.96,8.65 -5.64,9.53 -6.56,10.73 -7.47,11.93 -8.49,13.40 -9.50,14.88 -10.46,15.94 -11.42,17.00 -12.38,18.03 -13.34,19.07 -14.23,20.04 -15.12,21.00 -16.22,22.09 -17.33,23.17 -18.09,23.98 -18.86,24.80 -19.01,25.92 -19.16,27.05 -19.64,28.04 -20.13,29.03 -20.65,30.37 -21.17,31.70 -21.66,33.20 -22.15,34.70 -22.53,36.28 -22.92,37.86 -23.49,39.23 -24.07,40.60 -24.54,42.00 -25.01,43.41 -25.08,44.86 -25.15,46.31 -24.81,47.94 -24.48,49.58 -24.77,51.29 -25.06,53.01 -24.98,53.20 -24.90,53.40 -24.89,53.61 -24.88,53.83 -24.93,54.03 -24.99,54.24 -25.11,54.41 -25.23,54.59 -25.39,54.72 -25.56,54.85 -25.76,54.91 -25.97,54.98 -26.18,54.98 -26.39,54.98 -26.59,54.92 -26.79,54.85 -26.96,54.72 -27.13,54.59 -27.25,54.42 -27.37,54.24 -27.43,54.04 -27.49,53.83 -27.48,53.62 -27.46,53.41 -27.39,53.21 -27.31,53.01 -27.17,52.85 -27.03,52.69 -26.85,52.58 -26.67,52.47 -26.46,52.42 -26.26,52.38 -26.04,52.40 -25.83,52.42 -25.64,52.51 -25.45,52.60 -25.29,52.74 -25.14,52.89 -25.04,53.08 -24.94,53.26 -24.90,53.47 -24.87,53.68 -24.90,53.89 -24.94,54.10 -25.04,54.29 -25.13,54.48 -25.29,54.63 -25.44,54.77 -25.63,54.86 -25.83,54.95 -26.04,54.97 -26.25,55.00 -26.46,54.95 -26.66,54.91 -26.85,54.80 -27.03,54.69 -27.17,54.53 -27.31,54.37 -27.31,54.37 -27.31,54.37 -28.83,52.27 -30.36,50.18 -30.59,48.70 -30.82,47.23 -30.80,46.16 -30.77,45.09 -30.63,43.77 -30.50,42.45 -30.02,41.35 -29.54,40.25 -28.84,38.03 -28.15,35.80 -27.83,34.67 -27.50,33.54 -26.99,32.04 -26.48,30.54 -25.96,29.01 -25.43,27.48 -24.93,26.49 -24.43,25.49 -23.86,23.94 -23.29,22.39 -22.25,20.90 -21.22,19.41 -20.14,18.40 -19.07,17.38 -18.16,16.43 -17.25,15.47 -16.13,14.37 -15.02,13.27 -14.06,12.30 -13.10,11.34 -12.29,10.04 -11.47,8.74 -10.61,7.90 -9.75,7.05 -8.81,5.81 -7.88,4.57 -6.81,3.57 -5.74,2.57 -4.63,1.74 -3.53,0.91 -2.32,0.03 -1.11,-0.83 -0.99,-0.95 -0.88,-1.07 -0.73,-1.16 -0.59,-1.25 -0.43,-1.30 -0.27,-1.36 -0.11,-1.37 0.05,-1.39 0.22,-1.36 0.38,-1.33 0.54,-1.27 0.69,-1.20 0.82,-1.10 0.96,-1.00 1.06,-0.87 1.17,-0.74 1.24,-0.59 1.31,-0.44 1.35,-0.27 1.38,-0.11 1.37,0.05 1.37,0.22 1.32,0.38 1.28,0.54 1.19,0.68 1.11,0.83 1.11,0.83 L 1.11,0.83 Z"></path></g><g transform="translate(890 688.6875) rotate(0 -1 4)" stroke="none"><path fill="#d9480f" d="M -1.45,0.72 Q -1.45,0.72 -1.91,0.50 -2.36,0.28 -1.87,2.00 -1.38,3.72 -1.37,5.35 -1.36,6.98 -2.12,5.90 -2.87,4.81 -2.60,5.85 -2.33,6.89 -1.56,5.46 -0.80,4.03 -1.40,5.72 -2.01,7.41 -1.54,5.67 -1.08,3.93 -2.14,4.68 -3.20,5.43 -3.47,5.57 -3.74,5.71 -4.04,5.78 -4.34,5.86 -4.65,5.86 -4.95,5.86 -5.25,5.78 -5.55,5.71 -5.82,5.56 -6.09,5.42 -6.32,5.22 -6.55,5.01 -6.73,4.76 -6.90,4.51 -7.01,4.22 -7.12,3.93 -7.15,3.63 -7.19,3.32 -7.15,3.02 -7.11,2.71 -7.00,2.42 -6.89,2.14 -6.72,1.89 -6.54,1.63 -6.31,1.43 -6.08,1.23 -4.53,1.27 -2.97,1.32 -1.84,1.39 -0.70,1.45 -0.77,1.25 -0.84,1.05 -0.84,0.84 -0.84,0.63 -0.78,0.43 -0.71,0.22 -0.58,0.05 -0.45,-0.10 -0.28,-0.22 -0.10,-0.34 0.09,-0.40 0.30,-0.46 0.51,-0.45 0.72,-0.44 0.92,-0.36 1.12,-0.28 1.28,-0.14 1.44,-0.01 1.55,0.16 1.66,0.35 1.71,0.55 1.76,0.76 1.73,0.97 1.71,1.18 1.62,1.38 1.53,1.57 1.39,1.72 1.24,1.88 1.05,1.98 0.87,2.08 0.66,2.11 0.45,2.15 0.24,2.12 0.03,2.08 -0.15,1.98 -0.34,1.88 -0.48,1.73 -0.63,1.58 -0.72,1.38 -0.81,1.19 -0.83,0.98 -0.86,0.77 -0.81,0.56 -0.77,0.35 -0.66,0.17 -0.55,-0.00 -0.39,-0.14 -0.23,-0.28 -0.03,-0.36 0.16,-0.44 0.37,-0.45 0.58,-0.46 0.79,-0.40 0.99,-0.35 1.17,-0.23 1.34,-0.11 1.47,0.05 1.60,0.22 1.60,0.22 1.60,0.22 0.27,3.01 -1.06,5.80 -2.13,5.61 -3.20,5.43 -3.47,5.57 -3.74,5.71 -4.04,5.78 -4.34,5.86 -4.65,5.86 -4.95,5.86 -5.25,5.78 -5.55,5.71 -5.82,5.56 -6.09,5.42 -6.32,5.22 -6.55,5.01 -6.73,4.76 -6.90,4.51 -7.01,4.22 -7.12,3.93 -7.15,3.63 -7.19,3.32 -7.15,3.02 -7.11,2.71 -7.00,2.42 -6.89,2.14 -6.72,1.89 -6.54,1.63 -6.31,1.43 -6.08,1.23 -5.00,0.25 -3.91,-0.72 -2.71,-1.01 -1.51,-1.30 -0.26,-1.09 0.99,-0.88 2.10,-0.06 3.20,0.76 3.64,2.35 4.08,3.94 3.64,5.36 3.21,6.77 2.42,7.90 1.63,9.02 0.18,10.02 -1.27,11.02 -2.63,10.97 -3.99,10.92 -5.04,10.09 -6.09,9.26 -6.09,6.65 -6.08,4.04 -5.53,2.75 -4.99,1.45 -3.69,0.59 -2.40,-0.25 -1.31,-0.31 -0.23,-0.36 1.34,0.07 2.93,0.51 3.61,1.58 4.29,2.66 4.32,3.74 4.35,4.83 4.14,6.05 3.92,7.28 3.29,8.64 2.66,9.99 1.13,11.07 -0.38,12.15 -1.63,12.16 -2.88,12.16 -4.16,11.54 -5.45,10.92 -6.12,10.03 -6.79,9.15 -7.15,7.99 -7.51,6.83 -7.14,4.91 -6.76,3.00 -5.98,2.19 -5.20,1.38 -3.89,1.00 -2.58,0.62 -1.29,0.87 -0.01,1.11 0.79,1.88 1.60,2.65 1.93,4.30 2.27,5.94 1.93,7.23 1.59,8.52 0.58,9.66 -0.43,10.79 -2.73,10.74 -5.04,10.70 -5.67,9.76 -6.30,8.82 -6.45,7.19 -6.60,5.56 -6.53,3.64 -6.46,1.72 -6.07,-0.06 -5.67,-1.85 -4.91,-2.62 -4.14,-3.38 -2.80,-3.66 -1.46,-3.94 -0.12,-3.26 1.21,-2.58 1.33,-1.65 1.45,-0.72 1.52,-0.54 1.58,-0.35 1.60,-0.16 1.62,0.03 1.60,0.22 1.57,0.42 1.50,0.60 1.42,0.78 1.31,0.94 1.19,1.10 1.04,1.23 0.89,1.35 0.72,1.44 0.54,1.53 0.35,1.57 0.16,1.62 -0.03,1.61 -0.22,1.61 -0.41,1.56 -0.60,1.51 -0.77,1.41 -0.95,1.32 -1.09,1.18 -1.24,1.05 -1.34,0.89 -1.45,0.72 -1.45,0.72 L -1.45,0.72 Z"></path></g><g transform="translate(870 685.6875) rotate(0 -12 -4.5)" stroke="none"><path fill="#d9480f" d="M -0.31,1.59 Q -0.31,1.59 -1.85,1.77 -3.38,1.95 -5.18,1.54 -6.98,1.13 -8.66,0.66 -10.33,0.18 -11.91,-0.30 -13.49,-0.78 -15.02,-1.27 -16.56,-1.75 -17.85,-1.88 -19.14,-2.02 -20.34,-2.11 -21.54,-2.21 -22.59,-2.70 -23.65,-3.20 -24.64,-5.57 -25.64,-7.95 -22.71,-9.03 -19.79,-10.12 -19.58,-10.15 -19.37,-10.18 -19.16,-10.15 -18.95,-10.11 -18.76,-10.01 -18.58,-9.91 -18.43,-9.75 -18.29,-9.59 -18.20,-9.40 -18.11,-9.21 -18.09,-8.99 -18.07,-8.78 -18.12,-8.58 -18.17,-8.37 -18.28,-8.19 -18.39,-8.01 -18.56,-7.87 -18.72,-7.74 -18.92,-7.66 -19.12,-7.58 -19.33,-7.57 -19.54,-7.57 -19.75,-7.62 -19.95,-7.68 -20.12,-7.80 -20.30,-7.93 -20.42,-8.10 -20.55,-8.27 -20.62,-8.47 -20.68,-8.67 -20.68,-8.88 -20.68,-9.10 -20.61,-9.30 -20.54,-9.50 -20.41,-9.67 -20.28,-9.83 -20.10,-9.95 -19.92,-10.07 -19.72,-10.12 -19.51,-10.18 -19.30,-10.16 -19.09,-10.15 -18.89,-10.07 -18.69,-9.99 -18.53,-9.85 -18.37,-9.71 -18.27,-9.52 -18.16,-9.34 -18.12,-9.13 -18.07,-8.92 -18.10,-8.71 -18.12,-8.50 -18.21,-8.31 -18.31,-8.12 -18.45,-7.97 -18.60,-7.81 -18.79,-7.72 -18.98,-7.62 -18.98,-7.62 -18.98,-7.62 -20.35,-6.32 -21.71,-5.02 -21.28,-6.27 -20.85,-7.52 -19.62,-7.43 -18.39,-7.35 -16.67,-7.07 -14.94,-6.79 -13.43,-6.28 -11.93,-5.78 -10.41,-5.30 -8.90,-4.82 -7.35,-4.37 -5.80,-3.92 -4.08,-3.51 -2.36,-3.10 -1.02,-2.35 0.31,-1.59 0.50,-1.53 0.69,-1.47 0.85,-1.37 1.02,-1.26 1.16,-1.12 1.29,-0.98 1.39,-0.81 1.49,-0.64 1.55,-0.45 1.60,-0.26 1.61,-0.07 1.62,0.12 1.58,0.31 1.54,0.50 1.46,0.68 1.38,0.86 1.25,1.01 1.13,1.17 0.97,1.28 0.81,1.40 0.63,1.48 0.45,1.56 0.26,1.59 0.07,1.62 -0.12,1.61 -0.31,1.59 -0.31,1.59 L -0.31,1.59 Z"></path></g><g transform="translate(796 671.6875) rotate(0 13.5 -14)" stroke="none"><path fill="#d9480f" d="M 0.33,-1.32 Q 0.33,-1.32 2.75,-1.26 5.18,-1.20 6.88,-1.02 8.59,-0.83 9.85,-1.02 11.11,-1.21 12.22,-3.28 13.34,-5.36 13.60,-6.74 13.86,-8.12 13.99,-9.75 14.13,-11.37 13.16,-12.64 12.20,-13.91 11.32,-14.82 10.44,-15.73 9.28,-16.85 8.13,-17.98 7.88,-19.47 7.63,-20.96 8.59,-22.87 9.54,-24.78 10.55,-26.01 11.57,-27.23 13.74,-28.58 15.90,-29.93 17.12,-30.45 18.34,-30.97 19.32,-31.42 20.30,-31.88 21.63,-32.18 22.95,-32.48 24.63,-32.15 26.32,-31.81 27.11,-29.46 27.90,-27.10 27.96,-26.90 28.03,-26.70 28.03,-26.49 28.03,-26.28 27.96,-26.08 27.89,-25.87 27.76,-25.71 27.63,-25.54 27.45,-25.42 27.27,-25.30 27.07,-25.25 26.86,-25.19 26.65,-25.21 26.44,-25.22 26.24,-25.30 26.05,-25.38 25.89,-25.52 25.72,-25.66 25.62,-25.84 25.51,-26.02 25.46,-26.23 25.42,-26.44 25.45,-26.65 25.47,-26.86 25.56,-27.05 25.65,-27.25 25.80,-27.40 25.95,-27.55 26.14,-27.65 26.32,-27.75 26.53,-27.78 26.74,-27.81 26.95,-27.78 27.16,-27.74 27.35,-27.64 27.54,-27.54 27.68,-27.38 27.83,-27.23 27.91,-27.03 28.00,-26.84 28.02,-26.63 28.04,-26.42 28.00,-26.21 27.95,-26.00 27.84,-25.82 27.73,-25.64 27.56,-25.50 27.40,-25.37 27.20,-25.29 27.00,-25.21 26.79,-25.21 26.58,-25.20 26.37,-25.25 26.17,-25.31 26.00,-25.43 25.82,-25.55 25.69,-25.73 25.57,-25.90 25.57,-25.90 25.57,-25.90 24.11,-26.30 22.65,-26.71 20.66,-25.86 18.68,-25.01 17.19,-24.28 15.70,-23.56 14.88,-22.63 14.06,-21.70 14.15,-20.58 14.24,-19.47 15.19,-18.50 16.14,-17.52 17.17,-16.25 18.21,-14.99 18.82,-13.07 19.42,-11.16 19.25,-9.08 19.09,-7.01 18.64,-5.10 18.20,-3.20 16.99,-0.91 15.78,1.37 13.90,2.56 12.02,3.75 9.99,3.93 7.96,4.11 5.99,3.80 4.01,3.50 1.84,2.41 -0.33,1.32 -0.48,1.26 -0.63,1.20 -0.77,1.10 -0.90,1.01 -1.01,0.89 -1.12,0.76 -1.19,0.62 -1.27,0.47 -1.31,0.31 -1.35,0.15 -1.35,-0.00 -1.35,-0.16 -1.31,-0.32 -1.27,-0.48 -1.19,-0.63 -1.11,-0.77 -1.00,-0.89 -0.89,-1.02 -0.76,-1.11 -0.62,-1.20 -0.47,-1.26 -0.32,-1.32 -0.15,-1.34 0.00,-1.36 0.16,-1.34 0.33,-1.32 0.33,-1.32 L 0.33,-1.32 Z"></path></g><g transform="translate(994 737.6875) rotate(0 0 -5.5)" stroke="none"><path fill="#d9480f" d="M -1.31,-1.31 Q -1.31,-1.31 -0.35,-2.65 0.60,-3.98 1.25,-4.89 1.90,-5.80 2.16,-7.31 2.42,-8.83 0.95,-8.68 -0.51,-8.54 -0.93,-6.88 -1.36,-5.23 -1.38,-3.58 -1.41,-1.94 -1.46,-1.63 -1.51,-1.33 -1.64,-1.04 -1.76,-0.76 -1.95,-0.52 -2.13,-0.27 -2.37,-0.08 -2.61,0.11 -2.89,0.24 -3.17,0.37 -3.47,0.43 -3.77,0.49 -4.08,0.47 -4.39,0.46 -4.69,0.37 -4.98,0.28 -5.25,0.13 -5.51,-0.02 -5.73,-0.23 -5.96,-0.45 -6.12,-0.71 -6.28,-0.97 -6.38,-1.26 -6.47,-1.55 -6.50,-1.86 -6.52,-2.17 -4.16,-3.36 -1.80,-4.55 -0.90,-5.52 -0.01,-6.49 -0.14,-5.39 -0.28,-4.30 -0.07,-5.42 0.14,-6.55 -0.92,-6.25 -1.99,-5.96 -1.62,-4.64 -1.24,-3.32 -0.11,-3.26 1.01,-3.19 1.25,-4.57 1.48,-5.95 0.35,-6.83 -0.77,-7.71 0.21,-4.82 1.20,-1.92 1.18,-1.71 1.15,-1.50 1.07,-1.31 0.98,-1.11 0.83,-0.96 0.69,-0.80 0.50,-0.70 0.31,-0.60 0.10,-0.57 -0.10,-0.53 -0.31,-0.57 -0.52,-0.60 -0.71,-0.70 -0.89,-0.80 -1.04,-0.95 -1.19,-1.11 -1.28,-1.30 -1.37,-1.49 -1.39,-1.70 -1.41,-1.91 -1.37,-2.12 -1.32,-2.33 -1.22,-2.51 -1.11,-2.69 -0.94,-2.83 -0.78,-2.97 -0.59,-3.05 -0.39,-3.13 -0.18,-3.14 0.02,-3.15 0.23,-3.10 0.43,-3.04 0.61,-2.92 0.79,-2.80 0.92,-2.64 1.05,-2.47 1.11,-2.27 1.18,-2.06 1.18,-1.85 1.18,-1.64 1.12,-1.44 1.05,-1.24 0.92,-1.07 0.79,-0.90 0.62,-0.78 0.44,-0.66 0.24,-0.60 0.03,-0.54 -0.17,-0.55 -0.38,-0.56 -0.58,-0.64 -0.78,-0.72 -0.94,-0.86 -1.10,-0.99 -1.21,-1.18 -1.32,-1.36 -1.37,-1.56 -1.41,-1.77 -1.41,-1.77 -1.41,-1.77 -2.50,-2.29 -3.58,-2.82 -4.61,-3.97 -5.63,-5.13 -5.82,-6.53 -6.01,-7.94 -5.41,-9.38 -4.80,-10.82 -3.42,-11.75 -2.04,-12.67 0.01,-12.36 2.07,-12.05 3.57,-10.89 5.08,-9.73 5.87,-8.07 6.67,-6.42 6.57,-4.50 6.47,-2.59 5.74,-1.40 5.00,-0.21 3.83,0.76 2.65,1.73 1.24,1.98 -0.17,2.23 -1.89,1.76 -3.61,1.28 -4.72,0.28 -5.82,-0.70 -6.33,-1.78 -6.84,-2.86 -6.97,-4.37 -7.10,-5.88 -6.56,-7.25 -6.02,-8.62 -4.87,-9.64 -3.72,-10.66 -2.37,-10.96 -1.02,-11.26 0.59,-10.94 2.22,-10.61 3.32,-9.64 4.43,-8.66 4.82,-6.93 5.22,-5.19 4.80,-3.83 4.38,-2.47 3.40,-1.39 2.41,-0.31 0.16,-0.15 -2.07,0.01 -3.24,-0.83 -4.40,-1.68 -4.91,-3.14 -5.42,-4.61 -5.29,-5.81 -5.16,-7.02 -4.79,-8.32 -4.42,-9.62 -3.31,-10.98 -2.21,-12.33 -0.72,-12.60 0.76,-12.87 2.14,-12.05 3.52,-11.23 4.13,-9.97 4.74,-8.70 4.81,-6.93 4.88,-5.17 4.35,-4.13 3.82,-3.09 2.75,-2.00 1.68,-0.92 0.06,-0.20 -1.56,0.50 -1.49,-0.71 -1.41,-1.94 -1.46,-1.63 -1.51,-1.33 -1.64,-1.04 -1.76,-0.76 -1.95,-0.52 -2.13,-0.27 -2.37,-0.08 -2.61,0.11 -2.89,0.24 -3.17,0.37 -3.47,0.43 -3.77,0.49 -4.08,0.47 -4.39,0.46 -4.69,0.37 -4.98,0.28 -5.25,0.13 -5.51,-0.02 -5.73,-0.23 -5.96,-0.45 -6.12,-0.71 -6.28,-0.97 -6.38,-1.26 -6.47,-1.55 -6.50,-1.86 -6.52,-2.17 -6.48,-2.88 -6.44,-3.60 -6.38,-4.68 -6.32,-5.76 -6.16,-6.93 -6.01,-8.11 -5.36,-9.66 -4.70,-11.20 -3.72,-11.91 -2.74,-12.63 -1.57,-12.96 -0.40,-13.29 0.74,-13.23 1.90,-13.17 3.40,-12.91 4.90,-12.65 5.73,-11.87 6.57,-11.08 6.86,-9.63 7.16,-8.17 6.97,-6.96 6.79,-5.75 6.29,-4.40 5.80,-3.05 4.89,-1.83 3.99,-0.61 2.65,0.35 1.31,1.31 1.13,1.45 0.96,1.59 0.75,1.68 0.55,1.77 0.33,1.81 0.11,1.85 -0.11,1.84 -0.33,1.83 -0.54,1.76 -0.76,1.69 -0.95,1.58 -1.14,1.46 -1.30,1.30 -1.46,1.14 -1.58,0.95 -1.69,0.76 -1.76,0.54 -1.83,0.33 -1.84,0.11 -1.85,-0.11 -1.81,-0.33 -1.77,-0.55 -1.68,-0.75 -1.59,-0.96 -1.45,-1.13 -1.31,-1.31 -1.31,-1.31 L -1.31,-1.31 Z"></path></g><g transform="translate(1013 735.6875) rotate(0 9.5 -17)" stroke="none"><path fill="#d9480f" d="M -1.88,-0.26 Q -1.88,-0.26 -1.93,-2.32 -1.97,-4.38 -1.90,-6.29 -1.82,-8.19 -1.80,-10.43 -1.78,-12.67 -1.77,-15.06 -1.76,-17.46 -1.46,-20.35 -1.15,-23.25 -0.36,-25.35 0.42,-27.45 1.41,-29.01 2.41,-30.57 3.46,-31.85 4.51,-33.12 6.13,-34.19 7.74,-35.25 9.85,-35.75 11.97,-36.25 13.08,-36.40 14.19,-36.56 15.68,-36.31 17.17,-36.07 18.37,-35.40 19.57,-34.73 20.35,-33.04 21.13,-31.36 20.65,-29.69 20.17,-28.03 18.93,-26.51 17.70,-25.00 15.95,-23.46 14.21,-21.92 12.59,-20.70 10.97,-19.47 8.34,-18.53 5.71,-17.59 5.51,-17.50 5.32,-17.41 5.11,-17.38 4.90,-17.35 4.69,-17.40 4.48,-17.44 4.30,-17.54 4.12,-17.65 3.98,-17.81 3.84,-17.97 3.75,-18.17 3.67,-18.36 3.66,-18.57 3.64,-18.79 3.69,-18.99 3.75,-19.20 3.86,-19.37 3.98,-19.55 4.15,-19.68 4.31,-19.82 4.51,-19.89 4.71,-19.96 4.92,-19.96 5.14,-19.97 5.34,-19.90 5.54,-19.84 5.71,-19.71 5.89,-19.59 6.01,-19.41 6.13,-19.24 6.19,-19.04 6.25,-18.83 6.24,-18.62 6.24,-18.41 6.16,-18.21 6.09,-18.01 5.95,-17.85 5.82,-17.68 5.64,-17.57 5.46,-17.46 5.25,-17.41 5.04,-17.36 4.83,-17.38 4.62,-17.40 4.43,-17.48 4.23,-17.57 4.07,-17.71 3.92,-17.85 3.81,-18.04 3.71,-18.23 3.67,-18.43 3.64,-18.64 3.67,-18.85 3.70,-19.06 3.79,-19.25 3.89,-19.44 4.04,-19.59 4.19,-19.74 4.19,-19.74 4.19,-19.74 5.88,-21.85 7.58,-23.96 9.04,-25.07 10.51,-26.18 11.95,-27.42 13.40,-28.66 14.63,-29.63 15.86,-30.60 14.45,-30.68 13.03,-30.77 10.86,-30.14 8.68,-29.52 7.84,-28.52 7.00,-27.53 6.25,-26.45 5.50,-25.38 4.89,-24.00 4.27,-22.61 3.99,-20.01 3.70,-17.41 3.66,-14.98 3.63,-12.55 3.54,-10.21 3.46,-7.87 3.29,-5.76 3.12,-3.66 2.50,-1.69 1.88,0.26 1.82,0.49 1.76,0.71 1.65,0.91 1.54,1.11 1.38,1.28 1.23,1.45 1.03,1.57 0.84,1.70 0.63,1.77 0.41,1.85 0.18,1.87 -0.04,1.90 -0.26,1.86 -0.49,1.83 -0.70,1.75 -0.91,1.66 -1.10,1.53 -1.29,1.39 -1.43,1.22 -1.58,1.04 -1.69,0.84 -1.79,0.63 -1.84,0.41 -1.89,0.18 -1.88,-0.03 -1.88,-0.26 -1.88,-0.26 L -1.88,-0.26 Z"></path></g></svg>