<svg version="1.1" xmlns="http://www.w3.org/2000/svg" viewBox="0 0 10020 679.25" width="10020" height="679.25">
  <!-- svg-source:excalidraw -->
  
  <defs>
    <style>
      @font-face {
        font-family: "Virgil";
        src: url("https://excalidraw.com/Virgil.woff2");
      }
      @font-face {
        font-family: "Cascadia";
        src: url("https://excalidraw.com/Cascadia.woff2");
      }
    </style>
  </defs>
  <rect x="0" y="0" width="10020" height="679.25" fill="#fff0"></rect><g stroke-linecap="round" transform="translate(10 10) rotate(0 5000 0.5)"><path d="M-0.52 -0.26 C3022.65 -30.2, 6044.59 -29.2, 9999.32 0.22 M0.38 -0.31 C3948.03 -0.44, 7895.41 0.2, 9999.95 0.08 M10000.08 -0.06 C10000.09 0.27, 10000.05 0.48, 10000.09 0.92 M9999.97 0.01 C9999.95 0.33, 9999.98 0.72, 10000 0.99 M10000.22 1.51 C7095.77 35.76, 4193.15 34.95, -0.25 0.75 M10000.01 1.13 C7827.97 2.74, 5656.23 3.35, -0.33 0.84 M-0.04 1.01 C0 0.63, -0.06 0.15, 0.05 -0.03 M-0.04 0.95 C-0.04 0.73, -0.03 0.59, -0.05 -0.02" stroke="transparent" stroke-width="1" fill="none"></path></g><g transform="translate(661 528.25) rotate(0 11 4.5)" stroke="none"><path fill="#d9480f" d="M 1.13,-2.26 Q 1.13,-2.26 2.80,-1.30 4.48,-0.35 5.80,0.29 7.11,0.93 8.25,1.47 9.40,2.01 10.47,2.50 11.55,3.00 12.45,3.56 13.35,4.12 15.03,4.91 16.70,5.71 17.79,5.87 18.87,6.02 20.31,5.98 21.74,5.93 22.23,6.02 22.72,6.11 23.15,6.35 23.58,6.59 23.91,6.96 24.25,7.33 24.44,7.78 24.64,8.23 24.69,8.72 24.73,9.22 24.61,9.70 24.50,10.18 24.23,10.60 23.97,11.01 23.59,11.33 23.20,11.64 22.74,11.81 22.28,11.99 21.78,12.00 21.29,12.02 20.81,11.88 20.34,11.74 19.94,11.45 19.53,11.16 19.24,10.76 18.95,10.36 18.80,9.89 18.66,9.42 18.67,8.93 18.68,8.43 18.84,7.97 19.01,7.50 19.32,7.11 19.63,6.73 20.04,6.46 20.46,6.19 20.93,6.07 21.41,5.94 21.91,5.98 22.40,6.02 22.86,6.21 23.31,6.40 23.68,6.73 24.05,7.06 24.30,7.49 24.54,7.92 24.64,8.40 24.74,8.89 24.67,9.38 24.61,9.87 24.39,10.31 24.18,10.76 23.83,11.11 23.48,11.46 23.04,11.68 22.60,11.90 22.11,11.97 21.62,12.04 21.62,12.04 21.62,12.04 19.55,11.88 17.48,11.72 15.98,11.10 14.47,10.49 13.34,9.83 12.21,9.18 10.77,8.30 9.32,7.43 8.28,6.87 7.25,6.31 6.13,5.72 5.01,5.12 3.71,4.46 2.41,3.80 0.64,3.03 -1.13,2.26 -1.38,2.09 -1.63,1.92 -1.84,1.70 -2.05,1.47 -2.19,1.20 -2.34,0.94 -2.42,0.64 -2.50,0.35 -2.50,0.04 -2.51,-0.25 -2.44,-0.55 -2.38,-0.85 -2.24,-1.12 -2.10,-1.39 -1.91,-1.62 -1.71,-1.85 -1.46,-2.03 -1.21,-2.21 -0.93,-2.32 -0.65,-2.44 -0.35,-2.48 -0.04,-2.52 0.25,-2.49 0.55,-2.46 0.84,-2.36 1.13,-2.26 1.13,-2.26 L 1.13,-2.26 Z"></path></g><g transform="translate(631 574.25) rotate(0 5 -6.5)" stroke="none"><path fill="#d9480f" d="M -2.21,-1.47 Q -2.21,-1.47 -1.66,-2.34 -1.12,-3.21 -0.54,-4.97 0.02,-6.74 0.46,-8.29 0.91,-9.84 1.90,-11.11 2.89,-12.39 4.10,-13.11 5.32,-13.84 6.19,-14.17 7.05,-14.51 7.40,-14.91 7.75,-15.32 8.21,-15.59 8.66,-15.87 9.19,-15.98 9.71,-16.09 10.24,-16.04 10.77,-15.98 11.25,-15.75 11.74,-15.53 12.12,-15.16 12.51,-14.79 12.76,-14.32 13.01,-13.84 13.09,-13.32 13.18,-12.79 13.09,-12.26 13.00,-11.74 12.75,-11.27 12.50,-10.80 12.11,-10.43 11.72,-10.06 11.24,-9.84 10.75,-9.62 10.22,-9.56 9.69,-9.51 9.17,-9.62 8.65,-9.74 8.19,-10.01 7.73,-10.29 7.39,-10.70 7.04,-11.11 6.85,-11.60 6.65,-12.10 6.62,-12.63 6.60,-13.17 6.74,-13.68 6.89,-14.19 7.19,-14.63 7.49,-15.08 7.91,-15.40 8.34,-15.72 8.85,-15.89 9.35,-16.06 9.89,-16.06 10.42,-16.05 10.93,-15.88 11.43,-15.71 11.85,-15.39 12.28,-15.06 12.58,-14.62 12.88,-14.18 13.02,-13.66 13.16,-13.15 13.13,-12.61 13.10,-12.08 12.90,-11.59 12.70,-11.09 12.70,-11.09 12.70,-11.09 10.68,-9.67 8.67,-8.24 7.55,-8.09 6.43,-7.95 6.05,-6.70 5.66,-5.45 5.14,-4.51 4.63,-3.57 4.02,-1.90 3.42,-0.23 2.81,0.62 2.21,1.47 2.00,1.72 1.80,1.96 1.53,2.15 1.27,2.34 0.97,2.46 0.67,2.57 0.36,2.62 0.04,2.66 -0.27,2.63 -0.59,2.59 -0.89,2.49 -1.20,2.38 -1.46,2.20 -1.73,2.02 -1.95,1.78 -2.17,1.55 -2.32,1.26 -2.47,0.98 -2.56,0.67 -2.64,0.36 -2.64,0.04 -2.65,-0.27 -2.58,-0.59 -2.50,-0.90 -2.36,-1.19 -2.21,-1.47 -2.21,-1.47 L -2.21,-1.47 Z"></path></g><g transform="translate(638 535.25) rotate(0 5 -1.5)" stroke="none"><path fill="#d9480f" d="M -0.81,-1.21 Q -0.81,-1.21 -0.32,-2.35 0.15,-3.50 1.05,-4.86 1.95,-6.22 2.79,-7.01 3.63,-7.79 4.94,-8.57 6.26,-9.36 8.62,-9.97 10.98,-10.58 11.81,-8.56 12.65,-6.55 12.35,-5.14 12.06,-3.74 11.94,-2.40 11.81,-1.06 11.39,0.04 10.97,1.16 10.93,2.72 10.89,4.28 10.89,4.81 10.88,5.34 10.82,5.68 10.77,6.02 10.63,6.34 10.50,6.66 10.29,6.93 10.08,7.21 9.81,7.43 9.54,7.65 9.23,7.79 8.92,7.94 8.58,8.01 8.24,8.08 7.89,8.06 7.54,8.05 7.21,7.95 6.88,7.86 6.58,7.68 6.28,7.51 6.03,7.27 5.78,7.03 5.60,6.74 5.41,6.44 5.30,6.11 5.19,5.79 5.17,5.44 5.14,5.10 6.84,3.55 8.54,2.01 8.66,1.83 8.78,1.65 8.95,1.52 9.12,1.40 9.32,1.33 9.52,1.26 9.73,1.26 9.95,1.26 10.15,1.32 10.35,1.39 10.52,1.52 10.69,1.65 10.81,1.82 10.93,2.00 10.99,2.20 11.04,2.41 11.03,2.62 11.02,2.83 10.94,3.03 10.87,3.23 10.73,3.39 10.59,3.55 10.41,3.66 10.23,3.77 10.02,3.82 9.81,3.86 9.60,3.84 9.39,3.82 9.20,3.73 9.01,3.64 8.85,3.50 8.70,3.35 8.60,3.16 8.50,2.98 8.46,2.77 8.43,2.56 8.46,2.35 8.49,2.14 8.59,1.95 8.69,1.76 8.84,1.62 9.00,1.47 9.19,1.38 9.38,1.29 9.59,1.27 9.81,1.24 10.01,1.29 10.22,1.33 10.40,1.44 10.59,1.55 10.72,1.71 10.86,1.87 10.94,2.07 11.02,2.27 11.03,2.48 11.04,2.69 10.99,2.90 10.93,3.10 10.93,3.10 10.93,3.10 10.91,4.22 10.88,5.34 10.82,5.68 10.77,6.02 10.63,6.34 10.50,6.66 10.29,6.93 10.08,7.21 9.81,7.43 9.54,7.65 9.23,7.79 8.92,7.94 8.58,8.01 8.24,8.08 7.89,8.06 7.54,8.05 7.21,7.95 6.88,7.86 6.58,7.68 6.28,7.51 6.03,7.27 5.78,7.03 5.60,6.74 5.41,6.44 5.30,6.11 5.19,5.79 5.17,5.44 5.14,5.10 5.15,4.57 5.17,4.04 5.30,2.68 5.43,1.31 5.68,0.09 5.93,-1.11 6.17,-2.29 6.42,-3.46 7.16,-5.16 7.90,-6.86 8.97,-6.08 10.04,-5.31 9.07,-4.75 8.11,-4.20 7.10,-3.04 6.08,-1.88 4.69,-0.34 3.29,1.20 2.05,1.20 0.81,1.21 0.65,1.29 0.49,1.37 0.32,1.41 0.15,1.45 -0.02,1.45 -0.19,1.44 -0.36,1.40 -0.54,1.35 -0.69,1.27 -0.84,1.18 -0.97,1.07 -1.10,0.95 -1.20,0.80 -1.30,0.65 -1.36,0.49 -1.42,0.32 -1.44,0.15 -1.46,-0.02 -1.43,-0.19 -1.41,-0.37 -1.34,-0.53 -1.28,-0.69 -1.18,-0.84 -1.07,-0.98 -0.94,-1.10 -0.81,-1.21 -0.81,-1.21 L -0.81,-1.21 Z"></path></g><g transform="translate(611 581.25) rotate(0 5.5 2.5)" stroke="none"><path fill="#d9480f" d="M -1.03,-1.24 Q -1.03,-1.24 0.50,-2.89 2.05,-4.54 3.05,-5.43 4.04,-6.31 5.03,-7.24 6.02,-8.17 6.73,-8.57 7.44,-8.97 7.65,-9.13 7.86,-9.28 8.10,-9.38 8.34,-9.49 8.60,-9.53 8.86,-9.57 9.12,-9.54 9.38,-9.52 9.63,-9.44 9.88,-9.35 10.10,-9.21 10.32,-9.07 10.50,-8.88 10.68,-8.69 10.81,-8.46 10.94,-8.23 11.01,-7.98 11.08,-7.73 11.09,-7.47 11.10,-7.21 11.05,-6.95 10.99,-6.69 10.88,-6.46 10.77,-6.22 10.60,-6.02 10.43,-5.82 11.30,-4.89 12.16,-3.97 12.27,-2.24 12.38,-0.50 12.48,1.65 12.58,3.81 12.62,5.30 12.66,6.79 12.67,7.99 12.67,9.20 11.26,10.28 9.84,11.35 9.99,11.20 10.14,11.05 10.33,10.95 10.52,10.85 10.73,10.82 10.94,10.79 11.15,10.83 11.36,10.87 11.54,10.97 11.73,11.07 11.87,11.23 12.02,11.39 12.10,11.58 12.19,11.77 12.21,11.99 12.23,12.20 12.18,12.40 12.13,12.61 12.02,12.79 11.90,12.97 11.74,13.11 11.58,13.24 11.38,13.32 11.18,13.39 10.97,13.40 10.75,13.41 10.55,13.35 10.35,13.29 10.17,13.16 10.00,13.04 9.87,12.87 9.75,12.70 9.68,12.50 9.62,12.30 9.62,12.08 9.63,11.87 9.70,11.67 9.77,11.47 9.90,11.30 10.03,11.14 10.21,11.02 10.39,10.90 10.59,10.85 10.80,10.80 11.01,10.81 11.22,10.83 11.42,10.91 11.61,10.99 11.77,11.13 11.93,11.27 12.04,11.45 12.15,11.64 12.19,11.85 12.23,12.06 12.20,12.27 12.18,12.48 12.09,12.67 11.99,12.86 11.99,12.86 11.99,12.86 9.65,11.04 7.30,9.22 7.30,8.02 7.30,6.82 7.32,5.34 7.34,3.87 7.39,1.76 7.44,-0.34 7.47,-2.74 7.51,-5.15 7.47,-7.06 7.44,-8.97 7.65,-9.13 7.86,-9.28 8.10,-9.38 8.34,-9.49 8.60,-9.53 8.86,-9.57 9.12,-9.54 9.38,-9.52 9.63,-9.44 9.88,-9.35 10.10,-9.21 10.32,-9.07 10.50,-8.88 10.68,-8.69 10.81,-8.46 10.94,-8.23 11.01,-7.98 11.08,-7.73 11.09,-7.47 11.10,-7.21 11.05,-6.95 10.99,-6.69 10.88,-6.46 10.77,-6.22 10.60,-6.02 10.43,-5.82 9.71,-5.40 8.99,-4.99 7.96,-4.01 6.93,-3.02 5.89,-2.11 4.84,-1.20 2.94,0.02 1.03,1.24 0.87,1.35 0.70,1.45 0.52,1.52 0.34,1.58 0.14,1.60 -0.04,1.62 -0.24,1.59 -0.43,1.56 -0.61,1.48 -0.79,1.41 -0.95,1.29 -1.11,1.18 -1.23,1.03 -1.36,0.88 -1.44,0.70 -1.53,0.52 -1.57,0.33 -1.61,0.14 -1.60,-0.04 -1.60,-0.24 -1.55,-0.43 -1.49,-0.62 -1.40,-0.79 -1.30,-0.96 -1.17,-1.10 -1.03,-1.24 -1.03,-1.24 L -1.03,-1.24 Z"></path></g><g transform="translate(752 602.90625) rotate(0 -13 6.5)" stroke="none"><path fill="#d9480f" d="M 0.79,2.37 Q 0.79,2.37 -0.95,2.88 -2.70,3.38 -3.93,3.90 -5.16,4.42 -6.69,5.27 -8.21,6.12 -9.82,6.95 -11.44,7.78 -12.59,8.45 -13.75,9.13 -14.91,9.78 -16.06,10.42 -17.57,11.34 -19.07,12.26 -20.23,13.06 -21.38,13.86 -23.00,14.75 -24.63,15.64 -25.10,15.72 -25.57,15.81 -26.04,15.75 -26.51,15.69 -26.94,15.47 -27.37,15.26 -27.70,14.92 -28.04,14.59 -28.25,14.16 -28.47,13.73 -28.53,13.26 -28.59,12.79 -28.50,12.32 -28.41,11.85 -28.18,11.43 -27.94,11.02 -27.59,10.70 -27.23,10.38 -26.79,10.19 -26.36,10.01 -25.88,9.97 -25.40,9.93 -24.94,10.04 -24.48,10.16 -24.08,10.42 -23.68,10.67 -23.38,11.05 -23.08,11.42 -22.91,11.87 -22.75,12.31 -22.74,12.79 -22.72,13.27 -22.86,13.72 -23.01,14.18 -23.28,14.57 -23.56,14.95 -23.95,15.23 -24.34,15.51 -24.79,15.65 -25.25,15.79 -25.73,15.78 -26.20,15.76 -26.65,15.60 -27.10,15.43 -27.47,15.13 -27.84,14.83 -28.10,14.43 -28.36,14.03 -28.47,13.57 -28.58,13.10 -28.55,12.63 -28.51,12.15 -28.32,11.72 -28.13,11.28 -27.81,10.92 -27.49,10.57 -27.08,10.33 -26.66,10.10 -26.66,10.10 -26.66,10.10 -24.75,9.09 -22.84,8.08 -21.65,7.52 -20.45,6.96 -19.55,6.36 -18.64,5.76 -17.58,5.17 -16.51,4.59 -15.15,3.74 -13.79,2.89 -12.81,2.45 -11.83,2.01 -10.43,1.56 -9.03,1.11 -8.00,0.56 -6.96,0.00 -5.58,-0.53 -4.19,-1.08 -2.49,-1.73 -0.79,-2.37 -0.49,-2.43 -0.20,-2.49 0.10,-2.48 0.40,-2.47 0.69,-2.38 0.98,-2.30 1.24,-2.15 1.50,-2.00 1.72,-1.79 1.94,-1.58 2.10,-1.32 2.26,-1.07 2.35,-0.78 2.45,-0.49 2.47,-0.19 2.50,0.10 2.45,0.40 2.40,0.69 2.28,0.97 2.16,1.25 1.98,1.49 1.80,1.73 1.57,1.92 1.33,2.11 1.06,2.24 0.79,2.37 0.79,2.37 L 0.79,2.37 Z"></path></g><g transform="translate(678 653.90625) rotate(0 11 -6)" stroke="none"><path fill="#d9480f" d="M -1.13,-2.26 Q -1.13,-2.26 0.01,-2.84 1.15,-3.43 2.20,-3.98 3.26,-4.53 4.58,-5.69 5.90,-6.85 7.43,-7.65 8.96,-8.46 10.47,-9.03 11.97,-9.61 13.09,-10.12 14.21,-10.63 15.54,-10.96 16.87,-11.29 18.24,-12.40 19.60,-13.51 19.95,-13.81 20.29,-14.10 20.72,-14.27 21.14,-14.44 21.59,-14.46 22.04,-14.49 22.48,-14.37 22.92,-14.25 23.29,-13.99 23.67,-13.74 23.94,-13.38 24.22,-13.02 24.37,-12.59 24.51,-12.16 24.51,-11.71 24.51,-11.25 24.37,-10.82 24.23,-10.39 23.95,-10.03 23.68,-9.67 23.30,-9.41 22.93,-9.16 22.49,-9.04 22.06,-8.91 21.60,-8.94 21.15,-8.96 20.73,-9.13 20.31,-9.29 19.96,-9.59 19.61,-9.88 19.38,-10.27 19.14,-10.66 19.04,-11.10 18.95,-11.54 18.99,-11.99 19.04,-12.44 19.23,-12.86 19.42,-13.27 19.73,-13.60 20.04,-13.93 20.44,-14.14 20.85,-14.36 21.29,-14.43 21.74,-14.50 22.19,-14.43 22.64,-14.36 23.04,-14.15 23.44,-13.94 23.75,-13.61 24.06,-13.28 24.25,-12.87 24.45,-12.46 24.50,-12.01 24.55,-11.55 24.45,-11.11 24.35,-10.67 24.12,-10.28 23.89,-9.89 23.89,-9.89 23.89,-9.89 21.60,-8.02 19.31,-6.14 17.82,-5.98 16.34,-5.82 15.12,-5.28 13.91,-4.75 11.68,-3.77 9.46,-2.79 8.44,-1.92 7.43,-1.04 6.51,-0.46 5.59,0.10 4.51,0.62 3.44,1.13 2.28,1.69 1.13,2.26 0.84,2.36 0.55,2.46 0.25,2.49 -0.04,2.52 -0.35,2.48 -0.65,2.44 -0.93,2.32 -1.21,2.21 -1.46,2.03 -1.71,1.85 -1.91,1.62 -2.10,1.39 -2.24,1.12 -2.38,0.84 -2.44,0.55 -2.51,0.25 -2.50,-0.04 -2.50,-0.35 -2.42,-0.64 -2.34,-0.94 -2.19,-1.20 -2.05,-1.47 -1.84,-1.70 -1.63,-1.92 -1.38,-2.09 -1.12,-2.26 -1.13,-2.26 L -1.13,-2.26 Z"></path></g><g transform="translate(696 605.25) rotate(0 8.5 1.5)" stroke="none"><path fill="#d9480f" d="M 1.84,-0.36 Q 1.84,-0.36 2.40,0.47 2.96,1.32 3.09,-0.13 3.21,-1.59 4.41,-3.11 5.61,-4.63 6.49,-5.65 7.37,-6.68 8.36,-7.39 9.35,-8.10 11.94,-7.72 14.53,-7.35 15.48,-5.50 16.43,-3.66 16.66,-2.35 16.90,-1.03 17.64,1.01 18.37,3.06 18.62,4.44 18.87,5.81 17.26,6.04 15.65,6.28 15.70,6.07 15.76,5.87 15.87,5.69 15.99,5.51 16.16,5.38 16.32,5.25 16.52,5.18 16.72,5.10 16.94,5.10 17.15,5.10 17.35,5.16 17.55,5.23 17.72,5.35 17.90,5.48 18.02,5.65 18.14,5.82 18.20,6.03 18.26,6.23 18.25,6.44 18.25,6.66 18.17,6.85 18.10,7.05 17.96,7.22 17.83,7.38 17.65,7.49 17.47,7.61 17.26,7.66 17.05,7.71 16.84,7.69 16.63,7.67 16.44,7.58 16.24,7.50 16.08,7.35 15.93,7.21 15.82,7.02 15.72,6.84 15.68,6.63 15.65,6.42 15.68,6.21 15.71,6.00 15.80,5.81 15.90,5.62 16.05,5.47 16.20,5.32 16.39,5.23 16.59,5.14 16.80,5.11 17.01,5.08 17.22,5.13 17.42,5.17 17.61,5.27 17.79,5.38 17.93,5.54 18.07,5.70 18.15,5.90 18.24,6.09 18.25,6.30 18.27,6.52 18.27,6.52 18.27,6.51 15.58,7.56 12.90,8.61 12.61,6.86 12.32,5.10 11.89,3.83 11.45,2.56 10.93,0.52 10.42,-1.51 10.11,-2.82 9.81,-4.13 11.00,-3.29 12.18,-2.46 11.41,-1.55 10.64,-0.65 9.31,1.02 7.98,2.69 6.60,4.08 5.21,5.46 3.44,5.94 1.67,6.41 -0.07,5.42 -1.81,4.42 -1.82,2.39 -1.84,0.36 -1.85,0.14 -1.87,-0.08 -1.83,-0.30 -1.80,-0.52 -1.71,-0.73 -1.62,-0.94 -1.48,-1.12 -1.34,-1.30 -1.17,-1.44 -0.99,-1.59 -0.79,-1.68 -0.58,-1.78 -0.36,-1.82 -0.14,-1.87 0.08,-1.86 0.30,-1.85 0.52,-1.78 0.74,-1.72 0.93,-1.61 1.13,-1.49 1.29,-1.33 1.45,-1.18 1.57,-0.99 1.70,-0.79 1.77,-0.58 1.84,-0.36 1.84,-0.36 L 1.84,-0.36 Z"></path></g><g transform="translate(660 655.25) rotate(0 5 4)" stroke="none"><path fill="#d9480f" d="M -1.25,-1.57 Q -1.25,-1.57 -0.13,-3.10 0.99,-4.63 1.74,-5.54 2.49,-6.44 4.74,-6.60 7.00,-6.76 8.14,-5.09 9.28,-3.42 9.52,-1.19 9.76,1.02 9.82,3.03 9.89,5.03 10.18,6.49 10.47,7.96 10.09,9.82 9.72,11.68 9.92,11.72 10.13,11.75 10.32,11.85 10.51,11.95 10.66,12.10 10.81,12.25 10.90,12.45 10.99,12.64 11.01,12.85 11.03,13.06 10.99,13.27 10.95,13.48 10.84,13.66 10.73,13.84 10.57,13.98 10.41,14.12 10.21,14.20 10.01,14.28 9.80,14.29 9.59,14.30 9.38,14.25 9.18,14.19 9.00,14.07 8.82,13.95 8.69,13.79 8.57,13.62 8.50,13.42 8.43,13.22 8.43,13.00 8.43,12.79 8.49,12.59 8.56,12.39 8.69,12.22 8.81,12.05 8.99,11.93 9.16,11.81 9.37,11.75 9.57,11.69 9.79,11.70 10.00,11.71 10.20,11.79 10.39,11.87 10.56,12.00 10.72,12.14 10.83,12.32 10.94,12.50 10.99,12.71 11.03,12.92 11.01,13.13 10.99,13.34 10.90,13.53 10.81,13.73 10.67,13.88 10.52,14.04 10.34,14.14 10.15,14.24 9.94,14.27 9.73,14.31 9.73,14.31 9.73,14.31 7.16,11.68 4.59,9.05 4.25,7.15 3.91,5.24 3.85,3.38 3.79,1.52 3.83,-0.61 3.86,-2.74 5.35,-2.57 6.84,-2.40 5.80,-1.18 4.75,0.03 3.00,0.80 1.25,1.57 1.05,1.70 0.84,1.82 0.61,1.90 0.38,1.97 0.14,1.99 -0.10,2.01 -0.34,1.96 -0.57,1.92 -0.80,1.83 -1.02,1.73 -1.21,1.58 -1.40,1.43 -1.56,1.24 -1.71,1.05 -1.81,0.83 -1.91,0.61 -1.96,0.38 -2.00,0.14 -1.99,-0.10 -1.98,-0.34 -1.91,-0.57 -1.84,-0.80 -1.72,-1.01 -1.59,-1.22 -1.42,-1.39 -1.25,-1.57 -1.25,-1.57 L -1.25,-1.57 Z"></path></g></svg>