<svg version="1.1" xmlns="http://www.w3.org/2000/svg" viewBox="0 0 10020 667.34375" width="10020" height="667.34375">
  <!-- svg-source:excalidraw -->
  
  <defs>
    <style>
      @font-face {
        font-family: "Virgil";
        src: url("https://excalidraw.com/Virgil.woff2");
      }
      @font-face {
        font-family: "Cascadia";
        src: url("https://excalidraw.com/Cascadia.woff2");
      }
    </style>
  </defs>
  <rect x="0" y="0" width="10020" height="667.34375" fill="#fff0"></rect><g stroke-linecap="round" transform="translate(10 10) rotate(0 5000 0.5)"><path d="M-0.52 -0.26 C3022.65 -30.2, 6044.59 -29.2, 9999.32 0.22 M0.38 -0.31 C3948.03 -0.44, 7895.41 0.2, 9999.95 0.08 M10000.08 -0.06 C10000.09 0.27, 10000.05 0.48, 10000.09 0.92 M9999.97 0.01 C9999.95 0.33, 9999.98 0.72, 10000 0.99 M10000.22 1.51 C7095.77 35.76, 4193.15 34.95, -0.25 0.75 M10000.01 1.13 C7827.97 2.74, 5656.23 3.35, -0.33 0.84 M-0.04 1.01 C0 0.63, -0.06 0.15, 0.05 -0.03 M-0.04 0.95 C-0.04 0.73, -0.03 0.59, -0.05 -0.02" stroke="transparent" stroke-width="1" fill="none"></path></g><g transform="translate(649 575.34375) rotate(0 3.5 -6)" stroke="none"><path fill="#d9480f" d="M -1.47,-2.21 Q -1.47,-2.21 -0.65,-2.78 0.16,-3.35 0.94,-4.61 1.71,-5.87 2.29,-7.91 2.88,-9.95 3.35,-11.05 3.81,-12.16 3.97,-12.65 4.13,-13.13 4.44,-13.55 4.74,-13.96 5.16,-14.25 5.58,-14.54 6.08,-14.69 6.57,-14.83 7.08,-14.81 7.59,-14.78 8.07,-14.60 8.55,-14.42 8.94,-14.09 9.34,-13.76 9.61,-13.32 9.88,-12.89 9.99,-12.39 10.11,-11.89 10.06,-11.38 10.01,-10.87 9.80,-10.40 9.59,-9.93 9.24,-9.56 8.89,-9.18 8.44,-8.93 7.99,-8.69 7.49,-8.60 6.98,-8.51 6.48,-8.59 5.97,-8.67 5.51,-8.90 5.06,-9.14 4.70,-9.50 4.34,-9.87 4.12,-10.34 3.90,-10.80 3.84,-11.31 3.78,-11.82 3.89,-12.32 3.99,-12.82 4.25,-13.26 4.51,-13.71 4.90,-14.04 5.28,-14.38 5.76,-14.57 6.23,-14.77 6.74,-14.80 7.25,-14.84 7.75,-14.70 8.25,-14.57 8.67,-14.29 9.10,-14.01 9.42,-13.60 9.73,-13.20 9.90,-12.71 10.07,-12.23 10.07,-11.72 10.08,-11.20 10.08,-11.20 10.08,-11.20 8.89,-8.29 7.70,-5.38 7.10,-4.35 6.51,-3.31 5.64,-1.99 4.76,-0.66 4.02,0.19 3.28,1.05 2.37,1.63 1.47,2.21 1.18,2.35 0.90,2.49 0.58,2.57 0.27,2.64 -0.04,2.63 -0.36,2.63 -0.67,2.55 -0.98,2.46 -1.26,2.31 -1.54,2.16 -1.78,1.94 -2.01,1.72 -2.19,1.46 -2.37,1.19 -2.48,0.89 -2.58,0.59 -2.62,0.27 -2.65,-0.04 -2.61,-0.36 -2.56,-0.67 -2.45,-0.97 -2.33,-1.27 -2.14,-1.53 -1.95,-1.79 -1.71,-2.00 -1.47,-2.21 -1.47,-2.21 L -1.47,-2.21 Z"></path></g><g transform="translate(651 523.34375) rotate(0 -2 9)" stroke="none"><path fill="#d9480f" d="M 1.87,1.87 Q 1.87,1.87 1.32,2.47 0.78,3.08 0.40,4.29 0.03,5.49 -0.75,7.19 -1.55,8.88 -1.14,10.09 -0.73,11.29 -0.70,14.47 -0.66,17.65 -0.75,18.18 -0.84,18.71 -1.09,19.19 -1.34,19.66 -1.73,20.04 -2.13,20.41 -2.62,20.63 -3.10,20.86 -3.64,20.92 -4.18,20.97 -4.70,20.86 -5.23,20.74 -5.69,20.46 -6.15,20.19 -6.50,19.78 -6.85,19.37 -7.05,18.86 -7.25,18.36 -7.28,17.83 -7.31,17.29 -7.16,16.77 -7.02,16.25 -6.72,15.80 -6.41,15.36 -5.98,15.03 -5.55,14.70 -5.04,14.53 -4.53,14.36 -3.99,14.36 -3.46,14.36 -2.94,14.53 -2.43,14.71 -2.00,15.03 -1.58,15.36 -1.27,15.80 -0.97,16.25 -0.83,16.77 -0.68,17.29 -0.71,17.83 -0.74,18.37 -0.94,18.87 -1.14,19.37 -1.49,19.78 -1.84,20.19 -2.30,20.47 -2.76,20.74 -3.29,20.86 -3.82,20.97 -4.35,20.92 -4.89,20.86 -5.38,20.63 -5.87,20.40 -6.26,20.03 -6.65,19.66 -6.90,19.19 -7.15,18.71 -7.24,18.18 -7.33,17.65 -7.33,17.65 -7.33,17.65 -7.32,15.45 -7.30,13.25 -7.25,11.73 -7.20,10.21 -7.13,9.08 -7.05,7.96 -6.48,6.49 -5.91,5.01 -5.60,3.55 -5.29,2.10 -4.18,0.65 -3.08,-0.78 -2.47,-1.32 -1.87,-1.87 -1.62,-2.07 -1.37,-2.27 -1.08,-2.40 -0.78,-2.53 -0.47,-2.59 -0.16,-2.65 0.15,-2.63 0.47,-2.61 0.78,-2.51 1.08,-2.42 1.36,-2.25 1.63,-2.09 1.86,-1.86 2.09,-1.63 2.25,-1.36 2.42,-1.08 2.51,-0.78 2.61,-0.47 2.63,-0.15 2.65,0.16 2.59,0.47 2.53,0.79 2.40,1.08 2.27,1.37 2.07,1.62 1.87,1.87 1.87,1.87 L 1.87,1.87 Z"></path></g><g transform="translate(739 530.34375) rotate(0 5 3.5)" stroke="none"><path fill="#d9480f" d="M 0.50,-2.53 Q 0.50,-2.53 1.94,-2.23 3.37,-1.93 5.61,-0.92 7.85,0.09 10.18,2.89 12.50,5.70 12.59,6.14 12.68,6.59 12.62,7.04 12.56,7.49 12.36,7.89 12.16,8.30 11.84,8.62 11.52,8.94 11.12,9.15 10.71,9.35 10.26,9.41 9.82,9.48 9.37,9.39 8.92,9.31 8.53,9.09 8.13,8.87 7.83,8.53 7.53,8.20 7.34,7.78 7.16,7.37 7.12,6.92 7.08,6.47 7.19,6.02 7.30,5.58 7.54,5.20 7.78,4.82 8.13,4.53 8.49,4.25 8.91,4.09 9.34,3.93 9.79,3.92 10.24,3.90 10.67,4.03 11.11,4.16 11.48,4.43 11.85,4.69 12.11,5.06 12.38,5.42 12.51,5.85 12.65,6.29 12.64,6.74 12.63,7.19 12.48,7.62 12.32,8.04 12.04,8.40 11.76,8.75 11.38,9.00 11.00,9.24 10.56,9.36 10.12,9.47 9.67,9.43 9.21,9.40 8.80,9.22 8.38,9.04 8.04,8.74 7.70,8.44 7.48,8.05 7.25,7.66 7.25,7.66 7.25,7.66 6.71,6.55 6.17,5.44 4.27,4.26 2.37,3.08 0.93,2.80 -0.50,2.53 -0.80,2.43 -1.09,2.34 -1.36,2.17 -1.62,2.01 -1.84,1.78 -2.06,1.56 -2.21,1.29 -2.37,1.02 -2.46,0.72 -2.55,0.42 -2.56,0.11 -2.57,-0.19 -2.51,-0.50 -2.45,-0.80 -2.32,-1.09 -2.19,-1.37 -1.99,-1.61 -1.79,-1.85 -1.55,-2.04 -1.30,-2.23 -1.01,-2.35 -0.72,-2.48 -0.42,-2.53 -0.11,-2.58 0.19,-2.56 0.50,-2.53 0.50,-2.53 L 0.50,-2.53 Z"></path></g><g transform="translate(718 524.34375) rotate(0 4.5 -1)" stroke="none"><path fill="#d9480f" d="M -1.16,-1.16 Q -1.16,-1.16 -0.44,-2.72 0.28,-4.27 0.85,-5.33 1.41,-6.39 3.78,-7.99 6.16,-9.58 7.36,-7.92 8.56,-6.26 8.61,-5.00 8.67,-3.75 8.69,-2.38 8.71,-1.01 8.72,0.12 8.74,1.26 9.39,2.62 10.05,3.98 10.55,4.36 11.06,4.75 11.14,5.07 11.21,5.40 11.21,5.73 11.20,6.06 11.12,6.39 11.03,6.71 10.88,7.00 10.72,7.30 10.49,7.54 10.27,7.79 9.99,7.98 9.71,8.16 9.40,8.27 9.09,8.39 8.76,8.42 8.42,8.46 8.09,8.42 7.76,8.37 7.45,8.25 7.14,8.13 6.87,7.93 6.60,7.74 6.38,7.49 6.16,7.24 6.01,6.94 5.86,6.64 6.75,4.51 7.65,2.38 7.70,2.17 7.75,1.97 7.86,1.79 7.98,1.61 8.14,1.47 8.31,1.34 8.51,1.27 8.71,1.20 8.92,1.19 9.13,1.19 9.34,1.25 9.54,1.31 9.71,1.44 9.88,1.56 10.01,1.73 10.13,1.91 10.19,2.11 10.26,2.31 10.25,2.52 10.24,2.74 10.17,2.94 10.10,3.14 9.96,3.30 9.83,3.47 9.65,3.58 9.47,3.69 9.26,3.75 9.06,3.80 8.85,3.78 8.63,3.76 8.44,3.68 8.24,3.59 8.09,3.45 7.93,3.31 7.82,3.12 7.72,2.94 7.68,2.73 7.64,2.52 7.67,2.31 7.70,2.10 7.79,1.91 7.89,1.72 8.04,1.57 8.19,1.42 8.38,1.32 8.57,1.23 8.78,1.20 8.99,1.17 9.20,1.21 9.41,1.25 9.59,1.36 9.78,1.46 9.92,1.62 10.06,1.78 10.15,1.98 10.23,2.17 10.25,2.38 10.26,2.60 10.26,2.60 10.26,2.60 10.66,3.67 11.06,4.75 11.14,5.07 11.21,5.40 11.21,5.73 11.20,6.06 11.12,6.39 11.03,6.71 10.88,7.00 10.72,7.30 10.49,7.54 10.27,7.79 9.99,7.97 9.71,8.16 9.40,8.27 9.09,8.39 8.76,8.42 8.42,8.46 8.09,8.42 7.76,8.37 7.45,8.25 7.14,8.13 6.87,7.93 6.60,7.74 6.38,7.49 6.16,7.24 6.01,6.94 5.86,6.64 5.58,6.38 5.30,6.12 4.63,5.20 3.97,4.28 3.60,2.81 3.24,1.34 3.24,0.19 3.24,-0.95 3.23,-2.27 3.23,-3.59 3.90,-4.46 4.57,-5.32 5.43,-4.46 6.29,-3.60 5.30,-1.96 4.31,-0.32 2.74,0.42 1.16,1.16 1.01,1.29 0.85,1.41 0.67,1.49 0.49,1.57 0.29,1.61 0.09,1.65 -0.09,1.63 -0.29,1.62 -0.48,1.56 -0.67,1.50 -0.84,1.40 -1.02,1.30 -1.16,1.16 -1.30,1.02 -1.40,0.84 -1.50,0.67 -1.56,0.48 -1.62,0.29 -1.63,0.09 -1.65,-0.09 -1.61,-0.29 -1.57,-0.49 -1.49,-0.67 -1.41,-0.85 -1.29,-1.01 -1.16,-1.16 -1.16,-1.16 L -1.16,-1.16 Z"></path></g><g transform="translate(753 557.34375) rotate(0 -8 8.5)" stroke="none"><path fill="#d9480f" d="M 1.05,1.40 Q 1.05,1.40 -0.00,2.38 -1.05,3.36 -2.70,5.03 -4.35,6.70 -5.24,7.51 -6.12,8.32 -7.08,9.24 -8.04,10.17 -9.31,11.43 -10.58,12.70 -11.37,14.04 -12.16,15.37 -13.93,14.62 -15.71,13.88 -15.50,13.82 -15.30,13.76 -15.09,13.77 -14.88,13.78 -14.68,13.86 -14.48,13.94 -14.32,14.08 -14.15,14.21 -14.04,14.39 -13.93,14.58 -13.89,14.78 -13.84,14.99 -13.86,15.20 -13.88,15.41 -13.97,15.61 -14.06,15.80 -14.21,15.95 -14.35,16.11 -14.54,16.21 -14.73,16.31 -14.94,16.35 -15.14,16.38 -15.35,16.35 -15.56,16.31 -15.75,16.22 -15.94,16.12 -16.09,15.96 -16.23,15.81 -16.32,15.62 -16.41,15.43 -16.44,15.21 -16.46,15.00 -16.42,14.80 -16.37,14.59 -16.26,14.41 -16.16,14.22 -15.99,14.08 -15.83,13.95 -15.64,13.87 -15.44,13.79 -15.23,13.77 -15.02,13.76 -14.81,13.82 -14.61,13.87 -14.43,13.99 -14.25,14.11 -14.12,14.28 -13.99,14.45 -13.92,14.65 -13.86,14.85 -13.86,15.06 -13.85,15.27 -13.92,15.48 -13.99,15.68 -14.12,15.85 -14.24,16.02 -14.42,16.14 -14.59,16.26 -14.59,16.26 -14.59,16.26 -15.45,14.83 -16.31,13.40 -14.99,11.49 -13.67,9.57 -12.36,8.30 -11.05,7.03 -10.04,6.07 -9.03,5.10 -7.25,3.68 -5.47,2.25 -4.51,1.17 -3.54,0.08 -2.29,-0.65 -1.05,-1.40 -0.87,-1.51 -0.68,-1.61 -0.48,-1.67 -0.28,-1.73 -0.06,-1.74 0.14,-1.75 0.35,-1.70 0.55,-1.66 0.74,-1.57 0.94,-1.48 1.10,-1.35 1.26,-1.21 1.39,-1.04 1.52,-0.87 1.60,-0.68 1.68,-0.48 1.72,-0.27 1.75,-0.06 1.73,0.14 1.72,0.35 1.65,0.55 1.58,0.75 1.47,0.93 1.36,1.11 1.20,1.25 1.05,1.40 1.05,1.40 L 1.05,1.40 Z"></path></g><g transform="translate(721 583.34375) rotate(0 7.5 6.5)" stroke="none"><path fill="#d9480f" d="M -0.37,-1.89 Q -0.37,-1.89 0.98,-2.53 2.35,-3.16 3.66,-3.33 4.97,-3.50 6.55,-3.58 8.14,-3.65 9.36,-3.16 10.59,-2.66 11.31,-1.76 12.03,-0.86 12.28,0.74 12.53,2.35 11.91,4.22 11.29,6.09 10.76,7.45 10.24,8.82 9.00,10.75 7.75,12.69 7.56,13.44 7.36,14.20 7.17,14.43 6.99,14.66 6.75,14.84 6.51,15.03 6.24,15.15 5.96,15.27 5.67,15.32 5.38,15.37 5.08,15.35 4.78,15.33 4.50,15.24 4.21,15.14 3.96,14.99 3.70,14.83 3.49,14.62 3.28,14.40 3.13,14.15 2.98,13.89 2.89,13.60 2.81,13.32 2.79,13.02 2.78,12.72 2.83,12.43 2.89,12.14 3.02,11.86 3.14,11.59 5.03,11.00 6.92,10.40 8.47,10.39 10.02,10.37 11.93,10.85 13.84,11.33 14.00,11.19 14.16,11.06 14.36,10.98 14.55,10.90 14.76,10.88 14.98,10.87 15.18,10.92 15.39,10.98 15.56,11.10 15.74,11.22 15.87,11.38 16.00,11.55 16.07,11.75 16.14,11.95 16.14,12.17 16.14,12.38 16.08,12.58 16.01,12.78 15.88,12.95 15.75,13.12 15.58,13.24 15.40,13.36 15.20,13.42 15.00,13.48 14.78,13.47 14.57,13.46 14.37,13.38 14.18,13.31 14.01,13.17 13.85,13.03 13.74,12.85 13.63,12.67 13.58,12.46 13.53,12.26 13.55,12.05 13.58,11.83 13.66,11.64 13.75,11.45 13.90,11.29 14.04,11.14 14.23,11.04 14.42,10.93 14.62,10.90 14.83,10.86 15.04,10.90 15.25,10.93 15.44,11.03 15.63,11.12 15.78,11.28 15.93,11.43 16.02,11.62 16.11,11.81 16.13,12.03 16.16,12.24 16.11,12.44 16.07,12.65 15.96,12.84 15.85,13.02 15.85,13.02 15.85,13.02 12.91,14.31 9.98,15.60 8.67,14.90 7.36,14.20 7.17,14.43 6.99,14.66 6.75,14.84 6.51,15.03 6.24,15.15 5.96,15.27 5.67,15.32 5.38,15.37 5.08,15.35 4.78,15.33 4.50,15.24 4.21,15.14 3.96,14.99 3.70,14.83 3.49,14.62 3.28,14.40 3.13,14.15 2.98,13.89 2.89,13.60 2.81,13.32 2.79,13.02 2.78,12.72 2.83,12.43 2.89,12.14 3.02,11.86 3.14,11.59 3.29,10.86 3.43,10.12 4.35,8.56 5.27,6.99 5.77,5.52 6.28,4.05 7.14,2.88 8.01,1.72 6.76,1.79 5.52,1.86 4.45,1.94 3.39,2.01 1.88,1.95 0.37,1.89 0.14,1.91 -0.08,1.93 -0.31,1.89 -0.54,1.85 -0.76,1.76 -0.97,1.67 -1.16,1.53 -1.34,1.39 -1.49,1.21 -1.64,1.02 -1.74,0.81 -1.84,0.60 -1.88,0.37 -1.93,0.14 -1.92,-0.08 -1.91,-0.31 -1.84,-0.54 -1.77,-0.76 -1.66,-0.96 -1.54,-1.17 -1.38,-1.33 -1.21,-1.50 -1.02,-1.62 -0.82,-1.75 -0.60,-1.82 -0.37,-1.89 -0.37,-1.89 L -0.37,-1.89 Z"></path></g><g transform="translate(656 598.34375) rotate(0 -3 9.5)" stroke="none"><path fill="#d9480f" d="M 1.17,0.58 Q 1.17,0.58 1.04,1.95 0.90,3.32 0.23,4.80 -0.43,6.27 -0.86,7.86 -1.29,9.45 -1.82,11.53 -2.35,13.61 -2.92,14.99 -3.49,16.37 -4.08,17.56 -4.67,18.75 -4.71,18.95 -4.76,19.16 -4.87,19.34 -4.98,19.53 -5.14,19.66 -5.30,19.80 -5.50,19.88 -5.69,19.96 -5.91,19.97 -6.12,19.98 -6.32,19.93 -6.53,19.87 -6.70,19.75 -6.88,19.63 -7.01,19.46 -7.14,19.30 -7.21,19.09 -7.27,18.89 -7.27,18.68 -7.27,18.47 -7.21,18.27 -7.14,18.06 -7.01,17.90 -6.88,17.73 -6.71,17.61 -6.53,17.49 -6.33,17.43 -6.12,17.37 -5.91,17.38 -5.70,17.39 -5.50,17.47 -5.30,17.55 -5.14,17.69 -4.98,17.83 -4.87,18.01 -4.76,18.19 -4.71,18.40 -4.67,18.60 -4.69,18.82 -4.71,19.03 -4.80,19.22 -4.89,19.41 -5.04,19.57 -5.18,19.72 -5.37,19.82 -5.56,19.92 -5.77,19.96 -5.98,19.99 -6.19,19.96 -6.40,19.92 -6.58,19.82 -6.77,19.72 -6.92,19.57 -7.06,19.42 -7.15,19.22 -7.24,19.03 -7.27,18.82 -7.29,18.61 -7.29,18.61 -7.29,18.61 -7.38,16.29 -7.48,13.97 -7.09,12.96 -6.71,11.95 -6.38,10.71 -6.05,9.48 -5.54,7.89 -5.03,6.30 -4.72,5.09 -4.40,3.89 -3.80,2.58 -3.20,1.27 -2.19,0.34 -1.17,-0.58 -1.08,-0.71 -0.99,-0.85 -0.88,-0.95 -0.76,-1.06 -0.62,-1.14 -0.48,-1.21 -0.33,-1.25 -0.18,-1.30 -0.02,-1.30 0.13,-1.30 0.28,-1.27 0.44,-1.23 0.58,-1.16 0.72,-1.09 0.84,-0.99 0.96,-0.89 1.05,-0.76 1.15,-0.63 1.20,-0.48 1.26,-0.33 1.29,-0.18 1.31,-0.02 1.29,0.13 1.28,0.28 1.22,0.43 1.17,0.58 1.17,0.58 L 1.17,0.58 Z"></path></g><g transform="translate(676 634.34375) rotate(0 -0.5 7.5)" stroke="none"><path fill="#d9480f" d="M 1.39,0 Q 1.39,0 1.94,1.72 2.50,3.44 2.51,4.76 2.53,6.08 2.21,7.51 1.88,8.95 -0.20,10.63 -2.30,12.31 -2.27,12.10 -2.24,11.89 -2.15,11.70 -2.05,11.51 -1.90,11.36 -1.75,11.21 -1.56,11.12 -1.37,11.03 -1.16,11.00 -0.94,10.97 -0.74,11.01 -0.53,11.05 -0.34,11.16 -0.16,11.27 -0.02,11.43 0.11,11.58 0.19,11.78 0.28,11.98 0.29,12.19 0.31,12.40 0.26,12.61 0.20,12.81 0.09,12.99 -0.02,13.17 -0.18,13.30 -0.35,13.43 -0.55,13.50 -0.75,13.58 -0.96,13.58 -1.18,13.58 -1.38,13.52 -1.58,13.46 -1.75,13.33 -1.92,13.21 -2.05,13.03 -2.17,12.86 -2.23,12.66 -2.29,12.45 -2.28,12.24 -2.28,12.03 -2.20,11.83 -2.13,11.63 -1.99,11.47 -1.86,11.30 -1.68,11.19 -1.50,11.07 -1.29,11.02 -1.09,10.97 -0.87,10.99 -0.66,11.01 -0.47,11.10 -0.27,11.18 -0.12,11.33 0.03,11.47 0.13,11.65 0.24,11.84 0.28,12.05 0.31,12.26 0.31,12.26 0.31,12.26 -1.52,11.20 -3.37,10.14 -2.95,8.09 -2.53,6.04 -2.51,4.74 -2.50,3.44 -1.94,1.72 -1.39,0 -1.37,-0.16 -1.35,-0.33 -1.29,-0.48 -1.23,-0.64 -1.13,-0.78 -1.04,-0.92 -0.91,-1.03 -0.79,-1.14 -0.64,-1.22 -0.49,-1.30 -0.33,-1.34 -0.16,-1.38 0.00,-1.38 0.16,-1.38 0.33,-1.34 0.49,-1.30 0.64,-1.22 0.79,-1.14 0.91,-1.03 1.04,-0.92 1.13,-0.78 1.23,-0.64 1.29,-0.48 1.35,-0.33 1.37,-0.16 1.39,0.00 1.39,0.00 L 1.39,0 Z"></path></g><g transform="translate(621 600.34375) rotate(0 -3 9.5)" stroke="none"><path fill="#d9480f" d="M 1.62,0.32 Q 1.62,0.32 1.57,1.81 1.53,3.29 1.03,5.29 0.52,7.30 0.02,8.90 -0.48,10.51 -0.92,11.50 -1.36,12.50 -1.88,14.40 -2.39,16.29 -4.30,17.79 -6.22,19.29 -6.41,19.21 -6.61,19.13 -6.77,18.98 -6.92,18.84 -7.03,18.66 -7.13,18.47 -7.17,18.26 -7.21,18.05 -7.18,17.84 -7.16,17.63 -7.06,17.44 -6.97,17.25 -6.82,17.10 -6.67,16.95 -6.48,16.86 -6.29,16.76 -6.08,16.73 -5.86,16.71 -5.66,16.75 -5.45,16.79 -5.26,16.89 -5.08,16.99 -4.94,17.15 -4.79,17.31 -4.71,17.51 -4.63,17.70 -4.61,17.91 -4.59,18.13 -4.64,18.33 -4.69,18.54 -4.81,18.72 -4.92,18.90 -5.09,19.03 -5.25,19.16 -5.45,19.24 -5.65,19.31 -5.87,19.31 -6.08,19.32 -6.28,19.26 -6.48,19.19 -6.66,19.07 -6.83,18.95 -6.95,18.77 -7.08,18.60 -7.14,18.40 -7.20,18.20 -7.20,17.98 -7.19,17.77 -7.12,17.57 -7.04,17.37 -6.91,17.21 -6.78,17.04 -6.60,16.93 -6.42,16.81 -6.21,16.76 -6.01,16.71 -5.79,16.73 -5.58,16.74 -5.58,16.74 -5.58,16.74 -5.73,14.94 -5.88,13.14 -5.18,11.02 -4.48,8.91 -4.00,7.39 -3.52,5.86 -3.10,4.16 -2.68,2.45 -2.15,1.06 -1.62,-0.32 -1.55,-0.51 -1.49,-0.70 -1.39,-0.87 -1.28,-1.04 -1.14,-1.17 -0.99,-1.31 -0.82,-1.41 -0.65,-1.51 -0.46,-1.57 -0.27,-1.63 -0.07,-1.64 0.12,-1.64 0.32,-1.61 0.51,-1.57 0.69,-1.48 0.87,-1.40 1.03,-1.27 1.18,-1.15 1.30,-0.99 1.42,-0.83 1.50,-0.64 1.58,-0.46 1.61,-0.26 1.65,-0.07 1.63,0.12 1.62,0.32 1.62,0.32 L 1.62,0.32 Z"></path></g><g transform="translate(605 593.34375) rotate(0 3.5 6)" stroke="none"><path fill="#d9480f" d="M 0.55,-1.67 Q 0.55,-1.67 1.43,-1.78 2.31,-1.90 3.70,-2.73 5.08,-3.56 6.17,-3.26 7.26,-2.96 7.95,-0.77 8.64,1.40 8.67,2.73 8.69,4.05 8.71,5.19 8.72,6.32 8.05,9.02 7.39,11.73 7.57,11.85 7.74,11.97 7.86,12.15 7.99,12.32 8.05,12.52 8.11,12.72 8.11,12.94 8.10,13.15 8.03,13.35 7.96,13.55 7.83,13.71 7.69,13.88 7.52,14.00 7.34,14.11 7.13,14.16 6.93,14.21 6.71,14.20 6.50,14.18 6.31,14.10 6.11,14.01 5.95,13.87 5.79,13.73 5.69,13.55 5.58,13.36 5.54,13.15 5.50,12.95 5.53,12.74 5.56,12.52 5.65,12.33 5.75,12.14 5.89,11.99 6.04,11.84 6.23,11.75 6.42,11.65 6.64,11.62 6.85,11.59 7.05,11.63 7.26,11.67 7.45,11.78 7.63,11.88 7.78,12.04 7.92,12.20 8.00,12.39 8.09,12.59 8.11,12.80 8.12,13.01 8.07,13.21 8.02,13.42 7.91,13.60 7.79,13.78 7.63,13.91 7.46,14.05 7.26,14.12 7.07,14.20 6.85,14.20 6.64,14.21 6.44,14.15 6.23,14.08 6.23,14.08 6.23,14.08 4.74,10.22 3.25,6.35 3.25,5.24 3.24,4.13 3.27,2.18 3.30,0.23 4.32,0.54 5.35,0.86 4.53,1.80 3.70,2.75 2.42,2.90 1.13,3.05 0.28,2.36 -0.55,1.67 -0.74,1.58 -0.94,1.48 -1.10,1.35 -1.26,1.22 -1.39,1.05 -1.52,0.88 -1.60,0.68 -1.69,0.49 -1.72,0.28 -1.76,0.07 -1.74,-0.13 -1.72,-0.35 -1.65,-0.55 -1.59,-0.75 -1.47,-0.93 -1.36,-1.11 -1.21,-1.26 -1.05,-1.40 -0.87,-1.51 -0.69,-1.62 -0.48,-1.67 -0.28,-1.73 -0.07,-1.74 0.14,-1.75 0.34,-1.71 0.55,-1.67 0.55,-1.67 L 0.55,-1.67 Z"></path></g><g transform="translate(630 648.34375) rotate(0 4.5 -6.5)" stroke="none"><path fill="#d9480f" d="M -1.15,-0.76 Q -1.15,-0.76 -0.62,-2.90 -0.10,-5.04 0.57,-6.47 1.25,-7.90 1.87,-9.16 2.49,-10.42 3.39,-11.92 4.28,-13.42 7.13,-13.18 9.97,-12.94 10.04,-12.74 10.11,-12.54 10.12,-12.33 10.12,-12.12 10.06,-11.92 10.00,-11.71 9.87,-11.54 9.75,-11.37 9.57,-11.25 9.40,-11.12 9.20,-11.06 9.00,-11.00 8.78,-11.01 8.57,-11.01 8.37,-11.09 8.17,-11.16 8.01,-11.30 7.84,-11.43 7.73,-11.61 7.61,-11.79 7.56,-11.99 7.51,-12.20 7.53,-12.41 7.55,-12.62 7.63,-12.82 7.72,-13.01 7.86,-13.17 8.00,-13.33 8.19,-13.43 8.38,-13.54 8.58,-13.58 8.79,-13.61 9.00,-13.59 9.21,-13.56 9.40,-13.46 9.59,-13.37 9.74,-13.21 9.89,-13.06 9.99,-12.87 10.08,-12.68 10.11,-12.47 10.14,-12.26 10.09,-12.05 10.05,-11.84 9.95,-11.66 9.84,-11.47 9.68,-11.33 9.53,-11.19 9.33,-11.11 9.13,-11.03 8.92,-11.01 8.71,-10.99 8.50,-11.05 8.30,-11.10 8.12,-11.21 7.94,-11.33 7.81,-11.49 7.68,-11.66 7.68,-11.66 7.68,-11.66 8.45,-11.05 9.23,-10.45 8.45,-9.16 7.67,-7.87 7.06,-6.62 6.44,-5.37 5.57,-3.61 4.70,-1.85 2.92,-0.54 1.15,0.76 1.04,0.89 0.93,1.02 0.80,1.12 0.66,1.21 0.50,1.27 0.35,1.34 0.18,1.36 0.02,1.38 -0.14,1.36 -0.31,1.35 -0.46,1.29 -0.62,1.23 -0.76,1.14 -0.90,1.05 -1.01,0.92 -1.12,0.80 -1.20,0.65 -1.28,0.51 -1.33,0.35 -1.37,0.18 -1.37,0.02 -1.37,-0.14 -1.34,-0.30 -1.30,-0.47 -1.22,-0.62 -1.15,-0.76 -1.15,-0.76 L -1.15,-0.76 Z"></path></g><g transform="translate(608 639.34375) rotate(0 2.5 5.5)" stroke="none"><path fill="#d9480f" d="M 1.64,0.20 Q 1.64,0.20 1.81,2.59 1.97,4.98 1.13,6.68 0.30,8.38 2.17,7.92 4.04,7.47 6.34,8.08 8.63,8.69 8.84,8.72 9.05,8.75 9.24,8.85 9.43,8.94 9.58,9.10 9.73,9.25 9.82,9.44 9.91,9.63 9.93,9.84 9.96,10.05 9.92,10.26 9.87,10.47 9.77,10.65 9.66,10.84 9.50,10.98 9.34,11.12 9.14,11.20 8.94,11.28 8.73,11.29 8.52,11.31 8.32,11.25 8.11,11.20 7.93,11.08 7.76,10.96 7.63,10.80 7.49,10.63 7.42,10.43 7.35,10.23 7.35,10.01 7.35,9.80 7.41,9.60 7.48,9.40 7.61,9.23 7.73,9.06 7.91,8.94 8.08,8.81 8.29,8.75 8.49,8.70 8.70,8.70 8.91,8.71 9.11,8.79 9.31,8.87 9.47,9.00 9.64,9.14 9.75,9.32 9.86,9.50 9.91,9.71 9.96,9.91 9.94,10.12 9.92,10.34 9.83,10.53 9.74,10.72 9.60,10.88 9.45,11.04 9.27,11.14 9.08,11.24 8.87,11.28 8.66,11.31 8.66,11.31 8.66,11.31 6.54,12.04 4.42,12.78 3.32,12.85 2.21,12.93 0.26,13.09 -1.68,13.26 -2.99,12.64 -4.31,12.03 -4.83,10.81 -5.34,9.58 -4.23,6.89 -3.12,4.21 -2.38,2.00 -1.64,-0.20 -1.59,-0.40 -1.55,-0.59 -1.45,-0.77 -1.36,-0.94 -1.23,-1.09 -1.09,-1.24 -0.93,-1.36 -0.76,-1.47 -0.57,-1.54 -0.39,-1.61 -0.19,-1.63 0.00,-1.66 0.20,-1.63 0.40,-1.61 0.59,-1.53 0.77,-1.46 0.94,-1.35 1.10,-1.23 1.23,-1.08 1.37,-0.93 1.46,-0.76 1.55,-0.58 1.60,-0.38 1.64,-0.19 1.64,0.00 1.64,0.20 1.64,0.20 L 1.64,0.20 Z"></path></g><g transform="translate(616 644.34375) rotate(0 2.5 6.5)" stroke="none"><path fill="#d9480f" d="M 1.82,0 Q 1.82,0 2.38,1.72 2.94,3.44 2.94,4.74 2.94,6.04 3.35,8.07 3.76,10.09 4.15,10.85 4.54,11.61 4.75,11.67 4.95,11.73 5.12,11.86 5.30,11.98 5.42,12.15 5.55,12.33 5.61,12.53 5.67,12.73 5.67,12.94 5.66,13.16 5.59,13.36 5.52,13.56 5.38,13.72 5.25,13.89 5.07,14.00 4.89,14.12 4.69,14.17 4.48,14.22 4.27,14.20 4.06,14.19 3.86,14.10 3.67,14.02 3.51,13.88 3.35,13.74 3.24,13.55 3.14,13.37 3.10,13.16 3.06,12.95 3.09,12.74 3.11,12.53 3.21,12.34 3.30,12.15 3.45,12.00 3.60,11.85 3.79,11.75 3.98,11.66 4.19,11.63 4.40,11.60 4.61,11.64 4.82,11.68 5.01,11.78 5.19,11.89 5.33,12.04 5.48,12.20 5.56,12.40 5.64,12.59 5.66,12.80 5.68,13.02 5.63,13.22 5.58,13.43 5.46,13.61 5.35,13.79 5.18,13.92 5.02,14.05 4.82,14.13 4.62,14.20 4.41,14.21 4.20,14.21 4.20,14.21 4.20,14.21 1.18,13.39 -1.82,12.57 -2.06,10.81 -2.29,9.05 -2.62,7.57 -2.94,6.08 -2.94,4.76 -2.94,3.44 -2.38,1.72 -1.82,0 -1.79,-0.21 -1.76,-0.43 -1.69,-0.64 -1.61,-0.84 -1.48,-1.02 -1.36,-1.20 -1.19,-1.35 -1.03,-1.49 -0.84,-1.60 -0.64,-1.70 -0.43,-1.75 -0.21,-1.80 0.00,-1.80 0.21,-1.80 0.43,-1.75 0.64,-1.70 0.84,-1.60 1.03,-1.49 1.19,-1.35 1.36,-1.20 1.48,-1.02 1.61,-0.84 1.69,-0.64 1.76,-0.43 1.79,-0.21 1.82,0.00 1.82,0.00 L 1.82,0 Z"></path></g></svg>