<svg version="1.1" xmlns="http://www.w3.org/2000/svg" viewBox="0 0 10020 620.1875" width="10020" height="620.1875">
  <!-- svg-source:excalidraw -->
  
  <defs>
    <style>
      @font-face {
        font-family: "Virgil";
        src: url("https://excalidraw.com/Virgil.woff2");
      }
      @font-face {
        font-family: "Cascadia";
        src: url("https://excalidraw.com/Cascadia.woff2");
      }
    </style>
  </defs>
  <rect x="0" y="0" width="10020" height="620.1875" fill="#fff0"></rect><g stroke-linecap="round" transform="translate(10 10) rotate(0 5000 0.5)"><path d="M-0.52 -0.26 C3022.65 -30.2, 6044.59 -29.2, 9999.32 0.22 M0.38 -0.31 C3948.03 -0.44, 7895.41 0.2, 9999.95 0.08 M10000.08 -0.06 C10000.09 0.27, 10000.05 0.48, 10000.09 0.92 M9999.97 0.01 C9999.95 0.33, 9999.98 0.72, 10000 0.99 M10000.22 1.51 C7095.77 35.76, 4193.15 34.95, -0.25 0.75 M10000.01 1.13 C7827.97 2.74, 5656.23 3.35, -0.33 0.84 M-0.04 1.01 C0 0.63, -0.06 0.15, 0.05 -0.03 M-0.04 0.95 C-0.04 0.73, -0.03 0.59, -0.05 -0.02" stroke="transparent" stroke-width="1" fill="none"></path></g><g transform="translate(631.4375 589.1875) rotate(0 -34.5 10.5)" stroke="none"><path fill="#d9480f" d="M 2.57,-0.64 Q 2.57,-0.64 2.87,0.50 3.17,1.65 3.35,2.88 3.52,4.11 3.87,5.42 4.22,6.73 4.92,8.43 5.61,10.13 5.60,11.32 5.59,12.51 5.14,13.51 4.69,14.50 3.80,15.51 2.92,16.51 1.84,17.20 0.76,17.89 -0.24,18.48 -1.26,19.06 -2.96,19.41 -4.66,19.75 -6.40,20.48 -8.14,21.20 -9.63,21.93 -11.12,22.66 -12.56,22.89 -14.00,23.12 -16.39,23.08 -18.78,23.04 -20.57,22.93 -22.36,22.81 -24.55,22.62 -26.75,22.44 -29.12,22.29 -31.49,22.14 -33.65,22.03 -35.81,21.92 -37.59,21.92 -39.36,21.92 -40.98,21.95 -42.60,21.97 -43.86,22.04 -45.13,22.10 -46.24,22.17 -47.35,22.23 -48.72,22.35 -50.09,22.47 -51.86,22.56 -53.62,22.65 -55.56,22.70 -57.51,22.76 -59.34,23.20 -61.17,23.64 -62.90,23.77 -64.62,23.90 -66.29,23.95 -67.96,24.01 -69.08,24.05 -70.20,24.10 -72.23,23.17 -74.26,22.24 -74.39,19.89 -74.53,17.55 -74.15,16.44 -73.77,15.33 -73.10,14.25 -72.43,13.17 -72.27,12.65 -72.10,12.13 -71.78,11.68 -71.46,11.24 -71.02,10.93 -70.57,10.61 -70.05,10.45 -69.52,10.29 -68.98,10.31 -68.43,10.33 -67.92,10.52 -67.41,10.71 -66.99,11.06 -66.56,11.40 -66.27,11.86 -65.98,12.32 -65.85,12.86 -65.72,13.39 -65.77,13.93 -65.81,14.47 -66.03,14.98 -66.25,15.48 -66.62,15.88 -66.99,16.28 -67.46,16.55 -67.94,16.82 -68.48,16.92 -69.01,17.02 -69.55,16.94 -70.09,16.86 -70.58,16.62 -71.07,16.37 -71.46,15.99 -71.84,15.60 -72.08,15.11 -72.32,14.62 -72.39,14.07 -72.46,13.53 -72.36,13.00 -72.25,12.46 -71.98,11.99 -71.71,11.51 -71.30,11.15 -70.89,10.79 -70.39,10.57 -69.88,10.36 -69.34,10.32 -68.79,10.28 -68.26,10.41 -67.74,10.55 -67.28,10.85 -66.82,11.14 -66.48,11.57 -66.14,12.00 -65.95,12.51 -65.77,13.02 -65.76,13.57 -65.74,14.12 -65.74,14.12 -65.74,14.12 -66.88,16.31 -68.01,18.51 -68.62,19.56 -69.23,20.60 -69.19,19.27 -69.15,17.93 -67.88,17.97 -66.62,18.01 -64.89,18.02 -63.15,18.02 -61.73,17.95 -60.30,17.87 -58.93,17.55 -57.57,17.23 -55.59,17.29 -53.62,17.34 -51.86,17.43 -50.09,17.52 -48.72,17.64 -47.35,17.76 -46.24,17.82 -45.13,17.89 -43.87,17.95 -42.60,18.02 -40.98,18.04 -39.36,18.07 -37.59,18.07 -35.81,18.07 -33.65,17.96 -31.49,17.84 -29.12,17.70 -26.75,17.55 -24.56,17.36 -22.36,17.17 -20.59,17.05 -18.81,16.93 -17.34,16.85 -15.88,16.77 -14.13,16.71 -12.37,16.65 -11.33,16.06 -10.29,15.47 -9.20,15.04 -8.12,14.61 -6.93,14.12 -5.74,13.64 -4.38,13.22 -3.01,12.80 -1.55,11.65 -0.09,10.50 -0.61,9.56 -1.13,8.63 -1.50,7.38 -1.86,6.12 -1.94,4.53 -2.02,2.94 -2.30,1.79 -2.57,0.64 -2.61,0.32 -2.65,0.00 -2.61,-0.30 -2.58,-0.62 -2.46,-0.92 -2.35,-1.22 -2.17,-1.49 -1.99,-1.75 -1.75,-1.96 -1.51,-2.18 -1.23,-2.32 -0.94,-2.47 -0.63,-2.55 -0.32,-2.63 -0.00,-2.63 0.31,-2.63 0.62,-2.56 0.93,-2.48 1.21,-2.33 1.50,-2.18 1.74,-1.97 1.98,-1.76 2.16,-1.50 2.34,-1.24 2.46,-0.94 2.57,-0.64 2.57,-0.64 L 2.57,-0.64 Z"></path></g><g transform="translate(592.4375 584.1875) rotate(0 12.5 -0.5)" stroke="none"><path fill="#1864ab" d="M -0.64,-2.58 Q -0.64,-2.58 0.50,-2.88 1.64,-3.18 3.24,-3.46 4.85,-3.74 6.01,-3.84 7.17,-3.93 8.71,-4.01 10.25,-4.09 11.75,-4.15 13.26,-4.21 14.76,-4.25 16.26,-4.29 17.76,-4.33 19.26,-4.36 21.97,-4.39 24.68,-4.42 25.23,-4.33 25.77,-4.24 26.26,-3.98 26.75,-3.72 27.13,-3.32 27.51,-2.92 27.75,-2.41 27.98,-1.91 28.04,-1.36 28.10,-0.81 27.98,-0.27 27.86,0.26 27.58,0.74 27.29,1.21 26.87,1.57 26.45,1.93 25.93,2.13 25.42,2.34 24.86,2.37 24.31,2.40 23.78,2.25 23.24,2.10 22.78,1.79 22.33,1.48 21.99,1.04 21.66,0.60 21.48,0.07 21.30,-0.44 21.30,-1.00 21.30,-1.55 21.48,-2.07 21.66,-2.60 21.99,-3.04 22.33,-3.48 22.79,-3.79 23.24,-4.10 23.78,-4.25 24.31,-4.40 24.86,-4.37 25.42,-4.34 25.93,-4.13 26.45,-3.93 26.87,-3.57 27.29,-3.21 27.58,-2.74 27.86,-2.26 27.98,-1.72 28.10,-1.18 28.04,-0.63 27.98,-0.08 27.75,0.41 27.51,0.92 27.13,1.32 26.75,1.72 26.26,1.98 25.77,2.24 25.23,2.33 24.68,2.42 24.68,2.42 24.68,2.42 22.47,2.40 20.26,2.38 18.76,2.35 17.26,2.32 15.76,2.28 14.26,2.24 12.76,2.19 11.26,2.13 9.76,2.07 8.27,2.01 6.79,1.95 5.32,1.89 4.13,1.96 2.95,2.03 1.79,2.30 0.64,2.58 0.32,2.62 0.00,2.66 -0.30,2.62 -0.62,2.58 -0.92,2.47 -1.22,2.36 -1.49,2.17 -1.75,1.99 -1.97,1.75 -2.18,1.51 -2.33,1.23 -2.48,0.95 -2.56,0.64 -2.64,0.32 -2.64,0.00 -2.64,-0.31 -2.56,-0.62 -2.49,-0.93 -2.34,-1.21 -2.19,-1.50 -1.98,-1.74 -1.77,-1.98 -1.50,-2.16 -1.24,-2.35 -0.94,-2.46 -0.64,-2.58 -0.64,-2.58 L -0.64,-2.58 Z"></path></g></svg>