<svg version="1.1" xmlns="http://www.w3.org/2000/svg" viewBox="0 0 10020 574.34375" width="10020" height="574.34375">
  <!-- svg-source:excalidraw -->
  
  <defs>
    <style>
      @font-face {
        font-family: "Virgil";
        src: url("https://excalidraw.com/Virgil.woff2");
      }
      @font-face {
        font-family: "Cascadia";
        src: url("https://excalidraw.com/Cascadia.woff2");
      }
    </style>
  </defs>
  <rect x="0" y="0" width="10020" height="574.34375" fill="#fff0"></rect><g stroke-linecap="round" transform="translate(10 10) rotate(0 5000 0.5)"><path d="M-0.52 -0.26 C3022.65 -30.2, 6044.59 -29.2, 9999.32 0.22 M0.38 -0.31 C3948.03 -0.44, 7895.41 0.2, 9999.95 0.08 M10000.08 -0.06 C10000.09 0.27, 10000.05 0.48, 10000.09 0.92 M9999.97 0.01 C9999.95 0.33, 9999.98 0.72, 10000 0.99 M10000.22 1.51 C7095.77 35.76, 4193.15 34.95, -0.25 0.75 M10000.01 1.13 C7827.97 2.74, 5656.23 3.35, -0.33 0.84 M-0.04 1.01 C0 0.63, -0.06 0.15, 0.05 -0.03 M-0.04 0.95 C-0.04 0.73, -0.03 0.59, -0.05 -0.02" stroke="transparent" stroke-width="1" fill="none"></path></g><g transform="translate(740 525.34375) rotate(0 -30 11)" stroke="none"><path fill="#d9480f" d="M 0.62,1.25 Q 0.62,1.25 -0.21,2.43 -1.06,3.61 -2.65,4.66 -4.24,5.72 -5.76,6.72 -7.28,7.72 -8.27,8.26 -9.25,8.80 -10.24,9.32 -11.22,9.85 -12.22,10.36 -13.21,10.87 -14.21,11.37 -15.21,11.88 -16.21,12.39 -17.21,12.90 -18.35,13.47 -19.50,14.04 -21.02,14.67 -22.55,15.30 -23.92,16.09 -25.29,16.87 -26.63,17.29 -27.98,17.71 -29.15,18.23 -30.32,18.75 -31.61,18.88 -32.91,19.01 -34.41,19.51 -35.92,20.01 -37.77,20.05 -39.62,20.09 -40.79,20.09 -41.96,20.09 -43.15,20.51 -44.33,20.93 -45.69,21.05 -47.05,21.17 -48.43,21.75 -49.81,22.32 -50.92,22.92 -52.03,23.52 -53.48,24.31 -54.93,25.10 -56.98,22.89 -59.03,20.68 -58.82,20.72 -58.61,20.75 -58.42,20.86 -58.24,20.96 -58.09,21.11 -57.95,21.27 -57.86,21.46 -57.77,21.66 -57.75,21.87 -57.73,22.08 -57.78,22.29 -57.83,22.49 -57.94,22.67 -58.05,22.86 -58.21,22.99 -58.38,23.13 -58.58,23.20 -58.77,23.28 -58.99,23.29 -59.20,23.30 -59.40,23.24 -59.61,23.18 -59.78,23.06 -59.96,22.94 -60.08,22.77 -60.21,22.60 -60.28,22.40 -60.34,22.19 -60.34,21.98 -60.34,21.77 -60.27,21.57 -60.20,21.37 -60.07,21.20 -59.94,21.03 -59.76,20.91 -59.58,20.80 -59.38,20.74 -59.17,20.69 -58.96,20.70 -58.75,20.71 -58.55,20.80 -58.35,20.88 -58.19,21.02 -58.03,21.15 -57.93,21.34 -57.82,21.52 -57.77,21.73 -57.73,21.94 -57.76,22.15 -57.78,22.36 -57.87,22.55 -57.96,22.74 -58.11,22.90 -58.26,23.05 -58.45,23.15 -58.64,23.24 -58.85,23.28 -59.06,23.31 -59.06,23.31 -59.06,23.31 -57.59,21.44 -56.12,19.57 -54.60,18.56 -53.09,17.55 -52.02,16.98 -50.95,16.42 -49.13,15.58 -47.30,14.75 -45.98,14.77 -44.65,14.78 -43.49,14.34 -42.33,13.90 -41.01,13.88 -39.68,13.87 -37.74,13.87 -35.80,13.86 -33.67,13.30 -31.55,12.73 -30.50,12.21 -29.46,11.69 -28.22,11.12 -26.99,10.55 -26.02,10.09 -25.06,9.63 -23.91,9.24 -22.75,8.84 -21.29,8.23 -19.83,7.62 -18.84,7.13 -17.84,6.64 -16.85,6.14 -15.86,5.64 -14.87,5.15 -13.89,4.66 -12.92,4.19 -11.96,3.71 -10.34,2.84 -8.72,1.96 -7.08,0.92 -5.45,-0.12 -4.49,-0.71 -3.53,-1.31 -2.08,-1.28 -0.62,-1.25 -0.46,-1.30 -0.30,-1.36 -0.14,-1.38 0.02,-1.39 0.19,-1.37 0.36,-1.35 0.51,-1.28 0.67,-1.22 0.81,-1.12 0.94,-1.02 1.05,-0.90 1.16,-0.77 1.24,-0.62 1.31,-0.47 1.35,-0.30 1.39,-0.14 1.38,0.02 1.38,0.19 1.34,0.35 1.29,0.52 1.21,0.66 1.13,0.81 1.02,0.94 0.90,1.06 0.76,1.15 0.62,1.25 0.62,1.25 L 0.62,1.25 Z"></path></g><g transform="translate(749 564.34375) rotate(0 -4.5 -3.5)" stroke="none"><path fill="#d9480f" d="M -0.43,1.30 Q -0.43,1.30 -1.42,1.40 -2.41,1.50 -3.78,0.74 -5.14,-0.01 -6.89,-0.12 -8.63,-0.23 -9.82,-1.18 -11.01,-2.12 -10.20,-4.52 -9.40,-6.93 -9.30,-7.12 -9.20,-7.31 -9.05,-7.45 -8.90,-7.60 -8.70,-7.69 -8.51,-7.78 -8.30,-7.81 -8.09,-7.83 -7.88,-7.79 -7.67,-7.74 -7.49,-7.63 -7.31,-7.53 -7.17,-7.36 -7.03,-7.20 -6.95,-7.01 -6.87,-6.81 -6.86,-6.60 -6.85,-6.39 -6.90,-6.18 -6.96,-5.98 -7.07,-5.80 -7.19,-5.62 -7.36,-5.49 -7.53,-5.36 -7.73,-5.29 -7.93,-5.22 -8.14,-5.22 -8.35,-5.22 -8.56,-5.29 -8.76,-5.35 -8.93,-5.48 -9.10,-5.61 -9.22,-5.78 -9.34,-5.96 -9.40,-6.16 -9.46,-6.37 -9.45,-6.58 -9.44,-6.79 -9.36,-6.99 -9.28,-7.19 -9.15,-7.35 -9.01,-7.51 -8.83,-7.62 -8.65,-7.73 -8.44,-7.78 -8.23,-7.83 -8.02,-7.81 -7.81,-7.79 -7.62,-7.70 -7.42,-7.61 -7.27,-7.47 -7.11,-7.32 -7.01,-7.13 -6.91,-6.95 -6.87,-6.74 -6.84,-6.53 -6.87,-6.32 -6.90,-6.11 -6.90,-6.11 -6.90,-6.11 -6.45,-5.34 -5.99,-4.58 -4.83,-4.22 -3.67,-3.85 -2.35,-3.25 -1.03,-2.65 -0.29,-1.97 0.43,-1.30 0.58,-1.23 0.73,-1.16 0.86,-1.05 0.99,-0.95 1.09,-0.82 1.19,-0.68 1.25,-0.53 1.32,-0.38 1.34,-0.21 1.37,-0.05 1.36,0.10 1.34,0.27 1.29,0.43 1.24,0.58 1.15,0.72 1.06,0.87 0.94,0.98 0.82,1.10 0.68,1.18 0.53,1.26 0.38,1.31 0.22,1.35 0.05,1.36 -0.11,1.37 -0.27,1.33 -0.43,1.30 -0.43,1.30 L -0.43,1.30 Z"></path></g></svg>