<svg version="1.1" xmlns="http://www.w3.org/2000/svg" viewBox="0 0 10020 686.53125" width="10020" height="686.53125">
  <!-- svg-source:excalidraw -->
  
  <defs>
    <style>
      @font-face {
        font-family: "Virgil";
        src: url("https://excalidraw.com/Virgil.woff2");
      }
      @font-face {
        font-family: "Cascadia";
        src: url("https://excalidraw.com/Cascadia.woff2");
      }
    </style>
  </defs>
  <rect x="0" y="0" width="10020" height="686.53125" fill="#fff0"></rect><g stroke-linecap="round" transform="translate(10 10) rotate(0 5000 0.5)"><path d="M-0.52 -0.26 C3022.65 -30.2, 6044.59 -29.2, 9999.32 0.22 M0.38 -0.31 C3948.03 -0.44, 7895.41 0.2, 9999.95 0.08 M10000.08 -0.06 C10000.09 0.27, 10000.05 0.48, 10000.09 0.92 M9999.97 0.01 C9999.95 0.33, 9999.98 0.72, 10000 0.99 M10000.22 1.51 C7095.77 35.76, 4193.15 34.95, -0.25 0.75 M10000.01 1.13 C7827.97 2.74, 5656.23 3.35, -0.33 0.84 M-0.04 1.01 C0 0.63, -0.06 0.15, 0.05 -0.03 M-0.04 0.95 C-0.04 0.73, -0.03 0.59, -0.05 -0.02" stroke="transparent" stroke-width="1" fill="none"></path></g><g transform="translate(537 538.53125) rotate(0 -10 -5.5)" stroke="none"><path fill="#d9480f" d="M -1.12,0.84 Q -1.12,0.84 -2.62,0.19 -4.11,-0.46 -5.53,-1.19 -6.95,-1.92 -8.44,-2.75 -9.93,-3.58 -11.48,-4.61 -13.03,-5.65 -14.01,-6.15 -15.00,-6.65 -17.51,-8.15 -20.02,-9.64 -20.21,-9.73 -20.41,-9.82 -20.56,-9.96 -20.72,-10.10 -20.82,-10.29 -20.92,-10.48 -20.96,-10.69 -20.99,-10.90 -20.96,-11.11 -20.93,-11.32 -20.83,-11.51 -20.74,-11.69 -20.58,-11.84 -20.43,-11.99 -20.24,-12.08 -20.05,-12.17 -19.84,-12.20 -19.63,-12.22 -19.42,-12.18 -19.21,-12.14 -19.03,-12.03 -18.84,-11.92 -18.70,-11.76 -18.56,-11.60 -18.48,-11.41 -18.40,-11.21 -18.39,-11.00 -18.37,-10.78 -18.43,-10.58 -18.48,-10.37 -18.60,-10.20 -18.72,-10.02 -18.89,-9.89 -19.05,-9.76 -19.25,-9.69 -19.45,-9.62 -19.67,-9.62 -19.88,-9.61 -20.08,-9.68 -20.28,-9.74 -20.45,-9.87 -20.62,-10.00 -20.75,-10.17 -20.87,-10.35 -20.93,-10.55 -20.99,-10.75 -20.98,-10.97 -20.97,-11.18 -20.89,-11.38 -20.81,-11.58 -20.68,-11.74 -20.54,-11.90 -20.36,-12.01 -20.18,-12.13 -19.97,-12.17 -19.77,-12.22 -19.56,-12.20 -19.34,-12.18 -19.34,-12.18 -19.34,-12.18 -16.58,-12.05 -13.82,-11.92 -12.46,-11.16 -11.09,-10.41 -10.01,-9.88 -8.92,-9.35 -7.52,-8.42 -6.13,-7.50 -4.80,-7.23 -3.48,-6.96 -2.36,-6.35 -1.24,-5.73 -0.28,-4.93 0.66,-4.13 0.89,-2.49 1.12,-0.84 1.21,-0.69 1.29,-0.55 1.34,-0.38 1.39,-0.22 1.39,-0.05 1.40,0.11 1.37,0.28 1.33,0.44 1.26,0.60 1.19,0.75 1.08,0.88 0.97,1.01 0.83,1.11 0.70,1.22 0.54,1.28 0.39,1.35 0.22,1.38 0.05,1.40 -0.11,1.39 -0.28,1.38 -0.44,1.32 -0.60,1.27 -0.74,1.18 -0.89,1.09 -1.01,0.96 -1.12,0.84 -1.12,0.84 L -1.12,0.84 Z"></path></g><g transform="translate(574 559.53125) rotate(0 13.5 7.5)" stroke="none"><path fill="#d9480f" d="M 1.06,-1.06 Q 1.06,-1.06 2.05,-0.90 3.03,-0.73 4.12,0.68 5.20,2.10 6.30,3.17 7.40,4.23 8.73,5.15 10.06,6.07 11.54,7.05 13.03,8.04 14.14,9.06 15.26,10.08 17.10,11.04 18.95,12.00 20.10,12.04 21.25,12.07 23.42,11.69 25.58,11.30 25.78,11.22 25.98,11.14 26.19,11.14 26.41,11.13 26.61,11.19 26.81,11.25 26.99,11.37 27.16,11.49 27.29,11.66 27.41,11.83 27.48,12.04 27.54,12.24 27.54,12.45 27.54,12.66 27.46,12.86 27.39,13.07 27.26,13.23 27.13,13.40 26.95,13.52 26.78,13.63 26.57,13.69 26.36,13.74 26.15,13.72 25.94,13.71 25.74,13.63 25.55,13.55 25.39,13.41 25.23,13.27 25.12,13.08 25.02,12.90 24.97,12.69 24.93,12.48 24.96,12.27 24.98,12.06 25.08,11.87 25.17,11.68 25.32,11.53 25.46,11.37 25.65,11.28 25.84,11.18 26.05,11.15 26.26,11.12 26.47,11.16 26.68,11.19 26.87,11.30 27.05,11.40 27.20,11.56 27.34,11.71 27.43,11.91 27.51,12.10 27.53,12.31 27.55,12.52 27.50,12.73 27.46,12.94 27.34,13.12 27.23,13.30 27.07,13.43 26.90,13.57 26.90,13.57 26.90,13.57 25.31,15.23 23.73,16.88 22.49,17.38 21.26,17.88 20.07,17.87 18.88,17.87 17.22,17.40 15.57,16.94 14.54,16.40 13.51,15.87 12.38,15.18 11.26,14.50 10.21,13.49 9.17,12.49 7.62,11.44 6.07,10.40 4.62,9.34 3.17,8.27 2.17,7.12 1.17,5.96 0.21,4.50 -0.73,3.03 -0.90,2.05 -1.06,1.06 -1.17,0.92 -1.28,0.77 -1.36,0.61 -1.43,0.44 -1.46,0.26 -1.50,0.09 -1.49,-0.09 -1.48,-0.27 -1.42,-0.44 -1.37,-0.61 -1.27,-0.77 -1.18,-0.92 -1.05,-1.05 -0.92,-1.18 -0.77,-1.27 -0.61,-1.37 -0.44,-1.42 -0.27,-1.48 -0.09,-1.49 0.09,-1.50 0.26,-1.46 0.44,-1.43 0.61,-1.36 0.77,-1.28 0.92,-1.17 1.06,-1.06 1.06,-1.06 L 1.06,-1.06 Z"></path></g><g transform="translate(544 506.53125) rotate(0 15 12.5)"><text x="0" y="18" font-family="Virgil, Segoe UI Emoji" font-size="20px" fill="#d9480f" text-anchor="start" style="white-space: pre;" direction="ltr">9:9</text></g><g transform="translate(538 514.53125) rotate(0 3 12.5)"><text x="0" y="18" font-family="Virgil, Segoe UI Emoji" font-size="20px" fill="#d9480f" text-anchor="start" style="white-space: pre;" direction="ltr">1</text></g><g transform="translate(611 562.53125) rotate(0 7.5 12.5)"><text x="0" y="18" font-family="Virgil, Segoe UI Emoji" font-size="20px" fill="#d9480f" text-anchor="start" style="white-space: pre;" direction="ltr">2</text></g><g transform="translate(603 580.53125) rotate(0 22 12.5)"><text x="0" y="18" font-family="Virgil, Segoe UI Emoji" font-size="20px" fill="#d9480f" text-anchor="start" style="white-space: pre;" direction="ltr">18/9</text></g><g transform="translate(592 524.53125) rotate(0 -10.5 8)" stroke="none"><path fill="#d9480f" d="M 1.59,2.12 Q 1.59,2.12 0.42,2.97 -0.73,3.82 -1.71,4.35 -2.69,4.89 -3.48,6.04 -4.26,7.19 -5.17,7.78 -6.08,8.37 -7.51,9.91 -8.94,11.45 -10.02,12.55 -11.09,13.65 -12.07,14.61 -13.04,15.57 -14.05,16.18 -15.05,16.79 -17.29,17.92 -19.53,19.06 -20.07,19.16 -20.61,19.26 -21.15,19.18 -21.69,19.10 -22.18,18.86 -22.67,18.61 -23.05,18.23 -23.43,17.84 -23.67,17.35 -23.91,16.86 -23.99,16.32 -24.06,15.77 -23.95,15.24 -23.85,14.70 -23.57,14.23 -23.30,13.75 -22.89,13.39 -22.49,13.03 -21.98,12.81 -21.48,12.60 -20.94,12.56 -20.39,12.52 -19.86,12.65 -19.33,12.79 -18.87,13.08 -18.41,13.38 -18.07,13.81 -17.73,14.23 -17.55,14.75 -17.36,15.26 -17.35,15.81 -17.34,16.35 -17.50,16.88 -17.66,17.40 -17.99,17.84 -18.31,18.28 -18.75,18.60 -19.20,18.91 -19.72,19.07 -20.24,19.23 -20.79,19.21 -21.34,19.19 -21.85,19.00 -22.36,18.81 -22.78,18.47 -23.21,18.12 -23.50,17.66 -23.79,17.20 -23.92,16.67 -24.05,16.14 -24.00,15.59 -23.95,15.05 -23.74,14.55 -23.52,14.05 -23.15,13.64 -22.78,13.24 -22.31,12.97 -21.83,12.71 -21.83,12.71 -21.83,12.71 -19.69,11.76 -17.54,10.82 -16.01,9.41 -14.48,7.99 -13.36,7.36 -12.23,6.73 -11.18,5.40 -10.14,4.07 -9.11,3.49 -8.09,2.91 -7.43,2.05 -6.78,1.18 -5.32,0.40 -3.86,-0.37 -2.72,-1.24 -1.59,-2.12 -1.31,-2.28 -1.03,-2.44 -0.73,-2.53 -0.42,-2.61 -0.10,-2.63 0.21,-2.64 0.52,-2.57 0.84,-2.51 1.13,-2.37 1.42,-2.24 1.66,-2.03 1.91,-1.83 2.10,-1.57 2.29,-1.32 2.42,-1.02 2.54,-0.73 2.59,-0.41 2.65,-0.10 2.62,0.21 2.59,0.53 2.49,0.83 2.39,1.13 2.22,1.40 2.05,1.67 1.82,1.90 1.59,2.12 1.59,2.12 L 1.59,2.12 Z"></path></g><g transform="translate(540 558.53125) rotate(0 -10 6)" stroke="none"><path fill="#d9480f" d="M 1.07,2.14 Q 1.07,2.14 -1.28,3.17 -3.64,4.19 -5.40,5.36 -7.15,6.53 -8.14,7.42 -9.14,8.30 -10.56,9.42 -11.98,10.54 -13.44,11.49 -14.91,12.44 -16.90,13.50 -18.89,14.56 -19.33,14.62 -19.78,14.68 -20.22,14.59 -20.66,14.51 -21.05,14.28 -21.44,14.06 -21.74,13.73 -22.04,13.39 -22.21,12.98 -22.39,12.57 -22.42,12.12 -22.46,11.67 -22.35,11.24 -22.24,10.80 -22.00,10.42 -21.76,10.05 -21.41,9.77 -21.05,9.48 -20.63,9.33 -20.21,9.18 -19.76,9.17 -19.31,9.16 -18.88,9.29 -18.46,9.42 -18.09,9.68 -17.73,9.95 -17.47,10.31 -17.21,10.68 -17.08,11.11 -16.94,11.54 -16.96,11.99 -16.97,12.43 -17.13,12.85 -17.28,13.28 -17.57,13.62 -17.85,13.97 -18.23,14.21 -18.61,14.46 -19.04,14.56 -19.48,14.67 -19.92,14.63 -20.37,14.59 -20.78,14.42 -21.20,14.24 -21.53,13.94 -21.86,13.64 -22.08,13.24 -22.30,12.85 -22.39,12.41 -22.47,11.97 -22.41,11.53 -22.35,11.08 -22.14,10.68 -21.94,10.28 -21.63,9.96 -21.31,9.65 -20.90,9.45 -20.50,9.25 -20.50,9.25 -20.50,9.25 -18.87,8.49 -17.24,7.73 -15.73,7.18 -14.23,6.63 -12.96,5.88 -11.69,5.14 -10.54,4.30 -9.40,3.46 -7.47,1.93 -5.55,0.40 -3.31,-0.87 -1.07,-2.14 -0.80,-2.24 -0.52,-2.34 -0.24,-2.37 0.04,-2.40 0.33,-2.36 0.62,-2.32 0.88,-2.21 1.15,-2.10 1.39,-1.93 1.62,-1.76 1.81,-1.54 2.00,-1.32 2.13,-1.06 2.26,-0.80 2.32,-0.52 2.39,-0.24 2.38,0.04 2.37,0.33 2.30,0.61 2.22,0.89 2.08,1.14 1.94,1.40 1.75,1.61 1.55,1.82 1.31,1.98 1.07,2.14 1.07,2.14 L 1.07,2.14 Z"></path></g><g transform="translate(601 514.53125) rotate(0 6.5 12.5)"><text x="0" y="18" font-family="Virgil, Segoe UI Emoji" font-size="20px" fill="#d9480f" text-anchor="start" style="white-space: pre;" direction="ltr">5</text></g><g transform="translate(522 574.53125) rotate(0 7 12.5)"><text x="0" y="18" font-family="Virgil, Segoe UI Emoji" font-size="20px" fill="#d9480f" text-anchor="start" style="white-space: pre;" direction="ltr">4</text></g><g transform="translate(539 581.53125) rotate(0 25 12.5)"><text x="0" y="18" font-family="Virgil, Segoe UI Emoji" font-size="20px" fill="#d9480f" text-anchor="start" style="white-space: pre;" direction="ltr">25/5</text></g><g transform="translate(615 504.53125) rotate(0 25 12.5)"><text x="0" y="18" font-family="Virgil, Segoe UI Emoji" font-size="20px" fill="#d9480f" text-anchor="start" style="white-space: pre;" direction="ltr">25/5</text></g><g transform="translate(703 616.53125) rotate(0 -10.5 9.5)" stroke="none"><path fill="#d9480f" d="M 0.61,1.23 Q 0.61,1.23 -0.32,2.22 -1.26,3.22 -2.52,3.84 -3.78,4.46 -4.67,5.28 -5.55,6.10 -6.92,7.03 -8.29,7.96 -9.30,8.94 -10.31,9.92 -11.41,10.96 -12.50,12.01 -13.13,13.16 -13.76,14.31 -14.69,15.55 -15.63,16.79 -17.87,18.40 -20.11,20.01 -20.31,20.08 -20.51,20.15 -20.73,20.16 -20.94,20.16 -21.14,20.10 -21.34,20.04 -21.52,19.92 -21.69,19.79 -21.81,19.62 -21.94,19.45 -22.00,19.24 -22.06,19.04 -22.06,18.83 -22.05,18.61 -21.98,18.42 -21.90,18.22 -21.77,18.05 -21.64,17.88 -21.46,17.77 -21.28,17.66 -21.07,17.60 -20.87,17.55 -20.66,17.57 -20.44,17.59 -20.25,17.67 -20.05,17.76 -19.89,17.90 -19.74,18.04 -19.63,18.23 -19.53,18.41 -19.49,18.62 -19.45,18.83 -19.48,19.04 -19.51,19.25 -19.60,19.44 -19.69,19.63 -19.84,19.78 -19.99,19.93 -20.19,20.02 -20.38,20.12 -20.59,20.15 -20.80,20.18 -21.01,20.14 -21.21,20.10 -21.40,19.99 -21.58,19.89 -21.73,19.73 -21.87,19.57 -21.95,19.37 -22.04,19.18 -22.05,18.97 -22.07,18.76 -22.02,18.55 -21.97,18.34 -21.85,18.16 -21.74,17.99 -21.57,17.85 -21.41,17.72 -21.41,17.72 -21.41,17.72 -20.18,15.63 -18.95,13.54 -18.18,12.18 -17.40,10.83 -16.72,9.70 -16.04,8.58 -14.97,7.56 -13.91,6.54 -12.87,5.55 -11.83,4.56 -10.36,3.52 -8.90,2.47 -7.64,1.42 -6.38,0.37 -4.85,-0.27 -3.33,-0.92 -1.97,-1.07 -0.61,-1.23 -0.46,-1.29 -0.30,-1.34 -0.13,-1.36 0.02,-1.38 0.19,-1.36 0.35,-1.33 0.51,-1.27 0.66,-1.21 0.80,-1.11 0.93,-1.01 1.04,-0.89 1.15,-0.76 1.22,-0.61 1.30,-0.46 1.34,-0.30 1.37,-0.13 1.37,0.02 1.37,0.19 1.32,0.35 1.28,0.51 1.20,0.66 1.12,0.80 1.01,0.93 0.89,1.05 0.75,1.14 0.61,1.23 0.61,1.23 L 0.61,1.23 Z"></path></g><g transform="translate(647 649.53125) rotate(0 -10.5 7.5)" stroke="none"><path fill="#d9480f" d="M 0.94,0.94 Q 0.94,0.94 0.66,1.84 0.38,2.75 -1.07,3.76 -2.53,4.77 -3.95,5.57 -5.38,6.38 -6.21,7.48 -7.05,8.59 -8.42,9.43 -9.79,10.26 -11.19,11.16 -12.59,12.05 -13.47,12.92 -14.36,13.78 -15.28,14.39 -16.21,15.01 -18.26,15.59 -20.31,16.16 -20.52,16.19 -20.73,16.21 -20.94,16.17 -21.14,16.13 -21.33,16.02 -21.51,15.92 -21.65,15.76 -21.79,15.60 -21.88,15.40 -21.96,15.21 -21.97,15.00 -21.99,14.78 -21.94,14.58 -21.88,14.37 -21.77,14.19 -21.65,14.02 -21.49,13.88 -21.32,13.75 -21.12,13.68 -20.92,13.61 -20.71,13.61 -20.49,13.60 -20.29,13.67 -20.09,13.73 -19.92,13.85 -19.75,13.98 -19.62,14.15 -19.50,14.33 -19.44,14.53 -19.38,14.73 -19.39,14.95 -19.39,15.16 -19.47,15.36 -19.54,15.56 -19.68,15.72 -19.81,15.89 -19.99,16.00 -20.17,16.11 -20.38,16.16 -20.59,16.21 -20.80,16.19 -21.01,16.17 -21.20,16.09 -21.40,16.00 -21.55,15.86 -21.71,15.72 -21.81,15.53 -21.92,15.34 -21.96,15.14 -21.99,14.93 -21.96,14.72 -21.93,14.51 -21.84,14.32 -21.74,14.13 -21.59,13.98 -21.44,13.83 -21.25,13.74 -21.06,13.64 -21.06,13.64 -21.06,13.64 -19.70,12.79 -18.34,11.94 -16.68,11.26 -15.02,10.58 -14.02,9.50 -13.02,8.41 -12.03,7.93 -11.05,7.45 -10.00,6.29 -8.95,5.14 -8.12,4.19 -7.30,3.23 -5.84,2.17 -4.38,1.12 -3.53,0.33 -2.68,-0.45 -1.81,-0.69 -0.94,-0.94 -0.81,-1.04 -0.69,-1.14 -0.54,-1.20 -0.39,-1.27 -0.23,-1.30 -0.08,-1.33 0.08,-1.32 0.24,-1.31 0.39,-1.26 0.54,-1.21 0.68,-1.13 0.82,-1.05 0.93,-0.93 1.05,-0.82 1.13,-0.68 1.21,-0.54 1.26,-0.39 1.31,-0.24 1.32,-0.07 1.33,0.08 1.30,0.23 1.27,0.39 1.20,0.54 1.14,0.69 1.04,0.81 0.94,0.94 0.94,0.94 L 0.94,0.94 Z"></path></g><g transform="translate(606 659.53125) rotate(0 5 4.5)" stroke="none"><path fill="#d9480f" d="M -1.18,-1.18 Q -1.18,-1.18 -0.87,-2.06 -0.57,-2.94 0.53,-3.63 1.64,-4.31 2.52,-5.90 3.40,-7.50 5.61,-8.46 7.82,-9.41 8.82,-8.62 9.82,-7.83 10.34,-6.06 10.87,-4.30 10.94,-2.78 11.02,-1.26 11.03,0.40 11.03,2.08 10.61,3.37 10.19,4.67 10.13,5.98 10.07,7.29 10.04,8.77 10.01,10.26 10.00,11.76 9.98,13.26 9.58,14.10 9.17,14.94 9.37,14.88 9.58,14.82 9.79,14.82 10.00,14.83 10.20,14.91 10.40,14.98 10.56,15.12 10.73,15.25 10.84,15.43 10.95,15.61 11.00,15.82 11.05,16.03 11.03,16.24 11.01,16.45 10.92,16.65 10.84,16.84 10.69,17.00 10.55,17.15 10.36,17.25 10.18,17.36 9.97,17.39 9.76,17.43 9.55,17.40 9.34,17.37 9.15,17.27 8.96,17.18 8.81,17.02 8.66,16.87 8.57,16.68 8.48,16.49 8.45,16.28 8.43,16.07 8.47,15.86 8.51,15.65 8.62,15.47 8.72,15.28 8.88,15.14 9.04,15.00 9.24,14.92 9.44,14.84 9.65,14.83 9.86,14.81 10.07,14.87 10.27,14.92 10.45,15.04 10.63,15.15 10.76,15.32 10.89,15.49 10.96,15.69 11.03,15.89 11.03,16.10 11.04,16.31 10.97,16.51 10.91,16.72 10.78,16.89 10.65,17.06 10.48,17.18 10.31,17.30 10.31,17.30 10.31,17.30 8.16,16.28 6.01,15.26 6.01,13.76 6.01,12.26 5.98,10.75 5.95,9.25 5.96,7.70 5.96,6.16 6.06,4.95 6.16,3.75 6.54,2.19 6.93,0.63 6.95,-1.08 6.97,-2.81 7.50,-4.19 8.02,-5.57 7.30,-4.68 6.58,-3.79 5.71,-2.16 4.83,-0.52 3.85,0.05 2.87,0.64 2.02,0.91 1.18,1.18 1.02,1.30 0.86,1.43 0.68,1.51 0.49,1.59 0.29,1.63 0.10,1.66 -0.10,1.65 -0.30,1.64 -0.49,1.58 -0.68,1.52 -0.85,1.42 -1.03,1.31 -1.17,1.17 -1.31,1.03 -1.42,0.85 -1.52,0.68 -1.58,0.49 -1.64,0.30 -1.65,0.10 -1.66,-0.10 -1.63,-0.29 -1.59,-0.49 -1.51,-0.68 -1.43,-0.86 -1.30,-1.02 -1.18,-1.18 -1.18,-1.18 L -1.18,-1.18 Z"></path></g><g transform="translate(710 617.53125) rotate(0 4 3.5)" stroke="none"><path fill="#d9480f" d="M -0.80,-1.21 Q -0.80,-1.21 -0.14,-2.03 0.51,-2.86 1.36,-3.60 2.20,-4.35 3.33,-5.94 4.46,-7.53 5.80,-7.50 7.14,-7.47 8.02,-6.22 8.91,-4.98 8.97,-3.87 9.02,-2.77 9.02,-1.46 9.02,-0.16 9.01,1.00 8.99,2.18 9.01,3.71 9.03,5.25 9.04,6.75 9.05,8.26 8.82,10.03 8.60,11.81 8.74,11.96 8.89,12.11 8.98,12.30 9.07,12.49 9.10,12.70 9.13,12.91 9.08,13.12 9.04,13.33 8.93,13.51 8.83,13.70 8.67,13.84 8.51,13.98 8.31,14.06 8.11,14.14 7.90,14.15 7.69,14.17 7.48,14.11 7.28,14.06 7.10,13.94 6.92,13.83 6.79,13.66 6.66,13.49 6.59,13.29 6.52,13.09 6.52,12.88 6.52,12.67 6.58,12.46 6.65,12.26 6.77,12.09 6.90,11.92 7.07,11.80 7.25,11.68 7.45,11.62 7.66,11.56 7.87,11.57 8.08,11.58 8.28,11.65 8.48,11.73 8.64,11.86 8.80,12.00 8.92,12.18 9.03,12.36 9.08,12.57 9.12,12.77 9.10,12.98 9.08,13.20 9.00,13.39 8.91,13.58 8.77,13.74 8.62,13.90 8.44,14.00 8.25,14.10 8.04,14.14 7.83,14.17 7.62,14.14 7.41,14.11 7.22,14.01 7.03,13.92 7.03,13.92 7.03,13.92 5.99,11.09 4.94,8.26 4.95,6.75 4.96,5.25 4.98,3.72 4.99,2.18 4.98,1.01 4.96,-0.15 5.53,-1.60 6.11,-3.05 5.29,-2.01 4.48,-0.97 3.70,-0.20 2.93,0.56 1.87,0.88 0.80,1.21 0.65,1.29 0.49,1.37 0.32,1.41 0.15,1.44 -0.02,1.44 -0.19,1.44 -0.36,1.39 -0.53,1.35 -0.69,1.27 -0.84,1.18 -0.97,1.06 -1.10,0.94 -1.20,0.80 -1.30,0.65 -1.36,0.49 -1.42,0.32 -1.43,0.15 -1.45,-0.02 -1.43,-0.19 -1.40,-0.37 -1.34,-0.53 -1.27,-0.69 -1.17,-0.84 -1.07,-0.98 -0.94,-1.09 -0.80,-1.21 -0.80,-1.21 L -0.80,-1.21 Z"></path></g></svg>