<svg version="1.1" xmlns="http://www.w3.org/2000/svg" viewBox="0 0 10020 834.625" width="10020" height="834.625">
  <!-- svg-source:excalidraw -->
  
  <defs>
    <style>
      @font-face {
        font-family: "Virgil";
        src: url("https://excalidraw.com/Virgil.woff2");
      }
      @font-face {
        font-family: "Cascadia";
        src: url("https://excalidraw.com/Cascadia.woff2");
      }
    </style>
  </defs>
  <rect x="0" y="0" width="10020" height="834.625" fill="#fff0"></rect><g stroke-linecap="round" transform="translate(10 10) rotate(0 5000 0.5)"><path d="M-0.52 -0.26 C3022.65 -30.2, 6044.59 -29.2, 9999.32 0.22 M0.38 -0.31 C3948.03 -0.44, 7895.41 0.2, 9999.95 0.08 M10000.08 -0.06 C10000.09 0.27, 10000.05 0.48, 10000.09 0.92 M9999.97 0.01 C9999.95 0.33, 9999.98 0.72, 10000 0.99 M10000.22 1.51 C7095.77 35.76, 4193.15 34.95, -0.25 0.75 M10000.01 1.13 C7827.97 2.74, 5656.23 3.35, -0.33 0.84 M-0.04 1.01 C0 0.63, -0.06 0.15, 0.05 -0.03 M-0.04 0.95 C-0.04 0.73, -0.03 0.59, -0.05 -0.02" stroke="transparent" stroke-width="1" fill="none"></path></g><g transform="translate(1100 816.625) rotate(0 5 0)" stroke="none"><path fill="#d9480f" d="M 0,-2.60 Q 0,-2.60 1.15,-2.62 2.3,-2.64 3.69,-2.72 5.08,-2.80 7.38,-2.85 9.68,-2.90 10.14,-2.82 10.61,-2.75 11.02,-2.53 11.44,-2.31 11.76,-1.97 12.08,-1.62 12.28,-1.20 12.48,-0.77 12.53,-0.30 12.58,0.15 12.48,0.61 12.38,1.07 12.13,1.47 11.89,1.87 11.53,2.18 11.18,2.48 10.74,2.66 10.30,2.83 9.83,2.86 9.36,2.88 8.91,2.76 8.46,2.63 8.07,2.37 7.68,2.10 7.40,1.73 7.11,1.35 6.96,0.91 6.81,0.46 6.81,-0.00 6.81,-0.47 6.96,-0.91 7.11,-1.36 7.40,-1.73 7.68,-2.10 8.07,-2.37 8.46,-2.63 8.91,-2.76 9.37,-2.88 9.83,-2.86 10.30,-2.83 10.74,-2.66 11.18,-2.48 11.53,-2.18 11.89,-1.87 12.13,-1.47 12.38,-1.07 12.48,-0.61 12.58,-0.15 12.53,0.31 12.48,0.77 12.28,1.20 12.08,1.63 11.76,1.97 11.44,2.31 11.02,2.53 10.60,2.75 10.14,2.82 9.68,2.90 9.68,2.90 9.68,2.90 7.38,2.85 5.08,2.80 3.69,2.72 2.3,2.64 1.15,2.62 0,2.60 -0.31,2.56 -0.62,2.52 -0.91,2.41 -1.21,2.30 -1.46,2.12 -1.72,1.94 -1.93,1.71 -2.14,1.47 -2.28,1.20 -2.43,0.92 -2.51,0.61 -2.58,0.31 -2.58,-0.00 -2.58,-0.31 -2.51,-0.61 -2.43,-0.92 -2.28,-1.20 -2.14,-1.47 -1.93,-1.71 -1.72,-1.95 -1.46,-2.12 -1.21,-2.30 -0.91,-2.41 -0.62,-2.52 -0.31,-2.56 0.00,-2.60 0.00,-2.60 L 0,-2.60 Z"></path></g><g transform="translate(941 818.625) rotate(0 6 0.5)" stroke="none"><path fill="#d9480f" d="M 0,-2.65 Q 0,-2.65 1.15,-2.67 2.3,-2.69 3.69,-2.76 5.08,-2.83 6.50,-2.87 7.91,-2.92 9.93,-2.46 11.96,-1.99 12.43,-1.87 12.89,-1.74 13.29,-1.48 13.70,-1.21 13.99,-0.83 14.29,-0.45 14.44,0.00 14.60,0.45 14.61,0.93 14.61,1.42 14.46,1.88 14.31,2.33 14.02,2.72 13.74,3.11 13.34,3.38 12.94,3.66 12.48,3.79 12.02,3.92 11.53,3.90 11.05,3.88 10.60,3.70 10.15,3.53 9.78,3.22 9.41,2.91 9.16,2.50 8.91,2.09 8.80,1.62 8.69,1.15 8.74,0.67 8.79,0.19 8.99,-0.24 9.18,-0.68 9.51,-1.03 9.84,-1.38 10.26,-1.61 10.69,-1.84 11.16,-1.93 11.64,-2.01 12.11,-1.93 12.59,-1.86 13.02,-1.64 13.45,-1.42 13.78,-1.07 14.12,-0.72 14.32,-0.29 14.53,0.14 14.59,0.62 14.64,1.10 14.54,1.57 14.44,2.04 14.20,2.46 13.96,2.87 13.59,3.19 13.23,3.50 12.78,3.68 12.33,3.87 11.85,3.90 11.37,3.93 11.37,3.93 11.37,3.93 9.53,3.42 7.69,2.92 6.39,2.87 5.08,2.83 3.69,2.76 2.3,2.69 1.15,2.67 0,2.65 -0.31,2.61 -0.63,2.57 -0.93,2.46 -1.23,2.35 -1.49,2.16 -1.76,1.98 -1.97,1.74 -2.18,1.50 -2.33,1.22 -2.48,0.94 -2.55,0.63 -2.63,0.31 -2.63,-0.00 -2.63,-0.32 -2.55,-0.63 -2.48,-0.94 -2.33,-1.22 -2.18,-1.50 -1.97,-1.74 -1.76,-1.98 -1.49,-2.16 -1.23,-2.35 -0.93,-2.46 -0.63,-2.57 -0.31,-2.61 0.00,-2.65 0.00,-2.65 L 0,-2.65 Z"></path></g><g transform="translate(826 823.625) rotate(0 9 0.5)" stroke="none"><path fill="#d9480f" d="M 0,-2.66 Q 0,-2.66 1.15,-2.67 2.3,-2.69 3.69,-2.76 5.08,-2.83 6.15,-2.89 7.22,-2.95 8.74,-3.03 10.25,-3.10 11.86,-3.13 13.47,-3.15 14.65,-2.70 15.84,-2.25 16.83,-2.26 17.82,-2.27 18.34,-2.16 18.86,-2.06 19.31,-1.79 19.77,-1.52 20.12,-1.12 20.46,-0.72 20.66,-0.23 20.86,0.25 20.90,0.77 20.93,1.30 20.80,1.81 20.66,2.32 20.37,2.76 20.07,3.20 19.66,3.53 19.24,3.85 18.74,4.03 18.24,4.20 17.71,4.20 17.18,4.21 16.68,4.05 16.18,3.88 15.76,3.57 15.33,3.25 15.03,2.82 14.73,2.38 14.58,1.87 14.44,1.37 14.46,0.84 14.48,0.31 14.67,-0.17 14.87,-0.67 15.20,-1.07 15.54,-1.48 15.99,-1.75 16.44,-2.03 16.96,-2.15 17.47,-2.27 18.00,-2.22 18.52,-2.16 19.01,-1.95 19.49,-1.73 19.87,-1.37 20.26,-1.01 20.51,-0.55 20.77,-0.08 20.86,0.43 20.95,0.95 20.87,1.47 20.79,1.99 20.54,2.46 20.30,2.93 19.92,3.30 19.54,3.67 19.06,3.89 18.59,4.12 18.06,4.18 17.54,4.24 17.54,4.24 17.54,4.24 15.29,3.70 13.04,3.15 11.65,3.13 10.25,3.10 8.74,3.03 7.22,2.95 6.15,2.89 5.08,2.83 3.69,2.76 2.3,2.69 1.15,2.67 0,2.66 -0.31,2.62 -0.63,2.58 -0.93,2.47 -1.23,2.35 -1.50,2.17 -1.76,1.99 -1.97,1.75 -2.19,1.51 -2.34,1.22 -2.48,0.94 -2.56,0.63 -2.64,0.32 -2.64,-0.00 -2.64,-0.32 -2.56,-0.63 -2.48,-0.94 -2.34,-1.22 -2.19,-1.51 -1.97,-1.75 -1.76,-1.99 -1.50,-2.17 -1.23,-2.35 -0.93,-2.47 -0.63,-2.58 -0.31,-2.62 0.00,-2.66 0.00,-2.66 L 0,-2.66 Z"></path></g></svg>