<svg version="1.1" xmlns="http://www.w3.org/2000/svg" viewBox="0 0 993.09521484375 535.3917236328125" width="993.09521484375" height="535.3917236328125" class="excalidraw-svg"><!-- svg-source:excalidraw --><metadata></metadata><defs><style class="style-fonts">
      </style></defs><g stroke-linecap="round"><g transform="translate(211.59234619140625 51.20599365234375) rotate(0 0 67.19743347167969)"><path d="M0 0 C0 52.22, 0 104.45, 0 134.39 M0 0 C0 50.5, 0 101, 0 134.39" stroke="#FFFFFF" stroke-width="2" fill="none"></path></g></g><mask></mask><g stroke-linecap="round"><g transform="translate(548.2135009765625 51.20599365234375) rotate(0 0 67.19743347167969)"><path d="M0 0 C0 33.67, 0 67.35, 0 134.39 M0 0 C0 37.72, 0 75.43, 0 134.39" stroke="#FFFFFF" stroke-width="2" fill="none"></path></g></g><mask></mask><g stroke-linecap="round"><g transform="translate(975.4879150390625 51.20599365234375) rotate(0 0 67.19743347167969)"><path d="M0 0 C0 42.12, 0 84.25, 0 134.39 M0 0 C0 34.59, 0 69.17, 0 134.39" stroke="#FFFFFF" stroke-width="2" fill="none"></path></g></g><mask></mask><g stroke-linecap="round"><g transform="translate(219.19964599609375 282.5933837890625) rotate(0 0 94.456787109375)"><path d="M0 0 C0 72.21, 0 144.43, 0 188.91 M0 0 C0 72.63, 0 145.25, 0 188.91" stroke="#FFFFFF" stroke-width="2" fill="none"></path></g></g><mask></mask><g stroke-linecap="round"><g transform="translate(555.82080078125 282.5933837890625) rotate(0 0 94.456787109375)"><path d="M0 0 C0 41.64, 0 83.29, 0 188.91 M0 0 C0 53.1, 0 106.19, 0 188.91" stroke="#FFFFFF" stroke-width="2" fill="none"></path></g></g><mask></mask><g stroke-linecap="round"><g transform="translate(983.09521484375 282.5933837890625) rotate(0 0 94.456787109375)"><path d="M0 0 C0 58.43, 0 116.86, 0 188.91 M0 0 C0 72.81, 0 145.63, 0 188.91" stroke="#FFFFFF" stroke-width="2" fill="none"></path></g></g><mask></mask><g stroke-linecap="round"><g transform="translate(10 10) rotate(0 0 255.79403686523438)"><path d="M0 0 C0 133.28, 0 266.57, 0 511.59 M0 0 C0 176, 0 351.99, 0 511.59" stroke="#f08c00" stroke-width="2" fill="none"></path></g></g><mask></mask><g stroke-linecap="round"><g transform="translate(81.00106811523438 11.26788330078125) rotate(0 0 255.79403686523438)"><path d="M0 0 C0 132.9, 0 265.81, 0 511.59 M0 0 C0 132.19, 0 264.38, 0 511.59" stroke="#f08c00" stroke-width="2" fill="none"></path></g></g><mask></mask><g stroke-linecap="round"><g transform="translate(135.51980590820312 13.80364990234375) rotate(0 0 255.79403686523438)"><path d="M0 0 C0 178.2, 0 356.4, 0 511.59 M0 0 C0 203.25, 0 406.5, 0 511.59" stroke="#f08c00" stroke-width="2" fill="none"></path></g></g><mask></mask><g stroke-linecap="round"><g transform="translate(190.67239379882812 11.26788330078125) rotate(0 0 255.79403686523438)"><path d="M0 0 C0 186.55, 0 373.1, 0 511.59 M0 0 C0 126.4, 0 252.79, 0 511.59" stroke="#f08c00" stroke-width="2" fill="none"></path></g></g><mask></mask><g stroke-linecap="round"><g transform="translate(238.21780395507812 140.59127807617188) rotate(0 0 100.47920227050781)"><path d="M0 0 C0 49.83, 0 99.66, 0 200.96 M0 0 C0 64.22, 0 128.43, 0 200.96" stroke="#f08c00" stroke-width="2" fill="none"></path></g></g><mask></mask><g stroke-linecap="round"><g transform="translate(289.5668029785156 140.59127807617188) rotate(0 0 100.47920227050781)"><path d="M0 0 C0 76.38, 0 152.76, 0 200.96 M0 0 C0 52.16, 0 104.31, 0 200.96" stroke="#f08c00" stroke-width="2" fill="none"></path></g></g><mask></mask><g stroke-linecap="round"><g transform="translate(342.1836242675781 140.59127807617188) rotate(0 0 100.47920227050781)"><path d="M0 0 C0 71.5, 0 143.01, 0 200.96 M0 0 C0 67.47, 0 134.94, 0 200.96" stroke="#f08c00" stroke-width="2" fill="none"></path></g></g><mask></mask></svg>