<svg version="1.1" xmlns="http://www.w3.org/2000/svg" viewBox="0 0 960.2569580078125 271.03948974609375" width="960.2569580078125" height="271.03948974609375" class="excalidraw-svg">
  <!-- svg-source:excalidraw -->
  
  <defs>
    <style class="style-fonts">
      
    </style>
    
  </defs>
  <g transform="translate(153.32073974609375 42.86334228515625) rotate(0 -0.912872314453125 5.0207977294921875)" stroke="none"><path fill="#FFFFFF" d="M 0.65,0.06 Q 0.65,0.06 0.48,2.70 0.32,5.33 -0.31,7.34 -0.95,9.34 -1.00,9.44 -1.04,9.54 -1.11,9.61 -1.19,9.69 -1.28,9.74 -1.37,9.79 -1.48,9.81 -1.58,9.83 -1.69,9.81 -1.79,9.79 -1.89,9.75 -1.98,9.70 -2.05,9.62 -2.13,9.54 -2.17,9.45 -2.22,9.35 -2.23,9.24 -2.24,9.14 -2.22,9.04 -2.20,8.93 -2.14,8.84 -2.09,8.75 -2.01,8.68 -1.93,8.61 -1.83,8.57 -1.73,8.53 -1.62,8.52 -1.52,8.52 -1.42,8.55 -1.31,8.57 -1.23,8.63 -1.14,8.69 -1.07,8.78 -1.01,8.86 -0.97,8.96 -0.94,9.06 -0.94,9.17 -0.94,9.27 -0.97,9.37 -1.00,9.48 -1.07,9.56 -1.13,9.65 -1.22,9.71 -1.31,9.77 -1.41,9.79 -1.51,9.82 -1.62,9.82 -1.72,9.81 -1.82,9.77 -1.92,9.74 -2.00,9.67 -2.08,9.60 -2.14,9.51 -2.19,9.42 -2.22,9.31 -2.24,9.21 -2.23,9.10 -2.22,9.00 -2.22,9.00 -2.22,9.00 -1.79,7.08 -1.37,5.16 -1.01,2.54 -0.65,-0.06 -0.63,-0.14 -0.61,-0.21 -0.58,-0.29 -0.54,-0.36 -0.49,-0.42 -0.44,-0.48 -0.38,-0.52 -0.31,-0.57 -0.24,-0.60 -0.17,-0.63 -0.09,-0.64 -0.01,-0.65 0.06,-0.64 0.14,-0.64 0.21,-0.61 0.29,-0.58 0.35,-0.54 0.42,-0.50 0.47,-0.44 0.53,-0.38 0.57,-0.31 0.60,-0.24 0.62,-0.16 0.65,-0.09 0.65,-0.01 0.65,0.06 0.65,0.06 L 0.65,0.06 Z"></path></g><g transform="translate(80.29107666015625 56.556396484375) rotate(0 17.80096435546875 8.67230224609375)" stroke="none"><path fill="#FFFFFF" d="M 0.54,-0.36 Q 0.54,-0.36 1.48,0.13 2.42,0.63 2.97,1.02 3.53,1.41 4.30,1.51 5.07,1.61 6.78,1.19 8.49,0.77 11.31,-0.41 14.12,-1.59 17.73,-3.15 21.34,-4.72 24.72,-6.18 28.10,-7.64 30.07,-8.26 32.05,-8.88 33.66,-8.11 35.28,-7.34 35.98,-4.90 36.68,-2.46 36.61,0.96 36.54,4.38 36.24,8.17 35.94,11.95 35.55,14.90 35.15,17.85 34.66,21.29 34.17,24.73 34.19,24.83 34.21,24.94 34.20,25.04 34.18,25.15 34.13,25.24 34.08,25.34 34.01,25.41 33.93,25.48 33.84,25.53 33.74,25.58 33.64,25.59 33.53,25.60 33.43,25.58 33.32,25.56 33.23,25.51 33.14,25.45 33.07,25.37 33.00,25.29 32.96,25.19 32.92,25.10 32.91,24.99 32.90,24.88 32.93,24.78 32.96,24.68 33.01,24.59 33.07,24.50 33.16,24.44 33.24,24.37 33.34,24.33 33.44,24.30 33.55,24.30 33.65,24.30 33.75,24.33 33.85,24.36 33.94,24.42 34.03,24.49 34.09,24.57 34.15,24.66 34.18,24.76 34.21,24.87 34.20,24.97 34.20,25.08 34.16,25.18 34.12,25.28 34.06,25.36 33.99,25.44 33.90,25.50 33.81,25.55 33.70,25.58 33.60,25.60 33.50,25.59 33.39,25.58 33.29,25.54 33.20,25.49 33.12,25.42 33.04,25.35 32.99,25.26 32.94,25.16 32.94,25.16 32.94,25.16 32.33,21.27 31.72,17.39 32.10,14.53 32.48,11.68 32.78,7.98 33.07,4.29 33.18,1.25 33.28,-1.79 32.79,-3.75 32.30,-5.71 30.88,-5.10 29.46,-4.48 26.08,-3.03 22.71,-1.58 19.07,-0.00 15.43,1.56 12.31,2.84 9.19,4.11 6.81,4.52 4.44,4.93 2.99,4.52 1.55,4.12 0.61,3.32 -0.32,2.51 -0.43,1.44 -0.54,0.36 -0.58,0.29 -0.61,0.22 -0.63,0.14 -0.65,0.06 -0.65,-0.01 -0.65,-0.08 -0.63,-0.16 -0.61,-0.24 -0.57,-0.31 -0.53,-0.38 -0.48,-0.44 -0.42,-0.49 -0.36,-0.54 -0.29,-0.58 -0.22,-0.61 -0.14,-0.64 -0.06,-0.64 0.01,-0.65 0.08,-0.64 0.16,-0.63 0.24,-0.60 0.31,-0.57 0.37,-0.53 0.44,-0.48 0.49,-0.42 0.54,-0.36 0.54,-0.36 L 0.54,-0.36 Z"></path></g><g transform="translate(149.66925048828125 74.8138427734375) rotate(0 0.456451416015625 -14.605941772460938)" stroke="none"><path fill="#FFFFFF" d="M 0.54,-0.36 Q 0.54,-0.36 1.20,0.05 1.85,0.48 2.41,0.37 2.96,0.27 4.06,-0.63 5.15,-1.55 6.42,-3.15 7.68,-4.76 8.71,-6.70 9.75,-8.64 10.16,-10.39 10.56,-12.13 10.75,-14.66 10.93,-17.18 10.75,-19.23 10.58,-21.29 10.02,-22.81 9.46,-24.33 8.72,-25.75 7.98,-27.17 7.39,-28.33 6.80,-29.49 6.21,-30.03 5.61,-30.57 4.78,-30.72 3.95,-30.87 3.32,-30.99 2.68,-31.11 2.15,-30.92 1.61,-30.72 0.33,-30.15 -0.93,-29.58 -1.92,-28.88 -2.90,-28.17 -3.77,-27.17 -4.63,-26.16 -5.21,-25.04 -5.78,-23.92 -6.27,-22.22 -6.77,-20.52 -7.52,-17.91 -8.28,-15.29 -8.84,-11.91 -9.41,-8.52 -9.65,-5.80 -9.89,-3.09 -9.61,-1.79 -9.33,-0.49 -7.86,0.14 -6.38,0.78 -4.80,1.15 -3.23,1.52 -0.63,1.45 1.95,1.38 2.06,1.37 2.16,1.35 2.27,1.37 2.37,1.39 2.47,1.44 2.56,1.49 2.63,1.57 2.70,1.65 2.75,1.74 2.79,1.84 2.80,1.95 2.81,2.05 2.79,2.15 2.76,2.26 2.71,2.35 2.65,2.44 2.57,2.51 2.49,2.57 2.39,2.61 2.29,2.65 2.18,2.66 2.08,2.66 1.97,2.63 1.87,2.60 1.78,2.54 1.70,2.48 1.63,2.39 1.57,2.31 1.54,2.21 1.51,2.11 1.51,2.00 1.51,1.89 1.54,1.79 1.58,1.69 1.64,1.61 1.71,1.53 1.80,1.47 1.89,1.41 1.99,1.38 2.09,1.35 2.20,1.36 2.30,1.37 2.40,1.41 2.50,1.45 2.58,1.52 2.66,1.59 2.71,1.68 2.77,1.77 2.79,1.88 2.81,1.98 2.80,2.09 2.79,2.19 2.74,2.29 2.69,2.38 2.62,2.46 2.55,2.54 2.45,2.58 2.36,2.63 2.36,2.63 2.36,2.63 -0.76,3.58 -3.89,4.53 -5.91,4.05 -7.92,3.58 -9.95,2.25 -11.98,0.91 -12.54,-1.20 -13.10,-3.32 -12.84,-6.19 -12.59,-9.05 -11.98,-12.62 -11.37,-16.19 -10.61,-18.82 -9.84,-21.45 -9.22,-23.45 -8.60,-25.45 -7.80,-26.85 -7.00,-28.26 -5.86,-29.50 -4.72,-30.74 -3.46,-31.60 -2.20,-32.46 -0.67,-33.12 0.86,-33.77 2.00,-33.99 3.14,-34.20 3.98,-34.04 4.82,-33.89 6.23,-33.39 7.64,-32.90 8.59,-31.92 9.55,-30.94 10.15,-29.77 10.74,-28.59 11.56,-26.98 12.39,-25.36 13.03,-23.46 13.67,-21.56 13.84,-19.26 14.02,-16.95 13.79,-14.17 13.57,-11.39 13.02,-9.29 12.47,-7.18 11.25,-5.02 10.04,-2.85 8.46,-0.97 6.89,0.91 5.03,2.03 3.17,3.16 1.70,2.91 0.24,2.66 -0.15,1.51 -0.54,0.36 -0.58,0.29 -0.61,0.22 -0.63,0.14 -0.65,0.06 -0.65,-0.01 -0.65,-0.08 -0.63,-0.16 -0.61,-0.24 -0.57,-0.31 -0.53,-0.38 -0.48,-0.44 -0.42,-0.49 -0.36,-0.54 -0.29,-0.58 -0.22,-0.61 -0.14,-0.64 -0.06,-0.64 0.01,-0.65 0.08,-0.64 0.16,-0.63 0.24,-0.60 0.31,-0.57 0.37,-0.53 0.44,-0.48 0.49,-0.42 0.54,-0.36 0.54,-0.36 L 0.54,-0.36 Z"></path></g><g transform="translate(203.52862548828125 61.120758056640625) rotate(0 -10.954437255859375 8.215835571289062)" stroke="none"><path fill="#FFFFFF" d="M 0.42,0.50 Q 0.42,0.50 -0.91,2.10 -2.24,3.71 -3.48,4.58 -4.72,5.44 -6.25,6.58 -7.79,7.71 -9.18,8.95 -10.58,10.19 -12.10,11.08 -13.62,11.97 -14.97,12.82 -16.33,13.67 -17.14,14.26 -17.94,14.85 -19.57,15.70 -21.21,16.55 -21.28,16.63 -21.35,16.71 -21.44,16.76 -21.53,16.82 -21.63,16.84 -21.74,16.86 -21.84,16.84 -21.95,16.83 -22.05,16.78 -22.14,16.74 -22.22,16.66 -22.29,16.59 -22.34,16.49 -22.39,16.40 -22.40,16.30 -22.42,16.19 -22.40,16.09 -22.38,15.98 -22.33,15.89 -22.28,15.80 -22.20,15.72 -22.12,15.65 -22.02,15.61 -21.93,15.57 -21.82,15.56 -21.72,15.55 -21.61,15.57 -21.51,15.60 -21.42,15.65 -21.33,15.71 -21.26,15.79 -21.19,15.87 -21.16,15.97 -21.12,16.07 -21.12,16.18 -21.11,16.28 -21.14,16.39 -21.17,16.49 -21.23,16.57 -21.29,16.66 -21.38,16.72 -21.47,16.79 -21.57,16.82 -21.67,16.85 -21.77,16.85 -21.88,16.85 -21.98,16.81 -22.08,16.78 -22.16,16.71 -22.25,16.64 -22.31,16.56 -22.36,16.47 -22.39,16.36 -22.42,16.26 -22.41,16.15 -22.40,16.05 -22.36,15.95 -22.32,15.85 -22.32,15.85 -22.32,15.85 -21.01,14.17 -19.70,12.48 -18.80,11.82 -17.91,11.15 -16.50,10.27 -15.09,9.39 -13.80,8.67 -12.51,7.96 -11.01,6.66 -9.51,5.35 -7.93,4.22 -6.34,3.08 -5.20,2.30 -4.05,1.53 -2.23,0.51 -0.42,-0.50 -0.35,-0.54 -0.28,-0.59 -0.21,-0.61 -0.13,-0.64 -0.05,-0.64 0.01,-0.65 0.09,-0.64 0.17,-0.63 0.24,-0.60 0.32,-0.57 0.38,-0.52 0.45,-0.47 0.50,-0.41 0.55,-0.35 0.58,-0.28 0.62,-0.21 0.63,-0.13 0.65,-0.05 0.65,0.01 0.64,0.09 0.62,0.17 0.60,0.25 0.56,0.32 0.52,0.38 0.47,0.44 0.42,0.50 0.42,0.50 L 0.42,0.50 Z"></path></g><g transform="translate(201.702880859375 73.90093994140625) rotate(0 -8.672271728515625 -4.5643463134765625)" stroke="none"><path fill="#FFFFFF" d="M 0.20,0.62 Q 0.20,0.62 -0.52,1.28 -1.26,1.94 -3.02,1.53 -4.77,1.13 -7.02,0.13 -9.28,-0.85 -11.11,-2.12 -12.95,-3.39 -14.30,-4.77 -15.66,-6.16 -16.68,-8.21 -17.70,-10.25 -17.74,-10.35 -17.77,-10.45 -17.78,-10.56 -17.78,-10.66 -17.75,-10.76 -17.71,-10.86 -17.65,-10.95 -17.59,-11.04 -17.50,-11.10 -17.41,-11.16 -17.31,-11.19 -17.21,-11.22 -17.10,-11.22 -17.00,-11.21 -16.90,-11.17 -16.80,-11.14 -16.72,-11.07 -16.64,-11.00 -16.58,-10.91 -16.52,-10.82 -16.50,-10.72 -16.47,-10.62 -16.48,-10.51 -16.49,-10.40 -16.53,-10.31 -16.58,-10.21 -16.65,-10.13 -16.72,-10.05 -16.81,-10.00 -16.91,-9.95 -17.01,-9.93 -17.12,-9.91 -17.22,-9.93 -17.33,-9.94 -17.42,-9.99 -17.52,-10.04 -17.59,-10.11 -17.66,-10.19 -17.71,-10.28 -17.76,-10.38 -17.77,-10.49 -17.78,-10.59 -17.76,-10.69 -17.74,-10.80 -17.69,-10.89 -17.64,-10.98 -17.56,-11.05 -17.48,-11.12 -17.38,-11.16 -17.28,-11.21 -17.17,-11.21 -17.07,-11.22 -16.97,-11.19 -16.86,-11.17 -16.77,-11.11 -16.69,-11.05 -16.62,-10.97 -16.55,-10.89 -16.55,-10.89 -16.55,-10.89 -15.02,-9.57 -13.49,-8.25 -12.35,-7.05 -11.21,-5.85 -9.63,-4.72 -8.05,-3.59 -5.98,-2.66 -3.91,-1.73 -2.89,-1.31 -1.88,-0.89 -1.04,-0.75 -0.20,-0.62 -0.13,-0.63 -0.05,-0.65 0.02,-0.65 0.10,-0.64 0.18,-0.62 0.25,-0.60 0.32,-0.56 0.39,-0.52 0.45,-0.46 0.50,-0.41 0.55,-0.34 0.59,-0.28 0.61,-0.20 0.64,-0.13 0.64,-0.05 0.65,0.02 0.64,0.10 0.63,0.18 0.59,0.25 0.56,0.32 0.52,0.39 0.47,0.45 0.41,0.50 0.35,0.55 0.27,0.58 0.20,0.62 0.20,0.62 L 0.20,0.62 Z"></path></g><g transform="translate(212.6573486328125 41.03759765625) rotate(0 7.302947998046875 8.672271728515625)" stroke="none"><path fill="#FFFFFF" d="M -0.46,-0.46 Q -0.46,-0.46 0.35,-1.77 1.18,-3.09 2.60,-3.73 4.02,-4.38 4.49,-4.77 4.96,-5.16 6.21,-5.19 7.45,-5.22 8.48,-4.31 9.51,-3.41 9.66,-1.98 9.81,-0.54 9.23,1.17 8.65,2.90 7.88,4.63 7.10,6.37 6.52,7.57 5.93,8.78 5.94,9.08 5.94,9.39 5.84,9.55 5.74,9.71 5.61,9.84 5.48,9.97 5.31,10.07 5.15,10.16 4.97,10.21 4.79,10.27 4.61,10.27 4.42,10.28 4.23,10.25 4.05,10.21 3.88,10.13 3.71,10.05 3.57,9.93 3.42,9.81 3.31,9.66 3.19,9.52 3.12,9.34 3.05,9.17 3.02,8.99 2.98,8.80 3.00,8.62 3.01,8.43 3.07,8.25 3.13,8.07 3.89,7.37 4.66,6.67 5.83,6.14 7.01,5.60 8.68,5.13 10.34,4.65 11.66,5.02 12.97,5.38 13.90,6.26 14.83,7.14 15.28,8.53 15.72,9.92 15.59,11.69 15.46,13.46 14.81,15.10 14.17,16.74 13.63,17.89 13.08,19.04 10.60,20.63 8.12,22.22 8.02,22.25 7.92,22.29 7.81,22.28 7.71,22.28 7.61,22.25 7.51,22.21 7.43,22.14 7.34,22.08 7.28,21.99 7.23,21.90 7.20,21.80 7.17,21.70 7.18,21.59 7.19,21.48 7.23,21.39 7.27,21.29 7.34,21.21 7.41,21.13 7.50,21.07 7.59,21.02 7.70,21.00 7.80,20.98 7.91,20.99 8.01,21.01 8.11,21.05 8.20,21.10 8.28,21.17 8.36,21.25 8.40,21.34 8.45,21.44 8.47,21.54 8.48,21.65 8.46,21.75 8.44,21.86 8.39,21.95 8.34,22.04 8.26,22.11 8.19,22.19 8.09,22.23 7.99,22.27 7.88,22.28 7.78,22.29 7.68,22.27 7.57,22.24 7.48,22.18 7.39,22.13 7.32,22.05 7.26,21.96 7.22,21.86 7.18,21.77 7.18,21.66 7.17,21.55 7.20,21.45 7.23,21.35 7.30,21.26 7.36,21.18 7.44,21.11 7.53,21.05 7.53,21.05 7.53,21.05 8.93,19.41 10.33,17.77 10.81,16.66 11.29,15.55 11.82,14.33 12.35,13.12 12.52,11.88 12.68,10.63 12.58,9.88 12.47,9.13 12.12,8.68 11.77,8.23 11.30,7.92 10.83,7.62 9.54,8.04 8.24,8.46 7.09,8.93 5.94,9.39 5.84,9.55 5.74,9.71 5.61,9.84 5.48,9.97 5.31,10.07 5.15,10.16 4.97,10.21 4.79,10.27 4.61,10.27 4.42,10.28 4.23,10.25 4.05,10.21 3.88,10.13 3.71,10.05 3.57,9.93 3.42,9.81 3.31,9.67 3.19,9.52 3.12,9.34 3.05,9.17 3.02,8.99 2.98,8.80 3.00,8.62 3.01,8.43 3.07,8.25 3.13,8.07 3.10,7.85 3.08,7.63 3.66,6.36 4.24,5.09 4.96,3.46 5.69,1.83 6.18,0.59 6.66,-0.65 6.84,-1.26 7.02,-1.87 6.64,-2.25 6.26,-2.63 5.68,-2.11 5.10,-1.60 4.06,-1.35 3.01,-1.10 1.74,-0.32 0.46,0.46 0.40,0.51 0.33,0.56 0.26,0.59 0.19,0.62 0.11,0.64 0.03,0.65 -0.03,0.65 -0.11,0.64 -0.19,0.62 -0.26,0.59 -0.33,0.55 -0.40,0.51 -0.46,0.46 -0.51,0.40 -0.55,0.33 -0.59,0.26 -0.62,0.19 -0.64,0.11 -0.65,0.03 -0.65,-0.03 -0.64,-0.11 -0.62,-0.19 -0.59,-0.26 -0.56,-0.33 -0.51,-0.40 -0.46,-0.46 -0.46,-0.46 L -0.46,-0.46 Z"></path></g><g transform="translate(411.6632080078125 45.601959228515625) rotate(0 -1.82574462890625 9.58514404296875)" stroke="none"><path fill="#FFFFFF" d="M 0.62,0.20 Q 0.62,0.20 0.47,1.90 0.32,3.60 -0.14,5.29 -0.62,6.98 -0.80,8.39 -0.99,9.81 -1.07,11.45 -1.15,13.09 -1.49,14.69 -1.82,16.30 -2.37,17.86 -2.91,19.42 -2.94,19.52 -2.97,19.62 -3.03,19.71 -3.09,19.80 -3.17,19.86 -3.26,19.93 -3.36,19.96 -3.46,19.99 -3.57,19.99 -3.67,19.99 -3.77,19.96 -3.87,19.93 -3.96,19.86 -4.04,19.80 -4.10,19.71 -4.16,19.62 -4.19,19.52 -4.22,19.42 -4.21,19.31 -4.21,19.20 -4.17,19.11 -4.13,19.01 -4.06,18.93 -3.99,18.85 -3.90,18.79 -3.81,18.74 -3.71,18.71 -3.60,18.69 -3.50,18.70 -3.39,18.71 -3.29,18.76 -3.20,18.80 -3.12,18.88 -3.04,18.95 -2.99,19.04 -2.94,19.14 -2.93,19.24 -2.91,19.35 -2.93,19.45 -2.94,19.56 -2.99,19.65 -3.04,19.74 -3.12,19.82 -3.20,19.89 -3.29,19.93 -3.39,19.98 -3.50,19.99 -3.60,20.00 -3.71,19.98 -3.81,19.96 -3.90,19.90 -3.99,19.85 -4.06,19.76 -4.13,19.68 -4.17,19.59 -4.21,19.49 -4.21,19.38 -4.22,19.27 -4.22,19.27 -4.22,19.27 -4.40,17.51 -4.58,15.75 -4.32,14.34 -4.06,12.93 -3.96,11.18 -3.87,9.42 -3.64,7.81 -3.41,6.19 -2.92,4.44 -2.42,2.69 -1.52,1.24 -0.62,-0.20 -0.58,-0.27 -0.55,-0.35 -0.50,-0.41 -0.45,-0.47 -0.39,-0.52 -0.32,-0.56 -0.25,-0.59 -0.18,-0.63 -0.10,-0.64 -0.02,-0.65 0.05,-0.64 0.13,-0.64 0.20,-0.61 0.28,-0.59 0.34,-0.55 0.41,-0.50 0.46,-0.45 0.52,-0.39 0.56,-0.32 0.60,-0.25 0.62,-0.18 0.64,-0.10 0.65,-0.02 0.65,0.05 0.63,0.13 0.62,0.20 0.62,0.20 L 0.62,0.20 Z"></path></g><g transform="translate(413.4888916015625 57.469268798828125) rotate(0 -8.2158203125 -0.912872314453125)" stroke="none"><path fill="#FFFFFF" d="M -0.20,0.62 Q -0.20,0.62 -1.07,0.61 -1.94,0.60 -3.19,0.56 -4.44,0.52 -6.05,0.49 -7.65,0.46 -9.39,0.45 -11.12,0.43 -13.63,-0.29 -16.13,-1.03 -16.22,-1.08 -16.32,-1.13 -16.39,-1.21 -16.47,-1.28 -16.51,-1.38 -16.56,-1.48 -16.57,-1.58 -16.58,-1.69 -16.56,-1.79 -16.53,-1.89 -16.48,-1.99 -16.43,-2.08 -16.35,-2.15 -16.26,-2.21 -16.17,-2.25 -16.07,-2.29 -15.96,-2.30 -15.86,-2.31 -15.75,-2.28 -15.65,-2.25 -15.56,-2.19 -15.47,-2.13 -15.41,-2.05 -15.34,-1.96 -15.31,-1.86 -15.28,-1.76 -15.28,-1.66 -15.28,-1.55 -15.31,-1.45 -15.34,-1.35 -15.41,-1.26 -15.47,-1.18 -15.56,-1.12 -15.65,-1.06 -15.75,-1.03 -15.85,-1.00 -15.96,-1.01 -16.06,-1.01 -16.16,-1.05 -16.26,-1.09 -16.34,-1.16 -16.42,-1.23 -16.48,-1.32 -16.53,-1.41 -16.56,-1.51 -16.58,-1.62 -16.57,-1.72 -16.56,-1.83 -16.51,-1.92 -16.47,-2.02 -16.40,-2.10 -16.32,-2.17 -16.23,-2.22 -16.14,-2.28 -16.03,-2.29 -15.93,-2.31 -15.82,-2.29 -15.72,-2.28 -15.72,-2.28 -15.72,-2.28 -13.40,-2.24 -11.09,-2.20 -9.33,-2.17 -7.58,-2.15 -5.91,-2.08 -4.24,-2.01 -2.72,-1.83 -1.20,-1.65 -0.50,-1.13 0.20,-0.62 0.27,-0.58 0.35,-0.55 0.41,-0.50 0.47,-0.45 0.52,-0.39 0.56,-0.32 0.59,-0.25 0.63,-0.18 0.64,-0.10 0.65,-0.02 0.64,0.05 0.64,0.13 0.61,0.20 0.59,0.28 0.55,0.34 0.50,0.41 0.45,0.46 0.39,0.52 0.32,0.56 0.25,0.60 0.18,0.62 0.10,0.64 0.02,0.65 -0.05,0.65 -0.13,0.63 -0.20,0.62 -0.20,0.62 L -0.20,0.62 Z"></path></g><g transform="translate(438.136474609375 51.079193115234375) rotate(0 -2.2822265625 12.780197143554688)" stroke="none"><path fill="#FFFFFF" d="M -0.46,-0.46 Q -0.46,-0.46 -0.19,-1.24 0.07,-2.02 0.20,-2.12 0.33,-2.23 0.48,-2.29 0.63,-2.36 0.80,-2.39 0.96,-2.42 1.13,-2.41 1.29,-2.40 1.45,-2.35 1.61,-2.30 1.75,-2.22 1.90,-2.13 2.01,-2.01 2.13,-1.90 2.22,-1.75 2.30,-1.61 2.35,-1.45 2.40,-1.29 2.41,-1.13 2.42,-0.96 2.39,-0.80 2.36,-0.63 2.29,-0.48 2.23,-0.33 2.12,-0.20 2.02,-0.07 1.30,0.35 0.59,0.79 -0.28,1.61 -1.17,2.44 -2.79,5.04 -4.41,7.65 -5.61,10.80 -6.81,13.94 -7.31,16.77 -7.81,19.60 -7.82,21.38 -7.82,23.17 -7.24,23.84 -6.66,24.52 -4.47,23.85 -2.28,23.18 -0.14,21.76 2.00,20.33 2.79,18.74 3.58,17.15 2.96,15.43 2.34,13.70 0.97,12.55 -0.39,11.41 -2.12,10.93 -3.85,10.46 -5.28,10.48 -6.70,10.50 -8.56,10.56 -10.42,10.61 -10.53,10.61 -10.63,10.61 -10.73,10.58 -10.84,10.55 -10.92,10.48 -11.00,10.42 -11.06,10.33 -11.12,10.24 -11.15,10.14 -11.18,10.04 -11.18,9.93 -11.17,9.83 -11.13,9.73 -11.09,9.63 -11.02,9.55 -10.96,9.47 -10.87,9.41 -10.77,9.36 -10.67,9.33 -10.57,9.31 -10.46,9.32 -10.36,9.33 -10.26,9.38 -10.16,9.42 -10.09,9.49 -10.01,9.57 -9.96,9.66 -9.91,9.75 -9.89,9.86 -9.87,9.96 -9.89,10.07 -9.91,10.17 -9.96,10.27 -10.01,10.36 -10.08,10.44 -10.16,10.51 -10.26,10.55 -10.35,10.60 -10.46,10.61 -10.56,10.62 -10.67,10.60 -10.77,10.58 -10.86,10.52 -10.95,10.47 -11.02,10.39 -11.09,10.31 -11.13,10.21 -11.17,10.11 -11.18,10.00 -11.18,9.90 -11.15,9.79 -11.13,9.69 -11.07,9.60 -11.01,9.52 -10.92,9.45 -10.84,9.39 -10.74,9.35 -10.64,9.32 -10.64,9.32 -10.64,9.32 -8.68,8.53 -6.73,7.74 -4.90,7.75 -3.06,7.77 -0.83,8.52 1.39,9.27 3.17,11.00 4.95,12.73 5.56,15.31 6.17,17.89 4.93,20.24 3.69,22.59 1.04,24.27 -1.60,25.96 -4.51,26.43 -7.43,26.90 -8.97,25.31 -10.52,23.72 -10.59,21.41 -10.67,19.09 -10.09,16.00 -9.51,12.90 -8.18,9.51 -6.85,6.11 -4.97,3.22 -3.09,0.32 -1.51,-0.84 0.07,-2.02 0.20,-2.12 0.33,-2.23 0.48,-2.29 0.63,-2.36 0.80,-2.39 0.96,-2.42 1.13,-2.41 1.29,-2.40 1.45,-2.35 1.61,-2.30 1.75,-2.22 1.90,-2.13 2.01,-2.01 2.13,-1.90 2.22,-1.75 2.30,-1.61 2.35,-1.45 2.40,-1.29 2.41,-1.13 2.42,-0.96 2.39,-0.80 2.36,-0.63 2.29,-0.48 2.23,-0.33 2.12,-0.20 2.02,-0.07 1.24,0.19 0.46,0.46 0.40,0.51 0.33,0.56 0.26,0.59 0.19,0.62 0.11,0.64 0.03,0.65 -0.03,0.65 -0.11,0.64 -0.19,0.62 -0.26,0.59 -0.33,0.55 -0.40,0.51 -0.46,0.46 -0.51,0.40 -0.55,0.33 -0.59,0.26 -0.62,0.19 -0.64,0.11 -0.65,0.03 -0.65,-0.03 -0.64,-0.11 -0.62,-0.19 -0.59,-0.26 -0.56,-0.33 -0.51,-0.40 -0.46,-0.46 -0.46,-0.46 L -0.46,-0.46 Z"></path></g><g transform="translate(459.1324462890625 30.99603271484375) rotate(0 5.47723388671875 29.668304443359375)" stroke="none"><path fill="#FFFFFF" d="M -0.20,-0.62 Q -0.20,-0.62 1.27,-1.43 2.75,-2.23 3.79,-2.50 4.83,-2.77 6.36,-2.34 7.89,-1.92 9.71,-0.28 11.52,1.36 12.61,4.07 13.70,6.78 14.40,10.59 15.09,14.39 15.12,19.49 15.15,24.59 14.63,29.67 14.11,34.75 12.80,38.87 11.50,42.98 8.75,47.42 5.99,51.86 3.37,54.72 0.75,57.58 -0.43,58.68 -1.62,59.77 -1.70,59.84 -1.78,59.91 -1.88,59.95 -1.97,59.99 -2.08,59.99 -2.19,60.00 -2.29,59.97 -2.39,59.94 -2.48,59.88 -2.57,59.83 -2.63,59.74 -2.70,59.66 -2.73,59.56 -2.77,59.46 -2.77,59.35 -2.77,59.24 -2.73,59.14 -2.70,59.04 -2.63,58.96 -2.57,58.87 -2.48,58.81 -2.39,58.75 -2.29,58.72 -2.19,58.69 -2.08,58.70 -1.98,58.71 -1.88,58.74 -1.78,58.78 -1.70,58.85 -1.62,58.92 -1.56,59.01 -1.51,59.10 -1.48,59.21 -1.46,59.31 -1.47,59.42 -1.48,59.52 -1.53,59.62 -1.57,59.71 -1.65,59.79 -1.72,59.87 -1.81,59.92 -1.91,59.97 -2.01,59.99 -2.12,60.00 -2.22,59.99 -2.33,59.97 -2.42,59.92 -2.51,59.87 -2.59,59.79 -2.66,59.72 -2.70,59.62 -2.75,59.52 -2.76,59.42 -2.77,59.31 -2.75,59.21 -2.73,59.11 -2.67,59.01 -2.62,58.92 -2.62,58.92 -2.62,58.92 -1.74,57.57 -0.86,56.22 1.38,53.31 3.63,50.41 6.15,46.23 8.68,42.06 9.91,38.25 11.15,34.43 11.67,29.52 12.18,24.60 12.18,19.75 12.18,14.90 11.56,11.35 10.95,7.80 10.19,5.57 9.44,3.34 8.15,1.99 6.85,0.65 6.02,0.21 5.19,-0.22 4.36,-0.04 3.54,0.13 1.87,0.38 0.20,0.62 0.13,0.63 0.05,0.65 -0.02,0.65 -0.10,0.64 -0.18,0.62 -0.25,0.60 -0.32,0.56 -0.39,0.52 -0.45,0.46 -0.50,0.41 -0.55,0.34 -0.59,0.28 -0.61,0.20 -0.64,0.13 -0.64,0.05 -0.65,-0.02 -0.64,-0.10 -0.63,-0.18 -0.59,-0.25 -0.56,-0.32 -0.52,-0.39 -0.47,-0.45 -0.41,-0.50 -0.35,-0.55 -0.27,-0.58 -0.20,-0.62 -0.20,-0.62 L -0.20,-0.62 Z"></path></g><g transform="translate(55.6435546875 34.64752197265625) rotate(0 8.2158203125 25.560379028320312)" stroke="none"><path fill="#FFFFFF" d="M 0.55,0.34 Q 0.55,0.34 -0.38,2.67 -1.32,5.01 -2.63,7.44 -3.94,9.87 -4.96,12.90 -5.98,15.94 -6.13,19.42 -6.28,22.90 -5.59,26.65 -4.90,30.40 -3.39,33.95 -1.87,37.49 2.71,40.70 7.30,43.91 12.59,45.91 17.87,47.90 20.10,49.03 22.33,50.16 22.42,50.21 22.52,50.27 22.59,50.35 22.66,50.42 22.70,50.52 22.74,50.62 22.75,50.72 22.76,50.83 22.74,50.93 22.71,51.04 22.66,51.13 22.60,51.22 22.52,51.28 22.43,51.35 22.33,51.39 22.23,51.42 22.13,51.43 22.02,51.43 21.92,51.40 21.82,51.37 21.73,51.31 21.65,51.25 21.58,51.16 21.52,51.07 21.49,50.97 21.46,50.87 21.46,50.77 21.46,50.66 21.50,50.56 21.53,50.46 21.60,50.38 21.67,50.29 21.76,50.24 21.85,50.18 21.95,50.15 22.05,50.13 22.16,50.13 22.26,50.14 22.36,50.18 22.46,50.23 22.54,50.30 22.62,50.37 22.67,50.46 22.72,50.55 22.74,50.66 22.76,50.76 22.75,50.86 22.74,50.97 22.69,51.07 22.64,51.16 22.57,51.24 22.49,51.31 22.40,51.36 22.30,51.41 22.20,51.42 22.09,51.44 21.99,51.42 21.88,51.40 21.88,51.40 21.88,51.40 19.45,50.84 17.01,50.28 11.33,48.30 5.64,46.32 0.46,42.65 -4.71,38.98 -6.41,34.99 -8.11,30.99 -8.83,26.87 -9.54,22.74 -9.28,18.83 -9.03,14.91 -7.85,11.65 -6.68,8.38 -5.30,5.88 -3.92,3.38 -2.23,1.52 -0.55,-0.34 -0.50,-0.40 -0.45,-0.47 -0.39,-0.51 -0.33,-0.56 -0.25,-0.59 -0.18,-0.62 -0.10,-0.64 -0.02,-0.65 0.04,-0.65 0.12,-0.64 0.20,-0.61 0.27,-0.59 0.34,-0.55 0.41,-0.51 0.46,-0.45 0.52,-0.39 0.56,-0.32 0.60,-0.26 0.62,-0.18 0.64,-0.10 0.65,-0.02 0.65,0.04 0.63,0.12 0.62,0.20 0.59,0.27 0.55,0.34 0.55,0.34 L 0.55,0.34 Z"></path></g><g transform="translate(507.5146484375 42.86334228515625) rotate(0 0.91290283203125 -4.10791015625)" stroke="none"><path fill="#FFFFFF" d="M 0,-0.65 Q 0,-0.65 0.81,-1.01 1.62,-1.37 2.05,-1.01 2.47,-0.65 2.92,-1.26 3.36,-1.88 3.81,-2.76 4.25,-3.64 4.43,-4.69 4.61,-5.74 4.86,-6.39 5.11,-7.05 4.43,-7.42 3.74,-7.80 2.93,-7.52 2.13,-7.25 1.11,-6.24 0.09,-5.24 -0.85,-3.90 -1.80,-2.57 -1.92,-1.89 -2.04,-1.20 -1.26,-1.08 -0.48,-0.96 0.62,-1.56 1.72,-2.16 2.69,-3.27 3.66,-4.38 4.57,-5.64 5.48,-6.89 5.54,-6.98 5.59,-7.06 5.68,-7.13 5.76,-7.19 5.86,-7.23 5.96,-7.26 6.07,-7.26 6.18,-7.26 6.28,-7.23 6.38,-7.20 6.46,-7.13 6.55,-7.07 6.61,-6.98 6.67,-6.89 6.70,-6.79 6.73,-6.69 6.72,-6.58 6.72,-6.48 6.68,-6.38 6.64,-6.28 6.57,-6.20 6.50,-6.12 6.41,-6.06 6.32,-6.01 6.22,-5.98 6.11,-5.96 6.01,-5.97 5.90,-5.98 5.80,-6.03 5.71,-6.07 5.63,-6.14 5.55,-6.22 5.50,-6.31 5.45,-6.40 5.43,-6.51 5.42,-6.61 5.43,-6.72 5.45,-6.82 5.50,-6.92 5.55,-7.01 5.63,-7.08 5.70,-7.16 5.80,-7.20 5.89,-7.25 6.00,-7.26 6.11,-7.27 6.21,-7.25 6.31,-7.23 6.41,-7.17 6.50,-7.12 6.57,-7.04 6.63,-6.96 6.67,-6.86 6.71,-6.76 6.72,-6.65 6.73,-6.55 6.70,-6.45 6.67,-6.34 6.67,-6.34 6.67,-6.34 6.17,-4.50 5.67,-2.65 4.30,-1.12 2.94,0.40 1.03,1.07 -0.87,1.75 -2.25,1.17 -3.62,0.60 -3.88,-1.59 -4.13,-3.79 -2.92,-5.53 -1.71,-7.27 -0.12,-8.55 1.45,-9.83 3.07,-10.00 4.70,-10.18 6.02,-9.13 7.34,-8.09 7.38,-6.63 7.41,-5.18 7.09,-3.74 6.77,-2.30 6.02,-1.03 5.28,0.22 4.17,0.96 3.05,1.70 2.29,1.53 1.52,1.37 0.76,1.01 0,0.65 -0.07,0.64 -0.15,0.63 -0.23,0.60 -0.30,0.58 -0.37,0.53 -0.43,0.49 -0.48,0.43 -0.54,0.37 -0.57,0.30 -0.61,0.23 -0.63,0.15 -0.65,0.07 -0.65,-0.00 -0.65,-0.07 -0.63,-0.15 -0.61,-0.23 -0.57,-0.30 -0.54,-0.37 -0.48,-0.43 -0.43,-0.49 -0.37,-0.53 -0.30,-0.58 -0.23,-0.60 -0.15,-0.63 -0.07,-0.64 0.00,-0.65 0.00,-0.65 L 0,-0.65 Z"></path></g><g transform="translate(504.7760009765625 73.90093994140625) rotate(0 4.56439208984375 -5.0207672119140625)" stroke="none"><path fill="#FFFFFF" d="M 0.20,-0.62 Q 0.20,-0.62 1.06,-0.69 1.92,-0.75 3.77,-2.42 5.63,-4.08 6.50,-5.41 7.37,-6.74 7.53,-7.62 7.69,-8.51 6.64,-9.34 5.60,-10.16 4.64,-10.53 3.68,-10.90 3.00,-10.34 2.33,-9.79 1.86,-8.71 1.39,-7.63 1.06,-6.81 0.72,-5.99 2.04,-4.49 3.35,-2.99 3.42,-2.91 3.48,-2.82 3.52,-2.72 3.55,-2.62 3.55,-2.52 3.55,-2.41 3.52,-2.31 3.49,-2.21 3.42,-2.12 3.36,-2.04 3.27,-1.98 3.19,-1.92 3.08,-1.89 2.98,-1.86 2.88,-1.86 2.77,-1.87 2.67,-1.90 2.57,-1.94 2.49,-2.01 2.41,-2.08 2.35,-2.17 2.30,-2.26 2.27,-2.36 2.25,-2.47 2.26,-2.57 2.27,-2.68 2.31,-2.77 2.36,-2.87 2.43,-2.95 2.50,-3.03 2.59,-3.08 2.69,-3.13 2.79,-3.15 2.90,-3.16 3.00,-3.15 3.11,-3.13 3.20,-3.08 3.30,-3.04 3.37,-2.96 3.44,-2.88 3.49,-2.79 3.53,-2.69 3.55,-2.59 3.56,-2.48 3.54,-2.38 3.52,-2.27 3.46,-2.18 3.41,-2.09 3.33,-2.02 3.25,-1.95 3.15,-1.91 3.05,-1.87 2.95,-1.86 2.84,-1.85 2.74,-1.88 2.64,-1.91 2.55,-1.97 2.46,-2.03 2.46,-2.03 2.46,-2.03 0.41,-3.64 -1.64,-5.26 -1.36,-7.12 -1.08,-8.98 -0.10,-10.50 0.87,-12.01 2.36,-12.62 3.86,-13.24 5.53,-12.64 7.21,-12.05 8.66,-10.62 10.11,-9.20 9.97,-7.25 9.82,-5.30 8.74,-3.66 7.66,-2.02 5.66,-0.25 3.66,1.52 2.44,1.66 1.22,1.80 0.51,1.21 -0.20,0.62 -0.27,0.58 -0.35,0.55 -0.41,0.50 -0.47,0.45 -0.52,0.39 -0.56,0.32 -0.59,0.25 -0.63,0.18 -0.64,0.10 -0.65,0.02 -0.64,-0.05 -0.64,-0.13 -0.61,-0.20 -0.59,-0.28 -0.55,-0.34 -0.50,-0.41 -0.45,-0.46 -0.39,-0.52 -0.32,-0.56 -0.25,-0.60 -0.18,-0.62 -0.10,-0.64 -0.02,-0.65 0.05,-0.65 0.13,-0.63 0.20,-0.62 0.20,-0.62 L 0.20,-0.62 Z"></path></g><g transform="translate(556.8096923828125 19.128692626953125) rotate(0 -2.7386474609375 17.800979614257812)" stroke="none"><path fill="#FFFFFF" d="M 0.29,0.58 Q 0.29,0.58 -0.00,1.16 -0.30,1.74 -1.03,3.20 -1.77,4.66 -2.63,7.34 -3.50,10.02 -4.12,14.49 -4.74,18.97 -5.02,22.97 -5.30,26.97 -5.16,29.63 -5.02,32.30 -4.80,33.30 -4.58,34.29 -1.97,34.97 0.62,35.64 0.72,35.68 0.82,35.71 0.90,35.78 0.99,35.84 1.05,35.93 1.11,36.02 1.14,36.12 1.16,36.22 1.16,36.33 1.15,36.43 1.11,36.53 1.07,36.63 1.00,36.71 0.93,36.79 0.84,36.85 0.75,36.90 0.65,36.92 0.54,36.95 0.44,36.93 0.33,36.92 0.24,36.88 0.14,36.83 0.06,36.76 -0.00,36.69 -0.05,36.59 -0.10,36.50 -0.12,36.39 -0.14,36.29 -0.12,36.18 -0.10,36.08 -0.05,35.98 -0.00,35.89 0.07,35.82 0.14,35.74 0.24,35.70 0.34,35.66 0.44,35.65 0.55,35.63 0.65,35.66 0.76,35.68 0.85,35.74 0.94,35.79 1.01,35.87 1.07,35.95 1.11,36.05 1.15,36.15 1.16,36.26 1.16,36.36 1.13,36.47 1.11,36.57 1.05,36.66 0.99,36.74 0.90,36.81 0.82,36.87 0.71,36.90 0.61,36.94 0.51,36.94 0.40,36.94 0.40,36.94 0.40,36.94 -2.93,36.61 -6.27,36.29 -7.22,34.40 -8.16,32.52 -8.31,29.63 -8.46,26.75 -8.17,22.63 -7.88,18.52 -7.16,13.77 -6.45,9.03 -5.41,6.08 -4.36,3.12 -3.08,1.21 -1.79,-0.69 -1.04,-0.64 -0.29,-0.58 -0.21,-0.61 -0.14,-0.64 -0.06,-0.64 0.01,-0.65 0.09,-0.64 0.16,-0.63 0.24,-0.60 0.31,-0.57 0.38,-0.52 0.44,-0.48 0.49,-0.42 0.54,-0.36 0.58,-0.29 0.61,-0.22 0.63,-0.14 0.65,-0.06 0.65,0.01 0.65,0.09 0.62,0.16 0.60,0.24 0.57,0.31 0.53,0.38 0.47,0.44 0.42,0.50 0.35,0.54 0.29,0.58 0.29,0.58 L 0.29,0.58 Z"></path></g><g transform="translate(590.5859375 25.518798828125) rotate(0 -1.8258056640625 10.954437255859375)" stroke="none"><path fill="#FFFFFF" d="M -0.56,-0.33 Q -0.56,-0.33 0.01,-1.78 0.58,-3.22 1.74,-4.48 2.90,-5.74 3.60,-6.49 4.31,-7.24 4.88,-7.81 5.46,-8.38 5.59,-8.48 5.73,-8.59 5.88,-8.65 6.04,-8.72 6.21,-8.75 6.38,-8.78 6.55,-8.77 6.72,-8.76 6.88,-8.70 7.04,-8.65 7.18,-8.56 7.33,-8.47 7.45,-8.35 7.57,-8.23 7.65,-8.08 7.74,-7.93 7.79,-7.77 7.84,-7.61 7.85,-7.44 7.85,-7.27 7.82,-7.10 7.79,-6.93 7.72,-6.78 7.65,-6.62 7.54,-6.49 7.43,-6.36 6.73,-6.14 6.02,-5.92 5.08,-5.45 4.14,-4.98 1.90,-3.49 -0.33,-2.01 -2.36,-0.58 -4.38,0.84 -6.24,2.46 -8.11,4.07 -9.39,5.50 -10.67,6.93 -11.51,7.83 -12.34,8.74 -11.01,9.06 -9.68,9.37 -7.69,9.41 -5.71,9.45 -3.28,9.47 -0.85,9.48 1.58,9.75 4.02,10.02 6.06,11.00 8.09,11.98 9.39,13.53 10.68,15.09 10.40,17.60 10.13,20.11 8.52,22.08 6.90,24.05 4.87,25.82 2.83,27.59 0.27,28.82 -2.29,30.04 -2.38,30.08 -2.48,30.12 -2.59,30.13 -2.69,30.14 -2.80,30.11 -2.90,30.09 -2.99,30.03 -3.08,29.97 -3.14,29.89 -3.21,29.80 -3.25,29.70 -3.28,29.60 -3.28,29.50 -3.29,29.39 -3.25,29.29 -3.22,29.19 -3.16,29.10 -3.10,29.02 -3.01,28.96 -2.92,28.89 -2.82,28.86 -2.72,28.83 -2.61,28.84 -2.51,28.84 -2.41,28.88 -2.31,28.92 -2.23,28.98 -2.14,29.05 -2.09,29.14 -2.03,29.23 -2.01,29.33 -1.98,29.44 -1.99,29.54 -2.00,29.65 -2.04,29.75 -2.09,29.84 -2.16,29.92 -2.23,30.00 -2.32,30.05 -2.41,30.10 -2.52,30.12 -2.62,30.14 -2.73,30.13 -2.83,30.11 -2.93,30.06 -3.02,30.02 -3.10,29.94 -3.17,29.86 -3.22,29.77 -3.26,29.67 -3.28,29.57 -3.29,29.46 -3.27,29.36 -3.25,29.25 -3.20,29.16 -3.14,29.07 -3.06,29.00 -2.98,28.93 -2.98,28.93 -2.98,28.93 -0.96,27.28 1.05,25.62 2.88,23.88 4.72,22.13 6.02,20.77 7.33,19.40 7.77,17.76 8.20,16.13 7.45,15.34 6.70,14.56 5.16,13.73 3.63,12.91 1.37,12.64 -0.87,12.36 -3.32,12.35 -5.77,12.33 -7.85,12.28 -9.93,12.24 -11.17,12.11 -12.41,11.98 -13.38,11.53 -14.36,11.09 -14.82,10.16 -15.28,9.24 -14.84,8.05 -14.40,6.86 -13.57,5.97 -12.74,5.07 -11.34,3.52 -9.95,1.96 -7.98,0.25 -6.01,-1.45 -3.95,-2.90 -1.89,-4.36 0.53,-5.95 2.96,-7.55 4.21,-7.96 5.46,-8.38 5.59,-8.48 5.73,-8.59 5.88,-8.65 6.04,-8.72 6.21,-8.75 6.38,-8.78 6.55,-8.77 6.72,-8.76 6.88,-8.70 7.04,-8.65 7.18,-8.56 7.33,-8.47 7.45,-8.35 7.57,-8.23 7.65,-8.08 7.74,-7.93 7.79,-7.77 7.84,-7.61 7.85,-7.44 7.85,-7.27 7.82,-7.10 7.79,-6.93 7.72,-6.78 7.65,-6.62 7.54,-6.49 7.43,-6.36 6.85,-5.79 6.28,-5.22 5.50,-4.53 4.73,-3.83 3.64,-2.92 2.56,-2.02 1.56,-0.84 0.56,0.33 0.51,0.40 0.46,0.46 0.40,0.51 0.34,0.56 0.26,0.59 0.19,0.62 0.11,0.64 0.04,0.65 -0.03,0.65 -0.11,0.64 -0.19,0.62 -0.26,0.59 -0.33,0.55 -0.40,0.51 -0.45,0.46 -0.51,0.40 -0.55,0.33 -0.59,0.27 -0.62,0.19 -0.64,0.12 -0.65,0.04 -0.65,-0.03 -0.64,-0.11 -0.62,-0.19 -0.59,-0.26 -0.56,-0.33 -0.56,-0.33 L -0.56,-0.33 Z"></path></g><g transform="translate(632.5780029296875 25.518798828125) rotate(0 -9.585205078125 14.605926513671875)" stroke="none"><path fill="#FFFFFF" d="M -0.39,-0.52 Q -0.39,-0.52 0.47,-1.55 1.33,-2.59 1.46,-2.67 1.60,-2.74 1.74,-2.78 1.89,-2.83 2.04,-2.83 2.20,-2.84 2.35,-2.81 2.50,-2.78 2.64,-2.71 2.78,-2.65 2.89,-2.55 3.01,-2.45 3.11,-2.33 3.20,-2.21 3.26,-2.06 3.32,-1.92 3.34,-1.77 3.37,-1.62 3.35,-1.47 3.34,-1.31 3.29,-1.17 3.24,-1.02 3.16,-0.89 3.08,-0.76 2.97,-0.66 2.86,-0.55 0.74,1.77 -1.36,4.10 -3.32,6.08 -5.28,8.06 -8.44,11.75 -11.60,15.44 -13.97,18.81 -16.35,22.17 -17.92,24.84 -19.49,27.51 -20.26,29.37 -21.02,31.22 -21.07,31.31 -21.11,31.41 -21.18,31.49 -21.26,31.56 -21.35,31.61 -21.44,31.66 -21.55,31.68 -21.65,31.70 -21.76,31.68 -21.86,31.66 -21.96,31.62 -22.05,31.57 -22.12,31.49 -22.20,31.41 -22.24,31.32 -22.29,31.22 -22.30,31.11 -22.31,31.01 -22.29,30.90 -22.27,30.80 -22.21,30.71 -22.16,30.62 -22.08,30.55 -22.00,30.48 -21.90,30.44 -21.80,30.40 -21.69,30.39 -21.59,30.39 -21.48,30.42 -21.38,30.45 -21.29,30.50 -21.21,30.56 -21.14,30.65 -21.08,30.73 -21.04,30.83 -21.01,30.93 -21.01,31.04 -21.01,31.15 -21.04,31.25 -21.07,31.35 -21.14,31.43 -21.20,31.52 -21.29,31.58 -21.38,31.64 -21.48,31.67 -21.58,31.69 -21.69,31.69 -21.80,31.68 -21.89,31.64 -21.99,31.61 -22.07,31.54 -22.16,31.47 -22.21,31.38 -22.26,31.29 -22.29,31.18 -22.31,31.08 -22.30,30.97 -22.29,30.87 -22.29,30.87 -22.29,30.87 -21.93,28.62 -21.57,26.37 -20.04,23.51 -18.51,20.65 -16.08,17.17 -13.64,13.69 -10.41,9.93 -7.19,6.17 -5.23,4.20 -3.28,2.23 -0.97,-0.18 1.33,-2.59 1.46,-2.66 1.60,-2.74 1.74,-2.78 1.89,-2.83 2.04,-2.83 2.20,-2.84 2.35,-2.81 2.50,-2.78 2.64,-2.71 2.78,-2.65 2.89,-2.55 3.01,-2.45 3.11,-2.33 3.20,-2.21 3.26,-2.06 3.32,-1.92 3.34,-1.77 3.37,-1.62 3.35,-1.47 3.34,-1.31 3.29,-1.17 3.24,-1.02 3.16,-0.89 3.08,-0.76 2.97,-0.66 2.86,-0.55 1.62,-0.01 0.39,0.52 0.32,0.56 0.25,0.60 0.18,0.62 0.10,0.64 0.02,0.65 -0.05,0.65 -0.13,0.63 -0.20,0.62 -0.28,0.58 -0.35,0.55 -0.41,0.50 -0.47,0.45 -0.52,0.39 -0.56,0.32 -0.59,0.25 -0.63,0.18 -0.64,0.10 -0.65,0.02 -0.64,-0.05 -0.64,-0.13 -0.61,-0.20 -0.59,-0.28 -0.55,-0.34 -0.50,-0.41 -0.45,-0.47 -0.39,-0.52 -0.39,-0.52 L -0.39,-0.52 Z"></path></g><g transform="translate(632.5780029296875 49.253448486328125) rotate(0 -13.23663330078125 -2.738616943359375)" stroke="none"><path fill="#FFFFFF" d="M -0.58,0.29 Q -0.58,0.29 -1.25,-0.62 -1.92,-1.54 -3.04,-2.01 -4.15,-2.48 -6.15,-2.96 -8.14,-3.45 -11.03,-3.66 -13.92,-3.88 -16.95,-3.79 -19.98,-3.69 -22.54,-3.09 -25.11,-2.48 -25.21,-2.47 -25.32,-2.45 -25.42,-2.47 -25.53,-2.49 -25.62,-2.54 -25.71,-2.59 -25.78,-2.67 -25.86,-2.75 -25.90,-2.84 -25.94,-2.94 -25.95,-3.05 -25.96,-3.15 -25.94,-3.25 -25.91,-3.36 -25.86,-3.45 -25.80,-3.54 -25.72,-3.61 -25.64,-3.67 -25.54,-3.71 -25.44,-3.75 -25.33,-3.75 -25.23,-3.76 -25.13,-3.73 -25.02,-3.70 -24.94,-3.64 -24.85,-3.58 -24.79,-3.49 -24.72,-3.41 -24.69,-3.30 -24.66,-3.20 -24.66,-3.10 -24.66,-2.99 -24.70,-2.89 -24.73,-2.79 -24.80,-2.71 -24.86,-2.62 -24.95,-2.56 -25.04,-2.51 -25.14,-2.48 -25.25,-2.45 -25.35,-2.46 -25.46,-2.47 -25.56,-2.51 -25.65,-2.55 -25.73,-2.62 -25.81,-2.69 -25.87,-2.78 -25.92,-2.87 -25.94,-2.98 -25.96,-3.08 -25.95,-3.19 -25.94,-3.29 -25.89,-3.39 -25.85,-3.48 -25.77,-3.56 -25.70,-3.63 -25.60,-3.68 -25.51,-3.73 -25.51,-3.73 -25.51,-3.73 -22.81,-4.82 -20.11,-5.90 -16.92,-6.13 -13.72,-6.36 -10.61,-6.10 -7.51,-5.83 -5.27,-5.19 -3.03,-4.54 -1.60,-3.60 -0.17,-2.65 0.20,-1.47 0.58,-0.29 0.61,-0.21 0.64,-0.14 0.64,-0.06 0.65,0.01 0.64,0.09 0.63,0.16 0.60,0.24 0.57,0.31 0.52,0.38 0.48,0.44 0.42,0.49 0.36,0.54 0.29,0.58 0.22,0.61 0.14,0.63 0.06,0.65 -0.01,0.65 -0.09,0.65 -0.16,0.62 -0.24,0.60 -0.31,0.57 -0.38,0.53 -0.44,0.47 -0.50,0.42 -0.54,0.35 -0.58,0.29 -0.58,0.29 L -0.58,0.29 Z"></path></g><g transform="translate(637.142333984375 22.780181884765625) rotate(0 11.41082763671875 20.083160400390625)" stroke="none"><path fill="#FFFFFF" d="M -0.34,-0.55 Q -0.34,-0.55 1.54,-2.19 3.44,-3.83 4.69,-4.44 5.94,-5.06 8.58,-5.12 11.22,-5.18 14.05,-4.07 16.89,-2.96 19.27,-0.98 21.66,0.98 22.51,4.73 23.35,8.48 22.30,12.60 21.25,16.71 18.61,21.12 15.98,25.53 12.98,29.70 9.97,33.87 7.02,37.17 4.06,40.47 2.71,41.76 1.35,43.05 1.27,43.12 1.19,43.19 1.09,43.23 0.99,43.27 0.89,43.27 0.78,43.28 0.68,43.25 0.58,43.22 0.49,43.16 0.40,43.10 0.34,43.02 0.27,42.93 0.24,42.83 0.20,42.73 0.20,42.63 0.20,42.52 0.24,42.42 0.27,42.32 0.33,42.23 0.40,42.15 0.48,42.09 0.57,42.03 0.67,42.00 0.78,41.97 0.88,41.98 0.99,41.98 1.09,42.02 1.19,42.06 1.27,42.13 1.35,42.20 1.40,42.29 1.46,42.38 1.48,42.48 1.51,42.59 1.49,42.69 1.48,42.80 1.44,42.89 1.40,42.99 1.32,43.07 1.25,43.15 1.16,43.20 1.06,43.25 0.96,43.26 0.85,43.28 0.75,43.26 0.64,43.25 0.55,43.20 0.46,43.15 0.38,43.07 0.31,43.00 0.26,42.90 0.22,42.80 0.21,42.70 0.19,42.59 0.22,42.49 0.24,42.38 0.29,42.29 0.35,42.20 0.35,42.20 0.35,42.20 1.39,40.65 2.42,39.09 5.10,35.71 7.77,32.32 10.60,28.16 13.43,24.00 15.88,19.94 18.32,15.88 19.34,12.40 20.37,8.92 19.92,5.92 19.48,2.93 17.58,1.37 15.69,-0.17 13.40,-1.18 11.10,-2.19 9.09,-2.30 7.07,-2.41 6.01,-1.91 4.95,-1.41 2.65,-0.42 0.34,0.55 0.27,0.59 0.20,0.62 0.12,0.63 0.04,0.65 -0.02,0.65 -0.10,0.64 -0.18,0.62 -0.26,0.60 -0.32,0.56 -0.39,0.52 -0.45,0.46 -0.51,0.41 -0.55,0.34 -0.59,0.27 -0.61,0.20 -0.64,0.12 -0.65,0.04 -0.65,-0.02 -0.64,-0.10 -0.62,-0.18 -0.59,-0.25 -0.56,-0.33 -0.51,-0.39 -0.47,-0.45 -0.40,-0.50 -0.34,-0.55 -0.34,-0.55 L -0.34,-0.55 Z"></path></g><g transform="translate(683.69873046875 48.340576171875) rotate(0 14.60589599609375 -0.912872314453125)" stroke="none"><path fill="#FFFFFF" d="M -0.20,-0.62 Q -0.20,-0.62 0.47,-1.30 1.15,-1.98 4.68,-1.61 8.21,-1.24 12.14,-1.07 16.07,-0.90 19.79,-1.05 23.52,-1.20 25.08,-0.90 26.65,-0.60 26.75,-0.59 26.86,-0.58 26.96,-0.54 27.06,-0.50 27.13,-0.42 27.21,-0.35 27.26,-0.26 27.32,-0.17 27.33,-0.06 27.35,0.03 27.34,0.14 27.32,0.24 27.28,0.34 27.23,0.43 27.15,0.51 27.08,0.58 26.98,0.63 26.88,0.67 26.78,0.69 26.67,0.70 26.57,0.68 26.47,0.66 26.37,0.61 26.28,0.55 26.21,0.47 26.14,0.39 26.10,0.30 26.06,0.20 26.05,0.09 26.04,-0.00 26.07,-0.11 26.10,-0.21 26.15,-0.30 26.21,-0.39 26.30,-0.45 26.38,-0.52 26.48,-0.55 26.58,-0.59 26.68,-0.59 26.79,-0.59 26.89,-0.56 26.99,-0.53 27.08,-0.47 27.17,-0.41 27.23,-0.32 27.29,-0.23 27.32,-0.13 27.35,-0.03 27.34,0.07 27.34,0.17 27.30,0.27 27.27,0.37 27.20,0.46 27.13,0.54 27.04,0.59 26.95,0.65 26.85,0.68 26.74,0.70 26.74,0.70 26.75,0.70 25.21,1.23 23.67,1.76 19.80,1.98 15.93,2.20 11.87,2.02 7.81,1.84 4.90,1.39 1.99,0.93 1.09,0.77 0.20,0.62 0.13,0.63 0.05,0.65 -0.02,0.65 -0.10,0.64 -0.18,0.62 -0.25,0.60 -0.32,0.56 -0.39,0.52 -0.45,0.46 -0.50,0.41 -0.55,0.34 -0.59,0.28 -0.61,0.20 -0.64,0.13 -0.64,0.05 -0.65,-0.02 -0.64,-0.10 -0.63,-0.18 -0.59,-0.25 -0.56,-0.32 -0.52,-0.39 -0.47,-0.45 -0.41,-0.50 -0.35,-0.55 -0.27,-0.58 -0.20,-0.62 -0.20,-0.62 L -0.20,-0.62 Z"></path></g><g transform="translate(681.8729248046875 48.340576171875) rotate(0 14.60595703125 -2.2821807861328125)" stroke="none"><path fill="#FFFFFF" d="M -0.63,-0.15 Q -0.63,-0.15 -0.54,-1.56 -0.44,-2.97 1.22,-3.75 2.90,-4.54 7.37,-4.78 11.85,-5.03 16.00,-5.36 20.15,-5.70 22.74,-5.84 25.33,-5.97 26.99,-5.19 28.64,-4.42 28.74,-4.38 28.84,-4.35 28.92,-4.28 29.01,-4.21 29.07,-4.13 29.12,-4.04 29.15,-3.93 29.18,-3.83 29.17,-3.72 29.16,-3.62 29.12,-3.52 29.08,-3.42 29.01,-3.34 28.94,-3.26 28.85,-3.21 28.75,-3.16 28.65,-3.14 28.54,-3.12 28.44,-3.13 28.33,-3.14 28.24,-3.19 28.14,-3.24 28.07,-3.31 27.99,-3.39 27.94,-3.48 27.90,-3.57 27.88,-3.68 27.87,-3.79 27.88,-3.89 27.90,-3.99 27.96,-4.09 28.01,-4.18 28.09,-4.25 28.16,-4.32 28.26,-4.37 28.36,-4.41 28.46,-4.42 28.57,-4.43 28.67,-4.40 28.78,-4.38 28.87,-4.32 28.96,-4.26 29.02,-4.18 29.09,-4.10 29.13,-4.00 29.17,-3.90 29.17,-3.79 29.17,-3.69 29.14,-3.59 29.11,-3.49 29.05,-3.40 28.99,-3.31 28.90,-3.25 28.82,-3.19 28.72,-3.15 28.62,-3.12 28.51,-3.12 28.40,-3.13 28.40,-3.13 28.40,-3.13 26.95,-2.92 25.50,-2.72 22.96,-2.56 20.42,-2.40 16.21,-2.05 12.00,-1.71 7.92,-1.57 3.84,-1.44 2.67,-1.33 1.49,-1.22 1.06,-0.53 0.63,0.15 0.60,0.23 0.58,0.30 0.53,0.37 0.49,0.43 0.43,0.48 0.37,0.54 0.30,0.57 0.23,0.61 0.15,0.63 0.07,0.65 -0.00,0.65 -0.08,0.65 -0.15,0.63 -0.23,0.61 -0.30,0.57 -0.37,0.53 -0.43,0.48 -0.49,0.43 -0.53,0.36 -0.58,0.30 -0.61,0.22 -0.63,0.15 -0.64,0.07 -0.65,-0.00 -0.64,-0.08 -0.63,-0.15 -0.63,-0.15 L -0.63,-0.15 Z"></path></g><g transform="translate(729.34228515625 26.431671142578125) rotate(0 14.14947509765625 16.888107299804688)" stroke="none"><path fill="#FFFFFF" d="M 0.65,0 Q 0.65,0 0.66,1.14 0.66,2.28 1.91,2.83 3.16,3.37 4.16,3.59 5.15,3.81 6.30,3.84 7.44,3.88 8.71,3.91 9.98,3.94 11.31,3.95 12.64,3.96 14.88,4.23 17.11,4.50 18.80,5.24 20.49,5.97 21.66,7.63 22.83,9.28 22.77,11.54 22.72,13.79 21.82,16.35 20.93,18.91 19.75,21.31 18.56,23.71 17.57,25.97 16.57,28.24 16.16,29.49 15.74,30.74 17.71,30.85 19.68,30.95 21.64,31.07 23.59,31.18 25.51,31.74 27.43,32.29 27.51,32.31 27.58,32.32 27.66,32.35 27.73,32.38 27.79,32.43 27.85,32.48 27.90,32.54 27.95,32.61 27.98,32.68 28.02,32.75 28.03,32.83 28.05,32.91 28.04,32.99 28.04,33.06 28.01,33.14 27.99,33.22 27.95,33.28 27.91,33.35 27.85,33.41 27.80,33.46 27.73,33.50 27.66,33.55 27.59,33.57 27.51,33.59 27.43,33.60 27.35,33.60 27.05,33.20 26.75,32.80 26.79,32.70 26.83,32.60 26.90,32.52 26.97,32.44 27.06,32.39 27.15,32.33 27.26,32.31 27.36,32.29 27.47,32.30 27.57,32.32 27.67,32.36 27.76,32.41 27.84,32.48 27.92,32.56 27.97,32.65 28.01,32.75 28.03,32.85 28.05,32.96 28.03,33.06 28.01,33.16 27.96,33.26 27.91,33.35 27.83,33.42 27.75,33.50 27.66,33.54 27.56,33.58 27.45,33.59 27.35,33.60 27.24,33.58 27.14,33.55 27.05,33.50 26.96,33.44 26.89,33.36 26.82,33.28 26.79,33.18 26.75,33.08 26.74,32.98 26.74,32.87 26.77,32.77 26.80,32.66 26.86,32.58 26.92,32.49 27.00,32.43 27.09,32.36 27.19,32.33 27.29,32.30 27.40,32.30 27.50,32.30 27.60,32.34 27.70,32.37 27.79,32.44 27.87,32.50 27.93,32.59 27.99,32.68 28.02,32.78 28.04,32.88 27.74,32.59 27.43,32.29 27.51,32.31 27.58,32.32 27.66,32.35 27.73,32.38 27.79,32.43 27.85,32.48 27.90,32.54 27.95,32.61 27.98,32.68 28.02,32.75 28.03,32.83 28.05,32.91 28.04,32.98 28.04,33.06 28.01,33.14 27.99,33.22 27.95,33.28 27.91,33.35 27.85,33.41 27.80,33.46 27.73,33.50 27.66,33.55 27.59,33.57 27.51,33.59 27.43,33.60 27.35,33.60 25.39,33.90 23.42,34.20 21.37,34.08 19.32,33.96 16.74,33.46 14.17,32.96 13.54,31.75 12.90,30.54 13.35,28.78 13.80,27.03 14.83,24.70 15.86,22.37 16.98,20.13 18.10,17.89 18.91,15.70 19.72,13.52 19.97,12.03 20.22,10.53 19.64,9.54 19.06,8.55 17.88,8.01 16.70,7.46 14.64,7.18 12.58,6.90 11.21,6.86 9.85,6.82 8.48,6.72 7.12,6.63 5.77,6.37 4.42,6.11 3.25,5.63 2.08,5.15 0.70,4.05 -0.66,2.96 -0.66,1.48 -0.65,0 -0.64,-0.07 -0.63,-0.15 -0.60,-0.23 -0.58,-0.30 -0.53,-0.37 -0.49,-0.43 -0.43,-0.48 -0.37,-0.54 -0.30,-0.57 -0.23,-0.61 -0.15,-0.63 -0.07,-0.65 0.00,-0.65 0.07,-0.65 0.15,-0.63 0.23,-0.61 0.30,-0.57 0.37,-0.54 0.43,-0.48 0.49,-0.43 0.53,-0.37 0.58,-0.30 0.60,-0.23 0.63,-0.15 0.64,-0.07 0.65,0.00 0.65,0.00 L 0.65,0 Z"></path></g><g transform="translate(791.41748046875 40.124725341796875) rotate(0 -8.2158203125 12.323760986328125)" stroke="none"><path fill="#FFFFFF" d="M -0.46,-0.46 Q -0.46,-0.46 0.16,-1.48 0.79,-2.50 1.06,-2.56 1.33,-2.62 1.45,-2.72 1.58,-2.81 1.72,-2.88 1.86,-2.94 2.01,-2.97 2.16,-2.99 2.32,-2.99 2.47,-2.98 2.62,-2.93 2.77,-2.88 2.90,-2.80 3.03,-2.72 3.14,-2.61 3.25,-2.51 3.33,-2.37 3.41,-2.24 3.46,-2.09 3.50,-1.95 3.51,-1.79 3.52,-1.64 3.49,-1.48 3.46,-1.33 3.40,-1.19 3.34,-1.05 3.24,-0.93 3.15,-0.81 2.61,0.10 2.07,1.02 -0.33,4.14 -2.73,7.25 -5.31,10.64 -7.89,14.04 -10.04,16.80 -12.19,19.57 -13.68,21.46 -15.17,23.36 -16.62,25.12 -18.06,26.88 -18.14,26.96 -18.21,27.04 -18.30,27.09 -18.39,27.15 -18.50,27.17 -18.60,27.18 -18.71,27.17 -18.81,27.16 -18.91,27.11 -19.00,27.06 -19.08,26.99 -19.15,26.91 -19.20,26.81 -19.24,26.72 -19.26,26.61 -19.27,26.51 -19.25,26.40 -19.23,26.30 -19.18,26.21 -19.13,26.12 -19.05,26.04 -18.97,25.97 -18.87,25.93 -18.77,25.89 -18.67,25.88 -18.56,25.87 -18.46,25.90 -18.36,25.93 -18.27,25.98 -18.18,26.04 -18.11,26.12 -18.04,26.21 -18.01,26.31 -17.97,26.41 -17.97,26.51 -17.97,26.62 -18.00,26.72 -18.03,26.82 -18.09,26.91 -18.15,26.99 -18.24,27.06 -18.33,27.12 -18.43,27.15 -18.53,27.18 -18.64,27.18 -18.74,27.17 -18.84,27.14 -18.94,27.10 -19.02,27.03 -19.11,26.97 -19.16,26.88 -19.22,26.79 -19.25,26.68 -19.27,26.58 -19.26,26.47 -19.25,26.37 -19.21,26.27 -19.17,26.17 -19.17,26.17 -19.17,26.17 -18.13,24.07 -17.08,21.96 -15.70,19.94 -14.31,17.92 -12.17,15.17 -10.02,12.42 -7.43,9.01 -4.85,5.61 -2.50,2.61 -0.16,-0.39 0.58,-1.50 1.33,-2.62 1.45,-2.72 1.57,-2.81 1.72,-2.88 1.86,-2.94 2.01,-2.97 2.16,-2.99 2.32,-2.99 2.47,-2.98 2.62,-2.93 2.77,-2.88 2.90,-2.80 3.03,-2.72 3.14,-2.61 3.25,-2.51 3.33,-2.37 3.41,-2.24 3.46,-2.09 3.50,-1.95 3.51,-1.79 3.52,-1.64 3.49,-1.48 3.46,-1.33 3.40,-1.19 3.34,-1.05 3.24,-0.93 3.15,-0.81 2.75,-0.72 2.35,-0.64 1.41,-0.08 0.46,0.46 0.40,0.51 0.33,0.56 0.26,0.59 0.19,0.62 0.11,0.64 0.03,0.65 -0.03,0.65 -0.11,0.64 -0.19,0.62 -0.26,0.59 -0.33,0.55 -0.40,0.51 -0.46,0.46 -0.51,0.40 -0.55,0.33 -0.59,0.26 -0.62,0.19 -0.64,0.11 -0.65,0.03 -0.65,-0.03 -0.64,-0.11 -0.62,-0.19 -0.59,-0.26 -0.56,-0.33 -0.51,-0.40 -0.46,-0.46 -0.46,-0.46 L -0.46,-0.46 Z"></path></g><g transform="translate(792.330322265625 66.59799194335938) rotate(0 -10.95440673828125 -4.564361572265625)" stroke="none"><path fill="#FFFFFF" d="M -0.60,-0.24 Q -0.60,-0.24 -0.35,-1.63 -0.09,-3.02 -0.90,-3.28 -1.72,-3.53 -4.43,-4.21 -7.13,-4.88 -9.87,-5.45 -12.61,-6.02 -15.08,-6.60 -17.55,-7.17 -20.10,-7.76 -22.65,-8.34 -22.75,-8.37 -22.85,-8.39 -22.94,-8.45 -23.03,-8.52 -23.09,-8.60 -23.15,-8.69 -23.19,-8.79 -23.22,-8.89 -23.22,-8.99 -23.22,-9.10 -23.18,-9.20 -23.15,-9.30 -23.08,-9.38 -23.02,-9.47 -22.93,-9.53 -22.84,-9.59 -22.74,-9.61 -22.64,-9.64 -22.53,-9.64 -22.42,-9.63 -22.33,-9.59 -22.23,-9.55 -22.15,-9.48 -22.07,-9.41 -22.01,-9.32 -21.96,-9.23 -21.94,-9.12 -21.91,-9.02 -21.93,-8.91 -21.94,-8.81 -21.98,-8.71 -22.03,-8.62 -22.10,-8.54 -22.18,-8.46 -22.27,-8.41 -22.37,-8.36 -22.47,-8.35 -22.58,-8.33 -22.68,-8.35 -22.78,-8.37 -22.88,-8.42 -22.97,-8.47 -23.04,-8.55 -23.12,-8.62 -23.16,-8.72 -23.20,-8.82 -23.21,-8.92 -23.23,-9.03 -23.20,-9.13 -23.18,-9.24 -23.12,-9.33 -23.07,-9.42 -22.99,-9.49 -22.90,-9.55 -22.80,-9.59 -22.71,-9.63 -22.60,-9.64 -22.49,-9.64 -22.49,-9.64 -22.49,-9.64 -19.78,-9.61 -17.07,-9.57 -14.56,-9.14 -12.05,-8.70 -9.25,-8.12 -6.44,-7.53 -3.52,-6.73 -0.60,-5.94 0.62,-5.15 1.84,-4.36 2.02,-3.29 2.19,-2.22 1.40,-0.98 0.60,0.24 0.57,0.31 0.53,0.38 0.48,0.44 0.42,0.49 0.36,0.54 0.29,0.58 0.22,0.61 0.14,0.64 0.06,0.64 -0.01,0.65 -0.09,0.64 -0.16,0.63 -0.24,0.60 -0.31,0.57 -0.37,0.52 -0.44,0.48 -0.49,0.42 -0.54,0.36 -0.58,0.29 -0.61,0.22 -0.63,0.14 -0.65,0.06 -0.65,-0.01 -0.65,-0.09 -0.62,-0.16 -0.60,-0.24 -0.60,-0.24 L -0.60,-0.24 Z"></path></g><g transform="translate(791.41748046875 15.47723388671875) rotate(0 13.69305419921875 10.04156494140625)" stroke="none"><path fill="#FFFFFF" d="M 0,-0.65 Q 0,-0.65 1.04,-1.07 2.09,-1.48 3.07,-1.50 4.05,-1.51 5.48,-0.91 6.91,-0.31 7.56,1.90 8.21,4.12 8.13,6.70 8.05,9.28 7.74,11.69 7.43,14.09 7.02,15.61 6.61,17.12 8.01,17.29 9.42,17.45 12.14,17.24 14.86,17.03 17.67,16.96 20.49,16.88 23.51,18.07 26.54,19.27 26.61,19.35 26.68,19.43 26.71,19.53 26.75,19.63 26.76,19.74 26.76,19.84 26.73,19.94 26.70,20.05 26.64,20.13 26.57,20.22 26.49,20.28 26.40,20.34 26.30,20.38 26.20,20.41 26.09,20.41 25.99,20.40 25.89,20.37 25.79,20.33 25.70,20.27 25.62,20.20 25.56,20.11 25.51,20.02 25.48,19.92 25.45,19.82 25.46,19.71 25.47,19.60 25.51,19.51 25.55,19.41 25.62,19.33 25.69,19.25 25.79,19.20 25.88,19.14 25.98,19.12 26.09,19.10 26.19,19.12 26.30,19.13 26.39,19.18 26.49,19.22 26.56,19.30 26.64,19.37 26.69,19.47 26.73,19.56 26.75,19.67 26.76,19.77 26.74,19.88 26.73,19.98 26.67,20.07 26.62,20.17 26.54,20.24 26.46,20.31 26.37,20.35 26.27,20.39 26.16,20.40 26.06,20.41 25.95,20.39 25.85,20.36 25.76,20.31 25.67,20.25 25.67,20.25 25.67,20.25 23.13,20.07 20.58,19.89 17.84,19.99 15.09,20.09 12.15,20.30 9.20,20.51 7.19,20.18 5.18,19.85 4.42,18.29 3.66,16.72 4.03,15.21 4.40,13.69 4.70,11.43 5.00,9.16 5.10,6.94 5.21,4.71 4.62,3.11 4.02,1.51 3.06,1.50 2.09,1.48 1.04,1.07 0,0.65 -0.07,0.64 -0.15,0.63 -0.23,0.60 -0.30,0.58 -0.37,0.53 -0.43,0.49 -0.48,0.43 -0.54,0.37 -0.57,0.30 -0.61,0.23 -0.63,0.15 -0.65,0.07 -0.65,-0.00 -0.65,-0.07 -0.63,-0.15 -0.61,-0.23 -0.57,-0.30 -0.54,-0.37 -0.48,-0.43 -0.43,-0.49 -0.37,-0.53 -0.30,-0.58 -0.23,-0.60 -0.15,-0.63 -0.07,-0.64 0.00,-0.65 0.00,-0.65 L 0,-0.65 Z"></path></g><g transform="translate(84.85540771484375 143.27911376953125) rotate(0 5.47723388671875 3.195098876953125)" stroke="none"><path fill="#FFFFFF" d="M 0.46,0.46 Q 0.46,0.46 -0.67,1.95 -1.81,3.43 -2.60,4.28 -3.40,5.13 -4.00,5.49 -4.60,5.84 -4.72,5.93 -4.84,6.03 -4.97,6.09 -5.11,6.15 -5.26,6.18 -5.41,6.20 -5.56,6.20 -5.71,6.19 -5.85,6.14 -5.99,6.10 -6.12,6.02 -6.25,5.94 -6.36,5.83 -6.47,5.73 -6.54,5.60 -6.62,5.47 -6.67,5.33 -6.71,5.18 -6.72,5.03 -6.73,4.88 -6.70,4.73 -6.68,4.58 -6.61,4.45 -6.55,4.31 -6.46,4.19 -6.37,4.07 -5.41,3.57 -4.45,3.06 -2.65,1.66 -0.86,0.25 2.04,-1.95 4.95,-4.16 7.73,-6.42 10.52,-8.68 12.04,-9.69 13.57,-10.70 15.29,-10.59 17.02,-10.48 17.55,-9.37 18.08,-8.25 17.75,-5.18 17.42,-2.10 16.72,0.97 16.03,4.05 15.49,6.89 14.94,9.72 13.88,12.89 12.82,16.06 12.78,16.16 12.74,16.26 12.67,16.34 12.60,16.42 12.51,16.47 12.42,16.53 12.31,16.55 12.21,16.57 12.10,16.56 12.00,16.55 11.90,16.51 11.81,16.46 11.73,16.39 11.65,16.31 11.60,16.22 11.55,16.13 11.54,16.02 11.52,15.92 11.53,15.81 11.55,15.71 11.60,15.61 11.65,15.52 11.73,15.45 11.81,15.37 11.90,15.33 12.00,15.28 12.10,15.27 12.21,15.26 12.31,15.28 12.42,15.31 12.51,15.36 12.60,15.42 12.67,15.50 12.74,15.58 12.78,15.68 12.82,15.78 12.82,15.88 12.83,15.99 12.80,16.09 12.77,16.19 12.71,16.28 12.65,16.37 12.57,16.43 12.48,16.50 12.38,16.53 12.28,16.56 12.17,16.56 12.07,16.56 11.97,16.53 11.87,16.50 11.78,16.43 11.70,16.37 11.64,16.28 11.58,16.19 11.55,16.09 11.52,15.99 11.53,15.88 11.53,15.78 11.53,15.78 11.53,15.78 11.89,12.49 12.24,9.20 12.80,6.32 13.35,3.45 14.02,0.49 14.69,-2.46 15.09,-4.95 15.49,-7.44 15.23,-7.91 14.98,-8.37 13.59,-7.47 12.20,-6.57 9.36,-4.34 6.51,-2.10 3.60,0.08 0.69,2.27 -1.33,3.81 -3.35,5.34 -3.97,5.59 -4.60,5.84 -4.72,5.93 -4.84,6.03 -4.97,6.09 -5.11,6.15 -5.26,6.18 -5.41,6.20 -5.56,6.20 -5.71,6.19 -5.85,6.14 -5.99,6.10 -6.12,6.02 -6.25,5.94 -6.36,5.83 -6.47,5.73 -6.54,5.60 -6.62,5.47 -6.67,5.33 -6.71,5.18 -6.72,5.03 -6.73,4.88 -6.70,4.73 -6.68,4.59 -6.61,4.45 -6.55,4.31 -6.46,4.19 -6.37,4.07 -5.74,3.73 -5.12,3.39 -4.27,2.60 -3.43,1.81 -1.95,0.67 -0.46,-0.46 -0.40,-0.51 -0.33,-0.56 -0.26,-0.59 -0.19,-0.62 -0.11,-0.64 -0.03,-0.65 0.03,-0.65 0.11,-0.64 0.19,-0.62 0.26,-0.59 0.33,-0.55 0.40,-0.51 0.46,-0.46 0.51,-0.40 0.55,-0.33 0.59,-0.26 0.62,-0.19 0.64,-0.11 0.65,-0.03 0.65,0.03 0.64,0.11 0.62,0.19 0.59,0.26 0.56,0.33 0.51,0.40 0.46,0.46 0.46,0.46 L 0.46,0.46 Z"></path></g><g transform="translate(120.4573974609375 158.7979736328125) rotate(0 0.912841796875 -11.410888671875)" stroke="none"><path fill="#FFFFFF" d="M -0.36,-0.54 Q -0.36,-0.54 1.06,-1.81 2.49,-3.07 3.38,-3.78 4.26,-4.49 5.59,-6.05 6.92,-7.60 8.20,-10.23 9.48,-12.86 9.53,-14.99 9.57,-17.13 8.49,-18.32 7.42,-19.52 5.66,-19.76 3.90,-20.00 1.22,-18.89 -1.45,-17.78 -3.29,-16.08 -5.13,-14.38 -6.38,-12.21 -7.63,-10.04 -7.90,-8.62 -8.17,-7.20 -4.88,-7.01 -1.58,-6.81 -1.48,-6.81 -1.37,-6.81 -1.27,-6.77 -1.17,-6.74 -1.09,-6.67 -1.00,-6.61 -0.94,-6.52 -0.89,-6.43 -0.86,-6.33 -0.83,-6.22 -0.84,-6.12 -0.85,-6.01 -0.89,-5.91 -0.93,-5.82 -1.00,-5.74 -1.07,-5.66 -1.16,-5.60 -1.25,-5.55 -1.36,-5.53 -1.46,-5.51 -1.57,-5.52 -1.67,-5.53 -1.77,-5.58 -1.86,-5.62 -1.94,-5.70 -2.02,-5.77 -2.06,-5.87 -2.11,-5.96 -2.13,-6.07 -2.14,-6.17 -2.12,-6.28 -2.11,-6.38 -2.05,-6.47 -2.00,-6.57 -1.93,-6.64 -1.85,-6.71 -1.75,-6.75 -1.65,-6.80 -1.55,-6.81 -1.44,-6.82 -1.34,-6.79 -1.23,-6.77 -1.14,-6.71 -1.05,-6.66 -0.99,-6.57 -0.92,-6.49 -0.88,-6.39 -0.84,-6.29 -0.84,-6.19 -0.83,-6.08 -0.86,-5.98 -0.89,-5.88 -0.96,-5.79 -1.02,-5.70 -1.10,-5.64 -1.19,-5.58 -1.29,-5.55 -1.39,-5.51 -1.39,-5.51 -1.39,-5.51 -5.00,-4.77 -8.61,-4.02 -9.76,-5.60 -10.92,-7.18 -10.52,-9.32 -10.13,-11.47 -8.57,-13.97 -7.02,-16.48 -4.73,-18.37 -2.45,-20.27 0.86,-21.43 4.19,-22.59 6.66,-22.01 9.14,-21.43 10.63,-19.45 12.12,-17.48 12.02,-14.62 11.92,-11.76 10.40,-8.81 8.88,-5.87 7.32,-4.20 5.76,-2.53 4.78,-1.83 3.79,-1.12 2.08,-0.28 0.36,0.54 0.29,0.58 0.22,0.61 0.14,0.63 0.06,0.65 -0.01,0.65 -0.08,0.65 -0.16,0.63 -0.24,0.61 -0.31,0.57 -0.38,0.53 -0.44,0.48 -0.49,0.42 -0.54,0.36 -0.58,0.29 -0.61,0.22 -0.64,0.14 -0.64,0.06 -0.65,-0.01 -0.64,-0.08 -0.63,-0.16 -0.60,-0.24 -0.57,-0.31 -0.53,-0.37 -0.48,-0.44 -0.42,-0.49 -0.36,-0.54 -0.36,-0.54 L -0.36,-0.54 Z"></path></g><g transform="translate(167.9266357421875 145.1048583984375) rotate(0 -7.759368896484375 12.32379150390625)" stroke="none"><path fill="#FFFFFF" d="M -0.46,-0.46 Q -0.46,-0.46 0.11,-1.54 0.69,-2.62 0.96,-2.68 1.22,-2.73 1.36,-2.84 1.49,-2.95 1.65,-3.02 1.81,-3.09 1.98,-3.12 2.15,-3.15 2.33,-3.14 2.50,-3.13 2.66,-3.08 2.83,-3.03 2.98,-2.94 3.13,-2.85 3.25,-2.72 3.37,-2.60 3.46,-2.45 3.55,-2.30 3.60,-2.14 3.66,-1.97 3.67,-1.80 3.68,-1.63 3.64,-1.46 3.61,-1.29 3.54,-1.13 3.47,-0.97 3.36,-0.83 3.26,-0.70 2.72,0.20 2.19,1.10 -0.21,4.22 -2.63,7.33 -4.94,10.46 -7.25,13.58 -9.28,16.69 -11.31,19.81 -13.99,23.03 -16.67,26.25 -16.75,26.32 -16.82,26.40 -16.91,26.45 -17.01,26.50 -17.11,26.52 -17.22,26.53 -17.32,26.51 -17.43,26.50 -17.52,26.45 -17.62,26.39 -17.69,26.32 -17.76,26.24 -17.80,26.14 -17.85,26.05 -17.86,25.94 -17.87,25.83 -17.85,25.73 -17.82,25.63 -17.77,25.54 -17.71,25.45 -17.63,25.38 -17.55,25.31 -17.45,25.27 -17.35,25.23 -17.24,25.23 -17.14,25.22 -17.04,25.25 -16.93,25.28 -16.85,25.34 -16.76,25.40 -16.70,25.49 -16.63,25.57 -16.60,25.67 -16.57,25.77 -16.57,25.88 -16.57,25.99 -16.60,26.09 -16.64,26.19 -16.70,26.27 -16.77,26.36 -16.85,26.41 -16.94,26.47 -17.05,26.50 -17.15,26.53 -17.25,26.52 -17.36,26.52 -17.46,26.48 -17.56,26.44 -17.64,26.37 -17.72,26.30 -17.77,26.20 -17.83,26.11 -17.85,26.01 -17.87,25.91 -17.86,25.80 -17.85,25.69 -17.80,25.60 -17.75,25.50 -17.75,25.50 -17.75,25.50 -15.73,21.89 -13.70,18.28 -11.66,15.05 -9.62,11.83 -7.28,8.68 -4.95,5.53 -2.62,2.53 -0.28,-0.46 0.47,-1.60 1.22,-2.73 1.36,-2.84 1.49,-2.95 1.65,-3.02 1.81,-3.09 1.98,-3.12 2.15,-3.15 2.33,-3.14 2.50,-3.13 2.66,-3.08 2.83,-3.03 2.98,-2.94 3.13,-2.85 3.25,-2.72 3.37,-2.60 3.46,-2.45 3.55,-2.30 3.60,-2.14 3.66,-1.97 3.67,-1.80 3.68,-1.63 3.64,-1.46 3.61,-1.29 3.54,-1.13 3.47,-0.97 3.36,-0.83 3.26,-0.70 2.85,-0.61 2.45,-0.52 1.45,-0.02 0.46,0.46 0.40,0.51 0.33,0.56 0.26,0.59 0.19,0.62 0.11,0.64 0.03,0.65 -0.03,0.65 -0.11,0.64 -0.19,0.62 -0.26,0.59 -0.33,0.55 -0.40,0.51 -0.46,0.46 -0.51,0.40 -0.55,0.33 -0.59,0.26 -0.62,0.19 -0.64,0.11 -0.65,0.03 -0.65,-0.03 -0.64,-0.11 -0.62,-0.19 -0.59,-0.26 -0.56,-0.33 -0.51,-0.40 -0.46,-0.46 -0.46,-0.46 L -0.46,-0.46 Z"></path></g><g transform="translate(164.27520751953125 160.62371826171875) rotate(0 -7.759429931640625 -1.82574462890625)" stroke="none"><path fill="#FFFFFF" d="M -0.36,0.54 Q -0.36,0.54 -1.30,0.32 -2.24,0.10 -4.66,-0.01 -7.08,-0.13 -9.32,-0.53 -11.56,-0.93 -13.63,-1.84 -15.69,-2.75 -15.79,-2.80 -15.88,-2.84 -15.96,-2.92 -16.04,-2.99 -16.08,-3.09 -16.13,-3.18 -16.15,-3.29 -16.17,-3.39 -16.15,-3.49 -16.13,-3.60 -16.08,-3.69 -16.03,-3.79 -15.95,-3.86 -15.88,-3.93 -15.78,-3.98 -15.68,-4.02 -15.58,-4.03 -15.47,-4.04 -15.37,-4.02 -15.26,-3.99 -15.17,-3.94 -15.08,-3.88 -15.01,-3.80 -14.95,-3.72 -14.91,-3.62 -14.87,-3.52 -14.86,-3.42 -14.86,-3.31 -14.89,-3.21 -14.92,-3.11 -14.98,-3.02 -15.04,-2.93 -15.12,-2.87 -15.21,-2.80 -15.31,-2.77 -15.41,-2.74 -15.51,-2.74 -15.62,-2.74 -15.72,-2.77 -15.82,-2.81 -15.91,-2.87 -15.99,-2.94 -16.05,-3.03 -16.11,-3.11 -16.14,-3.22 -16.16,-3.32 -16.16,-3.43 -16.15,-3.53 -16.11,-3.63 -16.07,-3.73 -16.00,-3.81 -15.93,-3.89 -15.84,-3.94 -15.75,-4.00 -15.65,-4.02 -15.54,-4.04 -15.44,-4.03 -15.33,-4.02 -15.33,-4.02 -15.33,-4.02 -13.24,-3.75 -11.15,-3.48 -9.00,-3.17 -6.85,-2.85 -3.87,-2.53 -0.90,-2.20 -0.26,-1.37 0.36,-0.54 0.42,-0.49 0.48,-0.44 0.53,-0.37 0.57,-0.31 0.60,-0.24 0.63,-0.16 0.64,-0.08 0.65,-0.01 0.64,0.06 0.64,0.14 0.61,0.22 0.58,0.29 0.54,0.36 0.49,0.42 0.44,0.48 0.38,0.53 0.31,0.57 0.24,0.61 0.16,0.63 0.08,0.65 0.01,0.65 -0.06,0.65 -0.14,0.63 -0.22,0.61 -0.29,0.58 -0.36,0.54 -0.36,0.54 L -0.36,0.54 Z"></path></g><g transform="translate(164.27520751953125 131.41180419921875) rotate(0 15.518798828125 5.47723388671875)" stroke="none"><path fill="#FFFFFF" d="M -0.46,-0.46 Q -0.46,-0.46 0.33,-1.78 1.14,-3.11 3.61,-4.25 6.09,-5.40 8.73,-6.12 11.36,-6.85 13.88,-7.17 16.40,-7.49 18.31,-6.99 20.23,-6.50 21.26,-5.03 22.28,-3.56 21.57,-0.90 20.85,1.75 19.67,3.87 18.49,6.00 17.49,7.11 16.49,8.22 16.39,8.37 16.28,8.51 16.14,8.63 16.00,8.75 15.83,8.83 15.67,8.91 15.49,8.95 15.31,8.99 15.13,8.99 14.94,8.98 14.77,8.93 14.59,8.89 14.43,8.80 14.27,8.71 14.14,8.58 14.00,8.46 13.90,8.30 13.80,8.15 13.74,7.98 13.68,7.80 13.66,7.62 13.64,7.44 13.67,7.26 13.70,7.08 13.77,6.91 13.84,6.74 15.14,6.08 16.43,5.42 18.61,4.51 20.79,3.61 22.83,2.93 24.88,2.26 26.74,1.98 28.60,1.70 29.87,2.48 31.13,3.27 31.35,5.62 31.58,7.98 31.02,9.85 30.47,11.71 29.57,13.07 28.68,14.42 26.38,15.81 24.07,17.20 23.98,17.25 23.89,17.30 23.78,17.32 23.68,17.34 23.57,17.32 23.47,17.31 23.37,17.26 23.28,17.21 23.21,17.13 23.13,17.05 23.09,16.96 23.04,16.86 23.03,16.76 23.02,16.65 23.04,16.55 23.06,16.44 23.12,16.35 23.17,16.26 23.25,16.19 23.33,16.12 23.43,16.08 23.53,16.04 23.64,16.04 23.74,16.03 23.85,16.06 23.95,16.09 24.04,16.15 24.12,16.21 24.19,16.29 24.25,16.37 24.29,16.47 24.32,16.58 24.32,16.68 24.32,16.79 24.29,16.89 24.26,16.99 24.19,17.07 24.13,17.16 24.04,17.22 23.95,17.28 23.85,17.31 23.75,17.34 23.64,17.33 23.54,17.33 23.44,17.29 23.34,17.25 23.26,17.18 23.18,17.11 23.12,17.02 23.07,16.93 23.04,16.82 23.02,16.72 23.03,16.62 23.04,16.51 23.09,16.41 23.13,16.32 23.20,16.24 23.28,16.16 23.28,16.16 23.28,16.16 24.86,14.58 26.45,12.99 27.04,11.90 27.63,10.81 28.10,9.39 28.57,7.98 28.60,6.29 28.63,4.59 27.23,4.87 25.82,5.14 23.89,5.77 21.95,6.41 19.22,7.31 16.49,8.22 16.39,8.36 16.28,8.51 16.14,8.63 16.00,8.75 15.83,8.83 15.67,8.91 15.49,8.95 15.31,8.99 15.13,8.99 14.94,8.98 14.77,8.93 14.59,8.89 14.43,8.80 14.27,8.71 14.14,8.58 14.00,8.46 13.90,8.30 13.80,8.15 13.74,7.98 13.68,7.80 13.66,7.62 13.64,7.44 13.67,7.26 13.70,7.08 13.77,6.91 13.84,6.74 14.83,5.62 15.83,4.50 16.88,2.62 17.94,0.74 18.48,-1.53 19.02,-3.81 17.85,-4.13 16.68,-4.44 14.41,-4.18 12.14,-3.92 9.69,-3.30 7.24,-2.68 5.14,-1.88 3.05,-1.08 1.76,-0.31 0.46,0.46 0.40,0.51 0.33,0.56 0.26,0.59 0.19,0.62 0.11,0.64 0.03,0.65 -0.03,0.65 -0.11,0.64 -0.19,0.62 -0.26,0.59 -0.33,0.55 -0.40,0.51 -0.46,0.46 -0.51,0.40 -0.55,0.33 -0.59,0.26 -0.62,0.19 -0.64,0.11 -0.65,0.03 -0.65,-0.03 -0.64,-0.11 -0.62,-0.19 -0.59,-0.26 -0.56,-0.33 -0.51,-0.40 -0.46,-0.46 -0.46,-0.46 L -0.46,-0.46 Z"></path></g><g transform="translate(56.556396484375 122.28314208984375) rotate(0 -5.93365478515625 20.539581298828125)" stroke="none"><path fill="#FFFFFF" d="M 0.15,0.63 Q 0.15,0.63 -0.77,1.18 -1.71,1.73 -2.39,2.50 -3.06,3.27 -4.58,7.88 -6.09,12.50 -7.07,15.83 -8.05,19.17 -8.72,23.14 -9.38,27.11 -9.41,30.54 -9.44,33.98 -9.12,35.82 -8.79,37.66 -7.69,38.84 -6.59,40.03 -6.52,40.11 -6.45,40.20 -6.41,40.29 -6.37,40.39 -6.37,40.50 -6.36,40.61 -6.39,40.71 -6.42,40.81 -6.48,40.90 -6.54,40.98 -6.63,41.05 -6.71,41.11 -6.81,41.15 -6.92,41.18 -7.02,41.18 -7.13,41.18 -7.23,41.14 -7.33,41.11 -7.41,41.04 -7.50,40.98 -7.56,40.89 -7.61,40.80 -7.64,40.70 -7.67,40.60 -7.66,40.49 -7.66,40.38 -7.62,40.29 -7.58,40.19 -7.51,40.11 -7.44,40.03 -7.35,39.97 -7.26,39.92 -7.15,39.90 -7.05,39.87 -6.94,39.89 -6.84,39.90 -6.74,39.94 -6.64,39.99 -6.57,40.06 -6.49,40.14 -6.44,40.23 -6.39,40.32 -6.38,40.43 -6.36,40.53 -6.38,40.64 -6.40,40.74 -6.45,40.84 -6.50,40.93 -6.57,41.00 -6.65,41.08 -6.75,41.12 -6.85,41.16 -6.95,41.17 -7.06,41.19 -7.16,41.16 -7.26,41.14 -7.35,41.08 -7.45,41.03 -7.45,41.03 -7.45,41.03 -9.21,39.75 -10.97,38.46 -11.67,36.22 -12.37,33.98 -12.34,30.30 -12.32,26.62 -11.61,22.47 -10.90,18.33 -9.89,14.92 -8.88,11.51 -6.95,6.44 -5.01,1.37 -3.75,0.34 -2.48,-0.69 -1.32,-0.66 -0.15,-0.63 -0.08,-0.64 -0.00,-0.65 0.07,-0.64 0.15,-0.63 0.22,-0.61 0.30,-0.58 0.36,-0.53 0.43,-0.49 0.48,-0.43 0.53,-0.37 0.57,-0.30 0.61,-0.23 0.63,-0.15 0.65,-0.08 0.65,-0.00 0.65,0.07 0.63,0.15 0.61,0.23 0.57,0.30 0.54,0.37 0.48,0.43 0.43,0.49 0.37,0.53 0.30,0.58 0.23,0.60 0.15,0.63 0.15,0.63 L 0.15,0.63 Z"></path></g><g transform="translate(39.21185302734375 148.75634765625) rotate(0 -14.605926513671875 1.825775146484375)" stroke="none"><path fill="#FFFFFF" d="M 0.09,0.65 Q 0.09,0.65 -1.67,1.37 -3.44,2.10 -5.98,2.73 -8.52,3.37 -11.52,3.91 -14.52,4.46 -17.35,4.95 -20.19,5.44 -23.48,4.41 -26.76,3.37 -26.82,3.29 -26.88,3.20 -26.91,3.10 -26.94,3.00 -26.94,2.89 -26.94,2.78 -26.90,2.68 -26.86,2.59 -26.79,2.50 -26.73,2.42 -26.64,2.36 -26.55,2.31 -26.44,2.28 -26.34,2.26 -26.23,2.27 -26.13,2.28 -26.03,2.32 -25.93,2.36 -25.86,2.43 -25.78,2.51 -25.72,2.60 -25.67,2.69 -25.65,2.80 -25.64,2.90 -25.65,3.01 -25.67,3.11 -25.71,3.21 -25.76,3.30 -25.84,3.37 -25.91,3.45 -26.01,3.50 -26.10,3.54 -26.21,3.56 -26.31,3.57 -26.42,3.55 -26.52,3.53 -26.62,3.47 -26.71,3.42 -26.78,3.34 -26.85,3.26 -26.89,3.16 -26.93,3.07 -26.94,2.96 -26.95,2.85 -26.92,2.75 -26.89,2.65 -26.83,2.56 -26.78,2.47 -26.69,2.40 -26.61,2.34 -26.51,2.30 -26.41,2.27 -26.30,2.27 -26.20,2.26 -26.10,2.30 -26.00,2.33 -25.91,2.39 -25.82,2.45 -25.82,2.45 -25.82,2.45 -23.28,2.34 -20.73,2.24 -17.91,1.75 -15.09,1.26 -12.19,0.74 -9.29,0.22 -6.59,-0.41 -3.90,-1.05 -1.99,-0.85 -0.09,-0.65 -0.01,-0.65 0.06,-0.65 0.14,-0.63 0.21,-0.61 0.29,-0.58 0.36,-0.54 0.42,-0.49 0.48,-0.44 0.52,-0.38 0.57,-0.31 0.60,-0.24 0.63,-0.17 0.64,-0.09 0.65,-0.01 0.64,0.06 0.64,0.14 0.61,0.21 0.58,0.29 0.54,0.35 0.50,0.42 0.44,0.47 0.38,0.53 0.31,0.57 0.24,0.60 0.16,0.62 0.09,0.65 0.09,0.65 L 0.09,0.65 Z"></path></g><g transform="translate(207.18011474609375 115.89300537109375) rotate(0 9.128692626953125 25.560394287109375)" stroke="none"><path fill="#FFFFFF" d="M 0.41,-0.51 Q 0.41,-0.51 1.97,0.21 3.53,0.94 5.82,2.09 8.10,3.24 11.13,5.99 14.16,8.73 15.79,11.90 17.43,15.08 17.86,18.94 18.30,22.81 17.64,27.15 16.99,31.50 15.58,35.47 14.18,39.45 12.08,42.93 9.99,46.42 9.07,47.83 8.14,49.24 8.08,49.32 8.01,49.41 7.92,49.47 7.83,49.53 7.73,49.55 7.63,49.58 7.52,49.58 7.42,49.57 7.32,49.53 7.22,49.49 7.14,49.42 7.06,49.35 7.00,49.26 6.95,49.17 6.93,49.06 6.91,48.96 6.92,48.85 6.93,48.75 6.98,48.65 7.02,48.56 7.09,48.48 7.17,48.40 7.26,48.35 7.36,48.31 7.46,48.29 7.57,48.27 7.67,48.29 7.78,48.31 7.87,48.36 7.96,48.41 8.03,48.49 8.11,48.56 8.15,48.66 8.20,48.76 8.21,48.86 8.22,48.97 8.19,49.07 8.17,49.18 8.11,49.27 8.06,49.36 7.98,49.43 7.90,49.49 7.80,49.53 7.70,49.57 7.59,49.58 7.49,49.58 7.38,49.55 7.28,49.52 7.19,49.46 7.11,49.40 7.04,49.32 6.98,49.23 6.95,49.13 6.91,49.03 6.91,48.92 6.91,48.82 6.95,48.72 6.98,48.62 6.98,48.62 6.98,48.62 7.65,47.07 8.31,45.52 9.97,42.04 11.62,38.57 12.85,34.81 14.08,31.05 14.69,27.07 15.30,23.09 15.01,19.72 14.72,16.35 13.40,13.62 12.08,10.89 9.40,8.38 6.71,5.88 4.21,4.56 1.71,3.24 0.65,1.88 -0.41,0.51 -0.46,0.45 -0.52,0.39 -0.56,0.33 -0.60,0.26 -0.62,0.18 -0.64,0.11 -0.65,0.03 -0.65,-0.04 -0.63,-0.12 -0.62,-0.20 -0.59,-0.27 -0.55,-0.34 -0.50,-0.40 -0.45,-0.46 -0.39,-0.51 -0.33,-0.56 -0.26,-0.59 -0.18,-0.62 -0.11,-0.64 -0.03,-0.65 0.04,-0.65 0.12,-0.64 0.20,-0.62 0.27,-0.59 0.34,-0.55 0.41,-0.51 0.41,-0.51 L 0.41,-0.51 Z"></path></g><g transform="translate(19.12872314453125 211.74444580078125) rotate(0 246.93154907226562 -24.64752197265625)" stroke="none"><path fill="#FFFFFF" d="M 0,-0.65 Q 0,-0.65 1.83,-0.95 3.67,-1.26 5.68,-1.55 7.69,-1.85 20.13,-3.34 32.56,-4.83 51.94,-9.14 71.31,-13.46 97.12,-20.54 122.93,-27.62 154.43,-34.32 185.93,-41.02 220.15,-43.61 254.36,-46.20 293.63,-43.82 332.90,-41.44 361.39,-38.35 389.88,-35.25 411.40,-33.40 432.93,-31.55 448.60,-30.97 464.28,-30.40 472.73,-30.97 481.19,-31.54 484.82,-31.81 488.44,-32.08 488.55,-32.07 488.66,-32.06 488.75,-32.02 488.85,-31.98 488.93,-31.91 489.01,-31.84 489.07,-31.75 489.12,-31.66 489.14,-31.56 489.16,-31.45 489.15,-31.35 489.14,-31.24 489.09,-31.15 489.05,-31.05 488.97,-30.97 488.90,-30.90 488.80,-30.85 488.71,-30.80 488.61,-30.78 488.50,-30.77 488.40,-30.79 488.29,-30.80 488.20,-30.86 488.10,-30.91 488.03,-30.98 487.96,-31.06 487.92,-31.16 487.87,-31.26 487.86,-31.36 487.85,-31.47 487.88,-31.57 487.90,-31.67 487.96,-31.76 488.01,-31.85 488.09,-31.92 488.18,-31.99 488.27,-32.03 488.37,-32.07 488.48,-32.07 488.59,-32.08 488.69,-32.05 488.79,-32.02 488.88,-31.96 488.96,-31.90 489.03,-31.81 489.09,-31.73 489.12,-31.62 489.16,-31.52 489.16,-31.42 489.15,-31.31 489.12,-31.21 489.08,-31.11 489.02,-31.03 488.95,-30.94 488.86,-30.88 488.78,-30.83 488.67,-30.80 488.57,-30.77 488.57,-30.77 488.57,-30.77 484.96,-30.34 481.35,-29.90 472.77,-28.81 464.19,-27.72 448.44,-28.18 432.68,-28.64 411.12,-30.46 389.56,-32.28 361.14,-35.35 332.72,-38.43 293.66,-40.69 254.60,-42.94 220.61,-40.38 186.61,-37.82 155.20,-31.16 123.78,-24.50 97.88,-17.45 71.98,-10.40 52.44,-6.15 32.90,-1.90 20.46,-0.55 8.02,0.80 5.85,1.03 3.67,1.26 1.83,0.95 0,0.65 -0.07,0.64 -0.15,0.63 -0.23,0.60 -0.30,0.58 -0.37,0.53 -0.43,0.49 -0.48,0.43 -0.54,0.37 -0.57,0.30 -0.61,0.23 -0.63,0.15 -0.65,0.07 -0.65,-0.00 -0.65,-0.07 -0.63,-0.15 -0.61,-0.23 -0.57,-0.30 -0.54,-0.37 -0.48,-0.43 -0.43,-0.49 -0.37,-0.53 -0.30,-0.58 -0.23,-0.60 -0.15,-0.63 -0.07,-0.64 0.00,-0.65 0.00,-0.65 L 0,-0.65 Z"></path></g><g transform="translate(282.9483642578125 218.13458251953125) rotate(0 -11.8673095703125 21.45245361328125)" stroke="none"><path fill="#FFFFFF" d="M 0.39,0.52 Q 0.39,0.52 -0.40,1.65 -1.20,2.78 -2.54,3.44 -3.89,4.11 -6.34,6.35 -8.79,8.59 -11.35,12.59 -13.92,16.59 -16.31,22.43 -18.70,28.27 -19.71,32.00 -20.72,35.73 -20.90,37.10 -21.09,38.48 -19.29,38.47 -17.50,38.46 -14.61,37.27 -11.73,36.08 -9.07,33.15 -6.41,30.22 -6.04,28.33 -5.66,26.43 -6.59,25.27 -7.52,24.10 -9.56,23.35 -11.59,22.59 -13.65,22.76 -15.70,22.94 -18.19,23.10 -20.68,23.26 -20.79,23.26 -20.89,23.27 -20.99,23.23 -21.09,23.20 -21.18,23.14 -21.27,23.08 -21.33,22.99 -21.39,22.90 -21.42,22.80 -21.45,22.70 -21.44,22.59 -21.44,22.49 -21.40,22.39 -21.36,22.29 -21.30,22.20 -21.23,22.12 -21.14,22.07 -21.05,22.01 -20.95,21.99 -20.84,21.96 -20.74,21.97 -20.63,21.98 -20.53,22.02 -20.44,22.07 -20.36,22.14 -20.28,22.21 -20.23,22.30 -20.18,22.40 -20.16,22.50 -20.14,22.60 -20.16,22.71 -20.17,22.81 -20.22,22.91 -20.27,23.00 -20.34,23.08 -20.42,23.15 -20.51,23.20 -20.61,23.25 -20.72,23.26 -20.82,23.27 -20.93,23.25 -21.03,23.23 -21.12,23.18 -21.21,23.12 -21.28,23.04 -21.35,22.96 -21.39,22.87 -21.44,22.77 -21.44,22.66 -21.45,22.56 -21.42,22.45 -21.40,22.35 -21.34,22.26 -21.28,22.17 -21.20,22.11 -21.11,22.04 -21.01,22.01 -20.91,21.97 -20.91,21.97 -20.91,21.97 -18.38,21.22 -15.85,20.47 -13.31,20.37 -10.78,20.28 -8.19,21.36 -5.60,22.44 -4.30,24.36 -2.99,26.27 -3.54,29.16 -4.09,32.05 -7.30,35.44 -10.51,38.83 -14.04,40.15 -17.57,41.47 -19.74,41.21 -21.91,40.94 -22.78,37.99 -23.66,35.05 -22.58,31.08 -21.50,27.12 -18.98,21.03 -16.46,14.95 -13.65,10.65 -10.83,6.35 -8.03,3.88 -5.23,1.41 -4.11,0.89 -2.99,0.36 -1.69,-0.07 -0.39,-0.52 -0.32,-0.56 -0.25,-0.60 -0.18,-0.62 -0.10,-0.64 -0.02,-0.65 0.05,-0.65 0.13,-0.63 0.20,-0.62 0.28,-0.58 0.35,-0.55 0.41,-0.50 0.47,-0.45 0.52,-0.39 0.56,-0.32 0.59,-0.25 0.63,-0.18 0.64,-0.10 0.65,-0.02 0.64,0.05 0.64,0.13 0.61,0.20 0.59,0.28 0.55,0.34 0.50,0.41 0.45,0.47 0.39,0.52 0.39,0.52 L 0.39,0.52 Z"></path></g><g transform="translate(850.7540283203125 41.950469970703125) rotate(0 1.82574462890625 9.58514404296875)" stroke="none"><path fill="#FFFFFF" d="M -0.46,-0.46 Q -0.46,-0.46 0.02,-1.53 0.52,-2.60 0.75,-3.09 0.98,-3.57 1.32,-3.81 1.66,-4.05 1.77,-4.20 1.89,-4.36 2.03,-4.48 2.18,-4.60 2.35,-4.69 2.53,-4.77 2.71,-4.81 2.90,-4.85 3.09,-4.85 3.28,-4.84 3.47,-4.79 3.65,-4.74 3.82,-4.65 3.99,-4.55 4.13,-4.42 4.27,-4.29 4.37,-4.13 4.48,-3.97 4.54,-3.79 4.60,-3.61 4.62,-3.42 4.64,-3.23 4.61,-3.04 4.58,-2.85 4.51,-2.67 4.43,-2.49 4.78,-0.75 5.13,0.99 4.90,3.93 4.66,6.87 4.29,9.69 3.91,12.51 3.24,16.73 2.57,20.95 2.55,21.06 2.53,21.16 2.47,21.25 2.42,21.34 2.34,21.41 2.26,21.48 2.16,21.52 2.06,21.56 1.95,21.57 1.85,21.57 1.75,21.54 1.64,21.52 1.56,21.46 1.47,21.40 1.40,21.31 1.34,21.23 1.30,21.13 1.27,21.03 1.27,20.92 1.27,20.82 1.30,20.71 1.34,20.61 1.40,20.53 1.46,20.44 1.55,20.38 1.64,20.32 1.74,20.30 1.84,20.27 1.95,20.27 2.06,20.28 2.16,20.32 2.25,20.36 2.34,20.42 2.42,20.49 2.47,20.58 2.53,20.67 2.55,20.78 2.57,20.88 2.56,20.99 2.55,21.09 2.51,21.19 2.46,21.29 2.39,21.36 2.32,21.44 2.22,21.49 2.13,21.54 2.02,21.56 1.92,21.58 1.81,21.56 1.71,21.54 1.62,21.49 1.52,21.44 1.45,21.37 1.37,21.29 1.33,21.19 1.28,21.10 1.27,20.99 1.26,20.89 1.26,20.89 1.26,20.89 1.03,16.50 0.80,12.11 1.14,9.36 1.49,6.62 1.72,3.87 1.95,1.12 1.93,-0.37 1.91,-1.86 1.79,-2.96 1.66,-4.05 1.77,-4.20 1.89,-4.36 2.03,-4.48 2.18,-4.60 2.35,-4.69 2.53,-4.77 2.71,-4.81 2.90,-4.85 3.09,-4.85 3.28,-4.84 3.47,-4.79 3.65,-4.74 3.82,-4.65 3.99,-4.55 4.13,-4.42 4.27,-4.29 4.37,-4.13 4.48,-3.97 4.54,-3.79 4.60,-3.61 4.62,-3.42 4.64,-3.23 4.61,-3.04 4.58,-2.85 4.51,-2.67 4.43,-2.49 3.97,-2.23 3.50,-1.96 3.06,-1.25 2.62,-0.54 1.54,-0.03 0.46,0.46 0.40,0.51 0.33,0.56 0.26,0.59 0.19,0.62 0.11,0.64 0.03,0.65 -0.03,0.65 -0.11,0.64 -0.19,0.62 -0.26,0.59 -0.33,0.55 -0.40,0.51 -0.46,0.46 -0.51,0.40 -0.55,0.33 -0.59,0.26 -0.62,0.19 -0.64,0.11 -0.65,0.03 -0.65,-0.03 -0.64,-0.11 -0.62,-0.19 -0.59,-0.26 -0.56,-0.33 -0.51,-0.40 -0.46,-0.46 -0.46,-0.46 L -0.46,-0.46 Z"></path></g><g transform="translate(862.6214599609375 57.469268798828125) rotate(0 -8.21588134765625 -1.3693084716796875)" stroke="none"><path fill="#FFFFFF" d="M -0.36,0.54 Q -0.36,0.54 -1.28,0.26 -2.20,-0.01 -3.38,-0.09 -4.55,-0.16 -6.72,-0.49 -8.89,-0.82 -12.18,-1.44 -15.47,-2.07 -15.57,-2.10 -15.68,-2.13 -15.76,-2.19 -15.85,-2.25 -15.91,-2.34 -15.97,-2.42 -16.00,-2.52 -16.04,-2.63 -16.03,-2.73 -16.03,-2.84 -15.99,-2.94 -15.96,-3.04 -15.89,-3.12 -15.82,-3.20 -15.74,-3.26 -15.65,-3.32 -15.54,-3.34 -15.44,-3.37 -15.33,-3.36 -15.23,-3.35 -15.13,-3.31 -15.03,-3.27 -14.95,-3.20 -14.87,-3.13 -14.82,-3.04 -14.77,-2.94 -14.75,-2.84 -14.73,-2.74 -14.74,-2.63 -14.76,-2.52 -14.80,-2.43 -14.85,-2.33 -14.93,-2.26 -15.00,-2.18 -15.10,-2.14 -15.19,-2.09 -15.30,-2.07 -15.40,-2.06 -15.51,-2.08 -15.61,-2.10 -15.70,-2.15 -15.80,-2.20 -15.87,-2.28 -15.94,-2.36 -15.98,-2.46 -16.02,-2.56 -16.03,-2.66 -16.04,-2.77 -16.01,-2.87 -15.99,-2.97 -15.93,-3.06 -15.87,-3.15 -15.79,-3.22 -15.71,-3.29 -15.61,-3.32 -15.51,-3.36 -15.40,-3.36 -15.30,-3.37 -15.30,-3.37 -15.30,-3.37 -11.87,-3.48 -8.44,-3.59 -6.28,-3.20 -4.12,-2.82 -2.53,-2.45 -0.94,-2.07 -0.28,-1.31 0.36,-0.54 0.42,-0.49 0.48,-0.44 0.53,-0.37 0.57,-0.31 0.60,-0.24 0.63,-0.16 0.64,-0.08 0.65,-0.01 0.64,0.06 0.64,0.14 0.61,0.22 0.58,0.29 0.54,0.36 0.49,0.42 0.44,0.48 0.38,0.53 0.31,0.57 0.24,0.61 0.16,0.63 0.08,0.65 0.01,0.65 -0.06,0.65 -0.14,0.63 -0.22,0.61 -0.29,0.58 -0.36,0.54 -0.36,0.54 L -0.36,0.54 Z"></path></g><g transform="translate(912.829345703125 16.39007568359375) rotate(0 -6.8465576171875 11.867340087890625)" stroke="none"><path fill="#FFFFFF" d="M -0.50,-0.42 Q -0.50,-0.42 0.49,-2.25 1.50,-4.08 2.26,-4.57 3.02,-5.06 3.50,-4.79 3.99,-4.52 2.75,-4.10 1.52,-3.68 -1.74,-1.52 -5.01,0.62 -7.92,3.82 -10.83,7.02 -12.81,10.65 -14.79,14.27 -15.32,17.70 -15.86,21.13 -15.05,23.22 -14.25,25.31 -12.34,25.64 -10.42,25.97 -8.23,25.19 -6.04,24.41 -4.36,23.40 -2.68,22.39 -2.14,22.52 -1.60,22.64 -2.63,22.03 -3.66,21.42 -6.19,21.10 -8.72,20.77 -11.47,20.71 -14.22,20.65 -14.33,20.64 -14.43,20.63 -14.53,20.58 -14.63,20.54 -14.70,20.47 -14.78,20.40 -14.83,20.30 -14.88,20.21 -14.90,20.11 -14.92,20.00 -14.91,19.90 -14.89,19.79 -14.84,19.70 -14.79,19.60 -14.72,19.53 -14.64,19.45 -14.55,19.41 -14.45,19.36 -14.34,19.35 -14.24,19.34 -14.14,19.36 -14.03,19.38 -13.94,19.43 -13.85,19.48 -13.78,19.56 -13.71,19.64 -13.67,19.74 -13.63,19.84 -13.62,19.95 -13.61,20.05 -13.64,20.16 -13.67,20.26 -13.72,20.35 -13.78,20.44 -13.87,20.50 -13.95,20.57 -14.05,20.60 -14.15,20.64 -14.26,20.64 -14.36,20.64 -14.46,20.61 -14.56,20.58 -14.65,20.51 -14.74,20.45 -14.80,20.36 -14.86,20.28 -14.89,20.17 -14.92,20.07 -14.91,19.97 -14.91,19.86 -14.87,19.76 -14.83,19.66 -14.77,19.58 -14.70,19.50 -14.61,19.44 -14.52,19.39 -14.41,19.36 -14.31,19.34 -14.31,19.34 -14.31,19.34 -11.40,18.88 -8.48,18.42 -5.37,18.69 -2.25,18.95 -1.10,19.71 0.03,20.48 -0.49,22.61 -1.01,24.74 -3.07,25.99 -5.13,27.24 -8.03,28.06 -10.92,28.87 -13.57,28.02 -16.22,27.17 -17.51,24.02 -18.80,20.86 -18.09,16.88 -17.38,12.90 -15.19,8.98 -13.00,5.06 -9.80,1.63 -6.61,-1.80 -2.93,-4.15 0.75,-6.50 2.29,-6.79 3.83,-7.08 4.66,-6.02 5.50,-4.95 4.62,-3.58 3.74,-2.21 2.12,-0.89 0.50,0.42 0.44,0.47 0.38,0.52 0.32,0.56 0.25,0.60 0.17,0.62 0.09,0.64 0.01,0.65 -0.05,0.65 -0.13,0.63 -0.21,0.62 -0.28,0.58 -0.35,0.55 -0.41,0.50 -0.47,0.45 -0.52,0.38 -0.57,0.32 -0.60,0.24 -0.63,0.17 -0.64,0.09 -0.65,0.01 -0.64,-0.05 -0.64,-0.13 -0.61,-0.21 -0.59,-0.28 -0.54,-0.35 -0.50,-0.42 -0.50,-0.42 L -0.50,-0.42 Z"></path></g><g transform="translate(874.48876953125 63.859375) rotate(0 37.4276123046875 -4.1079254150390625)" stroke="none"><path fill="#FFFFFF" d="M -0.10,-0.64 Q -0.10,-0.64 1.37,-1.43 2.86,-2.23 7.17,-3.12 11.48,-4.02 20.98,-5.46 30.49,-6.90 40.86,-7.78 51.24,-8.66 57.78,-8.77 64.33,-8.87 67.79,-8.33 71.25,-7.79 71.80,-7.25 72.34,-6.71 72.51,-6.66 72.68,-6.61 72.84,-6.53 72.99,-6.44 73.12,-6.32 73.25,-6.20 73.35,-6.05 73.45,-5.90 73.51,-5.73 73.57,-5.57 73.58,-5.39 73.60,-5.21 73.58,-5.04 73.55,-4.86 73.48,-4.70 73.42,-4.53 73.31,-4.39 73.21,-4.24 73.07,-4.13 72.93,-4.02 72.78,-3.94 72.62,-3.86 72.44,-3.82 72.27,-3.78 72.09,-3.79 71.91,-3.79 70.19,-3.91 68.47,-4.03 68.37,-4.04 68.26,-4.04 68.16,-4.07 68.06,-4.11 67.98,-4.17 67.89,-4.24 67.83,-4.33 67.78,-4.42 67.75,-4.52 67.72,-4.62 67.73,-4.73 67.74,-4.83 67.78,-4.93 67.82,-5.03 67.89,-5.11 67.96,-5.19 68.05,-5.24 68.14,-5.30 68.24,-5.32 68.35,-5.34 68.45,-5.33 68.56,-5.31 68.65,-5.27 68.75,-5.22 68.83,-5.15 68.90,-5.07 68.95,-4.98 69.00,-4.89 69.02,-4.78 69.03,-4.68 69.01,-4.57 68.99,-4.47 68.94,-4.37 68.89,-4.28 68.81,-4.21 68.74,-4.14 68.64,-4.09 68.54,-4.05 68.44,-4.04 68.33,-4.03 68.23,-4.05 68.12,-4.08 68.03,-4.13 67.94,-4.19 67.88,-4.27 67.81,-4.35 67.77,-4.45 67.73,-4.55 67.73,-4.66 67.72,-4.76 67.75,-4.87 67.78,-4.97 67.84,-5.05 67.90,-5.14 67.99,-5.20 68.07,-5.27 68.18,-5.30 68.28,-5.33 68.28,-5.33 68.28,-5.33 70.31,-6.02 72.34,-6.71 72.51,-6.66 72.68,-6.61 72.84,-6.53 72.99,-6.44 73.12,-6.32 73.25,-6.20 73.35,-6.05 73.45,-5.90 73.51,-5.73 73.57,-5.57 73.58,-5.39 73.60,-5.21 73.58,-5.04 73.55,-4.86 73.48,-4.70 73.42,-4.53 73.31,-4.39 73.21,-4.24 73.07,-4.13 72.93,-4.02 72.78,-3.94 72.62,-3.86 72.44,-3.82 72.27,-3.78 72.09,-3.79 71.91,-3.79 71.24,-4.18 70.57,-4.57 67.48,-4.99 64.38,-5.40 57.95,-5.30 51.53,-5.19 41.27,-4.32 31.01,-3.46 21.59,-2.04 12.18,-0.62 7.81,0.28 3.43,1.18 1.77,0.91 0.10,0.64 0.02,0.65 -0.05,0.65 -0.12,0.63 -0.20,0.62 -0.27,0.59 -0.34,0.55 -0.41,0.50 -0.47,0.45 -0.51,0.39 -0.56,0.33 -0.59,0.25 -0.62,0.18 -0.64,0.10 -0.65,0.02 -0.64,-0.04 -0.64,-0.12 -0.61,-0.20 -0.59,-0.27 -0.55,-0.34 -0.51,-0.41 -0.45,-0.46 -0.39,-0.52 -0.32,-0.56 -0.25,-0.60 -0.18,-0.62 -0.10,-0.64 -0.10,-0.64 L -0.10,-0.64 Z"></path></g><g transform="translate(906.439208984375 82.1168212890625) rotate(0 -3.6514892578125 17.34454345703125)" stroke="none"><path fill="#FFFFFF" d="M 0.46,-0.46 Q 0.46,-0.46 0.99,-0.46 1.52,-0.47 1.62,-0.33 1.73,-0.20 1.80,-0.05 1.87,0.10 1.90,0.27 1.93,0.43 1.92,0.60 1.91,0.77 1.86,0.94 1.81,1.10 1.72,1.25 1.63,1.39 1.51,1.51 1.39,1.63 1.25,1.72 1.10,1.81 0.94,1.86 0.77,1.91 0.60,1.92 0.43,1.93 0.27,1.90 0.10,1.87 -0.05,1.80 -0.20,1.73 -0.33,1.62 -0.47,1.52 0.06,1.93 0.60,2.34 -0.84,2.89 -2.29,3.45 -3.73,3.66 -5.17,3.87 -6.73,4.20 -8.28,4.53 -9.52,4.68 -10.77,4.82 -10.57,5.90 -10.37,6.98 -10.12,8.25 -9.86,9.51 -9.74,10.41 -9.62,11.31 -9.57,12.28 -9.52,13.26 -9.82,13.94 -10.13,14.62 -10.60,14.23 -11.07,13.84 -9.72,13.28 -8.37,12.72 -6.85,12.31 -5.33,11.90 -3.35,11.46 -1.36,11.02 0.19,11.09 1.75,11.15 2.79,11.49 3.83,11.83 4.76,12.59 5.69,13.35 5.86,14.94 6.04,16.53 5.18,18.40 4.32,20.26 2.88,22.33 1.44,24.40 -0.24,26.35 -1.92,28.30 -3.74,29.95 -5.56,31.59 -6.86,32.73 -8.16,33.88 -10.30,34.17 -12.45,34.45 -12.55,34.43 -12.65,34.40 -12.74,34.35 -12.83,34.29 -12.90,34.21 -12.97,34.13 -13.00,34.03 -13.04,33.93 -13.04,33.82 -13.05,33.71 -13.02,33.61 -12.99,33.51 -12.92,33.42 -12.86,33.34 -12.78,33.28 -12.69,33.21 -12.59,33.18 -12.49,33.15 -12.38,33.15 -12.28,33.15 -12.18,33.19 -12.08,33.23 -11.99,33.29 -11.91,33.36 -11.85,33.45 -11.79,33.54 -11.77,33.64 -11.74,33.74 -11.75,33.85 -11.76,33.95 -11.80,34.05 -11.84,34.15 -11.91,34.23 -11.98,34.31 -12.07,34.36 -12.17,34.41 -12.27,34.44 -12.37,34.46 -12.48,34.44 -12.59,34.43 -12.68,34.38 -12.78,34.34 -12.85,34.26 -12.93,34.19 -12.98,34.09 -13.02,34.00 -13.04,33.89 -13.05,33.79 -13.03,33.68 -13.01,33.58 -12.96,33.48 -12.91,33.39 -12.83,33.32 -12.75,33.25 -12.66,33.21 -12.56,33.16 -12.45,33.15 -12.35,33.15 -12.35,33.15 -12.35,33.14 -11.17,32.54 -9.99,31.94 -8.76,30.68 -7.53,29.43 -5.85,27.89 -4.18,26.35 -2.59,24.52 -1.00,22.69 0.32,20.80 1.65,18.92 2.36,17.65 3.08,16.39 2.95,15.53 2.81,14.67 2.18,14.42 1.54,14.17 0.40,14.07 -0.73,13.98 -2.64,14.41 -4.55,14.83 -6.01,15.22 -7.47,15.61 -8.55,15.95 -9.63,16.29 -10.47,16.34 -11.30,16.39 -12.09,15.45 -12.88,14.52 -12.70,13.92 -12.53,13.32 -12.57,12.52 -12.62,11.71 -12.73,10.90 -12.84,10.09 -13.12,8.58 -13.41,7.06 -13.43,6.28 -13.44,5.51 -13.32,4.52 -13.19,3.52 -12.20,2.79 -11.22,2.05 -10.04,1.90 -8.87,1.76 -7.21,1.41 -5.56,1.07 -4.38,0.92 -3.20,0.77 -2.20,0.48 -1.21,0.20 0.15,-0.13 1.52,-0.47 1.62,-0.33 1.73,-0.20 1.80,-0.05 1.87,0.10 1.90,0.27 1.93,0.43 1.92,0.60 1.91,0.77 1.86,0.94 1.81,1.10 1.72,1.25 1.63,1.39 1.51,1.51 1.39,1.63 1.25,1.72 1.10,1.81 0.94,1.86 0.77,1.91 0.60,1.92 0.43,1.93 0.27,1.90 0.10,1.87 -0.05,1.80 -0.20,1.73 -0.33,1.62 -0.47,1.52 -0.46,0.99 -0.46,0.46 -0.51,0.40 -0.56,0.33 -0.59,0.26 -0.62,0.19 -0.64,0.11 -0.65,0.03 -0.65,-0.03 -0.64,-0.11 -0.62,-0.19 -0.59,-0.26 -0.55,-0.33 -0.51,-0.40 -0.46,-0.46 -0.40,-0.51 -0.33,-0.55 -0.26,-0.59 -0.19,-0.62 -0.11,-0.64 -0.03,-0.65 0.03,-0.65 0.11,-0.64 0.19,-0.62 0.26,-0.59 0.33,-0.56 0.40,-0.51 0.46,-0.46 0.46,-0.46 L 0.46,-0.46 Z"></path></g><g transform="translate(946.60546875 85.76824951171875) rotate(0 -10.954345703125 15.518829345703125)" stroke="none"><path fill="#FFFFFF" d="M 0.50,0.42 Q 0.50,0.42 -0.55,2.20 -1.61,3.99 -4.52,7.55 -7.43,11.10 -9.96,14.43 -12.50,17.76 -14.62,20.74 -16.75,23.72 -18.22,25.75 -19.69,27.77 -20.77,29.20 -21.86,30.63 -21.92,30.71 -21.98,30.80 -22.07,30.85 -22.16,30.91 -22.26,30.94 -22.37,30.97 -22.47,30.96 -22.58,30.96 -22.68,30.92 -22.77,30.88 -22.86,30.81 -22.94,30.74 -22.99,30.65 -23.05,30.56 -23.07,30.45 -23.09,30.35 -23.08,30.24 -23.07,30.14 -23.02,30.04 -22.98,29.95 -22.90,29.87 -22.83,29.79 -22.74,29.74 -22.64,29.69 -22.54,29.68 -22.43,29.66 -22.33,29.68 -22.22,29.70 -22.13,29.75 -22.03,29.80 -21.96,29.87 -21.89,29.95 -21.85,30.05 -21.80,30.14 -21.79,30.25 -21.78,30.36 -21.80,30.46 -21.83,30.56 -21.88,30.65 -21.94,30.74 -22.02,30.81 -22.10,30.88 -22.20,30.92 -22.30,30.96 -22.40,30.96 -22.51,30.97 -22.61,30.94 -22.71,30.91 -22.80,30.85 -22.89,30.79 -22.95,30.71 -23.02,30.62 -23.05,30.52 -23.08,30.42 -23.08,30.31 -23.08,30.21 -23.05,30.11 -23.01,30.01 -23.01,30.01 -23.01,30.01 -22.36,28.19 -21.71,26.37 -20.32,24.27 -18.92,22.17 -16.78,19.16 -14.63,16.14 -12.06,12.78 -9.49,9.41 -6.56,5.86 -3.63,2.30 -2.07,0.94 -0.50,-0.42 -0.44,-0.47 -0.38,-0.52 -0.32,-0.56 -0.25,-0.60 -0.17,-0.62 -0.09,-0.64 -0.01,-0.65 0.05,-0.65 0.13,-0.63 0.21,-0.62 0.28,-0.58 0.35,-0.55 0.41,-0.50 0.47,-0.45 0.52,-0.38 0.57,-0.32 0.60,-0.24 0.63,-0.17 0.64,-0.09 0.65,-0.01 0.64,0.05 0.64,0.13 0.61,0.21 0.59,0.28 0.54,0.35 0.50,0.42 0.50,0.42 L 0.50,0.42 Z"></path></g><g transform="translate(942.9541015625 107.67718505859375) rotate(0 -15.51885986328125 -3.195037841796875)" stroke="none"><path fill="#FFFFFF" d="M -0.62,-0.20 Q -0.62,-0.20 -0.11,-1.20 0.38,-2.20 -0.92,-2.74 -2.23,-3.27 -5.25,-3.75 -8.27,-4.24 -12.18,-4.46 -16.09,-4.68 -19.82,-4.54 -23.54,-4.41 -27.29,-3.89 -31.04,-3.38 -31.15,-3.37 -31.26,-3.37 -31.36,-3.40 -31.46,-3.42 -31.55,-3.48 -31.64,-3.54 -31.70,-3.63 -31.77,-3.71 -31.80,-3.81 -31.83,-3.91 -31.83,-4.02 -31.83,-4.12 -31.80,-4.23 -31.77,-4.33 -31.70,-4.41 -31.64,-4.50 -31.55,-4.56 -31.46,-4.62 -31.36,-4.64 -31.26,-4.67 -31.15,-4.67 -31.05,-4.66 -30.95,-4.62 -30.85,-4.58 -30.77,-4.52 -30.69,-4.45 -30.63,-4.36 -30.58,-4.26 -30.55,-4.16 -30.53,-4.06 -30.54,-3.95 -30.55,-3.85 -30.60,-3.75 -30.64,-3.65 -30.71,-3.58 -30.79,-3.50 -30.88,-3.45 -30.97,-3.40 -31.08,-3.38 -31.18,-3.36 -31.29,-3.38 -31.39,-3.40 -31.49,-3.45 -31.58,-3.50 -31.66,-3.57 -31.73,-3.65 -31.77,-3.75 -31.82,-3.84 -31.83,-3.95 -31.84,-4.05 -31.82,-4.16 -31.80,-4.26 -31.74,-4.35 -31.69,-4.44 -31.61,-4.51 -31.53,-4.58 -31.43,-4.62 -31.33,-4.66 -31.33,-4.66 -31.33,-4.66 -27.49,-5.84 -23.66,-7.02 -19.80,-7.21 -15.94,-7.40 -11.88,-7.16 -7.82,-6.92 -4.44,-6.31 -1.07,-5.69 0.32,-4.89 1.71,-4.09 1.16,-1.94 0.62,0.20 0.58,0.27 0.55,0.35 0.50,0.41 0.45,0.47 0.39,0.52 0.32,0.56 0.25,0.59 0.18,0.63 0.10,0.64 0.02,0.65 -0.05,0.64 -0.13,0.64 -0.20,0.61 -0.28,0.59 -0.34,0.55 -0.41,0.50 -0.46,0.45 -0.52,0.39 -0.56,0.32 -0.60,0.25 -0.62,0.18 -0.64,0.10 -0.65,0.02 -0.65,-0.05 -0.63,-0.13 -0.62,-0.20 -0.62,-0.20 L -0.62,-0.20 Z"></path></g></svg>