<svg version="1.1" xmlns="http://www.w3.org/2000/svg" viewBox="0 0 385.49774614504736 251.43805894890443" width="385.49774614504736" height="251.43805894890443" class="excalidraw-svg">
  <!-- svg-source:excalidraw -->
  
  <defs>
    <style class="style-fonts">
      
    </style>
    
  </defs>
  <g stroke-linecap="round"><g transform="translate(10 239.67286126555632) rotate(0 0 -114.83643063277816)"><path d="M0 0 C0 -71.81, 0 -143.62, 0 -229.67 M0 0 C0 -78.02, 0 -156.04, 0 -229.67" stroke="#FFFFFF" stroke-width="2" fill="none"></path></g><g transform="translate(10 239.67286126555632) rotate(0 0 -114.83643063277816)"><path d="M8.55 -206.18 C5.88 -213.53, 3.2 -220.87, 0 -229.67 M8.55 -206.18 C5.65 -214.16, 2.74 -222.14, 0 -229.67" stroke="#FFFFFF" stroke-width="2" fill="none"></path></g><g transform="translate(10 239.67286126555632) rotate(0 0 -114.83643063277816)"><path d="M-8.55 -206.18 C-5.88 -213.53, -3.2 -220.87, 0 -229.67 M-8.55 -206.18 C-5.65 -214.16, -2.74 -222.14, 0 -229.67" stroke="#FFFFFF" stroke-width="2" fill="none"></path></g></g><mask></mask><g stroke-linecap="round"><g transform="translate(11.905806832905114 241.43805894890443) rotate(0 181.79596965607112 0)"><path d="M0 0 C103.39 0, 206.77 0, 363.59 0 M0 0 C136.2 0, 272.4 0, 363.59 0" stroke="#FFFFFF" stroke-width="2" fill="none"></path></g><g transform="translate(11.905806832905114 241.43805894890443) rotate(0 181.79596965607112 0)"><path d="M340.1 8.55 C346.78 6.12, 353.46 3.69, 363.59 0 M340.1 8.55 C348.9 5.35, 357.7 2.14, 363.59 0" stroke="#FFFFFF" stroke-width="2" fill="none"></path></g><g transform="translate(11.905806832905114 241.43805894890443) rotate(0 181.79596965607112 0)"><path d="M340.1 -8.55 C346.78 -6.12, 353.46 -3.69, 363.59 0 M340.1 -8.55 C348.9 -5.35, 357.7 -2.14, 363.59 0" stroke="#FFFFFF" stroke-width="2" fill="none"></path></g></g><mask></mask><g transform="translate(12.245516741261326 237.26711509090984) rotate(0 121.53489631974637 -109.66259514680986)" stroke="none"><path fill="#FFFFFF" d="M -0.07,-3.12 Q -0.07,-3.12 7.47,-3.23 15.01,-3.34 22.55,-3.37 30.09,-3.40 50.66,-6.96 71.24,-10.53 85.58,-13.83 99.91,-17.13 110.89,-21.34 121.87,-25.56 130.94,-30.53 140.01,-35.50 149.50,-43.08 158.99,-50.67 166.25,-57.46 173.52,-64.26 178.01,-69.25 182.49,-74.24 188.29,-82.39 194.09,-90.54 198.52,-97.75 202.95,-104.96 206.61,-111.76 210.28,-118.56 213.26,-124.84 216.24,-131.11 218.76,-136.82 221.29,-142.53 223.43,-147.64 225.58,-152.76 227.19,-157.38 228.79,-162.00 229.99,-166.76 231.19,-171.52 232.25,-176.25 233.30,-180.98 233.92,-185.42 234.53,-189.85 235.13,-193.96 235.74,-198.07 236.74,-202.92 237.75,-207.78 237.92,-210.34 238.09,-212.90 238.89,-216.20 239.70,-219.50 239.90,-219.99 240.11,-220.49 240.47,-220.89 240.82,-221.29 241.29,-221.56 241.75,-221.83 242.28,-221.93 242.81,-222.04 243.34,-221.97 243.87,-221.90 244.35,-221.67 244.84,-221.43 245.22,-221.06 245.60,-220.68 245.84,-220.20 246.08,-219.72 246.16,-219.19 246.24,-218.66 246.14,-218.13 246.04,-217.60 245.78,-217.13 245.52,-216.67 245.13,-216.30 244.73,-215.94 244.24,-215.73 243.75,-215.51 243.21,-215.46 242.68,-215.41 242.16,-215.54 241.63,-215.67 241.18,-215.95 240.73,-216.24 240.39,-216.65 240.05,-217.07 239.86,-217.57 239.67,-218.07 239.65,-218.61 239.63,-219.15 239.78,-219.66 239.94,-220.17 240.25,-220.61 240.56,-221.05 240.99,-221.37 241.42,-221.68 241.94,-221.85 242.45,-222.01 242.98,-222.00 243.52,-221.99 244.03,-221.80 244.53,-221.62 244.95,-221.29 245.37,-220.96 245.67,-220.51 245.96,-220.06 246.09,-219.54 246.23,-219.02 246.19,-218.48 246.15,-217.95 246.15,-217.95 246.15,-217.95 245.23,-214.91 244.31,-211.88 243.64,-209.29 242.97,-206.70 242.01,-201.98 241.04,-197.25 240.39,-193.19 239.74,-189.13 239.08,-184.48 238.43,-179.84 237.36,-175.04 236.29,-170.23 235.02,-165.25 233.76,-160.27 232.10,-155.50 230.43,-150.72 228.27,-145.56 226.10,-140.40 223.55,-134.63 221.00,-128.85 217.96,-122.45 214.92,-116.06 211.19,-109.13 207.45,-102.19 202.92,-94.83 198.40,-87.47 192.42,-79.08 186.44,-70.70 181.80,-65.54 177.17,-60.37 169.75,-53.42 162.33,-46.48 152.47,-38.62 142.62,-30.77 133.22,-25.62 123.83,-20.47 112.50,-16.11 101.17,-11.74 86.69,-8.36 72.21,-4.98 51.18,-1.30 30.16,2.37 22.66,2.50 15.16,2.62 7.61,2.87 0.07,3.12 -0.30,3.08 -0.67,3.05 -1.03,2.92 -1.38,2.80 -1.70,2.59 -2.01,2.38 -2.27,2.11 -2.52,1.83 -2.71,1.50 -2.89,1.17 -2.99,0.81 -3.09,0.45 -3.10,0.07 -3.10,-0.30 -3.02,-0.67 -2.94,-1.03 -2.77,-1.37 -2.61,-1.71 -2.36,-2.00 -2.12,-2.28 -1.82,-2.51 -1.51,-2.73 -1.16,-2.87 -0.81,-3.01 -0.44,-3.06 -0.07,-3.12 -0.07,-3.12 L -0.07,-3.12 Z"></path></g><g stroke-linecap="round"><g transform="translate(74.37683818166408 241.40806404786807) rotate(0 23.71358179982579 -10.522907147746324)"><path d="M0 0 C0 -7.49, 0 -14.99, 0 -21.05 M0 0 C0 -6.57, 0 -13.13, 0 -21.05 M0 -21.05 C15.24 -21.05, 30.49 -21.05, 47.43 -21.05 M0 -21.05 C12.26 -21.05, 24.52 -21.05, 47.43 -21.05 M47.43 -21.05 C47.43 -13.56, 47.43 -6.07, 47.43 -1.19 M47.43 -21.05 C47.43 -15.41, 47.43 -9.76, 47.43 -1.19" stroke="#FFFFFF" stroke-width="2" fill="none"></path></g></g><mask></mask><g stroke-linecap="round"><g transform="translate(123.33426606362855 240.7670248886499) rotate(0 20.897597149816733 -25.492100706193156)"><path d="M0 0 C0 -19.28, 0 -38.55, 0 -51.58 M0 0 C0 -19.85, 0 -39.7, 0 -51.58 M0 -51.58 C11.86 -51.58, 23.73 -51.58, 41.8 -51.58 M0 -51.58 C16.14 -51.58, 32.27 -51.58, 41.8 -51.58 M41.8 -51.58 C41.8 -40.15, 41.8 -28.73, 41.8 0.59 M41.8 -51.58 C41.8 -35.4, 41.8 -19.23, 41.8 0.59" stroke="#FFFFFF" stroke-width="2" fill="none"></path></g></g><mask></mask><g stroke-linecap="round"><g transform="translate(165.67414927866832 240.29835051371631) rotate(0 25.047470979601314 -56.46797527716438)"><path d="M0 0 C0 -33.24, 0 -66.48, 0 -112.94 M0 0 C0 -42.01, 0 -84.03, 0 -112.94 M0 -112.94 C19.22 -112.94, 38.45 -112.94, 50.09 -112.94 M0 -112.94 C13.31 -112.94, 26.63 -112.94, 50.09 -112.94 M50.09 -112.94 C50.09 -78.61, 50.09 -44.29, 50.09 -0.59 M50.09 -112.94 C50.09 -74.3, 50.09 -35.65, 50.09 -0.59" stroke="#FFFFFF" stroke-width="2" fill="none"></path></g></g><mask></mask></svg>