<svg version="1.1" xmlns="http://www.w3.org/2000/svg" viewBox="0 0 694.7582111285927 479.8704061569621" width="694.7582111285927" height="479.8704061569621" class="excalidraw-svg">
  <!-- svg-source:excalidraw -->
  
  <defs>
    <style class="style-fonts">
      
    </style>
    
  </defs>
  <g stroke-linecap="round" transform="translate(119.04308183791608 39.0176790456341) rotate(0 39.0496608352766 27.52399001605396)"><path d="M78.1 27.52 C78.1 28.96, 77.94 30.41, 77.62 31.83 C77.3 33.25, 76.82 34.66, 76.19 36.03 C75.56 37.39, 74.77 38.74, 73.84 40.02 C72.92 41.3, 71.84 42.54, 70.64 43.7 C69.44 44.86, 68.1 45.97, 66.66 46.99 C65.22 48, 63.65 48.95, 62 49.79 C60.36 50.63, 58.59 51.4, 56.78 52.05 C54.96 52.7, 53.05 53.26, 51.12 53.7 C49.18 54.14, 47.17 54.48, 45.16 54.71 C43.15 54.93, 41.09 55.05, 39.05 55.05 C37.01 55.05, 34.95 54.93, 32.94 54.71 C30.93 54.48, 28.92 54.14, 26.98 53.7 C25.05 53.26, 23.14 52.7, 21.32 52.05 C19.51 51.4, 17.74 50.63, 16.1 49.79 C14.45 48.95, 12.88 48, 11.44 46.99 C10 45.97, 8.65 44.86, 7.46 43.7 C6.26 42.54, 5.18 41.3, 4.26 40.02 C3.33 38.74, 2.54 37.39, 1.91 36.03 C1.28 34.66, 0.8 33.25, 0.48 31.83 C0.16 30.41, 0 28.96, 0 27.52 C0 26.09, 0.16 24.64, 0.48 23.22 C0.8 21.8, 1.28 20.38, 1.91 19.02 C2.54 17.65, 3.33 16.31, 4.26 15.03 C5.18 13.75, 6.26 12.51, 7.46 11.35 C8.65 10.18, 10 9.08, 11.44 8.06 C12.88 7.05, 14.45 6.1, 16.1 5.26 C17.74 4.41, 19.51 3.65, 21.32 3 C23.14 2.35, 25.05 1.79, 26.98 1.35 C28.92 0.9, 30.93 0.56, 32.94 0.34 C34.95 0.11, 37.01 0, 39.05 0 C41.09 0, 43.15 0.11, 45.16 0.34 C47.17 0.56, 49.18 0.9, 51.12 1.35 C53.05 1.79, 54.96 2.35, 56.78 3 C58.59 3.65, 60.36 4.41, 62 5.26 C63.65 6.1, 65.22 7.05, 66.66 8.06 C68.1 9.08, 69.44 10.18, 70.64 11.35 C71.84 12.51, 72.92 13.75, 73.84 15.03 C74.77 16.31, 75.56 17.65, 76.19 19.02 C76.82 20.38, 77.3 21.8, 77.62 23.22 C77.94 24.64, 78.02 26.81, 78.1 27.52 C78.18 28.24, 78.18 26.81, 78.1 27.52" stroke="transparent" stroke-width="1" fill="none"></path></g><g stroke-linecap="round"><g transform="translate(119.51971371783856 61.05932168706299) rotate(0 38.1456083253168 4.440175080266503)" fill-rule="evenodd"><path d="M0 0 L0.11 9.42 L39.14 32.14 L75.79 8.38 L76.29 -0.73 L37.58 -23.26 L0 0" stroke="none" stroke-width="0" fill="#ced4da" fill-rule="evenodd"></path><path d="M0 0 C0.02 2.06, 0.05 4.12, 0.11 9.42 M0 0 C0.04 2.97, 0.07 5.94, 0.11 9.42 M0.11 9.42 C12.72 16.76, 25.33 24.1, 39.14 32.14 M0.11 9.42 C10.79 15.64, 21.46 21.85, 39.14 32.14 M39.14 32.14 C50.02 25.09, 60.89 18.04, 75.79 8.38 M39.14 32.14 C48.56 26.04, 57.98 19.93, 75.79 8.38 M75.79 8.38 C75.96 5.32, 76.13 2.27, 76.29 -0.73 M75.79 8.38 C75.9 6.44, 76 4.5, 76.29 -0.73 M76.29 -0.73 C66.84 -6.23, 57.4 -11.73, 37.58 -23.26 M76.29 -0.73 C62.76 -8.61, 49.24 -16.48, 37.58 -23.26 M37.58 -23.26 C23.58 -14.6, 9.58 -5.93, 0 0 M37.58 -23.26 C28.15 -17.43, 18.72 -11.59, 0 0 M0 0 C0 0, 0 0, 0 0 M0 0 C0 0, 0 0, 0 0" stroke="#495057" stroke-width="2" fill="none"></path></g></g><mask></mask><g stroke-linecap="round"><g transform="translate(119.91066282735272 61.35944798950406) rotate(0 37.72322872840017 10.82496732560059)"><path d="M0 0 C7.85 4.66, 15.71 9.32, 38.44 22.81 M0 0 C9.27 5.5, 18.54 11, 38.44 22.81 M38.44 22.81 C48.36 16.39, 58.27 9.97, 75.45 -1.16 M38.44 22.81 C51.16 14.57, 63.88 6.34, 75.45 -1.16" stroke="#495057" stroke-width="2" fill="none"></path></g></g><mask></mask><g stroke-linecap="round"><g transform="translate(158.4858569581749 92.8666322062043) rotate(0 -0.08865561764929453 -4.015930478814948)"><path d="M0 0 C-0.04 -1.67, -0.07 -3.34, -0.18 -8.03 M0 0 C-0.07 -3.02, -0.13 -6.04, -0.18 -8.03" stroke="#495057" stroke-width="2" fill="none"></path></g></g><mask></mask><g stroke-linecap="round"><g transform="translate(161.09673745142317 57.442802799916464) rotate(0 -4.027958273394532 -5.9224186248281185)" fill-rule="evenodd"><path d="M0 0 L-7.79 -6.11 L-11.31 -2.96 L-11.39 -11.84 L-1.6 -11.13 L-4.89 -8.59 L3.33 -3.06 L0 0" stroke="none" stroke-width="0" fill="#495057" fill-rule="evenodd"></path><path d="M0 0 C-3.05 -2.39, -6.1 -4.78, -7.79 -6.11 M0 0 C-2.74 -2.15, -5.47 -4.29, -7.79 -6.11 M-7.79 -6.11 C-8.92 -5.1, -10.05 -4.09, -11.31 -2.96 M-7.79 -6.11 C-9.1 -4.94, -10.41 -3.77, -11.31 -2.96 M-11.31 -2.96 C-11.33 -5.38, -11.35 -7.8, -11.39 -11.84 M-11.31 -2.96 C-11.33 -5.21, -11.35 -7.45, -11.39 -11.84 M-11.39 -11.84 C-7.77 -11.58, -4.15 -11.32, -1.6 -11.13 M-11.39 -11.84 C-8.28 -11.62, -5.18 -11.39, -1.6 -11.13 M-1.6 -11.13 C-2.64 -10.33, -3.68 -9.53, -4.89 -8.59 M-1.6 -11.13 C-2.34 -10.56, -3.08 -9.99, -4.89 -8.59 M-4.89 -8.59 C-2.99 -7.31, -1.08 -6.03, 3.33 -3.06 M-4.89 -8.59 C-1.65 -6.41, 1.59 -4.23, 3.33 -3.06 M3.33 -3.06 C2.05 -1.88, 0.76 -0.7, 0 0 M3.33 -3.06 C2.3 -2.11, 1.27 -1.17, 0 0 M0 0 C0 0, 0 0, 0 0 M0 0 C0 0, 0 0, 0 0" stroke="#495057" stroke-width="1" fill="none"></path></g></g><mask></mask><g stroke-linecap="round"><g transform="translate(145.76241365784625 67.55325894788943) rotate(0 -4.027958273394532 -5.9224186248281185)" fill-rule="evenodd"><path d="M0 0 L-7.79 -6.11 L-11.31 -2.96 L-11.39 -11.84 L-1.6 -11.13 L-4.89 -8.59 L3.33 -3.06 L0 0" stroke="none" stroke-width="0" fill="#495057" fill-rule="evenodd"></path><path d="M0 0 C-2.61 -2.05, -5.22 -4.09, -7.79 -6.11 M0 0 C-2.33 -1.83, -4.66 -3.66, -7.79 -6.11 M-7.79 -6.11 C-8.77 -5.24, -9.75 -4.36, -11.31 -2.96 M-7.79 -6.11 C-8.57 -5.42, -9.34 -4.72, -11.31 -2.96 M-11.31 -2.96 C-11.34 -6.43, -11.37 -9.89, -11.39 -11.84 M-11.31 -2.96 C-11.34 -6.31, -11.37 -9.65, -11.39 -11.84 M-11.39 -11.84 C-8.07 -11.6, -4.75 -11.36, -1.6 -11.13 M-11.39 -11.84 C-9.31 -11.69, -7.23 -11.54, -1.6 -11.13 M-1.6 -11.13 C-2.79 -10.21, -3.99 -9.29, -4.89 -8.59 M-1.6 -11.13 C-2.49 -10.44, -3.38 -9.75, -4.89 -8.59 M-4.89 -8.59 C-3.19 -7.45, -1.49 -6.31, 3.33 -3.06 M-4.89 -8.59 C-2.33 -6.87, 0.23 -5.15, 3.33 -3.06 M3.33 -3.06 C2.14 -1.97, 0.95 -0.88, 0 0 M3.33 -3.06 C2.27 -2.09, 1.21 -1.11, 0 0 M0 0 C0 0, 0 0, 0 0 M0 0 C0 0, 0 0, 0 0" stroke="#495057" stroke-width="1" fill="none"></path></g></g><mask></mask><g stroke-linecap="round"><g transform="translate(164.9288811802009 74.28433980395464) rotate(180 -4.027958273394539 -5.9224186248281185)" fill-rule="evenodd"><path d="M0 0 L-7.79 -6.11 L-11.31 -2.96 L-11.39 -11.84 L-1.6 -11.13 L-4.89 -8.59 L3.33 -3.06 L0 0" stroke="none" stroke-width="0" fill="#495057" fill-rule="evenodd"></path><path d="M0 0 C-1.78 -1.4, -3.57 -2.8, -7.79 -6.11 M0 0 C-1.66 -1.3, -3.33 -2.61, -7.79 -6.11 M-7.79 -6.11 C-8.5 -5.48, -9.21 -4.84, -11.31 -2.96 M-7.79 -6.11 C-8.76 -5.25, -9.73 -4.38, -11.31 -2.96 M-11.31 -2.96 C-11.33 -5.54, -11.35 -8.11, -11.39 -11.84 M-11.31 -2.96 C-11.34 -6.43, -11.37 -9.9, -11.39 -11.84 M-11.39 -11.84 C-8.57 -11.64, -5.75 -11.43, -1.6 -11.13 M-11.39 -11.84 C-7.52 -11.56, -3.65 -11.28, -1.6 -11.13 M-1.6 -11.13 C-2.44 -10.48, -3.27 -9.84, -4.89 -8.59 M-1.6 -11.13 C-2.52 -10.42, -3.44 -9.71, -4.89 -8.59 M-4.89 -8.59 C-2.06 -6.69, 0.77 -4.78, 3.33 -3.06 M-4.89 -8.59 C-3.16 -7.43, -1.43 -6.27, 3.33 -3.06 M3.33 -3.06 C2.18 -2.01, 1.04 -0.95, 0 0 M3.33 -3.06 C2.54 -2.33, 1.74 -1.6, 0 0 M0 0 C0 0, 0 0, 0 0 M0 0 C0 0, 0 0, 0 0" stroke="#495057" stroke-width="1" fill="none"></path></g></g><mask></mask><g stroke-linecap="round"><g transform="translate(179.3037318219678 65.1574505075951) rotate(180 -4.027958273394539 -5.9224186248281185)" fill-rule="evenodd"><path d="M0 0 L-7.79 -6.11 L-11.31 -2.96 L-11.39 -11.84 L-1.6 -11.13 L-4.89 -8.59 L3.33 -3.06 L0 0" stroke="none" stroke-width="0" fill="#495057" fill-rule="evenodd"></path><path d="M0 0 C-2.84 -2.23, -5.68 -4.46, -7.79 -6.11 M0 0 C-1.62 -1.27, -3.23 -2.53, -7.79 -6.11 M-7.79 -6.11 C-8.58 -5.41, -9.36 -4.71, -11.31 -2.96 M-7.79 -6.11 C-9.02 -5.01, -10.25 -3.91, -11.31 -2.96 M-11.31 -2.96 C-11.34 -6.35, -11.37 -9.74, -11.39 -11.84 M-11.31 -2.96 C-11.33 -5.83, -11.36 -8.7, -11.39 -11.84 M-11.39 -11.84 C-8.96 -11.67, -6.53 -11.49, -1.6 -11.13 M-11.39 -11.84 C-8.3 -11.62, -5.2 -11.39, -1.6 -11.13 M-1.6 -11.13 C-2.53 -10.41, -3.47 -9.69, -4.89 -8.59 M-1.6 -11.13 C-2.36 -10.54, -3.13 -9.95, -4.89 -8.59 M-4.89 -8.59 C-2.1 -6.72, 0.69 -4.84, 3.33 -3.06 M-4.89 -8.59 C-3.15 -7.42, -1.41 -6.25, 3.33 -3.06 M3.33 -3.06 C2.38 -2.19, 1.43 -1.32, 0 0 M3.33 -3.06 C2.54 -2.33, 1.74 -1.6, 0 0 M0 0 C0 0, 0 0, 0 0 M0 0 C0 0, 0 0, 0 0" stroke="#495057" stroke-width="1" fill="none"></path></g></g><mask></mask><g stroke-linecap="round" transform="translate(363.2360750019786 39.0176790456341) rotate(0 39.0496608352766 27.52399001605396)"><path d="M78.1 27.52 C78.1 28.96, 77.94 30.41, 77.62 31.83 C77.3 33.25, 76.82 34.66, 76.19 36.03 C75.56 37.39, 74.77 38.74, 73.84 40.02 C72.92 41.3, 71.84 42.54, 70.64 43.7 C69.44 44.86, 68.1 45.97, 66.66 46.99 C65.22 48, 63.65 48.95, 62 49.79 C60.36 50.63, 58.59 51.4, 56.78 52.05 C54.96 52.7, 53.05 53.26, 51.12 53.7 C49.18 54.14, 47.17 54.48, 45.16 54.71 C43.15 54.93, 41.09 55.05, 39.05 55.05 C37.01 55.05, 34.95 54.93, 32.94 54.71 C30.93 54.48, 28.92 54.14, 26.98 53.7 C25.05 53.26, 23.14 52.7, 21.32 52.05 C19.51 51.4, 17.74 50.63, 16.1 49.79 C14.45 48.95, 12.88 48, 11.44 46.99 C10 45.97, 8.65 44.86, 7.46 43.7 C6.26 42.54, 5.18 41.3, 4.26 40.02 C3.33 38.74, 2.54 37.39, 1.91 36.03 C1.28 34.66, 0.8 33.25, 0.48 31.83 C0.16 30.41, 0 28.96, 0 27.52 C0 26.09, 0.16 24.64, 0.48 23.22 C0.8 21.8, 1.28 20.38, 1.91 19.02 C2.54 17.65, 3.33 16.31, 4.26 15.03 C5.18 13.75, 6.26 12.51, 7.46 11.35 C8.65 10.18, 10 9.08, 11.44 8.06 C12.88 7.05, 14.45 6.1, 16.1 5.26 C17.74 4.41, 19.51 3.65, 21.32 3 C23.14 2.35, 25.05 1.79, 26.98 1.35 C28.92 0.9, 30.93 0.56, 32.94 0.34 C34.95 0.11, 37.01 0, 39.05 0 C41.09 0, 43.15 0.11, 45.16 0.34 C47.17 0.56, 49.18 0.9, 51.12 1.35 C53.05 1.79, 54.96 2.35, 56.78 3 C58.59 3.65, 60.36 4.41, 62 5.26 C63.65 6.1, 65.22 7.05, 66.66 8.06 C68.1 9.08, 69.44 10.18, 70.64 11.35 C71.84 12.51, 72.92 13.75, 73.84 15.03 C74.77 16.31, 75.56 17.65, 76.19 19.02 C76.82 20.38, 77.3 21.8, 77.62 23.22 C77.94 24.64, 78.02 26.81, 78.1 27.52 C78.18 28.24, 78.18 26.81, 78.1 27.52" stroke="transparent" stroke-width="1" fill="none"></path></g><g stroke-linecap="round"><g transform="translate(363.71270688190106 61.05932168706299) rotate(0 38.1456083253168 4.440175080266503)" fill-rule="evenodd"><path d="M0 0 L0.11 9.42 L39.14 32.14 L75.79 8.38 L76.29 -0.73 L37.58 -23.26 L0 0" stroke="none" stroke-width="0" fill="#ced4da" fill-rule="evenodd"></path><path d="M0 0 C0.02 2.01, 0.05 4.02, 0.11 9.42 M0 0 C0.03 2.79, 0.07 5.59, 0.11 9.42 M0.11 9.42 C14.29 17.68, 28.47 25.93, 39.14 32.14 M0.11 9.42 C15.12 18.16, 30.12 26.89, 39.14 32.14 M39.14 32.14 C49.44 25.46, 59.75 18.78, 75.79 8.38 M39.14 32.14 C49.41 25.48, 59.69 18.82, 75.79 8.38 M75.79 8.38 C75.91 6.18, 76.03 3.99, 76.29 -0.73 M75.79 8.38 C75.94 5.72, 76.08 3.06, 76.29 -0.73 M76.29 -0.73 C65.84 -6.81, 55.4 -12.89, 37.58 -23.26 M76.29 -0.73 C65.62 -6.94, 54.96 -13.15, 37.58 -23.26 M37.58 -23.26 C27.54 -17.05, 17.5 -10.83, 0 0 M37.58 -23.26 C27.26 -16.88, 16.95 -10.49, 0 0 M0 0 C0 0, 0 0, 0 0 M0 0 C0 0, 0 0, 0 0" stroke="#495057" stroke-width="2" fill="none"></path></g></g><mask></mask><g stroke-linecap="round"><g transform="translate(364.1036559914152 61.35944798950406) rotate(0 37.72322872840017 10.82496732560059)"><path d="M0 0 C10.61 6.29, 21.22 12.59, 38.44 22.81 M0 0 C9.59 5.69, 19.18 11.38, 38.44 22.81 M38.44 22.81 C52.33 13.81, 66.21 4.82, 75.45 -1.16 M38.44 22.81 C46.6 17.53, 54.75 12.24, 75.45 -1.16" stroke="#495057" stroke-width="2" fill="none"></path></g></g><mask></mask><g stroke-linecap="round"><g transform="translate(402.6788501222374 92.8666322062043) rotate(0 -0.08865561764929453 -4.015930478814948)"><path d="M0 0 C-0.04 -1.88, -0.08 -3.77, -0.18 -8.03 M0 0 C-0.06 -2.7, -0.12 -5.41, -0.18 -8.03" stroke="#495057" stroke-width="2" fill="none"></path></g></g><mask></mask><g stroke-linecap="round"><g transform="translate(405.28973061548567 57.442802799916464) rotate(0 -4.027958273394539 -5.9224186248281185)" fill-rule="evenodd"><path d="M0 0 L-7.79 -6.11 L-11.31 -2.96 L-11.39 -11.84 L-1.6 -11.13 L-4.89 -8.59 L3.33 -3.06 L0 0" stroke="none" stroke-width="0" fill="#495057" fill-rule="evenodd"></path><path d="M0 0 C-3.06 -2.4, -6.12 -4.8, -7.79 -6.11 M0 0 C-2.19 -1.72, -4.39 -3.44, -7.79 -6.11 M-7.79 -6.11 C-8.84 -5.18, -9.88 -4.25, -11.31 -2.96 M-7.79 -6.11 C-9.19 -4.87, -10.58 -3.62, -11.31 -2.96 M-11.31 -2.96 C-11.33 -5.33, -11.35 -7.69, -11.39 -11.84 M-11.31 -2.96 C-11.34 -6.31, -11.37 -9.65, -11.39 -11.84 M-11.39 -11.84 C-9.23 -11.69, -7.07 -11.53, -1.6 -11.13 M-11.39 -11.84 C-8.84 -11.66, -6.3 -11.47, -1.6 -11.13 M-1.6 -11.13 C-2.61 -10.35, -3.63 -9.56, -4.89 -8.59 M-1.6 -11.13 C-2.6 -10.36, -3.61 -9.58, -4.89 -8.59 M-4.89 -8.59 C-2.18 -6.77, 0.53 -4.95, 3.33 -3.06 M-4.89 -8.59 C-2.19 -6.78, 0.5 -4.96, 3.33 -3.06 M3.33 -3.06 C2.52 -2.31, 1.7 -1.56, 0 0 M3.33 -3.06 C2.22 -2.04, 1.1 -1.01, 0 0 M0 0 C0 0, 0 0, 0 0 M0 0 C0 0, 0 0, 0 0" stroke="#495057" stroke-width="1" fill="none"></path></g></g><mask></mask><g stroke-linecap="round"><g transform="translate(389.95540682190875 67.55325894788943) rotate(0 -4.027958273394539 -5.9224186248281185)" fill-rule="evenodd"><path d="M0 0 L-7.79 -6.11 L-11.31 -2.96 L-11.39 -11.84 L-1.6 -11.13 L-4.89 -8.59 L3.33 -3.06 L0 0" stroke="none" stroke-width="0" fill="#495057" fill-rule="evenodd"></path><path d="M0 0 C-1.94 -1.52, -3.88 -3.05, -7.79 -6.11 M0 0 C-2.07 -1.63, -4.15 -3.25, -7.79 -6.11 M-7.79 -6.11 C-8.66 -5.33, -9.53 -4.55, -11.31 -2.96 M-7.79 -6.11 C-8.56 -5.43, -9.32 -4.75, -11.31 -2.96 M-11.31 -2.96 C-11.34 -6.17, -11.37 -9.37, -11.39 -11.84 M-11.31 -2.96 C-11.34 -6.48, -11.37 -10, -11.39 -11.84 M-11.39 -11.84 C-7.6 -11.57, -3.82 -11.29, -1.6 -11.13 M-11.39 -11.84 C-8.25 -11.62, -5.12 -11.39, -1.6 -11.13 M-1.6 -11.13 C-2.63 -10.34, -3.66 -9.54, -4.89 -8.59 M-1.6 -11.13 C-2.31 -10.58, -3.02 -10.03, -4.89 -8.59 M-4.89 -8.59 C-2.94 -7.28, -0.99 -5.97, 3.33 -3.06 M-4.89 -8.59 C-2.75 -7.16, -0.62 -5.72, 3.33 -3.06 M3.33 -3.06 C2.07 -1.9, 0.82 -0.75, 0 0 M3.33 -3.06 C2.3 -2.12, 1.28 -1.17, 0 0 M0 0 C0 0, 0 0, 0 0 M0 0 C0 0, 0 0, 0 0" stroke="#495057" stroke-width="1" fill="none"></path></g></g><mask></mask><g stroke-linecap="round"><g transform="translate(409.1218743442634 74.28433980395464) rotate(180 -4.027958273394539 -5.9224186248281185)" fill-rule="evenodd"><path d="M0 0 L-7.79 -6.11 L-11.31 -2.96 L-11.39 -11.84 L-1.6 -11.13 L-4.89 -8.59 L3.33 -3.06 L0 0" stroke="none" stroke-width="0" fill="#495057" fill-rule="evenodd"></path><path d="M0 0 C-2 -1.57, -4 -3.13, -7.79 -6.11 M0 0 C-1.74 -1.37, -3.49 -2.74, -7.79 -6.11 M-7.79 -6.11 C-8.6 -5.39, -9.41 -4.66, -11.31 -2.96 M-7.79 -6.11 C-9.07 -4.97, -10.34 -3.83, -11.31 -2.96 M-11.31 -2.96 C-11.33 -4.81, -11.34 -6.66, -11.39 -11.84 M-11.31 -2.96 C-11.34 -6.34, -11.37 -9.73, -11.39 -11.84 M-11.39 -11.84 C-8.13 -11.61, -4.88 -11.37, -1.6 -11.13 M-11.39 -11.84 C-7.88 -11.59, -4.36 -11.33, -1.6 -11.13 M-1.6 -11.13 C-2.9 -10.13, -4.21 -9.12, -4.89 -8.59 M-1.6 -11.13 C-2.51 -10.43, -3.43 -9.72, -4.89 -8.59 M-4.89 -8.59 C-2.76 -7.16, -0.63 -5.73, 3.33 -3.06 M-4.89 -8.59 C-1.95 -6.62, 0.98 -4.64, 3.33 -3.06 M3.33 -3.06 C2.12 -1.95, 0.91 -0.84, 0 0 M3.33 -3.06 C2.37 -2.18, 1.41 -1.29, 0 0 M0 0 C0 0, 0 0, 0 0 M0 0 C0 0, 0 0, 0 0" stroke="#495057" stroke-width="1" fill="none"></path></g></g><mask></mask><g stroke-linecap="round"><g transform="translate(423.4967249860303 65.1574505075951) rotate(180 -4.027958273394532 -5.9224186248281185)" fill-rule="evenodd"><path d="M0 0 L-7.79 -6.11 L-11.31 -2.96 L-11.39 -11.84 L-1.6 -11.13 L-4.89 -8.59 L3.33 -3.06 L0 0" stroke="none" stroke-width="0" fill="#495057" fill-rule="evenodd"></path><path d="M0 0 C-2.19 -1.72, -4.38 -3.44, -7.79 -6.11 M0 0 C-1.78 -1.39, -3.55 -2.79, -7.79 -6.11 M-7.79 -6.11 C-8.74 -5.26, -9.69 -4.41, -11.31 -2.96 M-7.79 -6.11 C-8.6 -5.39, -9.4 -4.67, -11.31 -2.96 M-11.31 -2.96 C-11.33 -5.64, -11.36 -8.32, -11.39 -11.84 M-11.31 -2.96 C-11.34 -6.44, -11.37 -9.92, -11.39 -11.84 M-11.39 -11.84 C-9.14 -11.68, -6.89 -11.52, -1.6 -11.13 M-11.39 -11.84 C-8.03 -11.6, -4.67 -11.35, -1.6 -11.13 M-1.6 -11.13 C-2.64 -10.33, -3.68 -9.53, -4.89 -8.59 M-1.6 -11.13 C-2.6 -10.36, -3.59 -9.59, -4.89 -8.59 M-4.89 -8.59 C-2.01 -6.66, 0.87 -4.72, 3.33 -3.06 M-4.89 -8.59 C-2.26 -6.83, 0.36 -5.06, 3.33 -3.06 M3.33 -3.06 C2.46 -2.26, 1.58 -1.45, 0 0 M3.33 -3.06 C2.65 -2.44, 1.98 -1.82, 0 0 M0 0 C0 0, 0 0, 0 0 M0 0 C0 0, 0 0, 0 0" stroke="#495057" stroke-width="1" fill="none"></path></g></g><mask></mask><g stroke-linecap="round" transform="translate(210.33019121291608 182.03409750266536) rotate(0 39.0496608352766 27.523990016053965)"><path d="M78.1 27.52 C78.1 28.96, 77.94 30.41, 77.62 31.83 C77.3 33.25, 76.82 34.66, 76.19 36.03 C75.56 37.39, 74.77 38.74, 73.84 40.02 C72.92 41.3, 71.84 42.54, 70.64 43.7 C69.44 44.86, 68.1 45.97, 66.66 46.99 C65.22 48, 63.65 48.95, 62 49.79 C60.36 50.63, 58.59 51.4, 56.78 52.05 C54.96 52.7, 53.05 53.26, 51.12 53.7 C49.18 54.14, 47.17 54.48, 45.16 54.71 C43.15 54.93, 41.09 55.05, 39.05 55.05 C37.01 55.05, 34.95 54.93, 32.94 54.71 C30.93 54.48, 28.92 54.14, 26.98 53.7 C25.05 53.26, 23.14 52.7, 21.32 52.05 C19.51 51.4, 17.74 50.63, 16.1 49.79 C14.45 48.95, 12.88 48, 11.44 46.99 C10 45.97, 8.65 44.86, 7.46 43.7 C6.26 42.54, 5.18 41.3, 4.26 40.02 C3.33 38.74, 2.54 37.39, 1.91 36.03 C1.28 34.66, 0.8 33.25, 0.48 31.83 C0.16 30.41, 0 28.96, 0 27.52 C0 26.09, 0.16 24.64, 0.48 23.22 C0.8 21.8, 1.28 20.38, 1.91 19.02 C2.54 17.65, 3.33 16.31, 4.26 15.03 C5.18 13.75, 6.26 12.51, 7.46 11.35 C8.65 10.18, 10 9.08, 11.44 8.06 C12.88 7.05, 14.45 6.1, 16.1 5.26 C17.74 4.41, 19.51 3.65, 21.32 3 C23.14 2.35, 25.05 1.79, 26.98 1.35 C28.92 0.9, 30.93 0.56, 32.94 0.34 C34.95 0.11, 37.01 0, 39.05 0 C41.09 0, 43.15 0.11, 45.16 0.34 C47.17 0.56, 49.18 0.9, 51.12 1.35 C53.05 1.79, 54.96 2.35, 56.78 3 C58.59 3.65, 60.36 4.41, 62 5.26 C63.65 6.1, 65.22 7.05, 66.66 8.06 C68.1 9.08, 69.44 10.18, 70.64 11.35 C71.84 12.51, 72.92 13.75, 73.84 15.03 C74.77 16.31, 75.56 17.65, 76.19 19.02 C76.82 20.38, 77.3 21.8, 77.62 23.22 C77.94 24.64, 78.02 26.81, 78.1 27.52 C78.18 28.24, 78.18 26.81, 78.1 27.52" stroke="transparent" stroke-width="1" fill="none"></path></g><g stroke-linecap="round"><g transform="translate(210.80682309283856 204.07574014409425) rotate(0 38.1456083253168 4.440175080266499)" fill-rule="evenodd"><path d="M0 0 L0.11 9.42 L39.14 32.14 L75.79 8.38 L76.29 -0.73 L37.58 -23.26 L0 0" stroke="none" stroke-width="0" fill="#ced4da" fill-rule="evenodd"></path><path d="M0 0 C0.05 3.75, 0.09 7.5, 0.11 9.42 M0 0 C0.04 3.38, 0.08 6.76, 0.11 9.42 M0.11 9.42 C11.86 16.26, 23.61 23.1, 39.14 32.14 M0.11 9.42 C12.54 16.66, 24.96 23.89, 39.14 32.14 M39.14 32.14 C50.71 24.64, 62.29 17.13, 75.79 8.38 M39.14 32.14 C50.79 24.59, 62.44 17.03, 75.79 8.38 M75.79 8.38 C75.98 4.94, 76.17 1.5, 76.29 -0.73 M75.79 8.38 C75.98 4.91, 76.17 1.44, 76.29 -0.73 M76.29 -0.73 C62.73 -8.63, 49.17 -16.52, 37.58 -23.26 M76.29 -0.73 C61.87 -9.13, 47.45 -17.52, 37.58 -23.26 M37.58 -23.26 C24.03 -14.87, 10.48 -6.49, 0 0 M37.58 -23.26 C25.71 -15.92, 13.84 -8.57, 0 0 M0 0 C0 0, 0 0, 0 0 M0 0 C0 0, 0 0, 0 0" stroke="#495057" stroke-width="2" fill="none"></path></g></g><mask></mask><g stroke-linecap="round"><g transform="translate(211.19777220235272 204.37586644653533) rotate(0 37.72322872840017 10.82496732560059)"><path d="M0 0 C11.32 6.71, 22.63 13.43, 38.44 22.81 M0 0 C13.83 8.21, 27.67 16.41, 38.44 22.81 M38.44 22.81 C46.18 17.8, 53.92 12.78, 75.45 -1.16 M38.44 22.81 C48.25 16.46, 58.06 10.11, 75.45 -1.16" stroke="#495057" stroke-width="2" fill="none"></path></g></g><mask></mask><g stroke-linecap="round"><g transform="translate(249.7729663331749 235.88305066323557) rotate(0 -0.08865561764929808 -4.015930478814944)"><path d="M0 0 C-0.07 -3.03, -0.13 -6.06, -0.18 -8.03 M0 0 C-0.05 -2.14, -0.09 -4.28, -0.18 -8.03" stroke="#495057" stroke-width="2" fill="none"></path></g></g><mask></mask><g stroke-linecap="round"><g transform="translate(252.38384682642317 200.45922125694773) rotate(0 -4.0279582733945425 -5.922418624828122)" fill-rule="evenodd"><path d="M0 0 L-7.79 -6.11 L-11.31 -2.96 L-11.39 -11.84 L-1.6 -11.13 L-4.89 -8.59 L3.33 -3.06 L0 0" stroke="none" stroke-width="0" fill="#495057" fill-rule="evenodd"></path><path d="M0 0 C-1.74 -1.37, -3.48 -2.73, -7.79 -6.11 M0 0 C-1.59 -1.25, -3.18 -2.5, -7.79 -6.11 M-7.79 -6.11 C-8.98 -5.05, -10.17 -3.99, -11.31 -2.96 M-7.79 -6.11 C-8.84 -5.17, -9.9 -4.23, -11.31 -2.96 M-11.31 -2.96 C-11.33 -5.82, -11.36 -8.68, -11.39 -11.84 M-11.31 -2.96 C-11.33 -5.12, -11.35 -7.27, -11.39 -11.84 M-11.39 -11.84 C-9.12 -11.68, -6.85 -11.51, -1.6 -11.13 M-11.39 -11.84 C-8.06 -11.6, -4.72 -11.36, -1.6 -11.13 M-1.6 -11.13 C-2.33 -10.56, -3.07 -10, -4.89 -8.59 M-1.6 -11.13 C-2.31 -10.58, -3.02 -10.03, -4.89 -8.59 M-4.89 -8.59 C-1.7 -6.45, 1.49 -4.3, 3.33 -3.06 M-4.89 -8.59 C-2.98 -7.31, -1.07 -6.03, 3.33 -3.06 M3.33 -3.06 C2.39 -2.19, 1.44 -1.32, 0 0 M3.33 -3.06 C2 -1.84, 0.68 -0.62, 0 0 M0 0 C0 0, 0 0, 0 0 M0 0 C0 0, 0 0, 0 0" stroke="#495057" stroke-width="1" fill="none"></path></g></g><mask></mask><g stroke-linecap="round"><g transform="translate(237.04952303284625 210.5696774049207) rotate(0 -4.0279582733945425 -5.9224186248281185)" fill-rule="evenodd"><path d="M0 0 L-7.79 -6.11 L-11.31 -2.96 L-11.39 -11.84 L-1.6 -11.13 L-4.89 -8.59 L3.33 -3.06 L0 0" stroke="none" stroke-width="0" fill="#495057" fill-rule="evenodd"></path><path d="M0 0 C-2.71 -2.12, -5.41 -4.25, -7.79 -6.11 M0 0 C-2.97 -2.33, -5.95 -4.67, -7.79 -6.11 M-7.79 -6.11 C-8.56 -5.42, -9.33 -4.73, -11.31 -2.96 M-7.79 -6.11 C-9.15 -4.9, -10.5 -3.69, -11.31 -2.96 M-11.31 -2.96 C-11.33 -4.85, -11.34 -6.74, -11.39 -11.84 M-11.31 -2.96 C-11.34 -6.2, -11.37 -9.44, -11.39 -11.84 M-11.39 -11.84 C-8.84 -11.66, -6.29 -11.47, -1.6 -11.13 M-11.39 -11.84 C-8.28 -11.62, -5.18 -11.39, -1.6 -11.13 M-1.6 -11.13 C-2.86 -10.16, -4.13 -9.18, -4.89 -8.59 M-1.6 -11.13 C-2.65 -10.32, -3.7 -9.51, -4.89 -8.59 M-4.89 -8.59 C-2.99 -7.32, -1.1 -6.04, 3.33 -3.06 M-4.89 -8.59 C-2.91 -7.26, -0.94 -5.94, 3.33 -3.06 M3.33 -3.06 C2.31 -2.12, 1.29 -1.18, 0 0 M3.33 -3.06 C2.12 -1.95, 0.91 -0.84, 0 0 M0 0 C0 0, 0 0, 0 0 M0 0 C0 0, 0 0, 0 0" stroke="#495057" stroke-width="1" fill="none"></path></g></g><mask></mask><g stroke-linecap="round"><g transform="translate(256.2159905552009 217.3007582609859) rotate(180 -4.0279582733945425 -5.9224186248281185)" fill-rule="evenodd"><path d="M0 0 L-7.79 -6.11 L-11.31 -2.96 L-11.39 -11.84 L-1.6 -11.13 L-4.89 -8.59 L3.33 -3.06 L0 0" stroke="none" stroke-width="0" fill="#495057" fill-rule="evenodd"></path><path d="M0 0 C-3.05 -2.4, -6.11 -4.79, -7.79 -6.11 M0 0 C-1.94 -1.52, -3.88 -3.04, -7.79 -6.11 M-7.79 -6.11 C-8.95 -5.07, -10.11 -4.03, -11.31 -2.96 M-7.79 -6.11 C-8.75 -5.26, -9.71 -4.4, -11.31 -2.96 M-11.31 -2.96 C-11.33 -5.27, -11.35 -7.58, -11.39 -11.84 M-11.31 -2.96 C-11.34 -5.87, -11.36 -8.77, -11.39 -11.84 M-11.39 -11.84 C-7.73 -11.58, -4.07 -11.31, -1.6 -11.13 M-11.39 -11.84 C-7.79 -11.58, -4.19 -11.32, -1.6 -11.13 M-1.6 -11.13 C-2.4 -10.51, -3.2 -9.9, -4.89 -8.59 M-1.6 -11.13 C-2.54 -10.4, -3.49 -9.68, -4.89 -8.59 M-4.89 -8.59 C-2.78 -7.17, -0.66 -5.75, 3.33 -3.06 M-4.89 -8.59 C-2.17 -6.76, 0.55 -4.93, 3.33 -3.06 M3.33 -3.06 C2.15 -1.98, 0.97 -0.89, 0 0 M3.33 -3.06 C2.61 -2.4, 1.89 -1.73, 0 0 M0 0 C0 0, 0 0, 0 0 M0 0 C0 0, 0 0, 0 0" stroke="#495057" stroke-width="1" fill="none"></path></g></g><mask></mask><g stroke-linecap="round"><g transform="translate(270.5908411969678 208.17386896462637) rotate(180 -4.027958273394541 -5.9224186248281185)" fill-rule="evenodd"><path d="M0 0 L-7.79 -6.11 L-11.31 -2.96 L-11.39 -11.84 L-1.6 -11.13 L-4.89 -8.59 L3.33 -3.06 L0 0" stroke="none" stroke-width="0" fill="#495057" fill-rule="evenodd"></path><path d="M0 0 C-1.71 -1.34, -3.42 -2.68, -7.79 -6.11 M0 0 C-2.78 -2.18, -5.56 -4.36, -7.79 -6.11 M-7.79 -6.11 C-8.51 -5.47, -9.22 -4.83, -11.31 -2.96 M-7.79 -6.11 C-8.79 -5.22, -9.79 -4.33, -11.31 -2.96 M-11.31 -2.96 C-11.33 -5.69, -11.36 -8.42, -11.39 -11.84 M-11.31 -2.96 C-11.34 -5.93, -11.36 -8.9, -11.39 -11.84 M-11.39 -11.84 C-8.77 -11.65, -6.16 -11.46, -1.6 -11.13 M-11.39 -11.84 C-7.61 -11.57, -3.83 -11.29, -1.6 -11.13 M-1.6 -11.13 C-2.88 -10.14, -4.16 -9.15, -4.89 -8.59 M-1.6 -11.13 C-2.3 -10.59, -3 -10.05, -4.89 -8.59 M-4.89 -8.59 C-2.51 -6.99, -0.13 -5.39, 3.33 -3.06 M-4.89 -8.59 C-3.2 -7.45, -1.5 -6.31, 3.33 -3.06 M3.33 -3.06 C2.26 -2.08, 1.19 -1.09, 0 0 M3.33 -3.06 C2.06 -1.89, 0.79 -0.73, 0 0 M0 0 C0 0, 0 0, 0 0 M0 0 C0 0, 0 0, 0 0" stroke="#495057" stroke-width="1" fill="none"></path></g></g><mask></mask><g stroke-linecap="round" transform="translate(605.5662968654482 10) rotate(0 39.59595713157225 43.81102705309049)"><path d="M79.19 43.81 C79.19 45.89, 79.06 47.99, 78.79 50.05 C78.52 52.1, 78.12 54.16, 77.59 56.15 C77.06 58.15, 76.39 60.12, 75.61 62.01 C74.83 63.9, 73.92 65.75, 72.91 67.5 C71.89 69.25, 70.75 70.93, 69.52 72.5 C68.29 74.07, 66.95 75.56, 65.53 76.92 C64.11 78.28, 62.58 79.54, 61 80.67 C59.42 81.79, 57.75 82.8, 56.04 83.66 C54.34 84.53, 52.55 85.26, 50.75 85.85 C48.95 86.43, 47.09 86.88, 45.23 87.18 C43.37 87.47, 41.47 87.62, 39.6 87.62 C37.72 87.62, 35.82 87.47, 33.96 87.18 C32.1 86.88, 30.24 86.43, 28.44 85.85 C26.64 85.26, 24.86 84.53, 23.15 83.66 C21.44 82.8, 19.77 81.79, 18.19 80.67 C16.61 79.54, 15.09 78.28, 13.67 76.92 C12.25 75.56, 10.9 74.07, 9.67 72.5 C8.44 70.93, 7.3 69.25, 6.29 67.5 C5.27 65.75, 4.36 63.9, 3.58 62.01 C2.8 60.12, 2.13 58.15, 1.6 56.15 C1.07 54.16, 0.67 52.1, 0.4 50.05 C0.14 47.99, 0 45.89, 0 43.81 C0 41.73, 0.14 39.63, 0.4 37.58 C0.67 35.52, 1.07 33.46, 1.6 31.47 C2.13 29.47, 2.8 27.5, 3.58 25.61 C4.36 23.72, 5.27 21.87, 6.29 20.12 C7.3 18.38, 8.44 16.69, 9.67 15.12 C10.9 13.55, 12.25 12.06, 13.67 10.7 C15.09 9.34, 16.61 8.08, 18.19 6.95 C19.77 5.83, 21.44 4.82, 23.15 3.96 C24.86 3.1, 26.64 2.36, 28.44 1.77 C30.24 1.19, 32.1 0.74, 33.96 0.45 C35.82 0.15, 37.72 0, 39.6 0 C41.47 0, 43.37 0.15, 45.23 0.45 C47.09 0.74, 48.95 1.19, 50.75 1.77 C52.55 2.36, 54.34 3.1, 56.04 3.96 C57.75 4.82, 59.42 5.83, 61 6.95 C62.58 8.08, 64.11 9.34, 65.53 10.7 C66.95 12.06, 68.29 13.55, 69.52 15.12 C70.75 16.69, 71.89 18.38, 72.91 20.12 C73.92 21.87, 74.83 23.72, 75.61 25.61 C76.39 27.5, 77.06 29.47, 77.59 31.47 C78.12 33.46, 78.52 35.52, 78.79 37.58 C79.06 39.63, 79.12 42.77, 79.19 43.81 C79.26 44.85, 79.26 42.77, 79.19 43.81" stroke="transparent" stroke-width="1" fill="none"></path></g><g stroke-linecap="round"><g transform="translate(624.3562641074527 60.39352242489758) rotate(0 6.325418160094159 -5.085125448028748)"><path d="M0 0 C0.71 -0.39, 2.88 -2.32, 4.29 -2.34 C5.69 -2.35, 7.09 -0.16, 8.41 -0.1 C9.73 -0.04, 11.51 -0.29, 12.21 -1.97 C12.92 -3.65, 12.58 -8.8, 12.65 -10.17 M0 0 C0.71 -0.39, 2.88 -2.32, 4.29 -2.34 C5.69 -2.35, 7.09 -0.16, 8.41 -0.1 C9.73 -0.04, 11.51 -0.29, 12.21 -1.97 C12.92 -3.65, 12.58 -8.8, 12.65 -10.17" stroke="#495057" stroke-width="1" fill="none"></path></g></g><mask></mask><g stroke-linecap="round"><g transform="translate(658.4960490536901 89.44594177973613) rotate(0 2.3943460250307 -7.222222222222172)"><path d="M0 0 C0.71 -0.5, 2.74 -2.79, 4.26 -3.01 C5.78 -3.23, 7.65 -0.74, 9.14 -1.34 C10.62 -1.93, 15 -4.4, 13.17 -6.59 C11.34 -8.77, 1.74 -13.64, -1.85 -14.44 C-5.44 -15.25, -7.29 -11.93, -8.38 -11.43 M0 0 C0.71 -0.5, 2.74 -2.79, 4.26 -3.01 C5.78 -3.23, 7.65 -0.74, 9.14 -1.34 C10.62 -1.93, 15 -4.4, 13.17 -6.59 C11.34 -8.77, 1.74 -13.64, -1.85 -14.44 C-5.44 -15.25, -7.29 -11.93, -8.38 -11.43" stroke="#495057" stroke-width="1" fill="none"></path></g></g><mask></mask><g stroke-linecap="round"><g transform="translate(601.3374837239585 66.99287273971686) rotate(0 26.725855238896912 7.187088660513162)" fill-rule="evenodd"><path d="M0 0 L0.11 2.94 L39.14 25.66 L52.95 15.72 L53.45 11.24 L14.74 -11.29 L0 0" stroke="none" stroke-width="0" fill="#ced4da" fill-rule="evenodd"></path><path d="M0 0 C0.03 0.79, 0.06 1.59, 0.11 2.94 M0 0 C0.04 0.92, 0.07 1.84, 0.11 2.94 M0.11 2.94 C9.54 8.43, 18.97 13.92, 39.14 25.66 M0.11 2.94 C9.36 8.32, 18.6 13.7, 39.14 25.66 M39.14 25.66 C42.85 22.99, 46.56 20.32, 52.95 15.72 M39.14 25.66 C44.2 22.02, 49.26 18.38, 52.95 15.72 M52.95 15.72 C53.1 14.43, 53.24 13.13, 53.45 11.24 M52.95 15.72 C53.12 14.2, 53.29 12.69, 53.45 11.24 M53.45 11.24 C42.58 4.92, 31.71 -1.41, 14.74 -11.29 M53.45 11.24 C41.5 4.29, 29.56 -2.67, 14.74 -11.29 M14.74 -11.29 C10.7 -8.19, 6.66 -5.1, 0 0 M14.74 -11.29 C10.61 -8.13, 6.48 -4.97, 0 0 M0 0 C0 0, 0 0, 0 0 M0 0 C0 0, 0 0, 0 0" stroke="#495057" stroke-width="2" fill="none"></path></g></g><mask></mask><g stroke-linecap="round"><g transform="translate(601.9136180186574 67.53991262240379) rotate(0 26.36520403704219 11.218710673167152)"><path d="M0 0 C13.68 7.98, 27.35 15.97, 38.44 22.44 M0 0 C8.65 5.05, 17.29 10.09, 38.44 22.44 M38.44 22.44 C41.94 19.5, 45.44 16.56, 52.73 10.45 M38.44 22.44 C42.03 19.43, 45.61 16.42, 52.73 10.45" stroke="#495057" stroke-width="1" fill="none"></path></g></g><mask></mask><g stroke-linecap="round"><g transform="translate(640.48881214948 93.12117091317896) rotate(0 -0.01566291691921151 -1.4976823036322457)"><path d="M0 0 C-0.01 -0.63, -0.01 -1.26, -0.03 -3 M0 0 C-0.01 -0.69, -0.01 -1.38, -0.03 -3" stroke="#495057" stroke-width="1" fill="none"></path></g></g><mask></mask><g stroke-linecap="round"><g transform="translate(615.4830939253056 58.703995749808655) rotate(0 5.832768918170132 10.611107690412837)" fill-rule="evenodd"><path d="M0 0 L-10.46 8.17 L12.4 21.22 L22.12 12.51 L0 0" stroke="none" stroke-width="0" fill="#495057" fill-rule="evenodd"></path><path d="M0 0 C-2.69 2.1, -5.38 4.2, -10.46 8.17 M0 0 C-2.11 1.65, -4.22 3.3, -10.46 8.17 M-10.46 8.17 C-3.66 12.05, 3.14 15.93, 12.4 21.22 M-10.46 8.17 C-3.39 12.2, 3.67 16.24, 12.4 21.22 M12.4 21.22 C15.72 18.24, 19.05 15.26, 22.12 12.51 M12.4 21.22 C15.86 18.12, 19.32 15.02, 22.12 12.51 M22.12 12.51 C15.62 8.83, 9.11 5.15, 0 0 M22.12 12.51 C16.85 9.52, 11.57 6.54, 0 0 M0 0 C0 0, 0 0, 0 0 M0 0 C0 0, 0 0, 0 0" stroke="#495057" stroke-width="1" fill="none"></path></g></g><mask></mask><g stroke-linecap="round"><g transform="translate(638.9636046943801 72.08100714389457) rotate(0 0.4069587940120982 2.578481262354444)" fill-rule="evenodd"><path d="M0 0 L-3.28 3.01 L1.04 5.16 L4.09 2.31 L0 0" stroke="none" stroke-width="0" fill="#495057" fill-rule="evenodd"></path><path d="M0 0 C-0.98 0.9, -1.95 1.79, -3.28 3.01 M0 0 C-1.09 1, -2.19 2.01, -3.28 3.01 M-3.28 3.01 C-2.02 3.64, -0.75 4.27, 1.04 5.16 M-3.28 3.01 C-2.35 3.47, -1.42 3.93, 1.04 5.16 M1.04 5.16 C1.93 4.33, 2.83 3.5, 4.09 2.31 M1.04 5.16 C2.23 4.05, 3.42 2.95, 4.09 2.31 M4.09 2.31 C2.78 1.57, 1.47 0.83, 0 0 M4.09 2.31 C2.71 1.53, 1.32 0.74, 0 0 M0 0 C0 0, 0 0, 0 0 M0 0 C0 0, 0 0, 0 0" stroke="#495057" stroke-width="1" fill="none"></path></g></g><mask></mask><g stroke-linecap="round"><g transform="translate(644.6011885869971 75.10114137208257) rotate(0 -1.9084774475986706 6.135528242220289)" fill-rule="evenodd"><path d="M0 0 L-9.52 8.58 L-3.72 12.27 L5.71 3.72 L0 0" stroke="none" stroke-width="0" fill="#495057" fill-rule="evenodd"></path><path d="M0 0 C-3.55 3.2, -7.1 6.4, -9.52 8.58 M0 0 C-3.22 2.9, -6.43 5.8, -9.52 8.58 M-9.52 8.58 C-7.89 9.62, -6.26 10.66, -3.72 12.27 M-9.52 8.58 C-8.15 9.45, -6.78 10.33, -3.72 12.27 M-3.72 12.27 C-0.23 9.1, 3.26 5.94, 5.71 3.72 M-3.72 12.27 C-0.09 8.98, 3.55 5.68, 5.71 3.72 M5.71 3.72 C3.71 2.42, 1.72 1.12, 0 0 M5.71 3.72 C4.33 2.83, 2.96 1.93, 0 0 M0 0 C0 0, 0 0, 0 0 M0 0 C0 0, 0 0, 0 0" stroke="#495057" stroke-width="1" fill="none"></path></g></g><mask></mask><g stroke-linecap="round"><g transform="translate(649.2888091335494 94.21759999872029) rotate(0 5.162930950246903 -1.9057665578512122)" fill-rule="evenodd"><path d="M0 0 L5.11 2.16 L10.33 -1.92 L10.19 -4.24 L5.99 -5.97 L0 0" stroke="none" stroke-width="0" fill="#ced4da" fill-rule="evenodd"></path><path d="M0 0 C1.65 0.69, 3.29 1.39, 5.11 2.16 M0 0 C1.71 0.72, 3.41 1.44, 5.11 2.16 M5.11 2.16 C6.95 0.72, 8.79 -0.72, 10.33 -1.92 M5.11 2.16 C6.55 1.03, 7.99 -0.09, 10.33 -1.92 M10.33 -1.92 C10.28 -2.68, 10.23 -3.43, 10.19 -4.24 M10.33 -1.92 C10.29 -2.55, 10.25 -3.18, 10.19 -4.24 M10.19 -4.24 C8.94 -4.75, 7.7 -5.26, 5.99 -5.97 M10.19 -4.24 C9.2 -4.65, 8.22 -5.05, 5.99 -5.97 M5.99 -5.97 C4.65 -4.63, 3.3 -3.29, 0 0 M5.99 -5.97 C4.58 -4.56, 3.17 -3.16, 0 0 M0 0 C0 0, 0 0, 0 0 M0 0 C0 0, 0 0, 0 0" stroke="#495057" stroke-width="2" fill="none"></path></g></g><mask></mask><g stroke-linecap="round"><g transform="translate(640.8664746898362 51.6133554912808) rotate(0 12.529719709426956 4.6694953095856135)" fill-rule="evenodd"><path d="M0 0 L0.11 9.42 L12.82 15.94 L24.56 7.62 L25.06 -1.49 L13.58 -6.6 L0 0" stroke="none" stroke-width="0" fill="#ced4da" fill-rule="evenodd"></path><path d="M0 0 C0.03 2.28, 0.06 4.55, 0.11 9.42 M0 0 C0.03 2.23, 0.05 4.46, 0.11 9.42 M0.11 9.42 C3.53 11.17, 6.94 12.92, 12.82 15.94 M0.11 9.42 C4.77 11.81, 9.42 14.19, 12.82 15.94 M12.82 15.94 C16.21 13.53, 19.61 11.13, 24.56 7.62 M12.82 15.94 C16.8 13.12, 20.78 10.3, 24.56 7.62 M24.56 7.62 C24.7 5.06, 24.84 2.51, 25.06 -1.49 M24.56 7.62 C24.71 4.81, 24.87 2, 25.06 -1.49 M25.06 -1.49 C21.91 -2.89, 18.76 -4.29, 13.58 -6.6 M25.06 -1.49 C21.84 -2.92, 18.63 -4.35, 13.58 -6.6 M13.58 -6.6 C9.9 -4.81, 6.22 -3.02, 0 0 M13.58 -6.6 C8.93 -4.34, 4.29 -2.08, 0 0 M0 0 C0 0, 0 0, 0 0 M0 0 C0 0, 0 0, 0 0" stroke="#495057" stroke-width="2" fill="none"></path></g></g><mask></mask><g stroke-linecap="round"><g transform="translate(636.9200001259464 11.550447995407467) rotate(0 20.018735744541573 25.7674414394844)" fill-rule="evenodd"><path d="M0 0 C2.64 0.26, 9.72 -0.56, 15.81 1.57 C21.91 3.7, 32.53 8.24, 36.57 12.77 C40.61 17.31, 39.74 24.02, 40.04 28.79 C40.33 33.55, 39.91 37.56, 38.35 41.35 C36.79 45.14, 33.23 50.57, 30.66 51.53 C28.09 52.5, 27.47 52.33, 22.93 47.12 C18.38 41.92, 6.79 27.54, 3.38 20.3 C-0.03 13.07, 2.62 6.48, 2.47 3.71" stroke="none" stroke-width="0" fill="#ced4da" fill-rule="evenodd"></path><path d="M0 0 C2.64 0.26, 9.72 -0.56, 15.81 1.57 C21.91 3.7, 32.53 8.24, 36.57 12.77 C40.61 17.31, 39.74 24.02, 40.04 28.79 C40.33 33.55, 39.91 37.56, 38.35 41.35 C36.79 45.14, 33.23 50.57, 30.66 51.53 C28.09 52.5, 27.47 52.33, 22.93 47.12 C18.38 41.92, 6.79 27.54, 3.38 20.3 C-0.03 13.07, 2.62 6.48, 2.47 3.71 M0 0 C2.64 0.26, 9.72 -0.56, 15.81 1.57 C21.91 3.7, 32.53 8.24, 36.57 12.77 C40.61 17.31, 39.74 24.02, 40.04 28.79 C40.33 33.55, 39.91 37.56, 38.35 41.35 C36.79 45.14, 33.23 50.57, 30.66 51.53 C28.09 52.5, 27.47 52.33, 22.93 47.12 C18.38 41.92, 6.79 27.54, 3.38 20.3 C-0.03 13.07, 2.62 6.48, 2.47 3.71" stroke="#495057" stroke-width="2" fill="none"></path></g></g><mask></mask><g stroke-linecap="round"><g transform="translate(625.7470422594411 37.73434568453513) rotate(0 23.434505703673835 1.1051775550273533)" fill-rule="evenodd"><path d="M0 0 C0.72 2.29, -1.8 9.05, 4.31 13.76 C10.42 18.48, 29.64 27.33, 36.67 28.29 C43.7 29.25, 44.79 25.53, 46.49 19.51 C48.19 13.48, 48.32 -1.82, 46.87 -7.86 C45.42 -13.9, 43.36 -13.7, 37.77 -16.74 C32.18 -19.77, 19.34 -25.34, 13.34 -26.08 C7.35 -26.82, 4.03 -25.5, 1.8 -21.15 C-0.42 -16.81, 0.3 -3.53, 0 0" stroke="none" stroke-width="0" fill="#ced4da" fill-rule="evenodd"></path><path d="M0 0 C0.72 2.29, -1.8 9.05, 4.31 13.76 C10.42 18.48, 29.64 27.33, 36.67 28.29 C43.7 29.25, 44.79 25.53, 46.49 19.51 C48.19 13.48, 48.32 -1.82, 46.87 -7.86 C45.42 -13.9, 43.36 -13.7, 37.77 -16.74 C32.18 -19.77, 19.34 -25.34, 13.34 -26.08 C7.35 -26.82, 4.03 -25.5, 1.8 -21.15 C-0.42 -16.81, 0.3 -3.53, 0 0 M0 0 C0.72 2.29, -1.8 9.05, 4.31 13.76 C10.42 18.48, 29.64 27.33, 36.67 28.29 C43.7 29.25, 44.79 25.53, 46.49 19.51 C48.19 13.48, 48.32 -1.82, 46.87 -7.86 C45.42 -13.9, 43.36 -13.7, 37.77 -16.74 C32.18 -19.77, 19.34 -25.34, 13.34 -26.08 C7.35 -26.82, 4.03 -25.5, 1.8 -21.15 C-0.42 -16.81, 0.3 -3.53, 0 0" stroke="#495057" stroke-width="2" fill="none"></path></g></g><mask></mask><g stroke-linecap="round"><g transform="translate(628.9288604412591 37.288967739301825) rotate(0 19.886363636362603 0.833333333332348)" fill-rule="evenodd"><path d="M0 0 C0.6 1.93, -1.26 7.63, 3.62 11.57 C8.51 15.5, 23.29 22.4, 29.29 23.59 C35.3 24.77, 37.9 23.46, 39.65 18.69 C41.39 13.91, 41.09 0.38, 39.77 -5.08 C38.46 -10.53, 36.5 -11.26, 31.74 -14.07 C26.98 -16.87, 16.25 -21.3, 11.21 -21.92 C6.17 -22.54, 3.38 -21.43, 1.52 -17.78 C-0.35 -14.12, 0.25 -2.96, 0 0" stroke="none" stroke-width="0" fill="#343a40" fill-rule="evenodd"></path><path d="M0 0 C0.6 1.93, -1.26 7.63, 3.62 11.57 C8.51 15.5, 23.29 22.4, 29.29 23.59 C35.3 24.77, 37.9 23.46, 39.65 18.69 C41.39 13.91, 41.09 0.38, 39.77 -5.08 C38.46 -10.53, 36.5 -11.26, 31.74 -14.07 C26.98 -16.87, 16.25 -21.3, 11.21 -21.92 C6.17 -22.54, 3.38 -21.43, 1.52 -17.78 C-0.35 -14.12, 0.25 -2.96, 0 0 M0 0 C0.6 1.93, -1.26 7.63, 3.62 11.57 C8.51 15.5, 23.29 22.4, 29.29 23.59 C35.3 24.77, 37.9 23.46, 39.65 18.69 C41.39 13.91, 41.09 0.38, 39.77 -5.08 C38.46 -10.53, 36.5 -11.26, 31.74 -14.07 C26.98 -16.87, 16.25 -21.3, 11.21 -21.92 C6.17 -22.54, 3.38 -21.43, 1.52 -17.78 C-0.35 -14.12, 0.25 -2.96, 0 0" stroke="#495057" stroke-width="2" fill="none"></path></g></g><mask></mask><g stroke-linecap="round" transform="translate(14.228813141489695 380.2198689778645) rotate(0 39.59595713157225 43.811027053090484)"><path d="M79.19 43.81 C79.19 45.89, 79.06 47.99, 78.79 50.05 C78.52 52.1, 78.12 54.16, 77.59 56.15 C77.06 58.15, 76.39 60.12, 75.61 62.01 C74.83 63.9, 73.92 65.75, 72.91 67.5 C71.89 69.25, 70.75 70.93, 69.52 72.5 C68.29 74.07, 66.95 75.56, 65.53 76.92 C64.11 78.28, 62.58 79.54, 61 80.67 C59.42 81.79, 57.75 82.8, 56.04 83.66 C54.34 84.53, 52.55 85.26, 50.75 85.85 C48.95 86.43, 47.09 86.88, 45.23 87.18 C43.37 87.47, 41.47 87.62, 39.6 87.62 C37.72 87.62, 35.82 87.47, 33.96 87.18 C32.1 86.88, 30.24 86.43, 28.44 85.85 C26.64 85.26, 24.86 84.53, 23.15 83.66 C21.44 82.8, 19.77 81.79, 18.19 80.67 C16.61 79.54, 15.09 78.28, 13.67 76.92 C12.25 75.56, 10.9 74.07, 9.67 72.5 C8.44 70.93, 7.3 69.25, 6.29 67.5 C5.27 65.75, 4.36 63.9, 3.58 62.01 C2.8 60.12, 2.13 58.15, 1.6 56.15 C1.07 54.16, 0.67 52.1, 0.4 50.05 C0.14 47.99, 0 45.89, 0 43.81 C0 41.73, 0.14 39.63, 0.4 37.58 C0.67 35.52, 1.07 33.46, 1.6 31.47 C2.13 29.47, 2.8 27.5, 3.58 25.61 C4.36 23.72, 5.27 21.87, 6.29 20.12 C7.3 18.38, 8.44 16.69, 9.67 15.12 C10.9 13.55, 12.25 12.06, 13.67 10.7 C15.09 9.34, 16.61 8.08, 18.19 6.95 C19.77 5.83, 21.44 4.82, 23.15 3.96 C24.86 3.1, 26.64 2.36, 28.44 1.77 C30.24 1.19, 32.1 0.74, 33.96 0.45 C35.82 0.15, 37.72 0, 39.6 0 C41.47 0, 43.37 0.15, 45.23 0.45 C47.09 0.74, 48.95 1.19, 50.75 1.77 C52.55 2.36, 54.34 3.1, 56.04 3.96 C57.75 4.82, 59.42 5.83, 61 6.95 C62.58 8.08, 64.11 9.34, 65.53 10.7 C66.95 12.06, 68.29 13.55, 69.52 15.12 C70.75 16.69, 71.89 18.38, 72.91 20.12 C73.92 21.87, 74.83 23.72, 75.61 25.61 C76.39 27.5, 77.06 29.47, 77.59 31.47 C78.12 33.46, 78.52 35.52, 78.79 37.58 C79.06 39.63, 79.12 42.77, 79.19 43.81 C79.26 44.85, 79.26 42.77, 79.19 43.81" stroke="transparent" stroke-width="1" fill="none"></path></g><g stroke-linecap="round"><g transform="translate(33.01878038349423 430.6133914027621) rotate(0 6.325418160094159 -5.085125448028748)"><path d="M0 0 C0.71 -0.39, 2.88 -2.32, 4.29 -2.34 C5.69 -2.35, 7.09 -0.16, 8.41 -0.1 C9.73 -0.04, 11.51 -0.29, 12.21 -1.97 C12.92 -3.65, 12.58 -8.8, 12.65 -10.17 M0 0 C0.71 -0.39, 2.88 -2.32, 4.29 -2.34 C5.69 -2.35, 7.09 -0.16, 8.41 -0.1 C9.73 -0.04, 11.51 -0.29, 12.21 -1.97 C12.92 -3.65, 12.58 -8.8, 12.65 -10.17" stroke="#495057" stroke-width="1" fill="none"></path></g></g><mask></mask><g stroke-linecap="round"><g transform="translate(67.15856532973157 459.66581075760064) rotate(0 2.3943460250307 -7.222222222222172)"><path d="M0 0 C0.71 -0.5, 2.74 -2.79, 4.26 -3.01 C5.78 -3.23, 7.65 -0.74, 9.14 -1.34 C10.62 -1.93, 15 -4.4, 13.17 -6.59 C11.34 -8.77, 1.74 -13.64, -1.85 -14.44 C-5.44 -15.25, -7.29 -11.93, -8.38 -11.43 M0 0 C0.71 -0.5, 2.74 -2.79, 4.26 -3.01 C5.78 -3.23, 7.65 -0.74, 9.14 -1.34 C10.62 -1.93, 15 -4.4, 13.17 -6.59 C11.34 -8.77, 1.74 -13.64, -1.85 -14.44 C-5.44 -15.25, -7.29 -11.93, -8.38 -11.43" stroke="#495057" stroke-width="1" fill="none"></path></g></g><mask></mask><g stroke-linecap="round"><g transform="translate(10 437.21274171758137) rotate(0 26.725855238896912 7.1870886605131545)" fill-rule="evenodd"><path d="M0 0 L0.11 2.94 L39.14 25.66 L52.95 15.72 L53.45 11.24 L14.74 -11.29 L0 0" stroke="none" stroke-width="0" fill="#ced4da" fill-rule="evenodd"></path><path d="M0 0 C0.03 0.88, 0.07 1.76, 0.11 2.94 M0 0 C0.03 0.76, 0.06 1.52, 0.11 2.94 M0.11 2.94 C10.01 8.7, 19.9 14.46, 39.14 25.66 M0.11 2.94 C8.97 8.1, 17.82 13.25, 39.14 25.66 M39.14 25.66 C44.18 22.04, 49.21 18.41, 52.95 15.72 M39.14 25.66 C42.01 23.6, 44.88 21.53, 52.95 15.72 M52.95 15.72 C53.15 13.95, 53.35 12.19, 53.45 11.24 M52.95 15.72 C53.08 14.56, 53.21 13.39, 53.45 11.24 M53.45 11.24 C40.43 3.66, 27.41 -3.91, 14.74 -11.29 M53.45 11.24 C40.66 3.79, 27.86 -3.65, 14.74 -11.29 M14.74 -11.29 C11.08 -8.48, 7.42 -5.68, 0 0 M14.74 -11.29 C10.74 -8.22, 6.74 -5.16, 0 0 M0 0 C0 0, 0 0, 0 0 M0 0 C0 0, 0 0, 0 0" stroke="#495057" stroke-width="2" fill="none"></path></g></g><mask></mask><g stroke-linecap="round"><g transform="translate(10.576134294698932 437.7597816002683) rotate(0 26.36520403704219 11.218710673167152)"><path d="M0 0 C14.41 8.41, 28.82 16.82, 38.44 22.44 M0 0 C10.8 6.3, 21.59 12.6, 38.44 22.44 M38.44 22.44 C43.62 18.09, 48.8 13.75, 52.73 10.45 M38.44 22.44 C42.36 19.15, 46.28 15.86, 52.73 10.45" stroke="#495057" stroke-width="1" fill="none"></path></g></g><mask></mask><g stroke-linecap="round"><g transform="translate(49.15132842552157 463.34103989104347) rotate(0 -0.01566291691921151 -1.4976823036322457)"><path d="M0 0 C-0.01 -0.61, -0.01 -1.23, -0.03 -3 M0 0 C-0.01 -0.72, -0.01 -1.43, -0.03 -3" stroke="#495057" stroke-width="1" fill="none"></path></g></g><mask></mask><g stroke-linecap="round"><g transform="translate(24.145610201347154 428.92386472767316) rotate(0 5.832768918170132 10.611107690412837)" fill-rule="evenodd"><path d="M0 0 L-10.46 8.17 L12.4 21.22 L22.12 12.51 L0 0" stroke="none" stroke-width="0" fill="#495057" fill-rule="evenodd"></path><path d="M0 0 C-2.65 2.07, -5.3 4.13, -10.46 8.17 M0 0 C-3.13 2.44, -6.26 4.89, -10.46 8.17 M-10.46 8.17 C-2.73 12.58, 5 16.99, 12.4 21.22 M-10.46 8.17 C-2.55 12.68, 5.35 17.2, 12.4 21.22 M12.4 21.22 C14.37 19.46, 16.34 17.69, 22.12 12.51 M12.4 21.22 C15.37 18.56, 18.34 15.9, 22.12 12.51 M22.12 12.51 C14.51 8.2, 6.89 3.89, 0 0 M22.12 12.51 C16.55 9.35, 10.97 6.2, 0 0 M0 0 C0 0, 0 0, 0 0 M0 0 C0 0, 0 0, 0 0" stroke="#495057" stroke-width="1" fill="none"></path></g></g><mask></mask><g stroke-linecap="round"><g transform="translate(47.62612097042165 442.3008761217591) rotate(0 0.4069587940120982 2.578481262354444)" fill-rule="evenodd"><path d="M0 0 L-3.28 3.01 L1.04 5.16 L4.09 2.31 L0 0" stroke="none" stroke-width="0" fill="#495057" fill-rule="evenodd"></path><path d="M0 0 C-1.07 0.98, -2.14 1.96, -3.28 3.01 M0 0 C-0.84 0.77, -1.67 1.53, -3.28 3.01 M-3.28 3.01 C-1.6 3.84, 0.07 4.68, 1.04 5.16 M-3.28 3.01 C-1.77 3.76, -0.26 4.51, 1.04 5.16 M1.04 5.16 C2.09 4.18, 3.14 3.21, 4.09 2.31 M1.04 5.16 C2.19 4.09, 3.34 3.02, 4.09 2.31 M4.09 2.31 C3.13 1.77, 2.16 1.22, 0 0 M4.09 2.31 C2.96 1.67, 1.82 1.03, 0 0 M0 0 C0 0, 0 0, 0 0 M0 0 C0 0, 0 0, 0 0" stroke="#495057" stroke-width="1" fill="none"></path></g></g><mask></mask><g stroke-linecap="round"><g transform="translate(53.26370486303858 445.3210103499471) rotate(0 -1.9084774475986706 6.135528242220289)" fill-rule="evenodd"><path d="M0 0 L-9.52 8.58 L-3.72 12.27 L5.71 3.72 L0 0" stroke="none" stroke-width="0" fill="#495057" fill-rule="evenodd"></path><path d="M0 0 C-2.46 2.22, -4.92 4.44, -9.52 8.58 M0 0 C-3.71 3.34, -7.41 6.68, -9.52 8.58 M-9.52 8.58 C-8.07 9.5, -6.62 10.43, -3.72 12.27 M-9.52 8.58 C-7.28 10.01, -5.03 11.44, -3.72 12.27 M-3.72 12.27 C-0.72 9.55, 2.28 6.83, 5.71 3.72 M-3.72 12.27 C-0.34 9.2, 3.05 6.13, 5.71 3.72 M5.71 3.72 C3.77 2.46, 1.83 1.19, 0 0 M5.71 3.72 C4.08 2.66, 2.46 1.61, 0 0 M0 0 C0 0, 0 0, 0 0 M0 0 C0 0, 0 0, 0 0" stroke="#495057" stroke-width="1" fill="none"></path></g></g><mask></mask><g stroke-linecap="round"><g transform="translate(57.951325409590936 464.4374689765848) rotate(0 5.162930950246903 -1.9057665578512228)" fill-rule="evenodd"><path d="M0 0 L5.11 2.16 L10.33 -1.92 L10.19 -4.24 L5.99 -5.97 L0 0" stroke="none" stroke-width="0" fill="#ced4da" fill-rule="evenodd"></path><path d="M0 0 C1.59 0.67, 3.18 1.34, 5.11 2.16 M0 0 C1.19 0.5, 2.39 1.01, 5.11 2.16 M5.11 2.16 C6.55 1.03, 7.99 -0.1, 10.33 -1.92 M5.11 2.16 C7.14 0.57, 9.16 -1.01, 10.33 -1.92 M10.33 -1.92 C10.28 -2.65, 10.24 -3.38, 10.19 -4.24 M10.33 -1.92 C10.27 -2.84, 10.22 -3.75, 10.19 -4.24 M10.19 -4.24 C8.86 -4.79, 7.54 -5.33, 5.99 -5.97 M10.19 -4.24 C8.8 -4.81, 7.41 -5.39, 5.99 -5.97 M5.99 -5.97 C4.5 -4.48, 3.01 -3, 0 0 M5.99 -5.97 C4.64 -4.62, 3.29 -3.28, 0 0 M0 0 C0 0, 0 0, 0 0 M0 0 C0 0, 0 0, 0 0" stroke="#495057" stroke-width="2" fill="none"></path></g></g><mask></mask><g stroke-linecap="round"><g transform="translate(49.52899096587771 421.8332244691453) rotate(0 12.529719709426942 4.6694953095856135)" fill-rule="evenodd"><path d="M0 0 L0.11 9.42 L12.82 15.94 L24.56 7.62 L25.06 -1.49 L13.58 -6.6 L0 0" stroke="none" stroke-width="0" fill="#ced4da" fill-rule="evenodd"></path><path d="M0 0 C0.03 2.39, 0.06 4.78, 0.11 9.42 M0 0 C0.03 2.14, 0.05 4.28, 0.11 9.42 M0.11 9.42 C4.75 11.8, 9.38 14.17, 12.82 15.94 M0.11 9.42 C2.75 10.78, 5.39 12.13, 12.82 15.94 M12.82 15.94 C17.45 12.65, 22.09 9.37, 24.56 7.62 M12.82 15.94 C15.87 13.78, 18.92 11.62, 24.56 7.62 M24.56 7.62 C24.73 4.56, 24.9 1.5, 25.06 -1.49 M24.56 7.62 C24.72 4.61, 24.89 1.6, 25.06 -1.49 M25.06 -1.49 C22.21 -2.76, 19.36 -4.03, 13.58 -6.6 M25.06 -1.49 C21.94 -2.87, 18.83 -4.26, 13.58 -6.6 M13.58 -6.6 C8.28 -4.02, 2.99 -1.45, 0 0 M13.58 -6.6 C8.77 -4.26, 3.96 -1.92, 0 0 M0 0 C0 0, 0 0, 0 0 M0 0 C0 0, 0 0, 0 0" stroke="#495057" stroke-width="2" fill="none"></path></g></g><mask></mask><g stroke-linecap="round"><g transform="translate(45.58251640198796 381.770316973272) rotate(0 20.018735744541573 25.767441439484386)" fill-rule="evenodd"><path d="M0 0 C2.64 0.26, 9.72 -0.56, 15.81 1.57 C21.91 3.7, 32.53 8.24, 36.57 12.77 C40.61 17.31, 39.74 24.02, 40.04 28.79 C40.33 33.55, 39.91 37.56, 38.35 41.35 C36.79 45.14, 33.23 50.57, 30.66 51.53 C28.09 52.5, 27.47 52.33, 22.93 47.12 C18.38 41.92, 6.79 27.54, 3.38 20.3 C-0.03 13.07, 2.62 6.48, 2.47 3.71" stroke="none" stroke-width="0" fill="#ced4da" fill-rule="evenodd"></path><path d="M0 0 C2.64 0.26, 9.72 -0.56, 15.81 1.57 C21.91 3.7, 32.53 8.24, 36.57 12.77 C40.61 17.31, 39.74 24.02, 40.04 28.79 C40.33 33.55, 39.91 37.56, 38.35 41.35 C36.79 45.14, 33.23 50.57, 30.66 51.53 C28.09 52.5, 27.47 52.33, 22.93 47.12 C18.38 41.92, 6.79 27.54, 3.38 20.3 C-0.03 13.07, 2.62 6.48, 2.47 3.71 M0 0 C2.64 0.26, 9.72 -0.56, 15.81 1.57 C21.91 3.7, 32.53 8.24, 36.57 12.77 C40.61 17.31, 39.74 24.02, 40.04 28.79 C40.33 33.55, 39.91 37.56, 38.35 41.35 C36.79 45.14, 33.23 50.57, 30.66 51.53 C28.09 52.5, 27.47 52.33, 22.93 47.12 C18.38 41.92, 6.79 27.54, 3.38 20.3 C-0.03 13.07, 2.62 6.48, 2.47 3.71" stroke="#495057" stroke-width="2" fill="none"></path></g></g><mask></mask><g stroke-linecap="round"><g transform="translate(34.409558535482574 407.95421466239964) rotate(0 23.434505703673835 1.1051775550273533)" fill-rule="evenodd"><path d="M0 0 C0.72 2.29, -1.8 9.05, 4.31 13.76 C10.42 18.48, 29.64 27.33, 36.67 28.29 C43.7 29.25, 44.79 25.53, 46.49 19.51 C48.19 13.48, 48.32 -1.82, 46.87 -7.86 C45.42 -13.9, 43.36 -13.7, 37.77 -16.74 C32.18 -19.77, 19.34 -25.34, 13.34 -26.08 C7.35 -26.82, 4.03 -25.5, 1.8 -21.15 C-0.42 -16.81, 0.3 -3.53, 0 0" stroke="none" stroke-width="0" fill="#ced4da" fill-rule="evenodd"></path><path d="M0 0 C0.72 2.29, -1.8 9.05, 4.31 13.76 C10.42 18.48, 29.64 27.33, 36.67 28.29 C43.7 29.25, 44.79 25.53, 46.49 19.51 C48.19 13.48, 48.32 -1.82, 46.87 -7.86 C45.42 -13.9, 43.36 -13.7, 37.77 -16.74 C32.18 -19.77, 19.34 -25.34, 13.34 -26.08 C7.35 -26.82, 4.03 -25.5, 1.8 -21.15 C-0.42 -16.81, 0.3 -3.53, 0 0 M0 0 C0.72 2.29, -1.8 9.05, 4.31 13.76 C10.42 18.48, 29.64 27.33, 36.67 28.29 C43.7 29.25, 44.79 25.53, 46.49 19.51 C48.19 13.48, 48.32 -1.82, 46.87 -7.86 C45.42 -13.9, 43.36 -13.7, 37.77 -16.74 C32.18 -19.77, 19.34 -25.34, 13.34 -26.08 C7.35 -26.82, 4.03 -25.5, 1.8 -21.15 C-0.42 -16.81, 0.3 -3.53, 0 0" stroke="#495057" stroke-width="2" fill="none"></path></g></g><mask></mask><g stroke-linecap="round"><g transform="translate(37.59137671730059 407.50883671716633) rotate(0 19.886363636362603 0.833333333332348)" fill-rule="evenodd"><path d="M0 0 C0.6 1.93, -1.26 7.63, 3.62 11.57 C8.51 15.5, 23.29 22.4, 29.29 23.59 C35.3 24.77, 37.9 23.46, 39.65 18.69 C41.39 13.91, 41.09 0.38, 39.77 -5.08 C38.46 -10.53, 36.5 -11.26, 31.74 -14.07 C26.98 -16.87, 16.25 -21.3, 11.21 -21.92 C6.17 -22.54, 3.38 -21.43, 1.52 -17.78 C-0.35 -14.12, 0.25 -2.96, 0 0" stroke="none" stroke-width="0" fill="#343a40" fill-rule="evenodd"></path><path d="M0 0 C0.6 1.93, -1.26 7.63, 3.62 11.57 C8.51 15.5, 23.29 22.4, 29.29 23.59 C35.3 24.77, 37.9 23.46, 39.65 18.69 C41.39 13.91, 41.09 0.38, 39.77 -5.08 C38.46 -10.53, 36.5 -11.26, 31.74 -14.07 C26.98 -16.87, 16.25 -21.3, 11.21 -21.92 C6.17 -22.54, 3.38 -21.43, 1.52 -17.78 C-0.35 -14.12, 0.25 -2.96, 0 0 M0 0 C0.6 1.93, -1.26 7.63, 3.62 11.57 C8.51 15.5, 23.29 22.4, 29.29 23.59 C35.3 24.77, 37.9 23.46, 39.65 18.69 C41.39 13.91, 41.09 0.38, 39.77 -5.08 C38.46 -10.53, 36.5 -11.26, 31.74 -14.07 C26.98 -16.87, 16.25 -21.3, 11.21 -21.92 C6.17 -22.54, 3.38 -21.43, 1.52 -17.78 C-0.35 -14.12, 0.25 -2.96, 0 0" stroke="#495057" stroke-width="2" fill="none"></path></g></g><mask></mask><g stroke-linecap="round" transform="translate(229.260632802948 381.2341105143229) rotate(0 39.59595713157225 43.811027053090484)"><path d="M79.19 43.81 C79.19 45.89, 79.06 47.99, 78.79 50.05 C78.52 52.1, 78.12 54.16, 77.59 56.15 C77.06 58.15, 76.39 60.12, 75.61 62.01 C74.83 63.9, 73.92 65.75, 72.91 67.5 C71.89 69.25, 70.75 70.93, 69.52 72.5 C68.29 74.07, 66.95 75.56, 65.53 76.92 C64.11 78.28, 62.58 79.54, 61 80.67 C59.42 81.79, 57.75 82.8, 56.04 83.66 C54.34 84.53, 52.55 85.26, 50.75 85.85 C48.95 86.43, 47.09 86.88, 45.23 87.18 C43.37 87.47, 41.47 87.62, 39.6 87.62 C37.72 87.62, 35.82 87.47, 33.96 87.18 C32.1 86.88, 30.24 86.43, 28.44 85.85 C26.64 85.26, 24.86 84.53, 23.15 83.66 C21.44 82.8, 19.77 81.79, 18.19 80.67 C16.61 79.54, 15.09 78.28, 13.67 76.92 C12.25 75.56, 10.9 74.07, 9.67 72.5 C8.44 70.93, 7.3 69.25, 6.29 67.5 C5.27 65.75, 4.36 63.9, 3.58 62.01 C2.8 60.12, 2.13 58.15, 1.6 56.15 C1.07 54.16, 0.67 52.1, 0.4 50.05 C0.14 47.99, 0 45.89, 0 43.81 C0 41.73, 0.14 39.63, 0.4 37.58 C0.67 35.52, 1.07 33.46, 1.6 31.47 C2.13 29.47, 2.8 27.5, 3.58 25.61 C4.36 23.72, 5.27 21.87, 6.29 20.12 C7.3 18.38, 8.44 16.69, 9.67 15.12 C10.9 13.55, 12.25 12.06, 13.67 10.7 C15.09 9.34, 16.61 8.08, 18.19 6.95 C19.77 5.83, 21.44 4.82, 23.15 3.96 C24.86 3.1, 26.64 2.36, 28.44 1.77 C30.24 1.19, 32.1 0.74, 33.96 0.45 C35.82 0.15, 37.72 0, 39.6 0 C41.47 0, 43.37 0.15, 45.23 0.45 C47.09 0.74, 48.95 1.19, 50.75 1.77 C52.55 2.36, 54.34 3.1, 56.04 3.96 C57.75 4.82, 59.42 5.83, 61 6.95 C62.58 8.08, 64.11 9.34, 65.53 10.7 C66.95 12.06, 68.29 13.55, 69.52 15.12 C70.75 16.69, 71.89 18.38, 72.91 20.12 C73.92 21.87, 74.83 23.72, 75.61 25.61 C76.39 27.5, 77.06 29.47, 77.59 31.47 C78.12 33.46, 78.52 35.52, 78.79 37.58 C79.06 39.63, 79.12 42.77, 79.19 43.81 C79.26 44.85, 79.26 42.77, 79.19 43.81" stroke="transparent" stroke-width="1" fill="none"></path></g><g stroke-linecap="round"><g transform="translate(248.05060004495255 431.62763293922046) rotate(0 6.325418160094159 -5.085125448028748)"><path d="M0 0 C0.71 -0.39, 2.88 -2.32, 4.29 -2.34 C5.69 -2.35, 7.09 -0.16, 8.41 -0.1 C9.73 -0.04, 11.51 -0.29, 12.21 -1.97 C12.92 -3.65, 12.58 -8.8, 12.65 -10.17 M0 0 C0.71 -0.39, 2.88 -2.32, 4.29 -2.34 C5.69 -2.35, 7.09 -0.16, 8.41 -0.1 C9.73 -0.04, 11.51 -0.29, 12.21 -1.97 C12.92 -3.65, 12.58 -8.8, 12.65 -10.17" stroke="#495057" stroke-width="1" fill="none"></path></g></g><mask></mask><g stroke-linecap="round"><g transform="translate(282.1903849911899 460.680052294059) rotate(0 2.3943460250307 -7.222222222222172)"><path d="M0 0 C0.71 -0.5, 2.74 -2.79, 4.26 -3.01 C5.78 -3.23, 7.65 -0.74, 9.14 -1.34 C10.62 -1.93, 15 -4.4, 13.17 -6.59 C11.34 -8.77, 1.74 -13.64, -1.85 -14.44 C-5.44 -15.25, -7.29 -11.93, -8.38 -11.43 M0 0 C0.71 -0.5, 2.74 -2.79, 4.26 -3.01 C5.78 -3.23, 7.65 -0.74, 9.14 -1.34 C10.62 -1.93, 15 -4.4, 13.17 -6.59 C11.34 -8.77, 1.74 -13.64, -1.85 -14.44 C-5.44 -15.25, -7.29 -11.93, -8.38 -11.43" stroke="#495057" stroke-width="1" fill="none"></path></g></g><mask></mask><g stroke-linecap="round"><g transform="translate(225.03181966145831 438.22698325403974) rotate(0 26.725855238896912 7.1870886605131545)" fill-rule="evenodd"><path d="M0 0 L0.11 2.94 L39.14 25.66 L52.95 15.72 L53.45 11.24 L14.74 -11.29 L0 0" stroke="none" stroke-width="0" fill="#ced4da" fill-rule="evenodd"></path><path d="M0 0 C0.02 0.63, 0.05 1.27, 0.11 2.94 M0 0 C0.03 0.73, 0.06 1.46, 0.11 2.94 M0.11 2.94 C12.62 10.22, 25.13 17.5, 39.14 25.66 M0.11 2.94 C12.97 10.43, 25.83 17.91, 39.14 25.66 M39.14 25.66 C44.02 22.15, 48.9 18.64, 52.95 15.72 M39.14 25.66 C42.21 23.45, 45.28 21.25, 52.95 15.72 M52.95 15.72 C53.07 14.64, 53.19 13.55, 53.45 11.24 M52.95 15.72 C53.12 14.18, 53.29 12.65, 53.45 11.24 M53.45 11.24 C42.22 4.71, 30.99 -1.83, 14.74 -11.29 M53.45 11.24 C40.23 3.55, 27.01 -4.15, 14.74 -11.29 M14.74 -11.29 C10.5 -8.04, 6.26 -4.8, 0 0 M14.74 -11.29 C9.84 -7.54, 4.94 -3.78, 0 0 M0 0 C0 0, 0 0, 0 0 M0 0 C0 0, 0 0, 0 0" stroke="#495057" stroke-width="2" fill="none"></path></g></g><mask></mask><g stroke-linecap="round"><g transform="translate(225.60795395615725 438.77402313672667) rotate(0 26.36520403704219 11.218710673167152)"><path d="M0 0 C8.11 4.74, 16.23 9.47, 38.44 22.44 M0 0 C9.86 5.76, 19.73 11.51, 38.44 22.44 M38.44 22.44 C43.28 18.38, 48.11 14.32, 52.73 10.45 M38.44 22.44 C42.89 18.71, 47.33 14.98, 52.73 10.45" stroke="#495057" stroke-width="1" fill="none"></path></g></g><mask></mask><g stroke-linecap="round"><g transform="translate(264.1831480869799 464.35528142750184) rotate(0 -0.01566291691921151 -1.4976823036322457)"><path d="M0 0 C-0.01 -1.04, -0.02 -2.08, -0.03 -3 M0 0 C-0.01 -0.6, -0.01 -1.21, -0.03 -3" stroke="#495057" stroke-width="1" fill="none"></path></g></g><mask></mask><g stroke-linecap="round"><g transform="translate(239.17742986280547 429.93810626413153) rotate(0 5.832768918170132 10.611107690412837)" fill-rule="evenodd"><path d="M0 0 L-10.46 8.17 L12.4 21.22 L22.12 12.51 L0 0" stroke="none" stroke-width="0" fill="#495057" fill-rule="evenodd"></path><path d="M0 0 C-3.65 2.85, -7.31 5.7, -10.46 8.17 M0 0 C-3.56 2.78, -7.12 5.56, -10.46 8.17 M-10.46 8.17 C-4.72 11.45, 1.03 14.73, 12.4 21.22 M-10.46 8.17 C-5 11.28, 0.46 14.4, 12.4 21.22 M12.4 21.22 C14.94 18.94, 17.49 16.66, 22.12 12.51 M12.4 21.22 C14.85 19.03, 17.29 16.84, 22.12 12.51 M22.12 12.51 C16.65 9.41, 11.18 6.32, 0 0 M22.12 12.51 C14.78 8.36, 7.44 4.2, 0 0 M0 0 C0 0, 0 0, 0 0 M0 0 C0 0, 0 0, 0 0" stroke="#495057" stroke-width="1" fill="none"></path></g></g><mask></mask><g stroke-linecap="round"><g transform="translate(262.65794063187997 443.31511765821745) rotate(0 0.4069587940120982 2.578481262354444)" fill-rule="evenodd"><path d="M0 0 L-3.28 3.01 L1.04 5.16 L4.09 2.31 L0 0" stroke="none" stroke-width="0" fill="#495057" fill-rule="evenodd"></path><path d="M0 0 C-1.18 1.09, -2.37 2.17, -3.28 3.01 M0 0 C-0.89 0.82, -1.79 1.64, -3.28 3.01 M-3.28 3.01 C-1.91 3.69, -0.53 4.38, 1.04 5.16 M-3.28 3.01 C-1.74 3.77, -0.21 4.54, 1.04 5.16 M1.04 5.16 C1.95 4.31, 2.86 3.47, 4.09 2.31 M1.04 5.16 C2.14 4.13, 3.24 3.11, 4.09 2.31 M4.09 2.31 C2.96 1.67, 1.83 1.04, 0 0 M4.09 2.31 C2.51 1.42, 0.93 0.52, 0 0 M0 0 C0 0, 0 0, 0 0 M0 0 C0 0, 0 0, 0 0" stroke="#495057" stroke-width="1" fill="none"></path></g></g><mask></mask><g stroke-linecap="round"><g transform="translate(268.2955245244969 446.33525188640544) rotate(0 -1.9084774475986706 6.135528242220289)" fill-rule="evenodd"><path d="M0 0 L-9.52 8.58 L-3.72 12.27 L5.71 3.72 L0 0" stroke="none" stroke-width="0" fill="#495057" fill-rule="evenodd"></path><path d="M0 0 C-2.82 2.55, -5.65 5.09, -9.52 8.58 M0 0 C-2.16 1.95, -4.33 3.9, -9.52 8.58 M-9.52 8.58 C-7.51 9.86, -5.49 11.15, -3.72 12.27 M-9.52 8.58 C-8.34 9.33, -7.16 10.08, -3.72 12.27 M-3.72 12.27 C-0.95 9.76, 1.82 7.24, 5.71 3.72 M-3.72 12.27 C-0.15 9.03, 3.42 5.79, 5.71 3.72 M5.71 3.72 C4.06 2.65, 2.4 1.57, 0 0 M5.71 3.72 C4.08 2.66, 2.44 1.6, 0 0 M0 0 C0 0, 0 0, 0 0 M0 0 C0 0, 0 0, 0 0" stroke="#495057" stroke-width="1" fill="none"></path></g></g><mask></mask><g stroke-linecap="round"><g transform="translate(272.98314507104925 465.45171051304317) rotate(0 5.162930950246903 -1.9057665578512228)" fill-rule="evenodd"><path d="M0 0 L5.11 2.16 L10.33 -1.92 L10.19 -4.24 L5.99 -5.97 L0 0" stroke="none" stroke-width="0" fill="#ced4da" fill-rule="evenodd"></path><path d="M0 0 C1.55 0.65, 3.1 1.31, 5.11 2.16 M0 0 C1.32 0.56, 2.64 1.11, 5.11 2.16 M5.11 2.16 C7.08 0.61, 9.05 -0.93, 10.33 -1.92 M5.11 2.16 C6.82 0.82, 8.54 -0.52, 10.33 -1.92 M10.33 -1.92 C10.29 -2.59, 10.24 -3.26, 10.19 -4.24 M10.33 -1.92 C10.29 -2.59, 10.25 -3.25, 10.19 -4.24 M10.19 -4.24 C8.79 -4.82, 7.4 -5.39, 5.99 -5.97 M10.19 -4.24 C9.01 -4.73, 7.83 -5.21, 5.99 -5.97 M5.99 -5.97 C4.6 -4.58, 3.21 -3.2, 0 0 M5.99 -5.97 C3.98 -3.96, 1.96 -1.96, 0 0 M0 0 C0 0, 0 0, 0 0 M0 0 C0 0, 0 0, 0 0" stroke="#495057" stroke-width="2" fill="none"></path></g></g><mask></mask><g stroke-linecap="round"><g transform="translate(264.560810627336 422.8474660056037) rotate(0 12.529719709426942 4.6694953095856135)" fill-rule="evenodd"><path d="M0 0 L0.11 9.42 L12.82 15.94 L24.56 7.62 L25.06 -1.49 L13.58 -6.6 L0 0" stroke="none" stroke-width="0" fill="#ced4da" fill-rule="evenodd"></path><path d="M0 0 C0.04 3.02, 0.07 6.04, 0.11 9.42 M0 0 C0.04 3.1, 0.08 6.21, 0.11 9.42 M0.11 9.42 C4.6 11.72, 9.09 14.02, 12.82 15.94 M0.11 9.42 C2.94 10.87, 5.76 12.32, 12.82 15.94 M12.82 15.94 C15.66 13.92, 18.51 11.91, 24.56 7.62 M12.82 15.94 C16.85 13.08, 20.87 10.23, 24.56 7.62 M24.56 7.62 C24.7 4.98, 24.85 2.34, 25.06 -1.49 M24.56 7.62 C24.73 4.51, 24.9 1.4, 25.06 -1.49 M25.06 -1.49 C21.76 -2.96, 18.46 -4.43, 13.58 -6.6 M25.06 -1.49 C21.24 -3.19, 17.43 -4.88, 13.58 -6.6 M13.58 -6.6 C9.1 -4.42, 4.62 -2.24, 0 0 M13.58 -6.6 C10.44 -5.07, 7.3 -3.55, 0 0 M0 0 C0 0, 0 0, 0 0 M0 0 C0 0, 0 0, 0 0" stroke="#495057" stroke-width="2" fill="none"></path></g></g><mask></mask><g stroke-linecap="round"><g transform="translate(260.6143360634463 382.78455850973035) rotate(0 20.018735744541573 25.767441439484386)" fill-rule="evenodd"><path d="M0 0 C2.64 0.26, 9.72 -0.56, 15.81 1.57 C21.91 3.7, 32.53 8.24, 36.57 12.77 C40.61 17.31, 39.74 24.02, 40.04 28.79 C40.33 33.55, 39.91 37.56, 38.35 41.35 C36.79 45.14, 33.23 50.57, 30.66 51.53 C28.09 52.5, 27.47 52.33, 22.93 47.12 C18.38 41.92, 6.79 27.54, 3.38 20.3 C-0.03 13.07, 2.62 6.48, 2.47 3.71" stroke="none" stroke-width="0" fill="#ced4da" fill-rule="evenodd"></path><path d="M0 0 C2.64 0.26, 9.72 -0.56, 15.81 1.57 C21.91 3.7, 32.53 8.24, 36.57 12.77 C40.61 17.31, 39.74 24.02, 40.04 28.79 C40.33 33.55, 39.91 37.56, 38.35 41.35 C36.79 45.14, 33.23 50.57, 30.66 51.53 C28.09 52.5, 27.47 52.33, 22.93 47.12 C18.38 41.92, 6.79 27.54, 3.38 20.3 C-0.03 13.07, 2.62 6.48, 2.47 3.71 M0 0 C2.64 0.26, 9.72 -0.56, 15.81 1.57 C21.91 3.7, 32.53 8.24, 36.57 12.77 C40.61 17.31, 39.74 24.02, 40.04 28.79 C40.33 33.55, 39.91 37.56, 38.35 41.35 C36.79 45.14, 33.23 50.57, 30.66 51.53 C28.09 52.5, 27.47 52.33, 22.93 47.12 C18.38 41.92, 6.79 27.54, 3.38 20.3 C-0.03 13.07, 2.62 6.48, 2.47 3.71" stroke="#495057" stroke-width="2" fill="none"></path></g></g><mask></mask><g stroke-linecap="round"><g transform="translate(249.4413781969409 408.968456198858) rotate(0 23.434505703673835 1.1051775550273533)" fill-rule="evenodd"><path d="M0 0 C0.72 2.29, -1.8 9.05, 4.31 13.76 C10.42 18.48, 29.64 27.33, 36.67 28.29 C43.7 29.25, 44.79 25.53, 46.49 19.51 C48.19 13.48, 48.32 -1.82, 46.87 -7.86 C45.42 -13.9, 43.36 -13.7, 37.77 -16.74 C32.18 -19.77, 19.34 -25.34, 13.34 -26.08 C7.35 -26.82, 4.03 -25.5, 1.8 -21.15 C-0.42 -16.81, 0.3 -3.53, 0 0" stroke="none" stroke-width="0" fill="#ced4da" fill-rule="evenodd"></path><path d="M0 0 C0.72 2.29, -1.8 9.05, 4.31 13.76 C10.42 18.48, 29.64 27.33, 36.67 28.29 C43.7 29.25, 44.79 25.53, 46.49 19.51 C48.19 13.48, 48.32 -1.82, 46.87 -7.86 C45.42 -13.9, 43.36 -13.7, 37.77 -16.74 C32.18 -19.77, 19.34 -25.34, 13.34 -26.08 C7.35 -26.82, 4.03 -25.5, 1.8 -21.15 C-0.42 -16.81, 0.3 -3.53, 0 0 M0 0 C0.72 2.29, -1.8 9.05, 4.31 13.76 C10.42 18.48, 29.64 27.33, 36.67 28.29 C43.7 29.25, 44.79 25.53, 46.49 19.51 C48.19 13.48, 48.32 -1.82, 46.87 -7.86 C45.42 -13.9, 43.36 -13.7, 37.77 -16.74 C32.18 -19.77, 19.34 -25.34, 13.34 -26.08 C7.35 -26.82, 4.03 -25.5, 1.8 -21.15 C-0.42 -16.81, 0.3 -3.53, 0 0" stroke="#495057" stroke-width="2" fill="none"></path></g></g><mask></mask><g stroke-linecap="round"><g transform="translate(252.6231963787589 408.5230782536247) rotate(0 19.886363636362603 0.833333333332348)" fill-rule="evenodd"><path d="M0 0 C0.6 1.93, -1.26 7.63, 3.62 11.57 C8.51 15.5, 23.29 22.4, 29.29 23.59 C35.3 24.77, 37.9 23.46, 39.65 18.69 C41.39 13.91, 41.09 0.38, 39.77 -5.08 C38.46 -10.53, 36.5 -11.26, 31.74 -14.07 C26.98 -16.87, 16.25 -21.3, 11.21 -21.92 C6.17 -22.54, 3.38 -21.43, 1.52 -17.78 C-0.35 -14.12, 0.25 -2.96, 0 0" stroke="none" stroke-width="0" fill="#343a40" fill-rule="evenodd"></path><path d="M0 0 C0.6 1.93, -1.26 7.63, 3.62 11.57 C8.51 15.5, 23.29 22.4, 29.29 23.59 C35.3 24.77, 37.9 23.46, 39.65 18.69 C41.39 13.91, 41.09 0.38, 39.77 -5.08 C38.46 -10.53, 36.5 -11.26, 31.74 -14.07 C26.98 -16.87, 16.25 -21.3, 11.21 -21.92 C6.17 -22.54, 3.38 -21.43, 1.52 -17.78 C-0.35 -14.12, 0.25 -2.96, 0 0 M0 0 C0.6 1.93, -1.26 7.63, 3.62 11.57 C8.51 15.5, 23.29 22.4, 29.29 23.59 C35.3 24.77, 37.9 23.46, 39.65 18.69 C41.39 13.91, 41.09 0.38, 39.77 -5.08 C38.46 -10.53, 36.5 -11.26, 31.74 -14.07 C26.98 -16.87, 16.25 -21.3, 11.21 -21.92 C6.17 -22.54, 3.38 -21.43, 1.52 -17.78 C-0.35 -14.12, 0.25 -2.96, 0 0" stroke="#495057" stroke-width="2" fill="none"></path></g></g><mask></mask><g stroke-linecap="round" transform="translate(425.0207239487814 382.24835205078114) rotate(0 39.59595713157225 43.811027053090484)"><path d="M79.19 43.81 C79.19 45.89, 79.06 47.99, 78.79 50.05 C78.52 52.1, 78.12 54.16, 77.59 56.15 C77.06 58.15, 76.39 60.12, 75.61 62.01 C74.83 63.9, 73.92 65.75, 72.91 67.5 C71.89 69.25, 70.75 70.93, 69.52 72.5 C68.29 74.07, 66.95 75.56, 65.53 76.92 C64.11 78.28, 62.58 79.54, 61 80.67 C59.42 81.79, 57.75 82.8, 56.04 83.66 C54.34 84.53, 52.55 85.26, 50.75 85.85 C48.95 86.43, 47.09 86.88, 45.23 87.18 C43.37 87.47, 41.47 87.62, 39.6 87.62 C37.72 87.62, 35.82 87.47, 33.96 87.18 C32.1 86.88, 30.24 86.43, 28.44 85.85 C26.64 85.26, 24.86 84.53, 23.15 83.66 C21.44 82.8, 19.77 81.79, 18.19 80.67 C16.61 79.54, 15.09 78.28, 13.67 76.92 C12.25 75.56, 10.9 74.07, 9.67 72.5 C8.44 70.93, 7.3 69.25, 6.29 67.5 C5.27 65.75, 4.36 63.9, 3.58 62.01 C2.8 60.12, 2.13 58.15, 1.6 56.15 C1.07 54.16, 0.67 52.1, 0.4 50.05 C0.14 47.99, 0 45.89, 0 43.81 C0 41.73, 0.14 39.63, 0.4 37.58 C0.67 35.52, 1.07 33.46, 1.6 31.47 C2.13 29.47, 2.8 27.5, 3.58 25.61 C4.36 23.72, 5.27 21.87, 6.29 20.12 C7.3 18.38, 8.44 16.69, 9.67 15.12 C10.9 13.55, 12.25 12.06, 13.67 10.7 C15.09 9.34, 16.61 8.08, 18.19 6.95 C19.77 5.83, 21.44 4.82, 23.15 3.96 C24.86 3.1, 26.64 2.36, 28.44 1.77 C30.24 1.19, 32.1 0.74, 33.96 0.45 C35.82 0.15, 37.72 0, 39.6 0 C41.47 0, 43.37 0.15, 45.23 0.45 C47.09 0.74, 48.95 1.19, 50.75 1.77 C52.55 2.36, 54.34 3.1, 56.04 3.96 C57.75 4.82, 59.42 5.83, 61 6.95 C62.58 8.08, 64.11 9.34, 65.53 10.7 C66.95 12.06, 68.29 13.55, 69.52 15.12 C70.75 16.69, 71.89 18.38, 72.91 20.12 C73.92 21.87, 74.83 23.72, 75.61 25.61 C76.39 27.5, 77.06 29.47, 77.59 31.47 C78.12 33.46, 78.52 35.52, 78.79 37.58 C79.06 39.63, 79.12 42.77, 79.19 43.81 C79.26 44.85, 79.26 42.77, 79.19 43.81" stroke="transparent" stroke-width="1" fill="none"></path></g><g stroke-linecap="round"><g transform="translate(443.8106911907859 432.6418744756787) rotate(0 6.325418160094159 -5.085125448028748)"><path d="M0 0 C0.71 -0.39, 2.88 -2.32, 4.29 -2.34 C5.69 -2.35, 7.09 -0.16, 8.41 -0.1 C9.73 -0.04, 11.51 -0.29, 12.21 -1.97 C12.92 -3.65, 12.58 -8.8, 12.65 -10.17 M0 0 C0.71 -0.39, 2.88 -2.32, 4.29 -2.34 C5.69 -2.35, 7.09 -0.16, 8.41 -0.1 C9.73 -0.04, 11.51 -0.29, 12.21 -1.97 C12.92 -3.65, 12.58 -8.8, 12.65 -10.17" stroke="#495057" stroke-width="1" fill="none"></path></g></g><mask></mask><g stroke-linecap="round"><g transform="translate(477.95047613702326 461.69429383051727) rotate(0 2.3943460250307 -7.222222222222172)"><path d="M0 0 C0.71 -0.5, 2.74 -2.79, 4.26 -3.01 C5.78 -3.23, 7.65 -0.74, 9.14 -1.34 C10.62 -1.93, 15 -4.4, 13.17 -6.59 C11.34 -8.77, 1.74 -13.64, -1.85 -14.44 C-5.44 -15.25, -7.29 -11.93, -8.38 -11.43 M0 0 C0.71 -0.5, 2.74 -2.79, 4.26 -3.01 C5.78 -3.23, 7.65 -0.74, 9.14 -1.34 C10.62 -1.93, 15 -4.4, 13.17 -6.59 C11.34 -8.77, 1.74 -13.64, -1.85 -14.44 C-5.44 -15.25, -7.29 -11.93, -8.38 -11.43" stroke="#495057" stroke-width="1" fill="none"></path></g></g><mask></mask><g stroke-linecap="round"><g transform="translate(420.7919108072917 439.241224790498) rotate(0 26.725855238896912 7.1870886605131545)" fill-rule="evenodd"><path d="M0 0 L0.11 2.94 L39.14 25.66 L52.95 15.72 L53.45 11.24 L14.74 -11.29 L0 0" stroke="none" stroke-width="0" fill="#ced4da" fill-rule="evenodd"></path><path d="M0 0 C0.04 1.09, 0.08 2.19, 0.11 2.94 M0 0 C0.04 1.15, 0.09 2.31, 0.11 2.94 M0.11 2.94 C8.22 7.66, 16.32 12.38, 39.14 25.66 M0.11 2.94 C9.56 8.44, 19.01 13.94, 39.14 25.66 M39.14 25.66 C43.08 22.83, 47.02 19.99, 52.95 15.72 M39.14 25.66 C43.85 22.27, 48.55 18.89, 52.95 15.72 M52.95 15.72 C53.08 14.54, 53.22 13.35, 53.45 11.24 M52.95 15.72 C53.12 14.25, 53.28 12.78, 53.45 11.24 M53.45 11.24 C44.81 6.21, 36.16 1.18, 14.74 -11.29 M53.45 11.24 C40.63 3.78, 27.81 -3.68, 14.74 -11.29 M14.74 -11.29 C9.28 -7.11, 3.83 -2.93, 0 0 M14.74 -11.29 C8.85 -6.78, 2.96 -2.26, 0 0 M0 0 C0 0, 0 0, 0 0 M0 0 C0 0, 0 0, 0 0" stroke="#495057" stroke-width="2" fill="none"></path></g></g><mask></mask><g stroke-linecap="round"><g transform="translate(421.3680451019906 439.7882646731849) rotate(0 26.36520403704219 11.218710673167152)"><path d="M0 0 C14.1 8.23, 28.2 16.46, 38.44 22.44 M0 0 C13.11 7.65, 26.23 15.31, 38.44 22.44 M38.44 22.44 C43.25 18.4, 48.06 14.36, 52.73 10.45 M38.44 22.44 C43.64 18.07, 48.84 13.71, 52.73 10.45" stroke="#495057" stroke-width="1" fill="none"></path></g></g><mask></mask><g stroke-linecap="round"><g transform="translate(459.94323923281326 465.3695229639601) rotate(0 -0.01566291691921151 -1.4976823036322457)"><path d="M0 0 C-0.01 -0.94, -0.02 -1.87, -0.03 -3 M0 0 C-0.01 -1.03, -0.02 -2.06, -0.03 -3" stroke="#495057" stroke-width="1" fill="none"></path></g></g><mask></mask><g stroke-linecap="round"><g transform="translate(434.93752100863884 430.9523478005898) rotate(0 5.832768918170132 10.611107690412837)" fill-rule="evenodd"><path d="M0 0 L-10.46 8.17 L12.4 21.22 L22.12 12.51 L0 0" stroke="none" stroke-width="0" fill="#495057" fill-rule="evenodd"></path><path d="M0 0 C-3.57 2.79, -7.15 5.58, -10.46 8.17 M0 0 C-3.4 2.66, -6.81 5.32, -10.46 8.17 M-10.46 8.17 C-4.17 11.76, 2.12 15.35, 12.4 21.22 M-10.46 8.17 C-2.74 12.57, 4.97 16.98, 12.4 21.22 M12.4 21.22 C15.98 18.01, 19.56 14.8, 22.12 12.51 M12.4 21.22 C14.64 19.21, 16.89 17.2, 22.12 12.51 M22.12 12.51 C16.87 9.54, 11.62 6.57, 0 0 M22.12 12.51 C16.32 9.22, 10.51 5.94, 0 0 M0 0 C0 0, 0 0, 0 0 M0 0 C0 0, 0 0, 0 0" stroke="#495057" stroke-width="1" fill="none"></path></g></g><mask></mask><g stroke-linecap="round"><g transform="translate(458.41803177771334 444.3293591946757) rotate(0 0.4069587940120982 2.578481262354444)" fill-rule="evenodd"><path d="M0 0 L-3.28 3.01 L1.04 5.16 L4.09 2.31 L0 0" stroke="none" stroke-width="0" fill="#495057" fill-rule="evenodd"></path><path d="M0 0 C-0.8 0.74, -1.6 1.47, -3.28 3.01 M0 0 C-0.68 0.63, -1.37 1.25, -3.28 3.01 M-3.28 3.01 C-1.89 3.7, -0.49 4.4, 1.04 5.16 M-3.28 3.01 C-1.82 3.74, -0.37 4.46, 1.04 5.16 M1.04 5.16 C1.67 4.57, 2.31 3.98, 4.09 2.31 M1.04 5.16 C1.79 4.46, 2.53 3.77, 4.09 2.31 M4.09 2.31 C3.15 1.78, 2.2 1.24, 0 0 M4.09 2.31 C3.17 1.79, 2.25 1.27, 0 0 M0 0 C0 0, 0 0, 0 0 M0 0 C0 0, 0 0, 0 0" stroke="#495057" stroke-width="1" fill="none"></path></g></g><mask></mask><g stroke-linecap="round"><g transform="translate(464.05561567033027 447.3494934228637) rotate(0 -1.9084774475986706 6.135528242220289)" fill-rule="evenodd"><path d="M0 0 L-9.52 8.58 L-3.72 12.27 L5.71 3.72 L0 0" stroke="none" stroke-width="0" fill="#495057" fill-rule="evenodd"></path><path d="M0 0 C-2.17 1.96, -4.34 3.92, -9.52 8.58 M0 0 C-1.92 1.73, -3.83 3.46, -9.52 8.58 M-9.52 8.58 C-7.43 9.92, -5.33 11.25, -3.72 12.27 M-9.52 8.58 C-7.28 10.01, -5.03 11.44, -3.72 12.27 M-3.72 12.27 C-1.36 10.12, 1.01 7.98, 5.71 3.72 M-3.72 12.27 C-1.15 9.94, 1.43 7.6, 5.71 3.72 M5.71 3.72 C4.49 2.93, 3.28 2.14, 0 0 M5.71 3.72 C4.09 2.67, 2.48 1.62, 0 0 M0 0 C0 0, 0 0, 0 0 M0 0 C0 0, 0 0, 0 0" stroke="#495057" stroke-width="1" fill="none"></path></g></g><mask></mask><g stroke-linecap="round"><g transform="translate(468.7432362168826 466.4659520495014) rotate(0 5.162930950246903 -1.9057665578512228)" fill-rule="evenodd"><path d="M0 0 L5.11 2.16 L10.33 -1.92 L10.19 -4.24 L5.99 -5.97 L0 0" stroke="none" stroke-width="0" fill="#ced4da" fill-rule="evenodd"></path><path d="M0 0 C1.92 0.81, 3.85 1.62, 5.11 2.16 M0 0 C2.01 0.85, 4.02 1.7, 5.11 2.16 M5.11 2.16 C6.53 1.05, 7.95 -0.06, 10.33 -1.92 M5.11 2.16 C6.48 1.08, 7.85 0.01, 10.33 -1.92 M10.33 -1.92 C10.29 -2.59, 10.25 -3.25, 10.19 -4.24 M10.33 -1.92 C10.28 -2.67, 10.24 -3.41, 10.19 -4.24 M10.19 -4.24 C9 -4.73, 7.82 -5.22, 5.99 -5.97 M10.19 -4.24 C8.91 -4.77, 7.64 -5.29, 5.99 -5.97 M5.99 -5.97 C3.62 -3.6, 1.24 -1.24, 0 0 M5.99 -5.97 C4.35 -4.33, 2.7 -2.69, 0 0 M0 0 C0 0, 0 0, 0 0 M0 0 C0 0, 0 0, 0 0" stroke="#495057" stroke-width="2" fill="none"></path></g></g><mask></mask><g stroke-linecap="round"><g transform="translate(460.3209017731694 423.86170754206194) rotate(0 12.529719709426942 4.6694953095856135)" fill-rule="evenodd"><path d="M0 0 L0.11 9.42 L12.82 15.94 L24.56 7.62 L25.06 -1.49 L13.58 -6.6 L0 0" stroke="none" stroke-width="0" fill="#ced4da" fill-rule="evenodd"></path><path d="M0 0 C0.02 1.96, 0.05 3.91, 0.11 9.42 M0 0 C0.03 2.28, 0.06 4.56, 0.11 9.42 M0.11 9.42 C3.74 11.28, 7.36 13.14, 12.82 15.94 M0.11 9.42 C4.44 11.64, 8.77 13.86, 12.82 15.94 M12.82 15.94 C15.93 13.73, 19.04 11.53, 24.56 7.62 M12.82 15.94 C16.67 13.21, 20.52 10.48, 24.56 7.62 M24.56 7.62 C24.67 5.59, 24.78 3.55, 25.06 -1.49 M24.56 7.62 C24.73 4.61, 24.89 1.59, 25.06 -1.49 M25.06 -1.49 C20.81 -3.38, 16.56 -5.27, 13.58 -6.6 M25.06 -1.49 C20.47 -3.53, 15.88 -5.57, 13.58 -6.6 M13.58 -6.6 C10 -4.86, 6.43 -3.12, 0 0 M13.58 -6.6 C10.32 -5.01, 7.06 -3.43, 0 0 M0 0 C0 0, 0 0, 0 0 M0 0 C0 0, 0 0, 0 0" stroke="#495057" stroke-width="2" fill="none"></path></g></g><mask></mask><g stroke-linecap="round"><g transform="translate(456.37442720927965 383.7988000461886) rotate(0 20.018735744541573 25.767441439484386)" fill-rule="evenodd"><path d="M0 0 C2.64 0.26, 9.72 -0.56, 15.81 1.57 C21.91 3.7, 32.53 8.24, 36.57 12.77 C40.61 17.31, 39.74 24.02, 40.04 28.79 C40.33 33.55, 39.91 37.56, 38.35 41.35 C36.79 45.14, 33.23 50.57, 30.66 51.53 C28.09 52.5, 27.47 52.33, 22.93 47.12 C18.38 41.92, 6.79 27.54, 3.38 20.3 C-0.03 13.07, 2.62 6.48, 2.47 3.71" stroke="none" stroke-width="0" fill="#ced4da" fill-rule="evenodd"></path><path d="M0 0 C2.64 0.26, 9.72 -0.56, 15.81 1.57 C21.91 3.7, 32.53 8.24, 36.57 12.77 C40.61 17.31, 39.74 24.02, 40.04 28.79 C40.33 33.55, 39.91 37.56, 38.35 41.35 C36.79 45.14, 33.23 50.57, 30.66 51.53 C28.09 52.5, 27.47 52.33, 22.93 47.12 C18.38 41.92, 6.79 27.54, 3.38 20.3 C-0.03 13.07, 2.62 6.48, 2.47 3.71 M0 0 C2.64 0.26, 9.72 -0.56, 15.81 1.57 C21.91 3.7, 32.53 8.24, 36.57 12.77 C40.61 17.31, 39.74 24.02, 40.04 28.79 C40.33 33.55, 39.91 37.56, 38.35 41.35 C36.79 45.14, 33.23 50.57, 30.66 51.53 C28.09 52.5, 27.47 52.33, 22.93 47.12 C18.38 41.92, 6.79 27.54, 3.38 20.3 C-0.03 13.07, 2.62 6.48, 2.47 3.71" stroke="#495057" stroke-width="2" fill="none"></path></g></g><mask></mask><g stroke-linecap="round"><g transform="translate(445.20146934277426 409.98269773531626) rotate(0 23.434505703673835 1.1051775550273533)" fill-rule="evenodd"><path d="M0 0 C0.72 2.29, -1.8 9.05, 4.31 13.76 C10.42 18.48, 29.64 27.33, 36.67 28.29 C43.7 29.25, 44.79 25.53, 46.49 19.51 C48.19 13.48, 48.32 -1.82, 46.87 -7.86 C45.42 -13.9, 43.36 -13.7, 37.77 -16.74 C32.18 -19.77, 19.34 -25.34, 13.34 -26.08 C7.35 -26.82, 4.03 -25.5, 1.8 -21.15 C-0.42 -16.81, 0.3 -3.53, 0 0" stroke="none" stroke-width="0" fill="#ced4da" fill-rule="evenodd"></path><path d="M0 0 C0.72 2.29, -1.8 9.05, 4.31 13.76 C10.42 18.48, 29.64 27.33, 36.67 28.29 C43.7 29.25, 44.79 25.53, 46.49 19.51 C48.19 13.48, 48.32 -1.82, 46.87 -7.86 C45.42 -13.9, 43.36 -13.7, 37.77 -16.74 C32.18 -19.77, 19.34 -25.34, 13.34 -26.08 C7.35 -26.82, 4.03 -25.5, 1.8 -21.15 C-0.42 -16.81, 0.3 -3.53, 0 0 M0 0 C0.72 2.29, -1.8 9.05, 4.31 13.76 C10.42 18.48, 29.64 27.33, 36.67 28.29 C43.7 29.25, 44.79 25.53, 46.49 19.51 C48.19 13.48, 48.32 -1.82, 46.87 -7.86 C45.42 -13.9, 43.36 -13.7, 37.77 -16.74 C32.18 -19.77, 19.34 -25.34, 13.34 -26.08 C7.35 -26.82, 4.03 -25.5, 1.8 -21.15 C-0.42 -16.81, 0.3 -3.53, 0 0" stroke="#495057" stroke-width="2" fill="none"></path></g></g><mask></mask><g stroke-linecap="round"><g transform="translate(448.3832875245923 409.53731979008296) rotate(0 19.886363636362603 0.833333333332348)" fill-rule="evenodd"><path d="M0 0 C0.6 1.93, -1.26 7.63, 3.62 11.57 C8.51 15.5, 23.29 22.4, 29.29 23.59 C35.3 24.77, 37.9 23.46, 39.65 18.69 C41.39 13.91, 41.09 0.38, 39.77 -5.08 C38.46 -10.53, 36.5 -11.26, 31.74 -14.07 C26.98 -16.87, 16.25 -21.3, 11.21 -21.92 C6.17 -22.54, 3.38 -21.43, 1.52 -17.78 C-0.35 -14.12, 0.25 -2.96, 0 0" stroke="none" stroke-width="0" fill="#343a40" fill-rule="evenodd"></path><path d="M0 0 C0.6 1.93, -1.26 7.63, 3.62 11.57 C8.51 15.5, 23.29 22.4, 29.29 23.59 C35.3 24.77, 37.9 23.46, 39.65 18.69 C41.39 13.91, 41.09 0.38, 39.77 -5.08 C38.46 -10.53, 36.5 -11.26, 31.74 -14.07 C26.98 -16.87, 16.25 -21.3, 11.21 -21.92 C6.17 -22.54, 3.38 -21.43, 1.52 -17.78 C-0.35 -14.12, 0.25 -2.96, 0 0 M0 0 C0.6 1.93, -1.26 7.63, 3.62 11.57 C8.51 15.5, 23.29 22.4, 29.29 23.59 C35.3 24.77, 37.9 23.46, 39.65 18.69 C41.39 13.91, 41.09 0.38, 39.77 -5.08 C38.46 -10.53, 36.5 -11.26, 31.74 -14.07 C26.98 -16.87, 16.25 -21.3, 11.21 -21.92 C6.17 -22.54, 3.38 -21.43, 1.52 -17.78 C-0.35 -14.12, 0.25 -2.96, 0 0" stroke="#495057" stroke-width="2" fill="none"></path></g></g><mask></mask><g stroke-linecap="round"><g transform="translate(76.21585686637968 390.85118818590297) rotate(0 78.60833740234375 -80.12976074218753)"><path d="M0 0 C36.77 -37.49, 73.55 -74.97, 157.22 -160.26 M0 0 C34.95 -35.62, 69.89 -71.25, 157.22 -160.26" stroke="#FFFFFF" stroke-width="2" fill="none"></path></g></g><mask></mask><g stroke-linecap="round"><g transform="translate(274.0045531554422 384.7654134463196) rotate(0 -12.171630859375 -73.02968343098959)"><path d="M0 0 C-8.49 -50.93, -16.98 -101.87, -24.34 -146.06 M0 0 C-9.02 -54.11, -18.04 -108.21, -24.34 -146.06" stroke="#FFFFFF" stroke-width="2" fill="none"></path></g></g><mask></mask><g stroke-linecap="round"><g transform="translate(465.7074340148172 384.7654134463196) rotate(0 -95.34427897135413 -79.62263997395834)"><path d="M0 0 C-38.8 -32.4, -77.59 -64.8, -190.69 -159.25 M0 0 C-72.12 -60.23, -144.24 -120.46, -190.69 -159.25" stroke="#FFFFFF" stroke-width="2" fill="none"></path></g></g><mask></mask><g stroke-linecap="round"><g transform="translate(233.43253167106718 191.03392744371544) rotate(0 -26.878987630208314 -54.26511637369791)"><path d="M0 0 C-12.41 -25.06, -24.83 -50.12, -53.76 -108.53 M0 0 C-16 -32.3, -32 -64.6, -53.76 -108.53" stroke="#FFFFFF" stroke-width="2" fill="none"></path></g></g><mask></mask><g stroke-linecap="round"><g transform="translate(188.80329990023392 69.31780195543422) rotate(0 87.73701985677081 2.535746256510407)"><path d="M0 0 C66.39 1.92, 132.77 3.84, 175.47 5.07 M0 0 C44.04 1.27, 88.09 2.55, 175.47 5.07" stroke="#FFFFFF" stroke-width="2" fill="none"></path></g></g><mask></mask><g stroke-linecap="round"><g transform="translate(268.9330199523172 200.16263024319463) rotate(0 62.88667805989587 -56.80086263020833)"><path d="M0 0 C49.41 -44.63, 98.82 -89.26, 125.77 -113.6 M0 0 C44.62 -40.3, 89.24 -80.6, 125.77 -113.6" stroke="#FFFFFF" stroke-width="2" fill="none"></path></g></g><mask></mask><g stroke-linecap="round"><g transform="translate(437.3069620096089 69.31780195543422) rotate(0 83.67985026041669 0.50714111328125)"><path d="M0 0 C48.52 0.29, 97.05 0.59, 167.36 1.01 M0 0 C52.72 0.32, 105.43 0.64, 167.36 1.01" stroke="#FFFFFF" stroke-width="2" fill="none"></path></g></g><mask></mask></svg>