<svg version="1.1" xmlns="http://www.w3.org/2000/svg" viewBox="0 0 322.92607945515033 286.6923371077682" width="322.92607945515033" height="286.6923371077682" class="excalidraw-svg">
  <!-- svg-source:excalidraw -->
  
  <defs>
    <style class="style-fonts">
      
    </style>
    
  </defs>
  <g stroke-linecap="round" transform="translate(14.683615682499294 41.15361633492074) rotate(0 34.595957131572234 40.26936038642373)"><path d="M69.19 40.27 C69.19 42.37, 69.05 44.49, 68.77 46.57 C68.48 48.64, 68.06 50.72, 67.5 52.71 C66.94 54.71, 66.24 56.68, 65.42 58.55 C64.6 60.42, 63.65 62.24, 62.58 63.94 C61.52 65.64, 60.33 67.26, 59.06 68.74 C57.78 70.23, 56.39 71.61, 54.93 72.85 C53.47 74.08, 51.91 75.2, 50.3 76.15 C48.69 77.1, 47 77.92, 45.29 78.57 C43.57 79.22, 41.79 79.71, 40.01 80.04 C38.23 80.37, 36.4 80.54, 34.6 80.54 C32.79 80.54, 30.97 80.37, 29.18 80.04 C27.4 79.71, 25.62 79.22, 23.91 78.57 C22.19 77.92, 20.5 77.1, 18.89 76.15 C17.28 75.2, 15.72 74.08, 14.26 72.85 C12.8 71.61, 11.41 70.23, 10.13 68.74 C8.86 67.26, 7.67 65.64, 6.61 63.94 C5.55 62.24, 4.59 60.42, 3.77 58.55 C2.95 56.68, 2.25 54.71, 1.69 52.71 C1.14 50.72, 0.71 48.64, 0.43 46.57 C0.14 44.49, 0 42.37, 0 40.27 C0 38.17, 0.14 36.04, 0.43 33.97 C0.71 31.9, 1.14 29.82, 1.69 27.83 C2.25 25.83, 2.95 23.86, 3.77 21.99 C4.59 20.12, 5.55 18.3, 6.61 16.6 C7.67 14.9, 8.86 13.28, 10.13 11.79 C11.41 10.31, 12.8 8.93, 14.26 7.69 C15.72 6.46, 17.28 5.34, 18.89 4.39 C20.5 3.44, 22.19 2.62, 23.91 1.97 C25.62 1.32, 27.4 0.82, 29.18 0.5 C30.97 0.17, 32.79 0, 34.6 0 C36.4 0, 38.23 0.17, 40.01 0.5 C41.79 0.82, 43.57 1.32, 45.29 1.97 C47 2.62, 48.69 3.44, 50.3 4.39 C51.91 5.34, 53.47 6.46, 54.93 7.69 C56.39 8.93, 57.78 10.31, 59.06 11.79 C60.33 13.28, 61.52 14.9, 62.58 16.6 C63.65 18.3, 64.6 20.12, 65.42 21.99 C66.24 23.86, 66.94 25.83, 67.5 27.83 C68.06 29.82, 68.48 31.9, 68.77 33.97 C69.05 36.04, 69.12 39.22, 69.19 40.27 C69.26 41.32, 69.26 39.22, 69.19 40.27" stroke="transparent" stroke-width="1" fill="none"></path></g><g stroke-linecap="round"><g transform="translate(42.71130673440075 82.23866494789507) rotate(0 12.529719709426942 4.6694953095856135)" fill-rule="evenodd"><path d="M0 0 L0.11 9.42 L12.82 15.94 L24.56 7.62 L25.06 -1.49 L13.58 -6.6 L0 0" stroke="none" stroke-width="0" fill="#ced4da" fill-rule="evenodd"></path><path d="M0 0 C0.03 2.42, 0.06 4.84, 0.11 9.42 M0 0 C0.02 2, 0.05 3.99, 0.11 9.42 M0.11 9.42 C4.73 11.79, 9.34 14.15, 12.82 15.94 M0.11 9.42 C3.31 11.06, 6.5 12.7, 12.82 15.94 M12.82 15.94 C17.31 12.75, 21.8 9.57, 24.56 7.62 M12.82 15.94 C17.28 12.77, 21.75 9.61, 24.56 7.62 M24.56 7.62 C24.68 5.4, 24.8 3.19, 25.06 -1.49 M24.56 7.62 C24.75 4.09, 24.95 0.56, 25.06 -1.49 M25.06 -1.49 C22.59 -2.58, 20.13 -3.68, 13.58 -6.6 M25.06 -1.49 C20.64 -3.46, 16.21 -5.43, 13.58 -6.6 M13.58 -6.6 C8.78 -4.27, 3.98 -1.93, 0 0 M13.58 -6.6 C10.73 -5.21, 7.87 -3.82, 0 0 M0 0 C0 0, 0 0, 0 0 M0 0 C0 0, 0 0, 0 0" stroke="#495057" stroke-width="2" fill="none"></path></g></g><mask></mask><g stroke-linecap="round"><g transform="translate(38.764832170511 42.17575745202174) rotate(0 20.018735744541573 25.7674414394844)" fill-rule="evenodd"><path d="M0 0 C2.64 0.26, 9.72 -0.56, 15.81 1.57 C21.91 3.7, 32.53 8.24, 36.57 12.77 C40.61 17.31, 39.74 24.02, 40.04 28.79 C40.33 33.55, 39.91 37.56, 38.35 41.35 C36.79 45.14, 33.23 50.57, 30.66 51.53 C28.09 52.5, 27.47 52.33, 22.93 47.12 C18.38 41.92, 6.79 27.54, 3.38 20.3 C-0.03 13.07, 2.62 6.48, 2.47 3.71" stroke="none" stroke-width="0" fill="#ced4da" fill-rule="evenodd"></path><path d="M0 0 C2.64 0.26, 9.72 -0.56, 15.81 1.57 C21.91 3.7, 32.53 8.24, 36.57 12.77 C40.61 17.31, 39.74 24.02, 40.04 28.79 C40.33 33.55, 39.91 37.56, 38.35 41.35 C36.79 45.14, 33.23 50.57, 30.66 51.53 C28.09 52.5, 27.47 52.33, 22.93 47.12 C18.38 41.92, 6.79 27.54, 3.38 20.3 C-0.03 13.07, 2.62 6.48, 2.47 3.71 M0 0 C2.64 0.26, 9.72 -0.56, 15.81 1.57 C21.91 3.7, 32.53 8.24, 36.57 12.77 C40.61 17.31, 39.74 24.02, 40.04 28.79 C40.33 33.55, 39.91 37.56, 38.35 41.35 C36.79 45.14, 33.23 50.57, 30.66 51.53 C28.09 52.5, 27.47 52.33, 22.93 47.12 C18.38 41.92, 6.79 27.54, 3.38 20.3 C-0.03 13.07, 2.62 6.48, 2.47 3.71" stroke="#495057" stroke-width="2" fill="none"></path></g></g><mask></mask><g stroke-linecap="round"><g transform="translate(27.591874304005614 68.3596551411494) rotate(0 23.434505703673835 1.1051775550273533)" fill-rule="evenodd"><path d="M0 0 C0.72 2.29, -1.8 9.05, 4.31 13.76 C10.42 18.48, 29.64 27.33, 36.67 28.29 C43.7 29.25, 44.79 25.53, 46.49 19.51 C48.19 13.48, 48.32 -1.82, 46.87 -7.86 C45.42 -13.9, 43.36 -13.7, 37.77 -16.74 C32.18 -19.77, 19.34 -25.34, 13.34 -26.08 C7.35 -26.82, 4.03 -25.5, 1.8 -21.15 C-0.42 -16.81, 0.3 -3.53, 0 0" stroke="none" stroke-width="0" fill="#ced4da" fill-rule="evenodd"></path><path d="M0 0 C0.72 2.29, -1.8 9.05, 4.31 13.76 C10.42 18.48, 29.64 27.33, 36.67 28.29 C43.7 29.25, 44.79 25.53, 46.49 19.51 C48.19 13.48, 48.32 -1.82, 46.87 -7.86 C45.42 -13.9, 43.36 -13.7, 37.77 -16.74 C32.18 -19.77, 19.34 -25.34, 13.34 -26.08 C7.35 -26.82, 4.03 -25.5, 1.8 -21.15 C-0.42 -16.81, 0.3 -3.53, 0 0 M0 0 C0.72 2.29, -1.8 9.05, 4.31 13.76 C10.42 18.48, 29.64 27.33, 36.67 28.29 C43.7 29.25, 44.79 25.53, 46.49 19.51 C48.19 13.48, 48.32 -1.82, 46.87 -7.86 C45.42 -13.9, 43.36 -13.7, 37.77 -16.74 C32.18 -19.77, 19.34 -25.34, 13.34 -26.08 C7.35 -26.82, 4.03 -25.5, 1.8 -21.15 C-0.42 -16.81, 0.3 -3.53, 0 0" stroke="#495057" stroke-width="2" fill="none"></path></g></g><mask></mask><g stroke-linecap="round"><g transform="translate(30.77369248582363 67.9142771959161) rotate(0 19.886363636362603 0.833333333332348)" fill-rule="evenodd"><path d="M0 0 C0.6 1.93, -1.26 7.63, 3.62 11.57 C8.51 15.5, 23.29 22.4, 29.29 23.59 C35.3 24.77, 37.9 23.46, 39.65 18.69 C41.39 13.91, 41.09 0.38, 39.77 -5.08 C38.46 -10.53, 36.5 -11.26, 31.74 -14.07 C26.98 -16.87, 16.25 -21.3, 11.21 -21.92 C6.17 -22.54, 3.38 -21.43, 1.52 -17.78 C-0.35 -14.12, 0.25 -2.96, 0 0" stroke="none" stroke-width="0" fill="#343a40" fill-rule="evenodd"></path><path d="M0 0 C0.6 1.93, -1.26 7.63, 3.62 11.57 C8.51 15.5, 23.29 22.4, 29.29 23.59 C35.3 24.77, 37.9 23.46, 39.65 18.69 C41.39 13.91, 41.09 0.38, 39.77 -5.08 C38.46 -10.53, 36.5 -11.26, 31.74 -14.07 C26.98 -16.87, 16.25 -21.3, 11.21 -21.92 C6.17 -22.54, 3.38 -21.43, 1.52 -17.78 C-0.35 -14.12, 0.25 -2.96, 0 0 M0 0 C0.6 1.93, -1.26 7.63, 3.62 11.57 C8.51 15.5, 23.29 22.4, 29.29 23.59 C35.3 24.77, 37.9 23.46, 39.65 18.69 C41.39 13.91, 41.09 0.38, 39.77 -5.08 C38.46 -10.53, 36.5 -11.26, 31.74 -14.07 C26.98 -16.87, 16.25 -21.3, 11.21 -21.92 C6.17 -22.54, 3.38 -21.43, 1.52 -17.78 C-0.35 -14.12, 0.25 -2.96, 0 0" stroke="#495057" stroke-width="2" fill="none"></path></g></g><mask></mask><g stroke-linecap="round"><g transform="translate(10 95.49934313783677) rotate(0 26.725855238896912 7.187088660513162)" fill-rule="evenodd"><path d="M0 0 L0.11 2.94 L39.14 25.66 L52.95 15.72 L53.45 11.24 L14.74 -11.29 L0 0" stroke="none" stroke-width="0" fill="#ced4da" fill-rule="evenodd"></path><path d="M0 0 C0.03 0.89, 0.07 1.78, 0.11 2.94 M0 0 C0.04 0.91, 0.07 1.83, 0.11 2.94 M0.11 2.94 C9.32 8.3, 18.54 13.67, 39.14 25.66 M0.11 2.94 C10.47 8.97, 20.82 15, 39.14 25.66 M39.14 25.66 C43.34 22.64, 47.53 19.62, 52.95 15.72 M39.14 25.66 C42.6 23.18, 46.05 20.69, 52.95 15.72 M52.95 15.72 C53.15 13.98, 53.34 12.23, 53.45 11.24 M52.95 15.72 C53.1 14.42, 53.24 13.11, 53.45 11.24 M53.45 11.24 C44.48 6.02, 35.5 0.8, 14.74 -11.29 M53.45 11.24 C44.78 6.19, 36.11 1.15, 14.74 -11.29 M14.74 -11.29 C10.77 -8.25, 6.81 -5.21, 0 0 M14.74 -11.29 C10.34 -7.92, 5.94 -4.55, 0 0 M0 0 C0 0, 0 0, 0 0 M0 0 C0 0, 0 0, 0 0" stroke="#495057" stroke-width="2" fill="none"></path></g></g><mask></mask><g stroke-linecap="round"><g transform="translate(10.576134294698932 96.0463830205237) rotate(0 26.36520403704219 11.218710673167152)"><path d="M0 0 C8.57 5, 17.15 10.01, 38.44 22.44 M0 0 C10.73 6.26, 21.46 12.52, 38.44 22.44 M38.44 22.44 C43.83 17.92, 49.21 13.4, 52.73 10.45 M38.44 22.44 C41.66 19.73, 44.89 17.03, 52.73 10.45" stroke="#495057" stroke-width="1" fill="none"></path></g></g><mask></mask><g stroke-linecap="round"><g transform="translate(49.15132842552157 121.62764131129887) rotate(0 -0.01566291691921151 -1.4976823036322457)"><path d="M0 0 C-0.01 -1.1, -0.02 -2.19, -0.03 -3 M0 0 C-0.01 -0.86, -0.02 -1.72, -0.03 -3" stroke="#495057" stroke-width="1" fill="none"></path></g></g><mask></mask><g stroke-linecap="round"><g transform="translate(25.00582525511072 87.53304679308957) rotate(0 4.9187904235463975 10.073473281810948)" fill-rule="evenodd"><path d="M0 0 L-10.46 8.17 L10.57 20.15 L20.3 11.43 L0 0" stroke="none" stroke-width="0" fill="#495057" fill-rule="evenodd"></path><path d="M0 0 C-3.8 2.96, -7.59 5.93, -10.46 8.17 M0 0 C-2.63 2.05, -5.25 4.1, -10.46 8.17 M-10.46 8.17 C-2.41 12.75, 5.63 17.33, 10.57 20.15 M-10.46 8.17 C-2.46 12.72, 5.54 17.28, 10.57 20.15 M10.57 20.15 C12.94 18.02, 15.31 15.9, 20.3 11.43 M10.57 20.15 C14.34 16.77, 18.12 13.39, 20.3 11.43 M20.3 11.43 C15.94 8.98, 11.58 6.52, 0 0 M20.3 11.43 C12.47 7.03, 4.65 2.62, 0 0 M0 0 C0 0, 0 0, 0 0 M0 0 C0 0, 0 0, 0 0" stroke="#495057" stroke-width="1" fill="none"></path></g></g><mask></mask><g stroke-linecap="round"><g transform="translate(46.98095968009875 100.26489689685303) rotate(0 0.4069587940120982 2.578481262354444)" fill-rule="evenodd"><path d="M0 0 L-3.28 3.01 L1.04 5.16 L4.09 2.31 L0 0" stroke="none" stroke-width="0" fill="#495057" fill-rule="evenodd"></path><path d="M0 0 C-1.06 0.97, -2.12 1.94, -3.28 3.01 M0 0 C-1.07 0.99, -2.15 1.97, -3.28 3.01 M-3.28 3.01 C-2.09 3.6, -0.89 4.2, 1.04 5.16 M-3.28 3.01 C-1.96 3.67, -0.63 4.33, 1.04 5.16 M1.04 5.16 C2.17 4.11, 3.3 3.06, 4.09 2.31 M1.04 5.16 C1.94 4.32, 2.85 3.48, 4.09 2.31 M4.09 2.31 C2.48 1.4, 0.87 0.49, 0 0 M4.09 2.31 C3.25 1.83, 2.4 1.35, 0 0 M0 0 C0 0, 0 0, 0 0 M0 0 C0 0, 0 0, 0 0" stroke="#495057" stroke-width="1" fill="none"></path></g></g><mask></mask><g stroke-linecap="round"><g transform="translate(53.26370486303858 103.60761177020248) rotate(0 -1.9084774475986706 6.135528242220289)" fill-rule="evenodd"><path d="M0 0 L-9.52 8.58 L-3.72 12.27 L5.71 3.72 L0 0" stroke="none" stroke-width="0" fill="#495057" fill-rule="evenodd"></path><path d="M0 0 C-1.97 1.78, -3.94 3.55, -9.52 8.58 M0 0 C-2.68 2.41, -5.35 4.82, -9.52 8.58 M-9.52 8.58 C-7.8 9.68, -6.07 10.78, -3.72 12.27 M-9.52 8.58 C-7.24 10.04, -4.95 11.49, -3.72 12.27 M-3.72 12.27 C-1 9.8, 1.72 7.34, 5.71 3.72 M-3.72 12.27 C-0.65 9.49, 2.42 6.7, 5.71 3.72 M5.71 3.72 C3.48 2.27, 1.26 0.82, 0 0 M5.71 3.72 C3.75 2.44, 1.79 1.17, 0 0 M0 0 C0 0, 0 0, 0 0 M0 0 C0 0, 0 0, 0 0" stroke="#495057" stroke-width="1" fill="none"></path></g></g><mask></mask><g stroke-linecap="round"><g transform="translate(248.9509478553174 27.647871817808664) rotate(0 30.0224541231974 15.869011465118618)" fill-rule="evenodd"><path d="M0 0 C-0.58 0.53, -2.87 1.92, -3.49 3.19 C-4.12 4.45, -3.78 5.15, -3.74 7.57 C-3.7 9.99, -3.54 15.13, -3.25 17.71 C-2.95 20.29, -2.7 21.47, -1.96 23.04 C-1.22 24.61, -0.1 25.76, 1.2 27.14 C2.49 28.53, 4.09 30.2, 5.8 31.35 C7.51 32.51, 9.42 33.3, 11.45 34.06 C13.49 34.82, 15.25 35.39, 18.01 35.9 C20.78 36.42, 24.75 37, 28.06 37.13 C31.37 37.26, 34.4 37.24, 37.87 36.7 C41.33 36.16, 45.54 35.18, 48.83 33.89 C52.13 32.59, 55.27 30.84, 57.63 28.95 C59.98 27.05, 61.96 24.41, 62.99 22.52 C64.01 20.62, 63.65 20.81, 63.78 17.58 C63.91 14.36, 64.15 6.08, 63.75 3.16 C63.35 0.23, 63.13 0.79, 61.39 0.06 C59.65 -0.67, 61.48 -0.32, 53.31 -1.23 C45.13 -2.13, 21.2 -5.6, 12.32 -5.39 C3.43 -5.19, 2.05 -0.9, 0 0" stroke="none" stroke-width="0" fill="#ced4da" fill-rule="evenodd"></path><path d="M0 0 C-0.58 0.53, -2.87 1.92, -3.49 3.19 C-4.12 4.45, -3.78 5.15, -3.74 7.57 C-3.7 9.99, -3.54 15.13, -3.25 17.71 C-2.95 20.29, -2.7 21.47, -1.96 23.04 C-1.22 24.61, -0.1 25.76, 1.2 27.14 C2.49 28.53, 4.09 30.2, 5.8 31.35 C7.51 32.51, 9.42 33.3, 11.45 34.06 C13.49 34.82, 15.25 35.39, 18.01 35.9 C20.78 36.42, 24.75 37, 28.06 37.13 C31.37 37.26, 34.4 37.24, 37.87 36.7 C41.33 36.16, 45.54 35.18, 48.83 33.89 C52.13 32.59, 55.27 30.84, 57.63 28.95 C59.98 27.05, 61.96 24.41, 62.99 22.52 C64.01 20.62, 63.65 20.81, 63.78 17.58 C63.91 14.36, 64.15 6.08, 63.75 3.16 C63.35 0.23, 63.13 0.79, 61.39 0.06 C59.65 -0.67, 61.48 -0.32, 53.31 -1.23 C45.13 -2.13, 21.2 -5.6, 12.32 -5.39 C3.43 -5.19, 2.05 -0.9, 0 0 M0 0 C-0.58 0.53, -2.87 1.92, -3.49 3.19 C-4.12 4.45, -3.78 5.15, -3.74 7.57 C-3.7 9.99, -3.54 15.13, -3.25 17.71 C-2.95 20.29, -2.7 21.47, -1.96 23.04 C-1.22 24.61, -0.1 25.76, 1.2 27.14 C2.49 28.53, 4.09 30.2, 5.8 31.35 C7.51 32.51, 9.42 33.3, 11.45 34.06 C13.49 34.82, 15.25 35.39, 18.01 35.9 C20.78 36.42, 24.75 37, 28.06 37.13 C31.37 37.26, 34.4 37.24, 37.87 36.7 C41.33 36.16, 45.54 35.18, 48.83 33.89 C52.13 32.59, 55.27 30.84, 57.63 28.95 C59.98 27.05, 61.96 24.41, 62.99 22.52 C64.01 20.62, 63.65 20.81, 63.78 17.58 C63.91 14.36, 64.15 6.08, 63.75 3.16 C63.35 0.23, 63.13 0.79, 61.39 0.06 C59.65 -0.67, 61.48 -0.32, 53.31 -1.23 C45.13 -2.13, 21.2 -5.6, 12.32 -5.39 C3.43 -5.19, 2.05 -0.9, 0 0" stroke="#495057" stroke-width="2" fill="none"></path></g></g><mask></mask><g stroke-linecap="round" transform="translate(244.9494504904934 10) rotate(0 33.98831448232847 21.355489630489487)"><path d="M67.98 21.36 C67.98 22.59, 67.8 23.85, 67.46 25.06 C67.12 26.28, 66.6 27.5, 65.93 28.66 C65.25 29.82, 64.41 30.96, 63.42 32.03 C62.44 33.1, 61.29 34.14, 60.02 35.08 C58.76 36.03, 57.34 36.92, 55.84 37.71 C54.33 38.51, 52.69 39.23, 50.98 39.85 C49.28 40.47, 47.46 41, 45.61 41.42 C43.76 41.85, 41.83 42.17, 39.89 42.39 C37.95 42.6, 35.96 42.71, 33.99 42.71 C32.02 42.71, 30.02 42.6, 28.09 42.39 C26.15 42.17, 24.21 41.85, 22.36 41.42 C20.51 41, 18.7 40.47, 16.99 39.85 C15.29 39.23, 13.65 38.51, 12.14 37.71 C10.63 36.92, 9.22 36.03, 7.95 35.08 C6.69 34.14, 5.54 33.1, 4.55 32.03 C3.57 30.96, 2.72 29.82, 2.05 28.66 C1.38 27.5, 0.86 26.28, 0.52 25.06 C0.17 23.85, 0 22.59, 0 21.36 C0 20.12, 0.17 18.86, 0.52 17.65 C0.86 16.43, 1.38 15.21, 2.05 14.05 C2.72 12.89, 3.57 11.75, 4.55 10.68 C5.54 9.61, 6.69 8.58, 7.95 7.63 C9.22 6.68, 10.63 5.79, 12.14 5 C13.65 4.2, 15.29 3.48, 16.99 2.86 C18.7 2.24, 20.51 1.71, 22.36 1.29 C24.21 0.87, 26.15 0.54, 28.09 0.32 C30.02 0.11, 32.02 0, 33.99 0 C35.96 0, 37.95 0.11, 39.89 0.32 C41.83 0.54, 43.76 0.87, 45.61 1.29 C47.46 1.71, 49.28 2.24, 50.98 2.86 C52.69 3.48, 54.33 4.2, 55.84 5 C57.34 5.79, 58.76 6.68, 60.02 7.63 C61.29 8.58, 62.44 9.61, 63.42 10.68 C64.41 11.75, 65.25 12.89, 65.93 14.05 C66.6 15.21, 67.12 16.43, 67.46 17.65 C67.8 18.86, 67.89 20.74, 67.98 21.36 C68.06 21.97, 68.06 20.74, 67.98 21.36" stroke="none" stroke-width="0" fill="#ced4da"></path><path d="M67.98 21.36 C67.98 22.59, 67.8 23.85, 67.46 25.06 C67.12 26.28, 66.6 27.5, 65.93 28.66 C65.25 29.82, 64.41 30.96, 63.42 32.03 C62.44 33.1, 61.29 34.14, 60.02 35.08 C58.76 36.03, 57.34 36.92, 55.84 37.71 C54.33 38.51, 52.69 39.23, 50.98 39.85 C49.28 40.47, 47.46 41, 45.61 41.42 C43.76 41.85, 41.83 42.17, 39.89 42.39 C37.95 42.6, 35.96 42.71, 33.99 42.71 C32.02 42.71, 30.02 42.6, 28.09 42.39 C26.15 42.17, 24.21 41.85, 22.36 41.42 C20.51 41, 18.7 40.47, 16.99 39.85 C15.29 39.23, 13.65 38.51, 12.14 37.71 C10.63 36.92, 9.22 36.03, 7.95 35.08 C6.69 34.14, 5.54 33.1, 4.55 32.03 C3.57 30.96, 2.72 29.82, 2.05 28.66 C1.38 27.5, 0.86 26.28, 0.52 25.06 C0.17 23.85, 0 22.59, 0 21.36 C0 20.12, 0.17 18.86, 0.52 17.65 C0.86 16.43, 1.38 15.21, 2.05 14.05 C2.72 12.89, 3.57 11.75, 4.55 10.68 C5.54 9.61, 6.69 8.58, 7.95 7.63 C9.22 6.68, 10.63 5.79, 12.14 5 C13.65 4.2, 15.29 3.48, 16.99 2.86 C18.7 2.24, 20.51 1.71, 22.36 1.29 C24.21 0.87, 26.15 0.54, 28.09 0.32 C30.02 0.11, 32.02 0, 33.99 0 C35.96 0, 37.95 0.11, 39.89 0.32 C41.83 0.54, 43.76 0.87, 45.61 1.29 C47.46 1.71, 49.28 2.24, 50.98 2.86 C52.69 3.48, 54.33 4.2, 55.84 5 C57.34 5.79, 58.76 6.68, 60.02 7.63 C61.29 8.58, 62.44 9.61, 63.42 10.68 C64.41 11.75, 65.25 12.89, 65.93 14.05 C66.6 15.21, 67.12 16.43, 67.46 17.65 C67.8 18.86, 67.89 20.74, 67.98 21.36 C68.06 21.97, 68.06 20.74, 67.98 21.36" stroke="#495057" stroke-width="2" fill="none"></path></g><g stroke-linecap="round"><g transform="translate(269.849022551835 28.40667301902954) rotate(180 -3.4163582420911 -6.336697255434558)" fill-rule="evenodd"><path d="M0 0 L-7.75 -6.28 L-11.67 -4 L-11.76 -12.67 L-0.83 -11.88 L-4.51 -9.05 L4.92 -2.36 L0 0" stroke="none" stroke-width="0" fill="#495057" fill-rule="evenodd"></path><path d="M0 0 C-2.86 -2.32, -5.72 -4.64, -7.75 -6.28 M0 0 C-2.29 -1.86, -4.58 -3.71, -7.75 -6.28 M-7.75 -6.28 C-9.29 -5.38, -10.83 -4.49, -11.67 -4 M-7.75 -6.28 C-8.56 -5.81, -9.37 -5.34, -11.67 -4 M-11.67 -4 C-11.7 -6.65, -11.72 -9.3, -11.76 -12.67 M-11.67 -4 C-11.69 -6.19, -11.71 -8.38, -11.76 -12.67 M-11.76 -12.67 C-8.73 -12.45, -5.71 -12.23, -0.83 -11.88 M-11.76 -12.67 C-8.01 -12.4, -4.27 -12.13, -0.83 -11.88 M-0.83 -11.88 C-1.71 -11.21, -2.58 -10.53, -4.51 -9.05 M-0.83 -11.88 C-2.28 -10.76, -3.72 -9.65, -4.51 -9.05 M-4.51 -9.05 C-1.45 -6.88, 1.61 -4.71, 4.92 -2.36 M-4.51 -9.05 C-1.42 -6.86, 1.67 -4.66, 4.92 -2.36 M4.92 -2.36 C3.79 -1.81, 2.66 -1.27, 0 0 M4.92 -2.36 C3.06 -1.47, 1.2 -0.58, 0 0 M0 0 C0 0, 0 0, 0 0 M0 0 C0 0, 0 0, 0 0" stroke="#495057" stroke-width="1" fill="none"></path></g></g><mask></mask><g stroke-linecap="round"><g transform="translate(293.51514489642034 46.51211612125587) rotate(0 -4.410317227612264 -6.4846115866535285)" fill-rule="evenodd"><path d="M0 0 L-8.53 -6.69 L-12.38 -3.24 L-12.47 -12.97 L-1.75 -12.19 L-5.35 -9.41 L3.65 -3.35 L0 0" stroke="none" stroke-width="0" fill="#495057" fill-rule="evenodd"></path><path d="M0 0 C-2.46 -1.93, -4.93 -3.86, -8.53 -6.69 M0 0 C-2.78 -2.18, -5.56 -4.36, -8.53 -6.69 M-8.53 -6.69 C-10.03 -5.35, -11.53 -4.01, -12.38 -3.24 M-8.53 -6.69 C-9.86 -5.51, -11.18 -4.32, -12.38 -3.24 M-12.38 -3.24 C-12.41 -5.72, -12.43 -8.2, -12.47 -12.97 M-12.38 -3.24 C-12.41 -6.01, -12.43 -8.78, -12.47 -12.97 M-12.47 -12.97 C-8.93 -12.71, -5.4 -12.45, -1.75 -12.19 M-12.47 -12.97 C-9.69 -12.77, -6.92 -12.56, -1.75 -12.19 M-1.75 -12.19 C-2.83 -11.36, -3.9 -10.53, -5.35 -9.41 M-1.75 -12.19 C-2.66 -11.49, -3.57 -10.79, -5.35 -9.41 M-5.35 -9.41 C-3.28 -8.01, -1.21 -6.62, 3.65 -3.35 M-5.35 -9.41 C-3.29 -8.02, -1.23 -6.63, 3.65 -3.35 M3.65 -3.35 C2.83 -2.6, 2.01 -1.84, 0 0 M3.65 -3.35 C2.42 -2.22, 1.19 -1.09, 0 0 M0 0 C0 0, 0 0, 0 0 M0 0 C0 0, 0 0, 0 0" stroke="#495057" stroke-width="1" fill="none"></path></g></g><mask></mask><g stroke-linecap="round"><g transform="translate(262.708667683739 45.85600567688391) rotate(180 4.410317227612257 -6.4846115866535285)" fill-rule="evenodd"><path d="M0 0 L8.53 -6.69 L12.38 -3.24 L12.47 -12.97 L1.75 -12.19 L5.35 -9.41 L-3.65 -3.35 L0 0" stroke="none" stroke-width="0" fill="#495057" fill-rule="evenodd"></path><path d="M0 0 C2.95 -2.32, 5.91 -4.63, 8.53 -6.69 M0 0 C1.9 -1.49, 3.8 -2.98, 8.53 -6.69 M8.53 -6.69 C9.36 -5.95, 10.19 -5.21, 12.38 -3.24 M8.53 -6.69 C9.57 -5.76, 10.61 -4.83, 12.38 -3.24 M12.38 -3.24 C12.41 -6.24, 12.44 -9.23, 12.47 -12.97 M12.38 -3.24 C12.4 -5.53, 12.42 -7.81, 12.47 -12.97 M12.47 -12.97 C8.8 -12.7, 5.13 -12.43, 1.75 -12.19 M12.47 -12.97 C9.46 -12.75, 6.46 -12.53, 1.75 -12.19 M1.75 -12.19 C2.66 -11.49, 3.56 -10.79, 5.35 -9.41 M1.75 -12.19 C2.53 -11.59, 3.3 -10.99, 5.35 -9.41 M5.35 -9.41 C3.25 -7.99, 1.14 -6.57, -3.65 -3.35 M5.35 -9.41 C2.66 -7.59, -0.04 -5.78, -3.65 -3.35 M-3.65 -3.35 C-2.57 -2.36, -1.49 -1.37, 0 0 M-3.65 -3.35 C-2.38 -2.19, -1.12 -1.03, 0 0 M0 0 C0 0, 0 0, 0 0 M0 0 C0 0, 0 0, 0 0" stroke="#495057" stroke-width="1" fill="none"></path></g></g><mask></mask><g stroke-linecap="round"><g transform="translate(283.2385081766548 29.650664051941362) rotate(0 4.410317227612257 -6.4846115866535285)" fill-rule="evenodd"><path d="M0 0 L8.53 -6.69 L12.38 -3.24 L12.47 -12.97 L1.75 -12.19 L5.35 -9.41 L-3.65 -3.35 L0 0" stroke="none" stroke-width="0" fill="#495057" fill-rule="evenodd"></path><path d="M0 0 C3.33 -2.61, 6.65 -5.22, 8.53 -6.69 M0 0 C2.48 -1.95, 4.97 -3.9, 8.53 -6.69 M8.53 -6.69 C9.43 -5.89, 10.32 -5.09, 12.38 -3.24 M8.53 -6.69 C9.4 -5.92, 10.26 -5.15, 12.38 -3.24 M12.38 -3.24 C12.41 -5.86, 12.43 -8.48, 12.47 -12.97 M12.38 -3.24 C12.41 -6.15, 12.43 -9.05, 12.47 -12.97 M12.47 -12.97 C8.31 -12.67, 4.15 -12.36, 1.75 -12.19 M12.47 -12.97 C9.46 -12.75, 6.45 -12.53, 1.75 -12.19 M1.75 -12.19 C3.08 -11.16, 4.41 -10.14, 5.35 -9.41 M1.75 -12.19 C2.67 -11.48, 3.6 -10.76, 5.35 -9.41 M5.35 -9.41 C3.24 -7.98, 1.12 -6.56, -3.65 -3.35 M5.35 -9.41 C2.35 -7.39, -0.64 -5.37, -3.65 -3.35 M-3.65 -3.35 C-2.57 -2.36, -1.49 -1.37, 0 0 M-3.65 -3.35 C-2.75 -2.53, -1.85 -1.7, 0 0 M0 0 C0 0, 0 0, 0 0 M0 0 C0 0, 0 0, 0 0" stroke="#495057" stroke-width="1" fill="none"></path></g></g><mask></mask><g stroke-linecap="round" transform="translate(178.88810413754527 73.50984138550461) rotate(0 39.0496608352766 27.52399001605396)"><path d="M78.1 27.52 C78.1 28.96, 77.94 30.41, 77.62 31.83 C77.3 33.25, 76.82 34.66, 76.19 36.03 C75.56 37.39, 74.77 38.74, 73.84 40.02 C72.92 41.3, 71.84 42.54, 70.64 43.7 C69.44 44.86, 68.1 45.97, 66.66 46.99 C65.22 48, 63.65 48.95, 62 49.79 C60.36 50.63, 58.59 51.4, 56.78 52.05 C54.96 52.7, 53.05 53.26, 51.12 53.7 C49.18 54.14, 47.17 54.48, 45.16 54.71 C43.15 54.93, 41.09 55.05, 39.05 55.05 C37.01 55.05, 34.95 54.93, 32.94 54.71 C30.93 54.48, 28.92 54.14, 26.98 53.7 C25.05 53.26, 23.14 52.7, 21.32 52.05 C19.51 51.4, 17.74 50.63, 16.1 49.79 C14.45 48.95, 12.88 48, 11.44 46.99 C10 45.97, 8.65 44.86, 7.46 43.7 C6.26 42.54, 5.18 41.3, 4.26 40.02 C3.33 38.74, 2.54 37.39, 1.91 36.03 C1.28 34.66, 0.8 33.25, 0.48 31.83 C0.16 30.41, 0 28.96, 0 27.52 C0 26.09, 0.16 24.64, 0.48 23.22 C0.8 21.8, 1.28 20.38, 1.91 19.02 C2.54 17.65, 3.33 16.31, 4.26 15.03 C5.18 13.75, 6.26 12.51, 7.46 11.35 C8.65 10.18, 10 9.08, 11.44 8.06 C12.88 7.05, 14.45 6.1, 16.1 5.26 C17.74 4.41, 19.51 3.65, 21.32 3 C23.14 2.35, 25.05 1.79, 26.98 1.35 C28.92 0.9, 30.93 0.56, 32.94 0.34 C34.95 0.11, 37.01 0, 39.05 0 C41.09 0, 43.15 0.11, 45.16 0.34 C47.17 0.56, 49.18 0.9, 51.12 1.35 C53.05 1.79, 54.96 2.35, 56.78 3 C58.59 3.65, 60.36 4.41, 62 5.26 C63.65 6.1, 65.22 7.05, 66.66 8.06 C68.1 9.08, 69.44 10.18, 70.64 11.35 C71.84 12.51, 72.92 13.75, 73.84 15.03 C74.77 16.31, 75.56 17.65, 76.19 19.02 C76.82 20.38, 77.3 21.8, 77.62 23.22 C77.94 24.64, 78.02 26.81, 78.1 27.52 C78.18 28.24, 78.18 26.81, 78.1 27.52" stroke="transparent" stroke-width="1" fill="none"></path></g><g stroke-linecap="round"><g transform="translate(179.36473601746775 95.55148402693351) rotate(0 38.1456083253168 4.440175080266503)" fill-rule="evenodd"><path d="M0 0 L0.11 9.42 L39.14 32.14 L75.79 8.38 L76.29 -0.73 L37.58 -23.26 L0 0" stroke="none" stroke-width="0" fill="#ced4da" fill-rule="evenodd"></path><path d="M0 0 C0.04 3.01, 0.07 6.01, 0.11 9.42 M0 0 C0.02 1.97, 0.05 3.95, 0.11 9.42 M0.11 9.42 C10.46 15.45, 20.81 21.47, 39.14 32.14 M0.11 9.42 C14.73 17.93, 29.35 26.44, 39.14 32.14 M39.14 32.14 C49.93 25.15, 60.71 18.16, 75.79 8.38 M39.14 32.14 C53.52 22.82, 67.9 13.49, 75.79 8.38 M75.79 8.38 C75.92 6.09, 76.04 3.81, 76.29 -0.73 M75.79 8.38 C75.93 5.89, 76.06 3.41, 76.29 -0.73 M76.29 -0.73 C66.83 -6.24, 57.38 -11.74, 37.58 -23.26 M76.29 -0.73 C67.66 -5.76, 59.02 -10.78, 37.58 -23.26 M37.58 -23.26 C26.33 -16.3, 15.09 -9.34, 0 0 M37.58 -23.26 C28.11 -17.4, 18.64 -11.54, 0 0 M0 0 C0 0, 0 0, 0 0 M0 0 C0 0, 0 0, 0 0" stroke="#495057" stroke-width="2" fill="none"></path></g></g><mask></mask><g stroke-linecap="round"><g transform="translate(179.75568512698192 95.85161032937458) rotate(0 37.72322872840017 10.82496732560059)"><path d="M0 0 C15.04 8.92, 30.08 17.85, 38.44 22.81 M0 0 C8.1 4.8, 16.2 9.61, 38.44 22.81 M38.44 22.81 C52.19 13.9, 65.94 5, 75.45 -1.16 M38.44 22.81 C52.85 13.47, 67.27 4.14, 75.45 -1.16" stroke="#495057" stroke-width="2" fill="none"></path></g></g><mask></mask><g stroke-linecap="round"><g transform="translate(218.3308792578041 127.35879454607482) rotate(0 -0.08865561764929797 -4.015930478814948)"><path d="M0 0 C-0.04 -2.02, -0.09 -4.04, -0.18 -8.03 M0 0 C-0.06 -2.64, -0.12 -5.28, -0.18 -8.03" stroke="#495057" stroke-width="2" fill="none"></path></g></g><mask></mask><g stroke-linecap="round"><g transform="translate(220.94175975105236 91.93496513978698) rotate(0 -4.027958273394541 -5.9224186248281185)" fill-rule="evenodd"><path d="M0 0 L-7.79 -6.11 L-11.31 -2.96 L-11.39 -11.84 L-1.6 -11.13 L-4.89 -8.59 L3.33 -3.06 L0 0" stroke="none" stroke-width="0" fill="#495057" fill-rule="evenodd"></path><path d="M0 0 C-2.16 -1.69, -4.31 -3.38, -7.79 -6.11 M0 0 C-2.67 -2.09, -5.34 -4.19, -7.79 -6.11 M-7.79 -6.11 C-8.63 -5.37, -9.46 -4.62, -11.31 -2.96 M-7.79 -6.11 C-9.18 -4.87, -10.56 -3.63, -11.31 -2.96 M-11.31 -2.96 C-11.33 -5.84, -11.36 -8.72, -11.39 -11.84 M-11.31 -2.96 C-11.34 -5.87, -11.36 -8.78, -11.39 -11.84 M-11.39 -11.84 C-9.14 -11.68, -6.9 -11.52, -1.6 -11.13 M-11.39 -11.84 C-7.69 -11.58, -3.99 -11.31, -1.6 -11.13 M-1.6 -11.13 C-2.4 -10.51, -3.21 -9.89, -4.89 -8.59 M-1.6 -11.13 C-2.55 -10.39, -3.51 -9.66, -4.89 -8.59 M-4.89 -8.59 C-3.16 -7.43, -1.44 -6.27, 3.33 -3.06 M-4.89 -8.59 C-3.01 -7.33, -1.12 -6.06, 3.33 -3.06 M3.33 -3.06 C2.14 -1.96, 0.94 -0.87, 0 0 M3.33 -3.06 C2.08 -1.91, 0.83 -0.76, 0 0 M0 0 C0 0, 0 0, 0 0 M0 0 C0 0, 0 0, 0 0" stroke="#495057" stroke-width="1" fill="none"></path></g></g><mask></mask><g stroke-linecap="round"><g transform="translate(205.60743595747545 102.04542128775995) rotate(0 -4.027958273394541 -5.9224186248281185)" fill-rule="evenodd"><path d="M0 0 L-7.79 -6.11 L-11.31 -2.96 L-11.39 -11.84 L-1.6 -11.13 L-4.89 -8.59 L3.33 -3.06 L0 0" stroke="none" stroke-width="0" fill="#495057" fill-rule="evenodd"></path><path d="M0 0 C-2.57 -2.02, -5.14 -4.03, -7.79 -6.11 M0 0 C-2.02 -1.58, -4.03 -3.16, -7.79 -6.11 M-7.79 -6.11 C-8.84 -5.17, -9.9 -4.23, -11.31 -2.96 M-7.79 -6.11 C-8.68 -5.32, -9.57 -4.52, -11.31 -2.96 M-11.31 -2.96 C-11.33 -5.01, -11.35 -7.05, -11.39 -11.84 M-11.31 -2.96 C-11.33 -5, -11.35 -7.03, -11.39 -11.84 M-11.39 -11.84 C-9.18 -11.68, -6.98 -11.52, -1.6 -11.13 M-11.39 -11.84 C-8.09 -11.6, -4.79 -11.36, -1.6 -11.13 M-1.6 -11.13 C-2.79 -10.21, -3.99 -9.29, -4.89 -8.59 M-1.6 -11.13 C-2.28 -10.6, -2.97 -10.08, -4.89 -8.59 M-4.89 -8.59 C-2.02 -6.66, 0.84 -4.73, 3.33 -3.06 M-4.89 -8.59 C-1.91 -6.59, 1.06 -4.59, 3.33 -3.06 M3.33 -3.06 C2.46 -2.26, 1.59 -1.46, 0 0 M3.33 -3.06 C2.29 -2.11, 1.25 -1.15, 0 0 M0 0 C0 0, 0 0, 0 0 M0 0 C0 0, 0 0, 0 0" stroke="#495057" stroke-width="1" fill="none"></path></g></g><mask></mask><g stroke-linecap="round"><g transform="translate(224.7739034798301 108.77650214382516) rotate(180 -4.027958273394541 -5.9224186248281185)" fill-rule="evenodd"><path d="M0 0 L-7.79 -6.11 L-11.31 -2.96 L-11.39 -11.84 L-1.6 -11.13 L-4.89 -8.59 L3.33 -3.06 L0 0" stroke="none" stroke-width="0" fill="#495057" fill-rule="evenodd"></path><path d="M0 0 C-2.67 -2.09, -5.33 -4.18, -7.79 -6.11 M0 0 C-2.19 -1.71, -4.37 -3.43, -7.79 -6.11 M-7.79 -6.11 C-8.68 -5.32, -9.56 -4.53, -11.31 -2.96 M-7.79 -6.11 C-8.55 -5.43, -9.31 -4.76, -11.31 -2.96 M-11.31 -2.96 C-11.33 -5.04, -11.35 -7.12, -11.39 -11.84 M-11.31 -2.96 C-11.33 -5.62, -11.36 -8.28, -11.39 -11.84 M-11.39 -11.84 C-8.49 -11.63, -5.6 -11.42, -1.6 -11.13 M-11.39 -11.84 C-7.99 -11.6, -4.6 -11.35, -1.6 -11.13 M-1.6 -11.13 C-2.59 -10.37, -3.58 -9.6, -4.89 -8.59 M-1.6 -11.13 C-2.68 -10.3, -3.76 -9.46, -4.89 -8.59 M-4.89 -8.59 C-2.28 -6.83, 0.34 -5.08, 3.33 -3.06 M-4.89 -8.59 C-2.62 -7.06, -0.34 -5.53, 3.33 -3.06 M3.33 -3.06 C2.45 -2.25, 1.57 -1.44, 0 0 M3.33 -3.06 C2.38 -2.19, 1.43 -1.32, 0 0 M0 0 C0 0, 0 0, 0 0 M0 0 C0 0, 0 0, 0 0" stroke="#495057" stroke-width="1" fill="none"></path></g></g><mask></mask><g stroke-linecap="round"><g transform="translate(239.148754121597 99.64961284746562) rotate(180 -4.027958273394541 -5.9224186248281185)" fill-rule="evenodd"><path d="M0 0 L-7.79 -6.11 L-11.31 -2.96 L-11.39 -11.84 L-1.6 -11.13 L-4.89 -8.59 L3.33 -3.06 L0 0" stroke="none" stroke-width="0" fill="#495057" fill-rule="evenodd"></path><path d="M0 0 C-3.02 -2.37, -6.05 -4.74, -7.79 -6.11 M0 0 C-2.19 -1.72, -4.38 -3.43, -7.79 -6.11 M-7.79 -6.11 C-9.09 -4.95, -10.39 -3.79, -11.31 -2.96 M-7.79 -6.11 C-8.69 -5.31, -9.6 -4.5, -11.31 -2.96 M-11.31 -2.96 C-11.33 -5.05, -11.35 -7.14, -11.39 -11.84 M-11.31 -2.96 C-11.34 -5.92, -11.36 -8.88, -11.39 -11.84 M-11.39 -11.84 C-8.49 -11.63, -5.59 -11.42, -1.6 -11.13 M-11.39 -11.84 C-8.98 -11.67, -6.57 -11.49, -1.6 -11.13 M-1.6 -11.13 C-2.58 -10.38, -3.55 -9.62, -4.89 -8.59 M-1.6 -11.13 C-2.45 -10.48, -3.29 -9.82, -4.89 -8.59 M-4.89 -8.59 C-2.7 -7.12, -0.51 -5.65, 3.33 -3.06 M-4.89 -8.59 C-1.9 -6.58, 1.09 -4.57, 3.33 -3.06 M3.33 -3.06 C2.47 -2.27, 1.61 -1.48, 0 0 M3.33 -3.06 C2.02 -1.85, 0.7 -0.65, 0 0 M0 0 C0 0, 0 0, 0 0 M0 0 C0 0, 0 0, 0 0" stroke="#495057" stroke-width="1" fill="none"></path></g></g><mask></mask><g stroke-linecap="round" transform="translate(208.6836156824993 196.15361633492074) rotate(0 34.595957131572234 40.26936038642373)"><path d="M69.19 40.27 C69.19 42.37, 69.05 44.49, 68.77 46.57 C68.48 48.64, 68.06 50.72, 67.5 52.71 C66.94 54.71, 66.24 56.68, 65.42 58.55 C64.6 60.42, 63.65 62.24, 62.58 63.94 C61.52 65.64, 60.33 67.26, 59.06 68.74 C57.78 70.23, 56.39 71.61, 54.93 72.85 C53.47 74.08, 51.91 75.2, 50.3 76.15 C48.69 77.1, 47 77.92, 45.29 78.57 C43.57 79.22, 41.79 79.71, 40.01 80.04 C38.23 80.37, 36.4 80.54, 34.6 80.54 C32.79 80.54, 30.97 80.37, 29.18 80.04 C27.4 79.71, 25.62 79.22, 23.91 78.57 C22.19 77.92, 20.5 77.1, 18.89 76.15 C17.28 75.2, 15.72 74.08, 14.26 72.85 C12.8 71.61, 11.41 70.23, 10.13 68.74 C8.86 67.26, 7.67 65.64, 6.61 63.94 C5.55 62.24, 4.59 60.42, 3.77 58.55 C2.95 56.68, 2.25 54.71, 1.69 52.71 C1.14 50.72, 0.71 48.64, 0.43 46.57 C0.14 44.49, 0 42.37, 0 40.27 C0 38.17, 0.14 36.04, 0.43 33.97 C0.71 31.9, 1.14 29.82, 1.69 27.83 C2.25 25.83, 2.95 23.86, 3.77 21.99 C4.59 20.12, 5.55 18.3, 6.61 16.6 C7.67 14.9, 8.86 13.28, 10.13 11.79 C11.41 10.31, 12.8 8.93, 14.26 7.69 C15.72 6.46, 17.28 5.34, 18.89 4.39 C20.5 3.44, 22.19 2.62, 23.91 1.97 C25.62 1.32, 27.4 0.82, 29.18 0.5 C30.97 0.17, 32.79 0, 34.6 0 C36.4 0, 38.23 0.17, 40.01 0.5 C41.79 0.82, 43.57 1.32, 45.29 1.97 C47 2.62, 48.69 3.44, 50.3 4.39 C51.91 5.34, 53.47 6.46, 54.93 7.69 C56.39 8.93, 57.78 10.31, 59.06 11.79 C60.33 13.28, 61.52 14.9, 62.58 16.6 C63.65 18.3, 64.6 20.12, 65.42 21.99 C66.24 23.86, 66.94 25.83, 67.5 27.83 C68.06 29.82, 68.48 31.9, 68.77 33.97 C69.05 36.04, 69.12 39.22, 69.19 40.27 C69.26 41.32, 69.26 39.22, 69.19 40.27" stroke="transparent" stroke-width="1" fill="none"></path></g><g stroke-linecap="round"><g transform="translate(236.71130673440075 237.23866494789507) rotate(0 12.529719709426942 4.6694953095856135)" fill-rule="evenodd"><path d="M0 0 L0.11 9.42 L12.82 15.94 L24.56 7.62 L25.06 -1.49 L13.58 -6.6 L0 0" stroke="none" stroke-width="0" fill="#ced4da" fill-rule="evenodd"></path><path d="M0 0 C0.03 2.64, 0.06 5.28, 0.11 9.42 M0 0 C0.03 2.82, 0.07 5.65, 0.11 9.42 M0.11 9.42 C5.08 11.97, 10.04 14.51, 12.82 15.94 M0.11 9.42 C3.2 11.01, 6.29 12.59, 12.82 15.94 M12.82 15.94 C16.29 13.47, 19.77 11.01, 24.56 7.62 M12.82 15.94 C15.84 13.79, 18.87 11.65, 24.56 7.62 M24.56 7.62 C24.7 5.08, 24.84 2.54, 25.06 -1.49 M24.56 7.62 C24.74 4.3, 24.92 0.97, 25.06 -1.49 M25.06 -1.49 C21.61 -3.02, 18.15 -4.56, 13.58 -6.6 M25.06 -1.49 C21.39 -3.12, 17.72 -4.76, 13.58 -6.6 M13.58 -6.6 C10.78 -5.24, 7.99 -3.88, 0 0 M13.58 -6.6 C8.77 -4.26, 3.96 -1.92, 0 0 M0 0 C0 0, 0 0, 0 0 M0 0 C0 0, 0 0, 0 0" stroke="#495057" stroke-width="2" fill="none"></path></g></g><mask></mask><g stroke-linecap="round"><g transform="translate(232.764832170511 197.17575745202174) rotate(0 20.018735744541573 25.7674414394844)" fill-rule="evenodd"><path d="M0 0 C2.64 0.26, 9.72 -0.56, 15.81 1.57 C21.91 3.7, 32.53 8.24, 36.57 12.77 C40.61 17.31, 39.74 24.02, 40.04 28.79 C40.33 33.55, 39.91 37.56, 38.35 41.35 C36.79 45.14, 33.23 50.57, 30.66 51.53 C28.09 52.5, 27.47 52.33, 22.93 47.12 C18.38 41.92, 6.79 27.54, 3.38 20.3 C-0.03 13.07, 2.62 6.48, 2.47 3.71" stroke="none" stroke-width="0" fill="#ced4da" fill-rule="evenodd"></path><path d="M0 0 C2.64 0.26, 9.72 -0.56, 15.81 1.57 C21.91 3.7, 32.53 8.24, 36.57 12.77 C40.61 17.31, 39.74 24.02, 40.04 28.79 C40.33 33.55, 39.91 37.56, 38.35 41.35 C36.79 45.14, 33.23 50.57, 30.66 51.53 C28.09 52.5, 27.47 52.33, 22.93 47.12 C18.38 41.92, 6.79 27.54, 3.38 20.3 C-0.03 13.07, 2.62 6.48, 2.47 3.71 M0 0 C2.64 0.26, 9.72 -0.56, 15.81 1.57 C21.91 3.7, 32.53 8.24, 36.57 12.77 C40.61 17.31, 39.74 24.02, 40.04 28.79 C40.33 33.55, 39.91 37.56, 38.35 41.35 C36.79 45.14, 33.23 50.57, 30.66 51.53 C28.09 52.5, 27.47 52.33, 22.93 47.12 C18.38 41.92, 6.79 27.54, 3.38 20.3 C-0.03 13.07, 2.62 6.48, 2.47 3.71" stroke="#495057" stroke-width="2" fill="none"></path></g></g><mask></mask><g stroke-linecap="round"><g transform="translate(221.59187430400561 223.3596551411494) rotate(0 23.434505703673835 1.1051775550273568)" fill-rule="evenodd"><path d="M0 0 C0.72 2.29, -1.8 9.05, 4.31 13.76 C10.42 18.48, 29.64 27.33, 36.67 28.29 C43.7 29.25, 44.79 25.53, 46.49 19.51 C48.19 13.48, 48.32 -1.82, 46.87 -7.86 C45.42 -13.9, 43.36 -13.7, 37.77 -16.74 C32.18 -19.77, 19.34 -25.34, 13.34 -26.08 C7.35 -26.82, 4.03 -25.5, 1.8 -21.15 C-0.42 -16.81, 0.3 -3.53, 0 0" stroke="none" stroke-width="0" fill="#ced4da" fill-rule="evenodd"></path><path d="M0 0 C0.72 2.29, -1.8 9.05, 4.31 13.76 C10.42 18.48, 29.64 27.33, 36.67 28.29 C43.7 29.25, 44.79 25.53, 46.49 19.51 C48.19 13.48, 48.32 -1.82, 46.87 -7.86 C45.42 -13.9, 43.36 -13.7, 37.77 -16.74 C32.18 -19.77, 19.34 -25.34, 13.34 -26.08 C7.35 -26.82, 4.03 -25.5, 1.8 -21.15 C-0.42 -16.81, 0.3 -3.53, 0 0 M0 0 C0.72 2.29, -1.8 9.05, 4.31 13.76 C10.42 18.48, 29.64 27.33, 36.67 28.29 C43.7 29.25, 44.79 25.53, 46.49 19.51 C48.19 13.48, 48.32 -1.82, 46.87 -7.86 C45.42 -13.9, 43.36 -13.7, 37.77 -16.74 C32.18 -19.77, 19.34 -25.34, 13.34 -26.08 C7.35 -26.82, 4.03 -25.5, 1.8 -21.15 C-0.42 -16.81, 0.3 -3.53, 0 0" stroke="#495057" stroke-width="2" fill="none"></path></g></g><mask></mask><g stroke-linecap="round"><g transform="translate(224.77369248582363 222.9142771959161) rotate(0 19.886363636362603 0.833333333332348)" fill-rule="evenodd"><path d="M0 0 C0.6 1.93, -1.26 7.63, 3.62 11.57 C8.51 15.5, 23.29 22.4, 29.29 23.59 C35.3 24.77, 37.9 23.46, 39.65 18.69 C41.39 13.91, 41.09 0.38, 39.77 -5.08 C38.46 -10.53, 36.5 -11.26, 31.74 -14.07 C26.98 -16.87, 16.25 -21.3, 11.21 -21.92 C6.17 -22.54, 3.38 -21.43, 1.52 -17.78 C-0.35 -14.12, 0.25 -2.96, 0 0" stroke="none" stroke-width="0" fill="#343a40" fill-rule="evenodd"></path><path d="M0 0 C0.6 1.93, -1.26 7.63, 3.62 11.57 C8.51 15.5, 23.29 22.4, 29.29 23.59 C35.3 24.77, 37.9 23.46, 39.65 18.69 C41.39 13.91, 41.09 0.38, 39.77 -5.08 C38.46 -10.53, 36.5 -11.26, 31.74 -14.07 C26.98 -16.87, 16.25 -21.3, 11.21 -21.92 C6.17 -22.54, 3.38 -21.43, 1.52 -17.78 C-0.35 -14.12, 0.25 -2.96, 0 0 M0 0 C0.6 1.93, -1.26 7.63, 3.62 11.57 C8.51 15.5, 23.29 22.4, 29.29 23.59 C35.3 24.77, 37.9 23.46, 39.65 18.69 C41.39 13.91, 41.09 0.38, 39.77 -5.08 C38.46 -10.53, 36.5 -11.26, 31.74 -14.07 C26.98 -16.87, 16.25 -21.3, 11.21 -21.92 C6.17 -22.54, 3.38 -21.43, 1.52 -17.78 C-0.35 -14.12, 0.25 -2.96, 0 0" stroke="#495057" stroke-width="2" fill="none"></path></g></g><mask></mask><g stroke-linecap="round"><g transform="translate(204 250.49934313783677) rotate(0 26.725855238896912 7.187088660513162)" fill-rule="evenodd"><path d="M0 0 L0.11 2.94 L39.14 25.66 L52.95 15.72 L53.45 11.24 L14.74 -11.29 L0 0" stroke="none" stroke-width="0" fill="#ced4da" fill-rule="evenodd"></path><path d="M0 0 C0.04 1.02, 0.08 2.04, 0.11 2.94 M0 0 C0.03 0.89, 0.07 1.77, 0.11 2.94 M0.11 2.94 C12.94 10.41, 25.78 17.88, 39.14 25.66 M0.11 2.94 C12.52 10.17, 24.93 17.39, 39.14 25.66 M39.14 25.66 C42.96 22.91, 46.78 20.17, 52.95 15.72 M39.14 25.66 C42.8 23.03, 46.46 20.4, 52.95 15.72 M52.95 15.72 C53.09 14.45, 53.24 13.17, 53.45 11.24 M52.95 15.72 C53.08 14.57, 53.21 13.41, 53.45 11.24 M53.45 11.24 C45.13 6.4, 36.81 1.56, 14.74 -11.29 M53.45 11.24 C43.47 5.43, 33.49 -0.37, 14.74 -11.29 M14.74 -11.29 C10.35 -7.93, 5.96 -4.56, 0 0 M14.74 -11.29 C11.55 -8.85, 8.37 -6.41, 0 0 M0 0 C0 0, 0 0, 0 0 M0 0 C0 0, 0 0, 0 0" stroke="#495057" stroke-width="2" fill="none"></path></g></g><mask></mask><g stroke-linecap="round"><g transform="translate(204.57613429469893 251.0463830205237) rotate(0 26.36520403704219 11.218710673167152)"><path d="M0 0 C9.45 5.52, 18.9 11.03, 38.44 22.44 M0 0 C11.43 6.67, 22.85 13.34, 38.44 22.44 M38.44 22.44 C42.12 19.35, 45.8 16.26, 52.73 10.45 M38.44 22.44 C42.25 19.25, 46.05 16.06, 52.73 10.45" stroke="#495057" stroke-width="1" fill="none"></path></g></g><mask></mask><g stroke-linecap="round"><g transform="translate(243.15132842552157 276.6276413112989) rotate(0 -0.01566291691921151 -1.4976823036322457)"><path d="M0 0 C-0.01 -0.67, -0.01 -1.34, -0.03 -3 M0 0 C-0.01 -0.9, -0.02 -1.79, -0.03 -3" stroke="#495057" stroke-width="1" fill="none"></path></g></g><mask></mask><g stroke-linecap="round"><g transform="translate(219.00582525511072 242.53304679308957) rotate(0 4.9187904235463975 10.073473281810948)" fill-rule="evenodd"><path d="M0 0 L-10.46 8.17 L10.57 20.15 L20.3 11.43 L0 0" stroke="none" stroke-width="0" fill="#495057" fill-rule="evenodd"></path><path d="M0 0 C-4.09 3.19, -8.17 6.38, -10.46 8.17 M0 0 C-2.54 1.98, -5.08 3.97, -10.46 8.17 M-10.46 8.17 C-4.23 11.71, 1.99 15.26, 10.57 20.15 M-10.46 8.17 C-5.04 11.25, 0.37 14.34, 10.57 20.15 M10.57 20.15 C13.28 17.72, 15.99 15.29, 20.3 11.43 M10.57 20.15 C14.12 16.96, 17.67 13.78, 20.3 11.43 M20.3 11.43 C14.19 7.99, 8.08 4.55, 0 0 M20.3 11.43 C13.81 7.78, 7.31 4.12, 0 0 M0 0 C0 0, 0 0, 0 0 M0 0 C0 0, 0 0, 0 0" stroke="#495057" stroke-width="1" fill="none"></path></g></g><mask></mask><g stroke-linecap="round"><g transform="translate(240.98095968009875 255.26489689685303) rotate(0 0.4069587940120982 2.578481262354444)" fill-rule="evenodd"><path d="M0 0 L-3.28 3.01 L1.04 5.16 L4.09 2.31 L0 0" stroke="none" stroke-width="0" fill="#495057" fill-rule="evenodd"></path><path d="M0 0 C-0.84 0.77, -1.68 1.54, -3.28 3.01 M0 0 C-0.76 0.7, -1.52 1.39, -3.28 3.01 M-3.28 3.01 C-2.11 3.59, -0.94 4.18, 1.04 5.16 M-3.28 3.01 C-1.57 3.86, 0.14 4.71, 1.04 5.16 M1.04 5.16 C2.15 4.12, 3.26 3.09, 4.09 2.31 M1.04 5.16 C2.22 4.06, 3.39 2.97, 4.09 2.31 M4.09 2.31 C2.92 1.65, 1.74 0.98, 0 0 M4.09 2.31 C2.62 1.48, 1.15 0.65, 0 0 M0 0 C0 0, 0 0, 0 0 M0 0 C0 0, 0 0, 0 0" stroke="#495057" stroke-width="1" fill="none"></path></g></g><mask></mask><g stroke-linecap="round"><g transform="translate(247.26370486303858 258.6076117702025) rotate(0 -1.9084774475986706 6.135528242220289)" fill-rule="evenodd"><path d="M0 0 L-9.52 8.58 L-3.72 12.27 L5.71 3.72 L0 0" stroke="none" stroke-width="0" fill="#495057" fill-rule="evenodd"></path><path d="M0 0 C-2.77 2.49, -5.54 4.99, -9.52 8.58 M0 0 C-2 1.8, -3.99 3.6, -9.52 8.58 M-9.52 8.58 C-8.19 9.43, -6.87 10.27, -3.72 12.27 M-9.52 8.58 C-7.44 9.9, -5.37 11.23, -3.72 12.27 M-3.72 12.27 C-0.18 9.06, 3.36 5.85, 5.71 3.72 M-3.72 12.27 C-1.22 10, 1.29 7.73, 5.71 3.72 M5.71 3.72 C4.37 2.85, 3.02 1.97, 0 0 M5.71 3.72 C4.02 2.62, 2.33 1.52, 0 0 M0 0 C0 0, 0 0, 0 0 M0 0 C0 0, 0 0, 0 0" stroke="#495057" stroke-width="1" fill="none"></path></g></g><mask></mask><g stroke-linecap="round"><g transform="translate(79.93776497282187 82.42297672134447) rotate(0 48 8.5)"><path d="M0 0 C23.99 4.25, 47.99 8.5, 96 17 M0 0 C32 5.67, 64 11.33, 96 17" stroke="#FFFFFF" stroke-width="2" fill="none"></path></g></g><mask></mask><g stroke-linecap="round"><g transform="translate(235.93776497282187 195.42297672134447) rotate(0 -7.5 -33.5)"><path d="M0 0 C-4.42 -19.73, -8.83 -39.46, -15 -67 M0 0 C-5.94 -26.55, -11.89 -53.1, -15 -67" stroke="#FFFFFF" stroke-width="2" fill="none"></path></g></g><mask></mask><g stroke-linecap="round"><g transform="translate(233.93776497282187 84.42297672134447) rotate(0 7.5 -12.5)"><path d="M0 0 C3.59 -5.98, 7.17 -11.96, 15 -25 M0 0 C5.53 -9.21, 11.06 -18.43, 15 -25" stroke="#FFFFFF" stroke-width="2" fill="none"></path></g></g><mask></mask></svg>