<svg version="1.1" xmlns="http://www.w3.org/2000/svg" viewBox="0 0 891.6666259765625 434.1666259765625" width="891.6666259765625" height="434.1666259765625" class="excalidraw-svg">
  <!-- svg-source:excalidraw -->
  
  <defs>
    <style class="style-fonts">
      
    </style>
    
  </defs>
  <g transform="translate(370.83331298828125 53.33331298828125) rotate(0 75 163.75)" stroke="none"><path fill="#FFFFFF" d="M -3.75,1.14 Q -3.75,1.14 -5.53,-4.32 -7.32,-9.79 -10.16,-14.79 -13.00,-19.78 -17.15,-23.24 -21.30,-26.70 -27.10,-27.91 -32.89,-29.12 -41.11,-28.03 -49.33,-26.95 -59.50,-23.16 -69.66,-19.37 -81.07,-13.55 -92.47,-7.73 -106.09,2.88 -119.72,13.51 -129.65,24.31 -139.58,35.10 -146.48,46.08 -153.38,57.07 -156.58,68.79 -159.79,80.51 -158.48,98.54 -157.16,116.56 -153.62,131.79 -150.07,147.01 -146.51,156.40 -142.94,165.79 -140.90,169.01 -138.86,172.23 -138.69,172.96 -138.51,173.69 -138.51,174.44 -138.51,175.19 -138.70,175.92 -138.88,176.64 -139.23,177.31 -139.58,177.97 -140.08,178.53 -140.58,179.09 -141.19,179.51 -141.81,179.93 -142.51,180.20 -143.21,180.46 -143.96,180.55 -144.70,180.64 -145.45,180.55 -146.19,180.45 -146.89,180.18 -147.59,179.92 -148.21,179.49 -148.82,179.06 -149.32,178.50 -149.81,177.94 -150.16,177.27 -150.50,176.61 -152.35,169.81 -154.19,163.01 -165.65,143.97 -177.10,124.94 -189.32,109.17 -201.54,93.41 -212.98,82.36 -224.42,71.30 -233.73,65.49 -243.05,59.68 -243.52,59.10 -243.99,58.52 -244.30,57.84 -244.62,57.17 -244.77,56.44 -244.91,55.70 -244.88,54.96 -244.85,54.21 -244.64,53.49 -244.43,52.78 -244.05,52.13 -243.67,51.49 -243.15,50.95 -242.63,50.42 -242.00,50.02 -241.37,49.62 -240.66,49.39 -239.95,49.16 -239.21,49.10 -238.46,49.04 -237.72,49.16 -236.99,49.29 -236.30,49.58 -235.62,49.88 -235.02,50.33 -234.43,50.78 -234.11,73.62 -233.80,96.45 -231.24,109.77 -228.68,123.09 -220.68,137.76 -212.69,152.44 -200.99,165.85 -189.30,179.25 -173.37,186.60 -157.43,193.95 -146.49,192.09 -135.56,190.23 -127.50,181.11 -119.45,171.99 -113.05,158.94 -106.66,145.89 -99.89,133.55 -93.12,121.21 -80.89,113.75 -68.66,106.30 -54.78,106.87 -40.91,107.43 -25.52,114.57 -10.13,121.70 6.73,133.75 23.60,145.81 47.37,163.29 71.14,180.77 91.34,193.56 111.55,206.36 127.59,212.51 143.64,218.65 154.41,216.68 165.19,214.72 172.41,205.40 179.63,196.08 189.33,167.11 199.04,138.13 205.85,123.95 212.67,109.76 223.66,105.53 234.65,101.30 249.21,112.10 263.77,122.90 277.09,137.54 290.40,152.18 303.54,166.12 316.67,180.07 328.92,190.30 341.18,200.52 349.64,204.66 358.10,208.79 367.37,201.36 376.64,193.94 383.32,181.09 390.00,168.25 395.15,152.37 400.31,136.48 404.32,124.02 408.33,111.55 408.64,110.88 408.95,110.21 409.41,109.64 409.88,109.06 410.46,108.61 411.05,108.17 411.73,107.87 412.41,107.58 413.13,107.46 413.86,107.33 414.60,107.39 415.33,107.44 416.04,107.67 416.74,107.90 417.36,108.29 417.99,108.68 418.51,109.21 419.02,109.74 419.39,110.38 419.77,111.01 419.98,111.72 420.19,112.43 420.22,113.17 420.26,113.90 420.11,114.63 419.97,115.35 435.18,129.51 450.38,143.67 461.93,161.22 473.48,178.77 481.10,190.38 488.72,201.99 489.84,205.08 490.97,208.17 494.95,198.26 498.94,188.34 499.98,169.22 501.02,150.11 498.72,126.74 496.42,103.38 491.08,80.56 485.75,57.74 483.97,53.40 482.20,49.06 480.38,50.27 478.57,51.48 475.30,58.86 472.04,66.23 464.82,79.42 457.60,92.60 451.80,101.73 446.01,110.86 440.96,116.24 435.91,121.62 428.09,122.86 420.27,124.10 404.18,109.60 388.09,95.09 369.98,74.10 351.87,53.11 316.51,26.94 281.16,0.77 264.88,-8.48 248.59,-17.73 236.61,-8.39 224.63,0.94 217.60,19.52 210.57,38.10 205.69,63.90 200.80,89.69 196.51,116.61 192.23,143.53 184.18,167.15 176.13,190.78 163.71,201.69 151.30,212.60 134.54,210.40 117.77,208.20 96.88,195.22 75.99,182.24 23.63,152.73 -28.71,123.23 -55.07,112.79 -81.43,102.35 -96.63,106.65 -111.84,110.95 -120.64,126.68 -129.44,142.40 -133.65,175.01 -137.87,207.63 -138.50,234.30 -139.12,260.98 -138.63,277.35 -138.14,293.73 -138.09,300.51 -138.04,307.28 -138.11,308.01 -138.18,308.75 -138.42,309.44 -138.65,310.13 -139.05,310.75 -139.45,311.36 -139.98,311.87 -140.52,312.37 -141.16,312.73 -141.79,313.09 -142.50,313.29 -143.21,313.48 -143.94,313.50 -144.67,313.53 -145.39,313.37 -146.11,313.22 -146.77,312.90 -147.42,312.58 -147.99,312.11 -148.55,311.64 -148.99,311.05 -149.42,310.46 -149.70,309.78 -149.98,309.10 -150.09,308.38 -150.20,307.65 -192.74,256.11 -235.28,204.57 -258.70,178.88 -282.13,153.19 -293.88,141.99 -305.62,130.79 -312.90,140.57 -320.17,150.34 -319.32,171.37 -318.47,192.40 -314.09,221.46 -309.72,250.52 -303.10,276.93 -296.49,303.34 -288.28,322.34 -280.06,341.34 -279.97,342.01 -279.89,342.68 -279.96,343.35 -280.03,344.02 -280.26,344.65 -280.49,345.28 -280.87,345.84 -281.24,346.40 -281.74,346.85 -282.24,347.31 -282.83,347.63 -283.43,347.95 -284.08,348.12 -284.73,348.28 -285.40,348.29 -286.08,348.30 -286.73,348.15 -287.39,348.00 -287.99,347.69 -288.59,347.38 -289.10,346.94 -289.61,346.50 -290.00,345.95 -290.39,345.41 -290.63,344.78 -290.88,344.15 -281.67,327.76 -272.45,311.38 -272.53,297.03 -272.61,282.69 -285.28,252.38 -297.94,222.08 -308.83,201.28 -319.71,180.48 -326.00,169.47 -332.30,158.46 -335.01,153.48 -337.73,148.50 -338.13,148.02 -338.54,147.54 -338.79,146.90 -339.05,146.26 -339.14,145.57 -339.24,144.89 -339.17,144.21 -339.09,143.52 -338.86,142.87 -338.63,142.22 -338.25,141.65 -337.87,141.08 -337.36,140.61 -336.85,140.15 -336.24,139.82 -335.64,139.48 -334.97,139.31 -334.31,139.13 -333.62,139.12 -332.93,139.11 -332.26,139.26 -331.59,139.42 -330.97,139.73 -330.36,140.04 -329.83,140.48 -329.31,140.93 -328.91,141.49 -328.51,142.05 -315.29,166.22 -302.08,190.38 -292.55,206.31 -283.02,222.24 -274.69,234.94 -266.36,247.65 -253.59,264.41 -240.81,281.18 -223.38,298.85 -205.95,316.53 -193.67,324.10 -181.40,331.67 -175.39,331.65 -169.38,331.64 -162.57,303.52 -155.75,275.40 -151.98,260.49 -148.21,245.58 -145.66,239.70 -143.12,233.83 -142.85,233.13 -142.58,232.44 -142.15,231.83 -141.73,231.22 -141.17,230.72 -140.60,230.23 -139.94,229.89 -139.28,229.55 -138.55,229.37 -137.83,229.20 -137.08,229.20 -136.34,229.21 -135.61,229.39 -134.89,229.57 -134.23,229.92 -133.57,230.27 -133.02,230.77 -132.46,231.27 -132.04,231.89 -131.62,232.50 -131.36,233.20 -131.10,233.90 -131.01,234.64 -130.93,235.38 -131.02,236.12 -131.12,236.86 -127.26,238.34 -123.40,239.82 -112.02,261.15 -100.65,282.47 -84.97,298.31 -69.30,314.15 -61.84,319.22 -54.39,324.29 -48.50,320.61 -42.60,316.93 -37.70,298.67 -32.80,280.42 -30.86,258.83 -28.93,237.23 -29.73,216.69 -30.53,196.15 -31.59,180.64 -32.66,165.12 -32.24,156.82 -31.82,148.52 -31.78,147.79 -31.74,147.06 -31.53,146.35 -31.31,145.65 -30.94,145.02 -30.56,144.39 -30.05,143.87 -29.53,143.35 -28.91,142.96 -28.28,142.58 -27.59,142.35 -26.89,142.13 -26.15,142.08 -25.42,142.03 -24.70,142.16 -23.98,142.28 -23.31,142.58 -22.63,142.88 -22.05,143.32 -21.47,143.77 -21.02,144.35 -20.56,144.92 -20.25,145.59 -19.95,146.26 -19.81,146.98 -19.67,147.70 -4.19,169.75 11.27,191.81 20.41,205.16 29.54,218.51 38.20,225.81 46.86,233.12 51.20,232.67 55.55,232.23 58.07,224.21 60.60,216.20 60.28,201.97 59.97,187.74 51.64,158.27 43.32,128.80 39.50,115.50 35.68,102.19 34.06,97.96 32.45,93.73 32.33,93.02 32.22,92.30 32.28,91.58 32.34,90.86 32.57,90.17 32.80,89.48 33.19,88.87 33.58,88.26 34.10,87.76 34.63,87.26 35.26,86.90 35.89,86.54 36.58,86.34 37.28,86.14 38.00,86.11 38.73,86.08 39.44,86.23 40.15,86.38 40.80,86.69 41.46,87.00 42.02,87.46 42.58,87.92 43.01,88.50 43.45,89.08 43.73,89.75 44.01,90.42 44.90,98.49 45.79,106.57 51.62,135.10 57.44,163.63 62.38,184.18 67.32,204.73 70.37,215.05 73.42,225.37 75.56,229.79 77.71,234.21 77.83,234.92 77.95,235.63 77.90,236.35 77.85,237.07 77.63,237.76 77.40,238.45 77.02,239.06 76.64,239.68 76.13,240.18 75.61,240.69 74.99,241.05 74.36,241.42 73.67,241.63 72.98,241.84 72.26,241.87 71.54,241.91 70.83,241.77 70.12,241.63 69.46,241.33 68.81,241.02 68.24,240.57 67.68,240.12 67.24,239.55 66.80,238.97 66.51,238.31 66.22,237.65 47.53,192.15 28.83,146.64 16.92,122.31 5.01,97.98 -5.62,81.91 -16.25,65.83 -21.84,59.71 -27.43,53.60 -30.99,55.65 -34.55,57.70 -38.47,65.30 -42.38,72.89 -48.31,83.37 -54.24,93.84 -70.32,102.07 -86.41,110.30 -93.89,113.36 -101.38,116.42 -106.46,117.86 -111.53,119.31 -115.15,120.77 -118.77,122.24 -122.87,125.46 -126.96,128.68 -131.12,132.59 -135.28,136.49 -138.94,141.66 -142.60,146.83 -146.24,152.63 -149.87,158.42 -156.73,159.80 -163.59,161.17 -168.25,158.62 -172.91,156.07 -175.92,151.78 -178.93,147.49 -180.49,144.59 -182.06,141.69 -183.74,139.07 -185.43,136.46 -189.35,132.91 -193.26,129.37 -199.50,125.28 -205.74,121.19 -212.18,118.90 -218.62,116.62 -236.62,118.52 -254.61,120.42 -267.84,119.47 -281.08,118.52 -293.32,111.78 -305.56,105.05 -314.09,95.54 -322.63,86.04 -328.96,74.30 -335.29,62.56 -340.60,49.11 -345.90,35.66 -349.78,23.16 -353.65,10.66 -356.22,1.77 -358.78,-7.10 -359.76,-10.30 -360.74,-13.51 -361.89,-18.39 -363.04,-23.28 -363.10,-23.70 -363.16,-24.12 -363.08,-24.54 -363.01,-24.95 -362.80,-25.33 -362.59,-25.70 -362.28,-25.98 -361.96,-26.27 -361.57,-26.44 -361.18,-26.61 -360.76,-26.64 -360.33,-26.68 -359.92,-26.58 -359.51,-26.48 -359.15,-26.25 -358.79,-26.02 -358.52,-25.69 -358.26,-25.36 -358.11,-24.96 -357.96,-24.56 -357.95,-24.14 -357.93,-23.71 -358.06,-23.31 -358.18,-22.90 -358.43,-22.56 -358.67,-22.21 -359.02,-21.96 -359.36,-21.71 -359.77,-21.58 -360.17,-21.46 -360.60,-21.47 -361.02,-21.48 -361.42,-21.62 -361.82,-21.77 -362.15,-22.03 -362.49,-22.30 -362.72,-22.65 -362.95,-23.01 -363.05,-23.42 -363.15,-23.84 -363.12,-24.26 -363.09,-24.68 -362.92,-25.07 -362.76,-25.47 -362.47,-25.78 -362.19,-26.10 -361.82,-26.31 -361.45,-26.52 -361.03,-26.60 -360.62,-26.68 -360.20,-26.63 -359.78,-26.57 -359.39,-26.39 -359.01,-26.20 -358.71,-25.90 -358.41,-25.60 -358.22,-25.22 -358.03,-24.84 -358.03,-24.84 -358.03,-24.84 -356.70,-23.52 -355.38,-22.20 -353.18,-19.51 -350.97,-16.82 -349.74,-13.48 -348.50,-10.14 -345.86,-1.38 -343.21,7.37 -339.34,19.46 -335.47,31.56 -330.42,44.43 -325.38,57.29 -319.77,68.00 -314.17,78.71 -307.01,87.10 -299.85,95.48 -289.83,101.50 -279.80,107.53 -267.71,108.42 -255.62,109.31 -235.44,107.64 -215.27,105.98 -207.43,108.85 -199.60,111.72 -192.55,116.36 -185.49,121.00 -180.68,125.61 -175.87,130.22 -173.92,133.25 -171.98,136.28 -170.65,138.79 -169.32,141.29 -167.76,144.07 -166.21,146.85 -164.64,148.53 -163.07,150.22 -159.78,150.28 -156.50,150.34 -154.31,145.15 -152.11,139.97 -147.69,133.97 -143.28,127.96 -138.57,123.62 -133.86,119.27 -128.37,115.47 -122.88,111.67 -118.61,110.16 -114.34,108.64 -109.86,107.58 -105.38,106.51 -98.28,103.66 -91.18,100.82 -77.46,94.03 -63.73,87.24 -58.15,77.04 -52.57,66.83 -46.31,57.34 -40.06,47.84 -33.21,45.75 -26.36,43.67 -16.48,51.49 -6.59,59.31 4.51,76.03 15.62,92.75 27.81,117.40 40.00,142.06 58.85,188.13 77.71,234.21 77.83,234.92 77.95,235.63 77.90,236.35 77.85,237.07 77.63,237.76 77.40,238.45 77.02,239.06 76.64,239.68 76.13,240.18 75.61,240.69 74.99,241.05 74.37,241.42 73.67,241.63 72.98,241.84 72.26,241.87 71.54,241.91 70.83,241.77 70.12,241.63 69.46,241.33 68.81,241.02 68.24,240.57 67.68,240.12 67.24,239.55 66.80,238.97 66.51,238.31 66.22,237.65 64.27,233.18 62.32,228.72 59.10,218.14 55.88,207.56 50.60,186.82 45.32,166.08 39.49,136.93 33.66,107.78 33.05,100.76 32.45,93.73 32.33,93.02 32.22,92.30 32.28,91.58 32.34,90.86 32.57,90.17 32.80,89.48 33.19,88.87 33.58,88.26 34.10,87.76 34.63,87.26 35.26,86.90 35.89,86.54 36.58,86.34 37.28,86.14 38.00,86.11 38.73,86.08 39.44,86.23 40.15,86.38 40.80,86.69 41.46,87.00 42.02,87.46 42.58,87.92 43.01,88.50 43.45,89.08 43.73,89.75 44.01,90.42 45.64,94.64 47.27,98.87 51.09,112.22 54.91,125.57 63.44,156.56 71.96,187.56 71.83,203.98 71.70,220.40 66.77,230.38 61.83,240.37 52.01,241.69 42.18,243.00 31.04,234.16 19.89,225.32 10.61,211.95 1.33,198.58 -15.24,173.55 -31.82,148.52 -31.78,147.79 -31.74,147.06 -31.53,146.36 -31.31,145.65 -30.94,145.02 -30.57,144.39 -30.05,143.87 -29.54,143.35 -28.91,142.96 -28.29,142.58 -27.59,142.35 -26.89,142.13 -26.16,142.08 -25.42,142.03 -24.70,142.16 -23.98,142.28 -23.31,142.58 -22.64,142.88 -22.05,143.32 -21.47,143.77 -21.02,144.35 -20.56,144.92 -20.25,145.59 -19.95,146.25 -19.81,146.98 -19.67,147.70 -20.27,156.01 -20.86,164.33 -19.81,180.01 -18.75,195.70 -17.94,217.01 -17.12,238.31 -19.29,261.07 -21.46,283.83 -28.46,304.53 -35.46,325.22 -45.18,329.77 -54.90,334.32 -66.14,328.32 -77.37,322.32 -94.40,305.33 -111.44,288.34 -121.77,268.51 -132.10,248.67 -137.61,241.25 -143.12,233.83 -142.85,233.13 -142.58,232.44 -142.16,231.83 -141.73,231.22 -141.17,230.72 -140.61,230.23 -139.94,229.89 -139.28,229.55 -138.55,229.37 -137.83,229.20 -137.08,229.20 -136.34,229.21 -135.61,229.39 -134.89,229.57 -134.23,229.92 -133.57,230.27 -133.02,230.77 -132.46,231.27 -132.04,231.88 -131.62,232.50 -131.36,233.20 -131.10,233.90 -131.01,234.64 -130.93,235.38 -131.02,236.12 -131.12,236.86 -133.70,242.74 -136.28,248.62 -140.06,263.60 -143.84,278.59 -152.55,308.43 -161.25,338.27 -173.71,340.46 -186.17,342.64 -200.45,333.97 -214.72,325.29 -232.70,307.00 -250.68,288.71 -263.72,271.58 -276.77,254.46 -285.22,241.53 -293.67,228.61 -303.33,212.42 -312.99,196.23 -325.76,171.88 -338.54,147.54 -338.79,146.90 -339.05,146.26 -339.14,145.58 -339.24,144.89 -339.17,144.21 -339.10,143.52 -338.86,142.87 -338.63,142.23 -338.25,141.65 -337.87,141.08 -337.36,140.61 -336.85,140.15 -336.25,139.82 -335.64,139.49 -334.97,139.31 -334.31,139.13 -333.62,139.12 -332.93,139.11 -332.26,139.26 -331.59,139.42 -330.97,139.73 -330.36,140.03 -329.83,140.48 -329.31,140.93 -328.91,141.49 -328.51,142.05 -328.05,142.42 -327.59,142.80 -324.89,147.72 -322.18,152.65 -315.73,163.82 -309.27,174.99 -298.06,196.23 -286.85,217.47 -273.44,250.00 -260.03,282.53 -260.78,299.91 -261.53,317.28 -270.80,329.31 -280.06,341.34 -279.97,342.01 -279.89,342.68 -279.96,343.35 -280.03,344.02 -280.26,344.65 -280.49,345.28 -280.87,345.84 -281.24,346.40 -281.74,346.85 -282.24,347.30 -282.83,347.63 -283.43,347.95 -284.08,348.12 -284.73,348.28 -285.40,348.29 -286.08,348.30 -286.73,348.15 -287.39,348.00 -287.99,347.69 -288.59,347.38 -289.10,346.94 -289.61,346.50 -290.00,345.95 -290.39,345.41 -290.63,344.78 -290.88,344.15 -299.10,325.16 -307.31,306.17 -314.55,279.26 -321.80,252.36 -326.35,222.49 -330.90,192.61 -330.74,168.57 -330.59,144.52 -322.61,133.91 -314.62,123.31 -293.85,134.05 -273.08,144.80 -249.30,170.74 -225.51,196.69 -181.78,251.99 -138.04,307.28 -138.11,308.01 -138.18,308.74 -138.42,309.44 -138.65,310.13 -139.05,310.75 -139.45,311.36 -139.98,311.86 -140.52,312.37 -141.16,312.73 -141.79,313.09 -142.50,313.29 -143.21,313.48 -143.94,313.50 -144.67,313.53 -145.39,313.37 -146.11,313.22 -146.76,312.90 -147.42,312.58 -147.99,312.11 -148.55,311.64 -148.99,311.05 -149.42,310.46 -149.70,309.78 -149.98,309.10 -150.09,308.38 -150.20,307.65 -150.10,300.87 -150.01,294.09 -150.52,277.42 -151.03,260.75 -150.64,233.36 -150.24,205.96 -145.30,171.11 -140.35,136.26 -128.72,118.38 -117.09,100.50 -97.75,95.64 -78.41,90.79 -50.55,101.65 -22.69,112.51 29.98,142.13 82.66,171.76 101.44,184.04 120.22,196.32 133.68,199.44 147.14,202.56 156.22,194.42 165.31,186.28 172.89,163.95 180.47,141.63 184.78,114.54 189.09,87.45 194.29,60.57 199.49,33.69 208.30,12.91 217.11,-7.86 232.23,-17.86 247.36,-27.87 267.81,-18.36 288.26,-8.86 324.67,18.11 361.09,45.09 378.81,65.72 396.52,86.36 409.49,99.90 422.46,113.45 425.51,113.04 428.56,112.62 432.17,108.48 435.79,104.33 441.37,95.56 446.94,86.79 454.07,73.63 461.20,60.48 466.90,50.98 472.60,41.48 477.22,40.19 481.84,38.90 489.58,46.71 497.31,54.52 503.07,78.34 508.82,102.15 511.20,126.51 513.59,150.87 512.11,171.88 510.63,192.89 506.44,202.98 502.25,213.07 490.91,211.37 479.57,209.67 471.37,197.61 463.18,185.55 452.18,168.82 441.18,152.09 424.75,131.82 408.33,111.55 408.64,110.88 408.95,110.21 409.41,109.64 409.88,109.06 410.46,108.61 411.05,108.17 411.73,107.87 412.41,107.58 413.13,107.46 413.86,107.33 414.60,107.39 415.33,107.44 416.04,107.67 416.74,107.90 417.36,108.29 417.99,108.68 418.51,109.21 419.02,109.74 419.39,110.38 419.77,111.01 419.98,111.72 420.19,112.43 420.22,113.17 420.26,113.90 420.11,114.63 419.97,115.35 416.07,127.86 412.17,140.36 406.60,157.30 401.04,174.23 392.64,189.01 384.24,203.78 371.55,211.73 358.87,219.68 346.12,214.89 333.38,210.10 320.53,199.33 307.68,188.56 294.45,174.53 281.23,160.49 268.59,146.50 255.96,132.52 244.41,122.19 232.87,111.85 227.53,114.27 222.19,116.69 216.52,129.42 210.86,142.15 200.20,173.13 189.54,204.11 179.30,215.22 169.05,226.33 154.52,228.46 139.98,230.59 122.40,223.82 104.82,217.06 84.24,203.99 63.67,190.93 39.96,173.48 16.25,156.03 0.33,144.53 -15.58,133.03 -28.86,126.46 -42.14,119.89 -52.88,118.66 -63.62,117.42 -73.24,122.63 -82.86,127.85 -89.15,139.68 -95.45,151.51 -102.89,166.03 -110.33,180.54 -121.30,191.18 -132.26,201.81 -146.92,203.59 -161.58,205.37 -179.93,196.48 -198.28,187.59 -210.90,172.95 -223.51,158.30 -232.12,141.91 -240.72,125.52 -243.40,110.83 -246.08,96.15 -244.56,77.92 -243.05,59.68 -243.52,59.10 -243.99,58.52 -244.30,57.84 -244.62,57.17 -244.77,56.44 -244.91,55.70 -244.88,54.96 -244.85,54.21 -244.64,53.50 -244.43,52.78 -244.05,52.13 -243.67,51.49 -243.15,50.95 -242.63,50.42 -242.00,50.02 -241.37,49.62 -240.66,49.39 -239.95,49.16 -239.21,49.10 -238.46,49.04 -237.72,49.16 -236.99,49.29 -236.30,49.58 -235.62,49.88 -235.02,50.33 -234.43,50.78 -225.13,56.56 -215.82,62.35 -203.76,74.06 -191.70,85.78 -179.06,102.17 -166.42,118.57 -154.33,139.11 -142.24,159.66 -140.55,165.94 -138.86,172.23 -138.69,172.96 -138.51,173.69 -138.51,174.44 -138.51,175.19 -138.70,175.92 -138.88,176.64 -139.23,177.31 -139.58,177.97 -140.08,178.53 -140.58,179.09 -141.19,179.51 -141.81,179.93 -142.51,180.20 -143.21,180.46 -143.96,180.55 -144.70,180.64 -145.45,180.55 -146.19,180.45 -146.89,180.18 -147.59,179.92 -148.20,179.49 -148.82,179.06 -149.32,178.50 -149.81,177.94 -150.16,177.27 -150.50,176.61 -152.55,173.42 -154.60,170.23 -158.40,160.01 -162.20,149.80 -165.84,133.56 -169.47,117.32 -170.40,97.39 -171.33,77.46 -167.41,64.13 -163.49,50.81 -155.88,38.94 -148.27,27.08 -137.57,15.67 -126.88,4.27 -112.28,-6.88 -97.68,-18.04 -85.52,-24.03 -73.36,-30.02 -61.90,-33.71 -50.45,-37.41 -40.48,-38.14 -30.52,-38.88 -22.84,-36.49 -15.17,-34.10 -10.17,-29.09 -5.18,-24.08 -2.28,-18.16 0.61,-12.24 2.18,-6.69 3.75,-1.14 3.83,-0.67 3.91,-0.21 3.88,0.26 3.85,0.73 3.71,1.18 3.56,1.63 3.31,2.03 3.07,2.44 2.73,2.77 2.39,3.10 1.99,3.34 1.58,3.58 1.13,3.72 0.68,3.86 0.20,3.88 -0.26,3.91 -0.72,3.82 -1.19,3.73 -1.62,3.54 -2.05,3.34 -2.42,3.05 -2.79,2.75 -3.08,2.38 -3.37,2.00 -3.56,1.57 -3.75,1.14 -3.75,1.14 L -3.75,1.14 Z"></path></g></svg>