<svg version="1.1" xmlns="http://www.w3.org/2000/svg" viewBox="0 0 87.97662896465692 74.84595344268894" width="87.97662896465692" height="74.84595344268894" filter="invert(93%) hue-rotate(180deg)" class="excalidraw-svg">
  <!-- svg-source:excalidraw -->
  
  <defs>
    <style class="style-fonts">
      
    </style>
    
  </defs>
  <g stroke-linecap="round"><g transform="translate(14.00149736482399 27.647871817808664) rotate(0 30.02245412319739 15.869011465118625)" fill-rule="evenodd"><path d="M0 0 C-0.58 0.53, -2.87 1.92, -3.49 3.19 C-4.12 4.45, -3.78 5.15, -3.74 7.57 C-3.7 9.99, -3.54 15.13, -3.25 17.71 C-2.95 20.29, -2.7 21.47, -1.96 23.04 C-1.22 24.61, -0.1 25.76, 1.2 27.14 C2.49 28.53, 4.09 30.2, 5.8 31.35 C7.51 32.51, 9.42 33.3, 11.45 34.06 C13.49 34.82, 15.25 35.39, 18.01 35.9 C20.78 36.42, 24.75 37, 28.06 37.13 C31.37 37.26, 34.4 37.24, 37.87 36.7 C41.33 36.16, 45.54 35.18, 48.83 33.89 C52.13 32.59, 55.27 30.84, 57.63 28.95 C59.98 27.05, 61.96 24.41, 62.99 22.52 C64.01 20.62, 63.65 20.81, 63.78 17.58 C63.91 14.36, 64.15 6.08, 63.75 3.16 C63.35 0.23, 63.13 0.79, 61.39 0.06 C59.65 -0.67, 61.48 -0.32, 53.31 -1.23 C45.13 -2.13, 21.2 -5.6, 12.32 -5.39 C3.43 -5.19, 2.05 -0.9, 0 0" stroke="none" stroke-width="0" fill="#ced4da" fill-rule="evenodd"></path><path d="M0 0 C-0.58 0.53, -2.87 1.92, -3.49 3.19 C-4.12 4.45, -3.78 5.15, -3.74 7.57 C-3.7 9.99, -3.54 15.13, -3.25 17.71 C-2.95 20.29, -2.7 21.47, -1.96 23.04 C-1.22 24.61, -0.1 25.76, 1.2 27.14 C2.49 28.53, 4.09 30.2, 5.8 31.35 C7.51 32.51, 9.42 33.3, 11.45 34.06 C13.49 34.82, 15.25 35.39, 18.01 35.9 C20.78 36.42, 24.75 37, 28.06 37.13 C31.37 37.26, 34.4 37.24, 37.87 36.7 C41.33 36.16, 45.54 35.18, 48.83 33.89 C52.13 32.59, 55.27 30.84, 57.63 28.95 C59.98 27.05, 61.96 24.41, 62.99 22.52 C64.01 20.62, 63.65 20.81, 63.78 17.58 C63.91 14.36, 64.15 6.08, 63.75 3.16 C63.35 0.23, 63.13 0.79, 61.39 0.06 C59.65 -0.67, 61.48 -0.32, 53.31 -1.23 C45.13 -2.13, 21.2 -5.6, 12.32 -5.39 C3.43 -5.19, 2.05 -0.9, 0 0 M0 0 C-0.58 0.53, -2.87 1.92, -3.49 3.19 C-4.12 4.45, -3.78 5.15, -3.74 7.57 C-3.7 9.99, -3.54 15.13, -3.25 17.71 C-2.95 20.29, -2.7 21.47, -1.96 23.04 C-1.22 24.61, -0.1 25.76, 1.2 27.14 C2.49 28.53, 4.09 30.2, 5.8 31.35 C7.51 32.51, 9.42 33.3, 11.45 34.06 C13.49 34.82, 15.25 35.39, 18.01 35.9 C20.78 36.42, 24.75 37, 28.06 37.13 C31.37 37.26, 34.4 37.24, 37.87 36.7 C41.33 36.16, 45.54 35.18, 48.83 33.89 C52.13 32.59, 55.27 30.84, 57.63 28.95 C59.98 27.05, 61.96 24.41, 62.99 22.52 C64.01 20.62, 63.65 20.81, 63.78 17.58 C63.91 14.36, 64.15 6.08, 63.75 3.16 C63.35 0.23, 63.13 0.79, 61.39 0.06 C59.65 -0.67, 61.48 -0.32, 53.31 -1.23 C45.13 -2.13, 21.2 -5.6, 12.32 -5.39 C3.43 -5.19, 2.05 -0.9, 0 0" stroke="#495057" stroke-width="2" fill="none"></path></g></g><mask></mask><g stroke-linecap="round" transform="translate(10 10) rotate(0 33.98831448232846 21.355489630489487)"><path d="M67.98 21.36 C67.98 22.59, 67.8 23.85, 67.46 25.06 C67.12 26.28, 66.6 27.5, 65.93 28.66 C65.25 29.82, 64.41 30.96, 63.42 32.03 C62.44 33.1, 61.29 34.14, 60.02 35.08 C58.76 36.03, 57.34 36.92, 55.84 37.71 C54.33 38.51, 52.69 39.23, 50.98 39.85 C49.28 40.47, 47.46 41, 45.61 41.42 C43.76 41.85, 41.83 42.17, 39.89 42.39 C37.95 42.6, 35.96 42.71, 33.99 42.71 C32.02 42.71, 30.02 42.6, 28.09 42.39 C26.15 42.17, 24.21 41.85, 22.36 41.42 C20.51 41, 18.7 40.47, 16.99 39.85 C15.29 39.23, 13.65 38.51, 12.14 37.71 C10.63 36.92, 9.22 36.03, 7.95 35.08 C6.69 34.14, 5.54 33.1, 4.55 32.03 C3.57 30.96, 2.72 29.82, 2.05 28.66 C1.38 27.5, 0.86 26.28, 0.52 25.06 C0.17 23.85, 0 22.59, 0 21.36 C0 20.12, 0.17 18.86, 0.52 17.65 C0.86 16.43, 1.38 15.21, 2.05 14.05 C2.72 12.89, 3.57 11.75, 4.55 10.68 C5.54 9.61, 6.69 8.58, 7.95 7.63 C9.22 6.68, 10.63 5.79, 12.14 5 C13.65 4.2, 15.29 3.48, 16.99 2.86 C18.7 2.24, 20.51 1.71, 22.36 1.29 C24.21 0.87, 26.15 0.54, 28.09 0.32 C30.02 0.11, 32.02 0, 33.99 0 C35.96 0, 37.95 0.11, 39.89 0.32 C41.83 0.54, 43.76 0.87, 45.61 1.29 C47.46 1.71, 49.28 2.24, 50.98 2.86 C52.69 3.48, 54.33 4.2, 55.84 5 C57.34 5.79, 58.76 6.68, 60.02 7.63 C61.29 8.58, 62.44 9.61, 63.42 10.68 C64.41 11.75, 65.25 12.89, 65.93 14.05 C66.6 15.21, 67.12 16.43, 67.46 17.65 C67.8 18.86, 67.89 20.74, 67.98 21.36 C68.06 21.97, 68.06 20.74, 67.98 21.36" stroke="none" stroke-width="0" fill="#ced4da"></path><path d="M67.98 21.36 C67.98 22.59, 67.8 23.85, 67.46 25.06 C67.12 26.28, 66.6 27.5, 65.93 28.66 C65.25 29.82, 64.41 30.96, 63.42 32.03 C62.44 33.1, 61.29 34.14, 60.02 35.08 C58.76 36.03, 57.34 36.92, 55.84 37.71 C54.33 38.51, 52.69 39.23, 50.98 39.85 C49.28 40.47, 47.46 41, 45.61 41.42 C43.76 41.85, 41.83 42.17, 39.89 42.39 C37.95 42.6, 35.96 42.71, 33.99 42.71 C32.02 42.71, 30.02 42.6, 28.09 42.39 C26.15 42.17, 24.21 41.85, 22.36 41.42 C20.51 41, 18.7 40.47, 16.99 39.85 C15.29 39.23, 13.65 38.51, 12.14 37.71 C10.63 36.92, 9.22 36.03, 7.95 35.08 C6.69 34.14, 5.54 33.1, 4.55 32.03 C3.57 30.96, 2.72 29.82, 2.05 28.66 C1.38 27.5, 0.86 26.28, 0.52 25.06 C0.17 23.85, 0 22.59, 0 21.36 C0 20.12, 0.17 18.86, 0.52 17.65 C0.86 16.43, 1.38 15.21, 2.05 14.05 C2.72 12.89, 3.57 11.75, 4.55 10.68 C5.54 9.61, 6.69 8.58, 7.95 7.63 C9.22 6.68, 10.63 5.79, 12.14 5 C13.65 4.2, 15.29 3.48, 16.99 2.86 C18.7 2.24, 20.51 1.71, 22.36 1.29 C24.21 0.87, 26.15 0.54, 28.09 0.32 C30.02 0.11, 32.02 0, 33.99 0 C35.96 0, 37.95 0.11, 39.89 0.32 C41.83 0.54, 43.76 0.87, 45.61 1.29 C47.46 1.71, 49.28 2.24, 50.98 2.86 C52.69 3.48, 54.33 4.2, 55.84 5 C57.34 5.79, 58.76 6.68, 60.02 7.63 C61.29 8.58, 62.44 9.61, 63.42 10.68 C64.41 11.75, 65.25 12.89, 65.93 14.05 C66.6 15.21, 67.12 16.43, 67.46 17.65 C67.8 18.86, 67.89 20.74, 67.98 21.36 C68.06 21.97, 68.06 20.74, 67.98 21.36" stroke="#495057" stroke-width="2" fill="none"></path></g><g stroke-linecap="round"><g transform="translate(34.89957206134159 28.40667301902954) rotate(180 -3.416358242091107 -6.336697255434558)" fill-rule="evenodd"><path d="M0 0 L-7.75 -6.28 L-11.67 -4 L-11.76 -12.67 L-0.83 -11.88 L-4.51 -9.05 L4.92 -2.36 L0 0" stroke="none" stroke-width="0" fill="#495057" fill-rule="evenodd"></path><path d="M0 0 C-1.97 -1.6, -3.94 -3.2, -7.75 -6.28 M0 0 C-1.69 -1.37, -3.38 -2.74, -7.75 -6.28 M-7.75 -6.28 C-8.7 -5.73, -9.65 -5.18, -11.67 -4 M-7.75 -6.28 C-9.06 -5.52, -10.38 -4.75, -11.67 -4 M-11.67 -4 C-11.69 -6.48, -11.72 -8.95, -11.76 -12.67 M-11.67 -4 C-11.7 -7.39, -11.74 -10.78, -11.76 -12.67 M-11.76 -12.67 C-8.11 -12.41, -4.47 -12.14, -0.83 -11.88 M-11.76 -12.67 C-8.54 -12.44, -5.32 -12.2, -0.83 -11.88 M-0.83 -11.88 C-1.9 -11.05, -2.97 -10.23, -4.51 -9.05 M-0.83 -11.88 C-1.82 -11.12, -2.8 -10.36, -4.51 -9.05 M-4.51 -9.05 C-2.04 -7.29, 0.43 -5.54, 4.92 -2.36 M-4.51 -9.05 C-2.21 -7.42, 0.09 -5.78, 4.92 -2.36 M4.92 -2.36 C3.45 -1.65, 1.98 -0.95, 0 0 M4.92 -2.36 C3.09 -1.48, 1.25 -0.6, 0 0 M0 0 C0 0, 0 0, 0 0 M0 0 C0 0, 0 0, 0 0" stroke="#495057" stroke-width="1" fill="none"></path></g></g><mask></mask><g stroke-linecap="round"><g transform="translate(58.56569440592693 46.51211612125587) rotate(0 -4.410317227612268 -6.4846115866535285)" fill-rule="evenodd"><path d="M0 0 L-8.53 -6.69 L-12.38 -3.24 L-12.47 -12.97 L-1.75 -12.19 L-5.35 -9.41 L3.65 -3.35 L0 0" stroke="none" stroke-width="0" fill="#495057" fill-rule="evenodd"></path><path d="M0 0 C-3.24 -2.55, -6.49 -5.09, -8.53 -6.69 M0 0 C-3.1 -2.43, -6.19 -4.86, -8.53 -6.69 M-8.53 -6.69 C-9.36 -5.95, -10.19 -5.21, -12.38 -3.24 M-8.53 -6.69 C-9.41 -5.91, -10.28 -5.13, -12.38 -3.24 M-12.38 -3.24 C-12.41 -6.14, -12.43 -9.04, -12.47 -12.97 M-12.38 -3.24 C-12.4 -5.19, -12.42 -7.14, -12.47 -12.97 M-12.47 -12.97 C-9.16 -12.73, -5.85 -12.49, -1.75 -12.19 M-12.47 -12.97 C-9.94 -12.79, -7.42 -12.6, -1.75 -12.19 M-1.75 -12.19 C-3.05 -11.18, -4.36 -10.18, -5.35 -9.41 M-1.75 -12.19 C-2.71 -11.45, -3.67 -10.71, -5.35 -9.41 M-5.35 -9.41 C-2.22 -7.3, 0.92 -5.19, 3.65 -3.35 M-5.35 -9.41 C-2.54 -7.51, 0.28 -5.62, 3.65 -3.35 M3.65 -3.35 C2.24 -2.05, 0.83 -0.76, 0 0 M3.65 -3.35 C2.61 -2.4, 1.58 -1.45, 0 0 M0 0 C0 0, 0 0, 0 0 M0 0 C0 0, 0 0, 0 0" stroke="#495057" stroke-width="1" fill="none"></path></g></g><mask></mask><g stroke-linecap="round"><g transform="translate(27.759217193245604 45.85600567688391) rotate(180 4.4103172276122535 -6.4846115866535285)" fill-rule="evenodd"><path d="M0 0 L8.53 -6.69 L12.38 -3.24 L12.47 -12.97 L1.75 -12.19 L5.35 -9.41 L-3.65 -3.35 L0 0" stroke="none" stroke-width="0" fill="#495057" fill-rule="evenodd"></path><path d="M0 0 C2.41 -1.89, 4.82 -3.78, 8.53 -6.69 M0 0 C2.54 -1.99, 5.08 -3.98, 8.53 -6.69 M8.53 -6.69 C9.43 -5.89, 10.32 -5.09, 12.38 -3.24 M8.53 -6.69 C9.62 -5.72, 10.71 -4.74, 12.38 -3.24 M12.38 -3.24 C12.41 -6.15, 12.43 -9.06, 12.47 -12.97 M12.38 -3.24 C12.41 -6.76, 12.44 -10.27, 12.47 -12.97 M12.47 -12.97 C9.34 -12.74, 6.22 -12.51, 1.75 -12.19 M12.47 -12.97 C8.41 -12.67, 4.35 -12.38, 1.75 -12.19 M1.75 -12.19 C2.58 -11.55, 3.4 -10.91, 5.35 -9.41 M1.75 -12.19 C2.96 -11.25, 4.18 -10.32, 5.35 -9.41 M5.35 -9.41 C1.84 -7.05, -1.66 -4.69, -3.65 -3.35 M5.35 -9.41 C1.8 -7.02, -1.75 -4.62, -3.65 -3.35 M-3.65 -3.35 C-2.73 -2.5, -1.8 -1.66, 0 0 M-3.65 -3.35 C-2.29 -2.11, -0.94 -0.86, 0 0 M0 0 C0 0, 0 0, 0 0 M0 0 C0 0, 0 0, 0 0" stroke="#495057" stroke-width="1" fill="none"></path></g></g><mask></mask><g stroke-linecap="round"><g transform="translate(48.289057686161414 29.650664051941362) rotate(0 4.4103172276122535 -6.4846115866535285)" fill-rule="evenodd"><path d="M0 0 L8.53 -6.69 L12.38 -3.24 L12.47 -12.97 L1.75 -12.19 L5.35 -9.41 L-3.65 -3.35 L0 0" stroke="none" stroke-width="0" fill="#495057" fill-rule="evenodd"></path><path d="M0 0 C2.15 -1.69, 4.3 -3.38, 8.53 -6.69 M0 0 C2.81 -2.2, 5.62 -4.41, 8.53 -6.69 M8.53 -6.69 C9.52 -5.81, 10.5 -4.93, 12.38 -3.24 M8.53 -6.69 C9.65 -5.69, 10.76 -4.69, 12.38 -3.24 M12.38 -3.24 C12.4 -5.67, 12.43 -8.09, 12.47 -12.97 M12.38 -3.24 C12.41 -6.73, 12.44 -10.21, 12.47 -12.97 M12.47 -12.97 C9.59 -12.76, 6.7 -12.55, 1.75 -12.19 M12.47 -12.97 C9.99 -12.79, 7.51 -12.61, 1.75 -12.19 M1.75 -12.19 C2.6 -11.53, 3.46 -10.87, 5.35 -9.41 M1.75 -12.19 C2.58 -11.55, 3.41 -10.91, 5.35 -9.41 M5.35 -9.41 C2.55 -7.52, -0.25 -5.64, -3.65 -3.35 M5.35 -9.41 C3.5 -8.16, 1.64 -6.91, -3.65 -3.35 M-3.65 -3.35 C-2.44 -2.24, -1.22 -1.13, 0 0 M-3.65 -3.35 C-2.4 -2.21, -1.16 -1.06, 0 0 M0 0 C0 0, 0 0, 0 0 M0 0 C0 0, 0 0, 0 0" stroke="#495057" stroke-width="1" fill="none"></path></g></g><mask></mask></svg>