<svg version="1.1" xmlns="http://www.w3.org/2000/svg" viewBox="0 0 641.512939453125 826.3693932128906" width="641.512939453125" height="826.3693932128906" class="excalidraw-svg">
  <!-- svg-source:excalidraw -->
  
  <defs>
    <style class="style-fonts">
      
    </style>
    
  </defs>
  <g stroke-linecap="round"><g transform="translate(306.68304443359375 732.6894836425781) rotate(0 0 -279.1863555908203)"><path d="M0 0 C0 -196.28, 0 -392.55, 0 -558.37 M0 0 C0 -206.72, 0 -413.44, 0 -558.37" stroke="#FFFFFF" stroke-width="2" fill="none"></path></g><g transform="translate(306.68304443359375 732.6894836425781) rotate(0 0 -279.1863555908203)"><path d="M8.55 -534.88 C5.54 -543.14, 2.54 -551.4, 0 -558.37 M8.55 -534.88 C5.38 -543.58, 2.22 -552.27, 0 -558.37" stroke="#FFFFFF" stroke-width="2" fill="none"></path></g><g transform="translate(306.68304443359375 732.6894836425781) rotate(0 0 -279.1863555908203)"><path d="M-8.55 -534.88 C-5.54 -543.14, -2.54 -551.4, 0 -558.37 M-8.55 -534.88 C-5.38 -543.58, -2.22 -552.27, 0 -558.37" stroke="#FFFFFF" stroke-width="2" fill="none"></path></g></g><mask></mask><g stroke-linecap="round"><g transform="translate(10 502.1895446777344) rotate(0 310.7564697265625 0)"><path d="M0 0 C198.4 0, 396.81 0, 621.51 0 M0 0 C201.33 0, 402.65 0, 621.51 0" stroke="#FFFFFF" stroke-width="2" fill="none"></path></g><g transform="translate(10 502.1895446777344) rotate(0 310.7564697265625 0)"><path d="M598.02 8.55 C605.52 5.82, 613.02 3.09, 621.51 0 M598.02 8.55 C605.63 5.78, 613.24 3.01, 621.51 0" stroke="#FFFFFF" stroke-width="2" fill="none"></path></g><g transform="translate(10 502.1895446777344) rotate(0 310.7564697265625 0)"><path d="M598.02 -8.55 C605.52 -5.82, 613.02 -3.09, 621.51 0 M598.02 -8.55 C605.63 -5.78, 613.24 -3.01, 621.51 0" stroke="#FFFFFF" stroke-width="2" fill="none"></path></g></g><mask></mask><g transform="translate(159.102294921875 207.7886962890625) rotate(0 195.8868408203125 144.1575469970703)" stroke="none"><path fill="#FFFFFF" d="M 3.14,-0.17 Q 3.14,-0.17 3.36,3.76 3.58,7.69 3.61,13.59 3.63,19.48 3.62,24.81 3.60,30.14 3.58,35.69 3.56,41.24 3.32,47.80 3.08,54.36 2.97,61.26 2.86,68.15 2.81,75.24 2.76,82.32 3.59,88.88 4.43,95.44 5.43,101.31 6.44,107.18 7.72,112.22 9.00,117.26 10.41,121.06 11.81,124.87 12.78,128.65 13.76,132.43 14.80,136.09 15.85,139.75 16.99,143.24 18.12,146.73 18.92,150.35 19.72,153.97 20.67,157.54 21.61,161.10 22.50,164.65 23.39,168.19 24.44,171.31 25.49,174.42 27.08,177.76 28.67,181.10 30.61,185.03 32.54,188.96 34.85,193.26 37.16,197.55 39.59,201.27 42.03,204.99 44.58,208.55 47.12,212.10 49.98,216.30 52.84,220.50 55.16,223.20 57.48,225.91 59.74,227.71 61.99,229.51 64.12,231.11 66.26,232.70 68.66,234.40 71.06,236.10 73.27,237.68 75.48,239.25 77.80,240.66 80.13,242.08 82.52,243.57 84.92,245.07 87.26,246.55 89.61,248.03 92.22,249.17 94.83,250.31 97.32,251.21 99.80,252.11 103.83,253.35 107.86,254.59 111.91,255.90 115.96,257.20 119.49,257.88 123.02,258.57 126.10,258.99 129.18,259.41 131.65,259.97 134.12,260.53 137.84,261.48 141.55,262.43 144.73,264.03 147.91,265.64 149.83,268.18 151.74,270.71 153.69,273.91 155.64,277.10 157.62,278.98 159.61,280.87 162.61,281.46 165.62,282.04 170.24,282.20 174.86,282.36 178.38,282.59 181.91,282.82 185.79,283.09 189.66,283.37 194.24,282.22 198.81,281.08 204.14,279.77 209.47,278.46 214.39,276.52 219.31,274.58 224.23,272.08 229.15,269.58 233.79,266.43 238.42,263.28 243.04,259.78 247.67,256.28 252.18,252.04 256.70,247.80 261.47,242.75 266.23,237.69 270.91,232.69 275.59,227.68 280.19,222.52 284.79,217.35 289.15,212.32 293.51,207.29 297.74,201.92 301.97,196.55 307.46,188.83 312.96,181.11 317.45,173.73 321.94,166.35 326.27,159.04 330.59,151.73 334.85,144.67 339.11,137.62 343.62,131.66 348.13,125.71 351.75,120.83 355.38,115.96 358.38,110.93 361.38,105.90 363.49,101.02 365.59,96.15 367.59,90.79 369.58,85.44 371.56,80.88 373.54,76.33 375.49,72.40 377.44,68.46 379.07,63.69 380.70,58.92 382.06,54.66 383.43,50.40 384.12,46.73 384.80,43.05 385.41,40.01 386.02,36.97 387.02,33.25 388.02,29.54 388.35,29.03 388.69,28.51 389.17,28.13 389.65,27.75 390.23,27.55 390.81,27.34 391.42,27.33 392.03,27.32 392.61,27.51 393.20,27.69 393.69,28.05 394.19,28.42 394.54,28.92 394.89,29.42 395.07,30.00 395.24,30.59 395.22,31.20 395.20,31.82 394.98,32.39 394.76,32.96 394.38,33.44 393.99,33.91 393.47,34.24 392.95,34.56 392.35,34.70 391.76,34.85 391.15,34.79 390.54,34.73 389.98,34.49 389.42,34.24 388.96,33.83 388.51,33.41 388.21,32.88 387.92,32.34 387.81,31.74 387.70,31.14 387.79,30.53 387.88,29.92 388.15,29.38 388.43,28.83 388.87,28.40 389.30,27.97 389.86,27.71 390.41,27.44 391.02,27.36 391.62,27.28 392.22,27.41 392.82,27.53 393.35,27.83 393.88,28.14 394.29,28.60 394.69,29.06 394.93,29.62 395.17,30.19 395.21,30.80 395.26,31.41 395.10,32.00 394.95,32.60 394.95,32.60 394.95,32.60 393.56,35.60 392.18,38.61 391.22,41.41 390.27,44.21 389.35,48.11 388.43,52.01 387.05,56.32 385.67,60.62 383.91,65.71 382.15,70.79 380.26,74.61 378.36,78.43 376.44,82.85 374.51,87.28 372.46,92.76 370.42,98.24 368.16,103.42 365.90,108.60 362.75,113.85 359.61,119.10 355.97,123.99 352.33,128.89 347.98,134.62 343.63,140.34 339.39,147.39 335.15,154.43 330.81,161.77 326.47,169.11 321.89,176.65 317.30,184.19 311.74,192.02 306.18,199.85 301.89,205.34 297.60,210.82 293.23,215.89 288.87,220.97 284.25,226.20 279.64,231.44 274.99,236.49 270.34,241.53 265.51,246.76 260.68,251.98 256.00,256.49 251.32,261.00 246.66,264.69 242.00,268.39 237.13,271.89 232.27,275.40 227.19,278.25 222.11,281.10 216.87,283.51 211.64,285.93 206.46,287.67 201.27,289.41 195.52,291.32 189.77,293.24 185.82,293.50 181.87,293.76 178.30,293.97 174.73,294.17 171.98,294.21 169.23,294.24 164.87,293.92 160.51,293.59 157.94,292.79 155.37,292.00 152.15,289.35 148.94,286.71 146.56,283.22 144.18,279.73 142.46,276.06 140.74,272.38 138.05,271.10 135.35,269.81 131.63,268.41 127.91,267.01 124.79,266.40 121.67,265.80 117.82,265.10 113.98,264.40 109.94,263.47 105.90,262.55 101.19,261.63 96.48,260.72 93.83,259.63 91.18,258.55 87.90,257.07 84.61,255.60 82.34,254.02 80.06,252.43 77.77,250.83 75.47,249.24 72.94,247.49 70.40,245.74 68.37,244.00 66.35,242.26 63.92,240.28 61.50,238.29 59.50,236.36 57.50,234.43 55.17,232.06 52.83,229.68 50.53,226.68 48.24,223.67 45.37,219.58 42.51,215.48 39.82,211.88 37.14,208.28 34.47,204.41 31.80,200.55 29.30,196.26 26.81,191.96 24.63,188.05 22.46,184.14 20.56,180.35 18.67,176.55 17.70,173.17 16.72,169.78 15.94,166.27 15.15,162.77 14.20,159.00 13.25,155.24 12.69,151.90 12.13,148.56 11.10,144.94 10.07,141.31 9.10,137.51 8.13,133.70 7.45,130.20 6.77,126.70 5.31,122.63 3.85,118.57 2.52,113.33 1.18,108.08 0.14,102.10 -0.88,96.12 -1.76,89.21 -2.64,82.30 -2.62,75.19 -2.60,68.08 -2.53,61.13 -2.45,54.18 -2.27,47.72 -2.09,41.26 -2.14,35.72 -2.20,30.19 -2.29,24.88 -2.38,19.57 -2.55,13.81 -2.71,8.04 -2.93,4.11 -3.14,0.17 -3.12,-0.20 -3.09,-0.58 -2.98,-0.94 -2.86,-1.30 -2.66,-1.63 -2.47,-1.95 -2.20,-2.22 -1.93,-2.49 -1.60,-2.68 -1.27,-2.87 -0.91,-2.99 -0.55,-3.10 -0.17,-3.12 0.20,-3.14 0.57,-3.07 0.95,-3.00 1.29,-2.84 1.64,-2.68 1.94,-2.45 2.23,-2.21 2.47,-1.91 2.70,-1.61 2.85,-1.26 3.01,-0.92 3.07,-0.54 3.14,-0.17 3.14,-0.17 L 3.14,-0.17 Z"></path></g><g transform="translate(159.102294921875 128.6732177734375) rotate(0 195.8868408203125 144.1575469970703)" stroke="none"><path fill="#FFFFFF" d="M 3.14,-0.17 Q 3.14,-0.17 3.36,3.76 3.58,7.69 3.61,13.59 3.63,19.48 3.62,24.81 3.60,30.14 3.58,35.69 3.56,41.24 3.32,47.80 3.08,54.36 2.97,61.26 2.86,68.15 2.81,75.24 2.76,82.32 3.59,88.88 4.43,95.44 5.43,101.31 6.44,107.18 7.72,112.22 9.00,117.26 10.41,121.06 11.81,124.87 12.78,128.65 13.76,132.43 14.80,136.09 15.85,139.75 16.99,143.24 18.12,146.73 18.92,150.35 19.72,153.97 20.67,157.54 21.61,161.10 22.50,164.65 23.39,168.19 24.44,171.31 25.49,174.42 27.08,177.76 28.67,181.10 30.61,185.03 32.54,188.96 34.85,193.26 37.16,197.55 39.59,201.27 42.03,204.99 44.58,208.55 47.12,212.10 49.98,216.30 52.84,220.50 55.16,223.20 57.48,225.91 59.74,227.71 61.99,229.51 64.12,231.11 66.26,232.70 68.66,234.40 71.06,236.10 73.27,237.68 75.48,239.25 77.80,240.66 80.13,242.08 82.52,243.57 84.92,245.07 87.26,246.55 89.61,248.03 92.22,249.17 94.83,250.31 97.32,251.21 99.80,252.11 103.83,253.35 107.86,254.59 111.91,255.90 115.96,257.20 119.49,257.88 123.02,258.57 126.10,258.99 129.18,259.41 131.65,259.97 134.12,260.53 137.84,261.48 141.55,262.43 144.73,264.03 147.91,265.64 149.83,268.18 151.74,270.71 153.69,273.91 155.64,277.10 157.62,278.98 159.61,280.87 162.61,281.46 165.62,282.04 170.24,282.20 174.86,282.36 178.38,282.59 181.91,282.82 185.79,283.09 189.66,283.37 194.24,282.22 198.81,281.08 204.14,279.77 209.47,278.46 214.39,276.52 219.31,274.58 224.23,272.08 229.15,269.58 233.79,266.43 238.42,263.28 243.04,259.78 247.67,256.28 252.18,252.04 256.70,247.80 261.47,242.75 266.23,237.69 270.91,232.69 275.59,227.68 280.19,222.52 284.79,217.35 289.15,212.32 293.51,207.29 297.74,201.92 301.97,196.55 307.46,188.83 312.96,181.11 317.45,173.73 321.94,166.35 326.27,159.04 330.59,151.73 334.85,144.67 339.11,137.62 343.62,131.66 348.13,125.71 351.75,120.83 355.38,115.96 358.38,110.93 361.38,105.90 363.49,101.02 365.59,96.15 367.59,90.79 369.58,85.44 371.56,80.88 373.54,76.33 375.49,72.40 377.44,68.46 379.07,63.69 380.70,58.92 382.06,54.66 383.43,50.40 384.12,46.73 384.80,43.05 385.41,40.01 386.02,36.97 387.02,33.25 388.02,29.54 388.35,29.03 388.69,28.51 389.17,28.13 389.65,27.75 390.23,27.55 390.81,27.34 391.42,27.33 392.03,27.32 392.61,27.51 393.20,27.69 393.69,28.05 394.19,28.42 394.54,28.92 394.89,29.42 395.07,30.00 395.24,30.59 395.22,31.20 395.20,31.82 394.98,32.39 394.76,32.96 394.38,33.44 393.99,33.91 393.47,34.24 392.95,34.56 392.35,34.70 391.76,34.85 391.15,34.79 390.54,34.73 389.98,34.49 389.42,34.24 388.96,33.83 388.51,33.41 388.21,32.88 387.92,32.34 387.81,31.74 387.70,31.14 387.79,30.53 387.88,29.92 388.15,29.38 388.43,28.83 388.87,28.40 389.30,27.97 389.86,27.71 390.41,27.44 391.02,27.36 391.62,27.28 392.22,27.41 392.82,27.53 393.35,27.83 393.88,28.14 394.29,28.60 394.69,29.06 394.93,29.62 395.17,30.19 395.21,30.80 395.26,31.41 395.10,32.00 394.95,32.60 394.95,32.60 394.95,32.60 393.56,35.60 392.18,38.61 391.22,41.41 390.27,44.21 389.35,48.11 388.43,52.01 387.05,56.32 385.67,60.62 383.91,65.71 382.15,70.79 380.26,74.61 378.36,78.43 376.44,82.85 374.51,87.28 372.46,92.76 370.42,98.24 368.16,103.42 365.90,108.60 362.75,113.85 359.61,119.10 355.97,123.99 352.33,128.89 347.98,134.62 343.63,140.34 339.39,147.39 335.15,154.43 330.81,161.77 326.47,169.11 321.89,176.65 317.30,184.19 311.74,192.02 306.18,199.85 301.89,205.34 297.60,210.82 293.23,215.89 288.87,220.97 284.25,226.20 279.64,231.44 274.99,236.49 270.34,241.53 265.51,246.76 260.68,251.98 256.00,256.49 251.32,261.00 246.66,264.69 242.00,268.39 237.13,271.89 232.27,275.40 227.19,278.25 222.11,281.10 216.87,283.51 211.64,285.93 206.46,287.67 201.27,289.41 195.52,291.32 189.77,293.24 185.82,293.50 181.87,293.76 178.30,293.97 174.73,294.17 171.98,294.21 169.23,294.24 164.87,293.92 160.51,293.59 157.94,292.79 155.37,292.00 152.15,289.35 148.94,286.71 146.56,283.22 144.18,279.73 142.46,276.06 140.74,272.38 138.05,271.10 135.35,269.81 131.63,268.41 127.91,267.01 124.79,266.40 121.67,265.80 117.82,265.10 113.98,264.40 109.94,263.47 105.90,262.55 101.19,261.63 96.48,260.72 93.83,259.63 91.18,258.55 87.90,257.07 84.61,255.60 82.34,254.02 80.06,252.43 77.77,250.83 75.47,249.24 72.94,247.49 70.40,245.74 68.37,244.00 66.35,242.26 63.92,240.28 61.50,238.29 59.50,236.36 57.50,234.43 55.17,232.06 52.83,229.68 50.53,226.68 48.24,223.67 45.37,219.58 42.51,215.48 39.82,211.88 37.14,208.28 34.47,204.41 31.80,200.55 29.30,196.26 26.81,191.96 24.63,188.05 22.46,184.14 20.56,180.35 18.67,176.55 17.70,173.17 16.72,169.78 15.94,166.27 15.15,162.77 14.20,159.00 13.25,155.24 12.69,151.90 12.13,148.56 11.10,144.94 10.07,141.31 9.10,137.51 8.13,133.70 7.45,130.20 6.77,126.70 5.31,122.63 3.85,118.57 2.52,113.33 1.18,108.08 0.14,102.10 -0.88,96.12 -1.76,89.21 -2.64,82.30 -2.62,75.19 -2.60,68.08 -2.53,61.13 -2.45,54.18 -2.27,47.72 -2.09,41.26 -2.14,35.72 -2.20,30.19 -2.29,24.88 -2.38,19.57 -2.55,13.81 -2.71,8.04 -2.93,4.11 -3.14,0.17 -3.12,-0.20 -3.09,-0.58 -2.98,-0.94 -2.86,-1.30 -2.66,-1.63 -2.47,-1.95 -2.20,-2.22 -1.93,-2.49 -1.60,-2.68 -1.27,-2.87 -0.91,-2.99 -0.55,-3.10 -0.17,-3.12 0.20,-3.14 0.57,-3.07 0.95,-3.00 1.29,-2.84 1.64,-2.68 1.94,-2.45 2.23,-2.21 2.47,-1.91 2.70,-1.61 2.85,-1.26 3.01,-0.92 3.07,-0.54 3.14,-0.17 3.14,-0.17 L 3.14,-0.17 Z"></path></g><g transform="translate(159.102294921875 10) rotate(0 195.8868408203125 144.1575469970703)" stroke="none"><path fill="#FFFFFF" d="M 3.14,-0.17 Q 3.14,-0.17 3.36,3.76 3.58,7.69 3.61,13.59 3.63,19.48 3.62,24.81 3.60,30.14 3.58,35.69 3.56,41.24 3.32,47.80 3.08,54.36 2.97,61.26 2.86,68.15 2.81,75.24 2.76,82.32 3.59,88.88 4.43,95.44 5.43,101.31 6.44,107.18 7.72,112.22 9.00,117.26 10.41,121.06 11.81,124.87 12.78,128.65 13.76,132.43 14.80,136.09 15.85,139.75 16.99,143.24 18.12,146.73 18.92,150.35 19.72,153.97 20.67,157.54 21.61,161.10 22.50,164.65 23.39,168.19 24.44,171.31 25.49,174.42 27.08,177.76 28.67,181.10 30.61,185.03 32.54,188.96 34.85,193.26 37.16,197.55 39.59,201.27 42.03,204.99 44.58,208.55 47.12,212.10 49.98,216.30 52.84,220.50 55.16,223.20 57.48,225.91 59.74,227.71 61.99,229.51 64.12,231.11 66.26,232.70 68.66,234.40 71.06,236.10 73.27,237.68 75.48,239.25 77.80,240.66 80.13,242.08 82.52,243.57 84.92,245.07 87.26,246.55 89.61,248.03 92.22,249.17 94.83,250.31 97.32,251.21 99.80,252.11 103.83,253.35 107.86,254.59 111.91,255.90 115.96,257.20 119.49,257.88 123.02,258.57 126.10,258.99 129.18,259.41 131.65,259.97 134.12,260.53 137.84,261.48 141.55,262.43 144.73,264.03 147.91,265.64 149.83,268.18 151.74,270.71 153.69,273.91 155.64,277.10 157.62,278.98 159.61,280.87 162.61,281.46 165.62,282.04 170.24,282.20 174.86,282.36 178.38,282.59 181.91,282.82 185.79,283.09 189.66,283.37 194.24,282.22 198.81,281.08 204.14,279.77 209.47,278.46 214.39,276.52 219.31,274.58 224.23,272.08 229.15,269.58 233.79,266.43 238.42,263.28 243.04,259.78 247.67,256.28 252.18,252.04 256.70,247.80 261.47,242.75 266.23,237.69 270.91,232.69 275.59,227.68 280.19,222.52 284.79,217.35 289.15,212.32 293.51,207.29 297.74,201.92 301.97,196.55 307.46,188.83 312.96,181.11 317.45,173.73 321.94,166.35 326.27,159.04 330.59,151.73 334.85,144.67 339.11,137.62 343.62,131.66 348.13,125.71 351.75,120.83 355.38,115.96 358.38,110.93 361.38,105.90 363.49,101.02 365.59,96.15 367.59,90.79 369.58,85.44 371.56,80.88 373.54,76.33 375.49,72.40 377.44,68.46 379.07,63.69 380.70,58.92 382.06,54.66 383.43,50.40 384.12,46.73 384.80,43.05 385.41,40.01 386.02,36.97 387.02,33.25 388.02,29.54 388.35,29.03 388.69,28.51 389.17,28.13 389.65,27.75 390.23,27.55 390.81,27.34 391.42,27.33 392.03,27.32 392.61,27.51 393.20,27.69 393.69,28.05 394.19,28.42 394.54,28.92 394.89,29.42 395.07,30.00 395.24,30.59 395.22,31.20 395.20,31.82 394.98,32.39 394.76,32.96 394.38,33.44 393.99,33.91 393.47,34.24 392.95,34.56 392.35,34.70 391.76,34.85 391.15,34.79 390.54,34.73 389.98,34.49 389.42,34.24 388.96,33.83 388.51,33.41 388.21,32.88 387.92,32.34 387.81,31.74 387.70,31.14 387.79,30.53 387.88,29.92 388.15,29.38 388.43,28.83 388.87,28.40 389.30,27.97 389.86,27.71 390.41,27.44 391.02,27.36 391.62,27.28 392.22,27.41 392.82,27.53 393.35,27.83 393.88,28.14 394.29,28.60 394.69,29.06 394.93,29.62 395.17,30.19 395.21,30.80 395.26,31.41 395.10,32.00 394.95,32.60 394.95,32.60 394.95,32.60 393.56,35.60 392.18,38.61 391.22,41.41 390.27,44.21 389.35,48.11 388.43,52.01 387.05,56.32 385.67,60.62 383.91,65.71 382.15,70.79 380.26,74.61 378.36,78.43 376.44,82.85 374.51,87.28 372.46,92.76 370.42,98.24 368.16,103.42 365.90,108.60 362.75,113.85 359.61,119.10 355.97,123.99 352.33,128.89 347.98,134.62 343.63,140.34 339.39,147.39 335.15,154.43 330.81,161.77 326.47,169.11 321.89,176.65 317.30,184.19 311.74,192.02 306.18,199.85 301.89,205.34 297.60,210.82 293.23,215.89 288.87,220.97 284.25,226.20 279.64,231.44 274.99,236.49 270.34,241.53 265.51,246.76 260.68,251.98 256.00,256.49 251.32,261.00 246.66,264.69 242.00,268.39 237.13,271.89 232.27,275.40 227.19,278.25 222.11,281.10 216.87,283.51 211.64,285.93 206.46,287.67 201.27,289.41 195.52,291.32 189.77,293.24 185.82,293.50 181.87,293.76 178.30,293.97 174.73,294.17 171.98,294.21 169.23,294.24 164.87,293.92 160.51,293.59 157.94,292.79 155.37,292.00 152.15,289.35 148.94,286.71 146.56,283.22 144.18,279.73 142.46,276.06 140.74,272.38 138.05,271.10 135.35,269.81 131.63,268.41 127.91,267.01 124.79,266.40 121.67,265.80 117.82,265.10 113.98,264.40 109.94,263.47 105.90,262.55 101.19,261.63 96.48,260.72 93.83,259.63 91.18,258.55 87.90,257.07 84.61,255.60 82.34,254.02 80.06,252.43 77.77,250.83 75.47,249.24 72.94,247.49 70.40,245.74 68.37,244.00 66.35,242.26 63.92,240.28 61.50,238.29 59.50,236.36 57.50,234.43 55.17,232.06 52.83,229.68 50.53,226.68 48.24,223.67 45.37,219.58 42.51,215.48 39.82,211.88 37.14,208.28 34.47,204.41 31.80,200.55 29.30,196.26 26.81,191.96 24.63,188.05 22.46,184.14 20.56,180.35 18.67,176.55 17.70,173.17 16.72,169.78 15.94,166.27 15.15,162.77 14.20,159.00 13.25,155.24 12.69,151.90 12.13,148.56 11.10,144.94 10.07,141.31 9.10,137.51 8.13,133.70 7.45,130.20 6.77,126.70 5.31,122.63 3.85,118.57 2.52,113.33 1.18,108.08 0.14,102.10 -0.88,96.12 -1.76,89.21 -2.64,82.30 -2.62,75.19 -2.60,68.08 -2.53,61.13 -2.45,54.18 -2.27,47.72 -2.09,41.26 -2.14,35.72 -2.20,30.19 -2.29,24.88 -2.38,19.57 -2.55,13.81 -2.71,8.04 -2.93,4.11 -3.14,0.17 -3.12,-0.20 -3.09,-0.58 -2.98,-0.94 -2.86,-1.30 -2.66,-1.63 -2.47,-1.95 -2.20,-2.22 -1.93,-2.49 -1.60,-2.68 -1.27,-2.87 -0.91,-2.99 -0.55,-3.10 -0.17,-3.12 0.20,-3.14 0.57,-3.07 0.95,-3.00 1.29,-2.84 1.64,-2.68 1.94,-2.45 2.23,-2.21 2.47,-1.91 2.70,-1.61 2.85,-1.26 3.01,-0.92 3.07,-0.54 3.14,-0.17 3.14,-0.17 L 3.14,-0.17 Z"></path></g><g transform="translate(138.562744140625 291.468505859375) rotate(0 195.8868408203125 144.1575469970703)" stroke="none"><path fill="#FFFFFF" d="M 3.14,-0.17 Q 3.14,-0.17 3.36,3.76 3.58,7.69 3.61,13.59 3.63,19.48 3.62,24.81 3.60,30.14 3.58,35.69 3.56,41.24 3.32,47.80 3.08,54.36 2.97,61.26 2.86,68.15 2.81,75.24 2.76,82.32 3.59,88.88 4.43,95.44 5.43,101.31 6.44,107.18 7.72,112.22 9.00,117.26 10.41,121.06 11.81,124.87 12.78,128.65 13.76,132.43 14.80,136.09 15.85,139.75 16.99,143.24 18.12,146.73 18.92,150.35 19.72,153.97 20.67,157.54 21.61,161.10 22.50,164.65 23.39,168.19 24.44,171.31 25.49,174.42 27.08,177.76 28.67,181.10 30.61,185.03 32.54,188.96 34.85,193.26 37.16,197.55 39.59,201.27 42.03,204.99 44.58,208.55 47.12,212.10 49.98,216.30 52.84,220.50 55.16,223.20 57.48,225.91 59.74,227.71 61.99,229.51 64.12,231.11 66.26,232.70 68.66,234.40 71.06,236.10 73.27,237.68 75.48,239.25 77.80,240.66 80.13,242.08 82.52,243.57 84.92,245.07 87.26,246.55 89.61,248.03 92.22,249.17 94.83,250.31 97.32,251.21 99.80,252.11 103.83,253.35 107.86,254.59 111.91,255.90 115.96,257.20 119.49,257.88 123.02,258.57 126.10,258.99 129.18,259.41 131.65,259.97 134.12,260.53 137.84,261.48 141.55,262.43 144.73,264.03 147.91,265.64 149.83,268.18 151.74,270.71 153.69,273.91 155.64,277.10 157.62,278.98 159.61,280.87 162.61,281.46 165.62,282.04 170.24,282.20 174.86,282.36 178.38,282.59 181.91,282.82 185.79,283.09 189.66,283.37 194.24,282.22 198.81,281.08 204.14,279.77 209.47,278.46 214.39,276.52 219.31,274.58 224.23,272.08 229.15,269.58 233.79,266.43 238.42,263.28 243.04,259.78 247.67,256.28 252.18,252.04 256.70,247.80 261.47,242.75 266.23,237.69 270.91,232.69 275.59,227.68 280.19,222.52 284.79,217.35 289.15,212.32 293.51,207.29 297.74,201.92 301.97,196.55 307.46,188.83 312.96,181.11 317.45,173.73 321.94,166.35 326.27,159.04 330.59,151.73 334.85,144.67 339.11,137.62 343.62,131.66 348.13,125.71 351.75,120.83 355.38,115.96 358.38,110.93 361.38,105.90 363.49,101.02 365.59,96.15 367.59,90.79 369.58,85.44 371.56,80.88 373.54,76.33 375.49,72.40 377.44,68.46 379.07,63.69 380.70,58.92 382.06,54.66 383.43,50.40 384.12,46.73 384.80,43.05 385.41,40.01 386.02,36.97 387.02,33.25 388.02,29.54 388.35,29.03 388.69,28.51 389.17,28.13 389.65,27.75 390.23,27.55 390.81,27.34 391.42,27.33 392.03,27.32 392.61,27.51 393.20,27.69 393.69,28.05 394.19,28.42 394.54,28.92 394.89,29.42 395.07,30.00 395.24,30.59 395.22,31.20 395.20,31.82 394.98,32.39 394.76,32.96 394.38,33.44 393.99,33.91 393.47,34.24 392.95,34.56 392.35,34.70 391.76,34.85 391.15,34.79 390.54,34.73 389.98,34.49 389.42,34.24 388.96,33.83 388.51,33.41 388.21,32.88 387.92,32.34 387.81,31.74 387.70,31.14 387.79,30.53 387.88,29.92 388.15,29.38 388.43,28.83 388.87,28.40 389.30,27.97 389.86,27.71 390.41,27.44 391.02,27.36 391.62,27.28 392.22,27.41 392.82,27.53 393.35,27.83 393.88,28.14 394.29,28.60 394.69,29.06 394.93,29.62 395.17,30.19 395.21,30.80 395.26,31.41 395.10,32.00 394.95,32.60 394.95,32.60 394.95,32.60 393.56,35.60 392.18,38.61 391.22,41.41 390.27,44.21 389.35,48.11 388.43,52.01 387.05,56.32 385.67,60.62 383.91,65.71 382.15,70.79 380.26,74.61 378.36,78.43 376.44,82.85 374.51,87.28 372.46,92.76 370.42,98.24 368.16,103.42 365.90,108.60 362.75,113.85 359.61,119.10 355.97,123.99 352.33,128.89 347.98,134.62 343.63,140.34 339.39,147.39 335.15,154.43 330.81,161.77 326.47,169.11 321.89,176.65 317.30,184.19 311.74,192.02 306.18,199.85 301.89,205.34 297.60,210.82 293.23,215.89 288.87,220.97 284.25,226.20 279.64,231.44 274.99,236.49 270.34,241.53 265.51,246.76 260.68,251.98 256.00,256.49 251.32,261.00 246.66,264.69 242.00,268.39 237.13,271.89 232.27,275.40 227.19,278.25 222.11,281.10 216.87,283.51 211.64,285.93 206.46,287.67 201.27,289.41 195.52,291.32 189.77,293.24 185.82,293.50 181.87,293.76 178.30,293.97 174.73,294.17 171.98,294.21 169.23,294.24 164.87,293.92 160.51,293.59 157.94,292.79 155.37,292.00 152.15,289.35 148.94,286.71 146.56,283.22 144.18,279.73 142.46,276.06 140.74,272.38 138.05,271.10 135.35,269.81 131.63,268.41 127.91,267.01 124.79,266.40 121.67,265.80 117.82,265.10 113.98,264.40 109.94,263.47 105.90,262.55 101.19,261.63 96.48,260.72 93.83,259.63 91.18,258.55 87.90,257.07 84.61,255.60 82.34,254.02 80.06,252.43 77.77,250.83 75.47,249.24 72.94,247.49 70.40,245.74 68.37,244.00 66.35,242.26 63.92,240.28 61.50,238.29 59.50,236.36 57.50,234.43 55.17,232.06 52.83,229.68 50.53,226.68 48.24,223.67 45.37,219.58 42.51,215.48 39.82,211.88 37.14,208.28 34.47,204.41 31.80,200.55 29.30,196.26 26.81,191.96 24.63,188.05 22.46,184.14 20.56,180.35 18.67,176.55 17.70,173.17 16.72,169.78 15.94,166.27 15.15,162.77 14.20,159.00 13.25,155.24 12.69,151.90 12.13,148.56 11.10,144.94 10.07,141.31 9.10,137.51 8.13,133.70 7.45,130.20 6.77,126.70 5.31,122.63 3.85,118.57 2.52,113.33 1.18,108.08 0.14,102.10 -0.88,96.12 -1.76,89.21 -2.64,82.30 -2.62,75.19 -2.60,68.08 -2.53,61.13 -2.45,54.18 -2.27,47.72 -2.09,41.26 -2.14,35.72 -2.20,30.19 -2.29,24.88 -2.38,19.57 -2.55,13.81 -2.71,8.04 -2.93,4.11 -3.14,0.17 -3.12,-0.20 -3.09,-0.58 -2.98,-0.94 -2.86,-1.30 -2.66,-1.63 -2.47,-1.95 -2.20,-2.22 -1.93,-2.49 -1.60,-2.68 -1.27,-2.87 -0.91,-2.99 -0.55,-3.10 -0.17,-3.12 0.20,-3.14 0.57,-3.07 0.95,-3.00 1.29,-2.84 1.64,-2.68 1.94,-2.45 2.23,-2.21 2.47,-1.91 2.70,-1.61 2.85,-1.26 3.01,-0.92 3.07,-0.54 3.14,-0.17 3.14,-0.17 L 3.14,-0.17 Z"></path></g><g transform="translate(139.32342529296875 372.86614990234375) rotate(0 195.8868408203125 144.1575469970703)" stroke="none"><path fill="#FFFFFF" d="M 3.14,-0.17 Q 3.14,-0.17 3.36,3.76 3.58,7.69 3.61,13.59 3.63,19.48 3.62,24.81 3.60,30.14 3.58,35.69 3.56,41.24 3.32,47.80 3.08,54.36 2.97,61.26 2.86,68.15 2.81,75.24 2.76,82.32 3.59,88.88 4.43,95.44 5.43,101.31 6.44,107.18 7.72,112.22 9.00,117.26 10.41,121.06 11.81,124.87 12.78,128.65 13.76,132.43 14.80,136.09 15.85,139.75 16.99,143.24 18.12,146.73 18.92,150.35 19.72,153.97 20.67,157.54 21.61,161.10 22.50,164.65 23.39,168.19 24.44,171.31 25.49,174.42 27.08,177.76 28.67,181.10 30.61,185.03 32.54,188.96 34.85,193.26 37.16,197.55 39.59,201.27 42.03,204.99 44.58,208.55 47.12,212.10 49.98,216.30 52.84,220.50 55.16,223.20 57.48,225.91 59.74,227.71 61.99,229.51 64.12,231.11 66.26,232.70 68.66,234.40 71.06,236.10 73.27,237.68 75.48,239.25 77.80,240.66 80.13,242.08 82.52,243.57 84.92,245.07 87.26,246.55 89.61,248.03 92.22,249.17 94.83,250.31 97.32,251.21 99.80,252.11 103.83,253.35 107.86,254.59 111.91,255.90 115.96,257.20 119.49,257.88 123.02,258.57 126.10,258.99 129.18,259.41 131.65,259.97 134.12,260.53 137.84,261.48 141.55,262.43 144.73,264.03 147.91,265.64 149.83,268.18 151.74,270.71 153.69,273.91 155.64,277.10 157.62,278.98 159.61,280.87 162.61,281.46 165.62,282.04 170.24,282.20 174.86,282.36 178.38,282.59 181.91,282.82 185.79,283.09 189.66,283.37 194.24,282.22 198.81,281.08 204.14,279.77 209.47,278.46 214.39,276.52 219.31,274.58 224.23,272.08 229.15,269.58 233.79,266.43 238.42,263.28 243.04,259.78 247.67,256.28 252.18,252.04 256.70,247.80 261.47,242.75 266.23,237.69 270.91,232.69 275.59,227.68 280.19,222.52 284.79,217.35 289.15,212.32 293.51,207.29 297.74,201.92 301.97,196.55 307.46,188.83 312.96,181.11 317.45,173.73 321.94,166.35 326.27,159.04 330.59,151.73 334.85,144.67 339.11,137.62 343.62,131.66 348.13,125.71 351.75,120.83 355.38,115.96 358.38,110.93 361.38,105.90 363.49,101.02 365.59,96.15 367.59,90.79 369.58,85.44 371.56,80.88 373.54,76.33 375.49,72.40 377.44,68.46 379.07,63.69 380.70,58.92 382.06,54.66 383.43,50.40 384.12,46.73 384.80,43.05 385.41,40.01 386.02,36.97 387.02,33.25 388.02,29.54 388.35,29.03 388.69,28.51 389.17,28.13 389.65,27.75 390.23,27.55 390.81,27.34 391.42,27.33 392.03,27.32 392.61,27.51 393.20,27.69 393.69,28.05 394.19,28.42 394.54,28.92 394.89,29.42 395.07,30.00 395.24,30.59 395.22,31.20 395.20,31.82 394.98,32.39 394.76,32.96 394.38,33.44 393.99,33.91 393.47,34.24 392.95,34.56 392.35,34.70 391.76,34.85 391.15,34.79 390.54,34.73 389.98,34.49 389.42,34.24 388.96,33.83 388.51,33.41 388.21,32.88 387.92,32.34 387.81,31.74 387.70,31.14 387.79,30.53 387.88,29.92 388.15,29.38 388.43,28.83 388.87,28.40 389.30,27.97 389.86,27.71 390.41,27.44 391.02,27.36 391.62,27.28 392.22,27.41 392.82,27.53 393.35,27.83 393.88,28.14 394.29,28.60 394.69,29.06 394.93,29.62 395.17,30.19 395.21,30.80 395.26,31.41 395.10,32.00 394.95,32.60 394.95,32.60 394.95,32.60 393.56,35.60 392.18,38.61 391.22,41.41 390.27,44.21 389.35,48.11 388.43,52.01 387.05,56.32 385.67,60.62 383.91,65.71 382.15,70.79 380.26,74.61 378.36,78.43 376.44,82.85 374.51,87.28 372.46,92.76 370.42,98.24 368.16,103.42 365.90,108.60 362.75,113.85 359.61,119.10 355.97,123.99 352.33,128.89 347.98,134.62 343.63,140.34 339.39,147.39 335.15,154.43 330.81,161.77 326.47,169.11 321.89,176.65 317.30,184.19 311.74,192.02 306.18,199.85 301.89,205.34 297.60,210.82 293.23,215.89 288.87,220.97 284.25,226.20 279.64,231.44 274.99,236.49 270.34,241.53 265.51,246.76 260.68,251.98 256.00,256.49 251.32,261.00 246.66,264.69 242.00,268.39 237.13,271.89 232.27,275.40 227.19,278.25 222.11,281.10 216.87,283.51 211.64,285.93 206.46,287.67 201.27,289.41 195.52,291.32 189.77,293.24 185.82,293.50 181.87,293.76 178.30,293.97 174.73,294.17 171.98,294.21 169.23,294.24 164.87,293.92 160.51,293.59 157.94,292.79 155.37,292.00 152.15,289.35 148.94,286.71 146.56,283.22 144.18,279.73 142.46,276.06 140.74,272.38 138.05,271.10 135.35,269.81 131.63,268.41 127.91,267.01 124.79,266.40 121.67,265.80 117.82,265.10 113.98,264.40 109.94,263.47 105.90,262.55 101.19,261.63 96.48,260.72 93.83,259.63 91.18,258.55 87.90,257.07 84.61,255.60 82.34,254.02 80.06,252.43 77.77,250.83 75.47,249.24 72.94,247.49 70.40,245.74 68.37,244.00 66.35,242.26 63.92,240.28 61.50,238.29 59.50,236.36 57.50,234.43 55.17,232.06 52.83,229.68 50.53,226.68 48.24,223.67 45.37,219.58 42.51,215.48 39.82,211.88 37.14,208.28 34.47,204.41 31.80,200.55 29.30,196.26 26.81,191.96 24.63,188.05 22.46,184.14 20.56,180.35 18.67,176.55 17.70,173.17 16.72,169.78 15.94,166.27 15.15,162.77 14.20,159.00 13.25,155.24 12.69,151.90 12.13,148.56 11.10,144.94 10.07,141.31 9.10,137.51 8.13,133.70 7.45,130.20 6.77,126.70 5.31,122.63 3.85,118.57 2.52,113.33 1.18,108.08 0.14,102.10 -0.88,96.12 -1.76,89.21 -2.64,82.30 -2.62,75.19 -2.60,68.08 -2.53,61.13 -2.45,54.18 -2.27,47.72 -2.09,41.26 -2.14,35.72 -2.20,30.19 -2.29,24.88 -2.38,19.57 -2.55,13.81 -2.71,8.04 -2.93,4.11 -3.14,0.17 -3.12,-0.20 -3.09,-0.58 -2.98,-0.94 -2.86,-1.30 -2.66,-1.63 -2.47,-1.95 -2.20,-2.22 -1.93,-2.49 -1.60,-2.68 -1.27,-2.87 -0.91,-2.99 -0.55,-3.10 -0.17,-3.12 0.20,-3.14 0.57,-3.07 0.95,-3.00 1.29,-2.84 1.64,-2.68 1.94,-2.45 2.23,-2.21 2.47,-1.91 2.70,-1.61 2.85,-1.26 3.01,-0.92 3.07,-0.54 3.14,-0.17 3.14,-0.17 L 3.14,-0.17 Z"></path></g><g transform="translate(343.9586181640625 691.6102600097656) rotate(0 -0.760711669921875 12.171630859375)" stroke="none"><path fill="#FFFFFF" d="M 4.72,0.63 Q 4.72,0.63 4.23,3.90 3.74,7.17 3.63,9.53 3.53,11.89 3.48,14.58 3.43,17.28 3.77,19.93 4.12,22.59 4.06,23.40 4.00,24.21 3.69,24.96 3.37,25.71 2.83,26.32 2.29,26.93 1.59,27.33 0.89,27.74 0.09,27.90 -0.70,28.06 -1.50,27.95 -2.31,27.85 -3.04,27.50 -3.77,27.14 -4.35,26.57 -4.93,26.00 -5.29,25.28 -5.66,24.55 -5.78,23.75 -5.89,22.94 -5.75,22.14 -5.60,21.35 -5.20,20.63 -4.81,19.92 -4.21,19.38 -3.61,18.83 -2.87,18.50 -2.12,18.18 -1.31,18.10 -0.50,18.03 0.28,18.22 1.07,18.41 1.75,18.84 2.44,19.28 2.96,19.90 3.47,20.53 3.76,21.29 4.04,22.05 4.07,22.87 4.10,23.68 3.87,24.46 3.63,25.23 3.16,25.90 2.70,26.56 2.04,27.04 1.38,27.52 0.61,27.76 -0.16,28.01 -0.97,27.99 -1.78,27.98 -2.54,27.70 -3.31,27.43 -3.95,26.93 -4.58,26.42 -5.03,25.74 -5.47,25.06 -5.67,24.27 -5.87,23.49 -5.87,23.49 -5.87,23.49 -6.06,20.25 -6.24,17.01 -6.13,14.09 -6.03,11.17 -5.76,8.56 -5.49,5.94 -5.10,2.65 -4.72,-0.63 -4.58,-1.18 -4.43,-1.74 -4.16,-2.24 -3.89,-2.75 -3.50,-3.17 -3.11,-3.60 -2.64,-3.92 -2.16,-4.24 -1.62,-4.44 -1.08,-4.64 -0.51,-4.70 0.05,-4.76 0.62,-4.69 1.19,-4.61 1.73,-4.40 2.26,-4.19 2.73,-3.86 3.20,-3.53 3.57,-3.09 3.95,-2.66 4.21,-2.14 4.47,-1.63 4.60,-1.07 4.73,-0.51 4.73,0.05 4.72,0.63 4.72,0.63 L 4.72,0.63 Z"></path></g><g transform="translate(359.933837890625 751.7076110839844) rotate(0 0.38037109375 0.38037109375)" stroke="none"><path fill="#FFFFFF" d="M 3.67,-2.79 Q 3.67,-2.79 4.10,-2.19 4.53,-1.59 4.75,-0.88 4.97,-0.18 4.95,0.55 4.93,1.30 4.67,1.99 4.42,2.69 3.95,3.26 3.49,3.84 2.87,4.24 2.24,4.64 1.52,4.82 0.80,5.00 0.07,4.94 -0.66,4.88 -1.34,4.58 -2.02,4.29 -2.58,3.80 -3.13,3.30 -3.49,2.66 -3.86,2.01 -3.99,1.28 -4.13,0.56 -4.03,-0.17 -3.93,-0.90 -3.60,-1.57 -3.28,-2.23 -2.75,-2.75 -2.23,-3.28 -1.56,-3.61 -0.90,-3.93 -0.17,-4.03 0.56,-4.13 1.28,-3.99 2.01,-3.85 2.66,-3.49 3.30,-3.13 3.80,-2.57 4.29,-2.02 4.58,-1.34 4.88,-0.66 4.94,0.07 5.00,0.81 4.82,1.52 4.64,2.24 4.24,2.87 3.84,3.49 3.26,3.95 2.68,4.42 1.99,4.67 1.29,4.93 0.55,4.95 -0.18,4.97 -0.88,4.75 -1.59,4.53 -2.19,4.10 -2.80,3.67 -2.80,3.67 -2.79,3.67 -3.19,3.28 -3.59,2.89 -3.89,2.42 -4.18,1.95 -4.35,1.42 -4.53,0.89 -4.57,0.33 -4.61,-0.21 -4.52,-0.76 -4.42,-1.31 -4.20,-1.82 -3.98,-2.33 -3.64,-2.77 -3.31,-3.22 -2.87,-3.57 -2.44,-3.92 -1.93,-4.15 -1.43,-4.39 -0.88,-4.49 -0.34,-4.60 0.21,-4.58 0.77,-4.55 1.30,-4.39 1.83,-4.23 2.31,-3.95 2.80,-3.67 3.23,-3.23 L 3.67,-2.79 Z"></path></g><g transform="translate(356.89093017578125 772.2472229003906) rotate(0 0 1.90179443359375)" stroke="none"><path fill="#FFFFFF" d="M 4.55,0 Q 4.55,0 4.67,1.09 4.78,2.18 4.65,2.95 4.53,3.71 4.17,4.39 3.80,5.08 3.24,5.61 2.68,6.14 1.98,6.47 1.27,6.79 0.51,6.88 -0.25,6.96 -1.01,6.79 -1.77,6.63 -2.43,6.23 -3.09,5.83 -3.59,5.24 -4.10,4.65 -4.38,3.93 -4.67,3.21 -4.71,2.44 -4.75,1.66 -4.54,0.92 -4.34,0.17 -3.90,-0.46 -3.47,-1.10 -2.85,-1.57 -2.24,-2.04 -1.50,-2.28 -0.77,-2.53 0.00,-2.53 0.77,-2.53 1.50,-2.28 2.24,-2.03 2.85,-1.57 3.47,-1.10 3.90,-0.46 4.34,0.17 4.54,0.92 4.75,1.67 4.71,2.44 4.67,3.21 4.38,3.93 4.09,4.65 3.59,5.24 3.09,5.83 2.43,6.23 1.76,6.63 1.01,6.79 0.25,6.96 -0.51,6.88 -1.28,6.79 -1.98,6.47 -2.68,6.14 -3.24,5.61 -3.80,5.08 -4.17,4.39 -4.53,3.71 -4.65,2.94 -4.78,2.18 -4.78,2.18 -4.78,2.18 -4.67,1.09 -4.55,0 -4.49,-0.54 -4.42,-1.09 -4.23,-1.60 -4.03,-2.11 -3.72,-2.57 -3.41,-3.02 -3.00,-3.38 -2.59,-3.75 -2.10,-4.00 -1.61,-4.26 -1.08,-4.39 -0.54,-4.52 0.00,-4.52 0.54,-4.52 1.08,-4.39 1.61,-4.26 2.10,-4.00 2.59,-3.75 3.00,-3.38 3.41,-3.02 3.72,-2.57 4.03,-2.11 4.23,-1.60 4.42,-1.09 4.49,-0.54 4.55,0.00 4.55,0.00 L 4.55,0 Z"></path></g><g transform="translate(355.3695068359375 785.9402770996094) rotate(0 0.00005000000000165983 0.00004999999998744897)" stroke="none"><path fill="#FFFFFF" d="M 3.14,-3.14 Q 3.14,-3.14 3.55,-2.55 3.97,-1.97 4.18,-1.28 4.40,-0.59 4.38,0.11 4.36,0.83 4.11,1.51 3.86,2.18 3.41,2.74 2.96,3.30 2.36,3.69 1.75,4.07 1.05,4.25 0.36,4.42 -0.35,4.36 -1.07,4.30 -1.73,4.02 -2.39,3.74 -2.92,3.26 -3.46,2.78 -3.81,2.15 -4.16,1.53 -4.30,0.82 -4.43,0.11 -4.34,-0.59 -4.24,-1.30 -3.92,-1.94 -3.60,-2.59 -3.09,-3.09 -2.59,-3.60 -1.94,-3.92 -1.30,-4.24 -0.59,-4.34 0.12,-4.43 0.82,-4.30 1.53,-4.16 2.15,-3.81 2.78,-3.46 3.26,-2.92 3.74,-2.39 4.02,-1.73 4.31,-1.07 4.36,-0.35 4.42,0.36 4.25,1.05 4.07,1.75 3.69,2.36 3.30,2.96 2.74,3.41 2.18,3.86 1.51,4.11 0.83,4.36 0.11,4.38 -0.60,4.40 -1.28,4.18 -1.97,3.97 -2.55,3.55 -3.14,3.13 -3.14,3.14 -3.14,3.14 -3.47,2.71 -3.80,2.29 -4.02,1.80 -4.24,1.32 -4.33,0.79 -4.43,0.26 -4.40,-0.26 -4.36,-0.80 -4.20,-1.31 -4.04,-1.82 -3.77,-2.28 -3.49,-2.73 -3.11,-3.11 -2.73,-3.49 -2.28,-3.77 -1.82,-4.05 -1.31,-4.20 -0.80,-4.36 -0.26,-4.40 0.26,-4.43 0.79,-4.33 1.32,-4.24 1.80,-4.02 2.29,-3.80 2.71,-3.47 3.14,-3.14 3.14,-3.14 L 3.14,-3.14 Z"></path></g><g transform="translate(358.41241455078125 816.3692932128906) rotate(0 0.00005000000000165983 0.00004999999998744897)" stroke="none"><path fill="#FFFFFF" d="M 3.14,-3.14 Q 3.14,-3.14 3.55,-2.55 3.97,-1.97 4.18,-1.28 4.40,-0.59 4.38,0.11 4.36,0.83 4.11,1.51 3.86,2.18 3.41,2.74 2.96,3.30 2.36,3.69 1.75,4.07 1.05,4.25 0.36,4.42 -0.35,4.36 -1.07,4.30 -1.73,4.02 -2.39,3.74 -2.92,3.26 -3.46,2.78 -3.81,2.15 -4.16,1.53 -4.30,0.82 -4.43,0.11 -4.34,-0.59 -4.24,-1.30 -3.92,-1.94 -3.60,-2.59 -3.09,-3.09 -2.59,-3.60 -1.94,-3.92 -1.30,-4.24 -0.59,-4.34 0.12,-4.43 0.82,-4.30 1.53,-4.16 2.15,-3.81 2.78,-3.46 3.26,-2.92 3.74,-2.39 4.02,-1.73 4.31,-1.07 4.36,-0.35 4.42,0.36 4.25,1.05 4.07,1.75 3.69,2.36 3.30,2.96 2.74,3.41 2.18,3.86 1.51,4.11 0.83,4.36 0.11,4.38 -0.60,4.40 -1.28,4.18 -1.97,3.97 -2.55,3.55 -3.14,3.13 -3.14,3.14 -3.14,3.14 -3.47,2.71 -3.80,2.29 -4.02,1.80 -4.24,1.32 -4.33,0.79 -4.43,0.26 -4.40,-0.26 -4.36,-0.80 -4.20,-1.31 -4.04,-1.82 -3.77,-2.28 -3.49,-2.73 -3.11,-3.11 -2.73,-3.49 -2.28,-3.77 -1.82,-4.05 -1.31,-4.20 -0.80,-4.36 -0.26,-4.40 0.26,-4.43 0.79,-4.33 1.32,-4.24 1.80,-4.02 2.29,-3.80 2.71,-3.47 3.14,-3.14 3.14,-3.14 L 3.14,-3.14 Z"></path></g></svg>