<svg version="1.1" xmlns="http://www.w3.org/2000/svg" viewBox="0 0 463.89410370535 379.2388806101004" width="463.89410370535" height="379.2388806101004" class="excalidraw-svg">
  <!-- svg-source:excalidraw -->
  
  <defs>
    <style class="style-fonts">
      
    </style>
    
  </defs>
  <g stroke-linecap="round"><g transform="translate(232.93251640216147 183.32682776299853) rotate(0 3.552713678800501e-15 -86.66341388149927)"><path d="M0 0 C0 -50.24, 0 -100.48, 0 -173.33 M0 0 C0 -53.79, 0 -107.59, 0 -173.33" stroke="#FFFFFF" stroke-width="2" fill="none"></path></g><g transform="translate(232.93251640216147 183.32682776299853) rotate(0 3.552713678800501e-15 -86.66341388149927)"><path d="M8.55 -149.83 C6.07 -156.64, 3.59 -163.45, 0 -173.33 M8.55 -149.83 C5.9 -157.13, 3.24 -164.42, 0 -173.33" stroke="#FFFFFF" stroke-width="2" fill="none"></path></g><g transform="translate(232.93251640216147 183.32682776299853) rotate(0 3.552713678800501e-15 -86.66341388149927)"><path d="M-8.55 -149.83 C-6.07 -156.64, -3.59 -163.45, 0 -173.33 M-8.55 -149.83 C-5.9 -157.13, -3.24 -164.42, 0 -173.33" stroke="#FFFFFF" stroke-width="2" fill="none"></path></g></g><mask></mask><g stroke-linecap="round"><g transform="translate(232.9325880340358 183.3267740390928) rotate(0 0 92.9560532855038)"><path d="M0 0 C0 58.08, 0 116.17, 0 185.91 M0 0 C0 73.09, 0 146.17, 0 185.91" stroke="#FFFFFF" stroke-width="2" fill="none"></path></g><g transform="translate(232.9325880340358 183.3267740390928) rotate(0 0 92.9560532855038)"><path d="M-8.55 162.42 C-5.88 169.76, -3.21 177.1, 0 185.91 M-8.55 162.42 C-5.19 171.66, -1.83 180.89, 0 185.91" stroke="#FFFFFF" stroke-width="2" fill="none"></path></g><g transform="translate(232.9325880340358 183.3267740390928) rotate(0 0 92.9560532855038)"><path d="M8.55 162.42 C5.88 169.76, 3.21 177.1, 0 185.91 M8.55 162.42 C5.19 171.66, 1.83 180.89, 0 185.91" stroke="#FFFFFF" stroke-width="2" fill="none"></path></g></g><mask></mask><g stroke-linecap="round"><g transform="translate(231.366911333515 193.57716251938524) rotate(0 111.2635961859175 0)"><path d="M0 0 C53.11 0, 106.22 0, 222.53 0 M0 0 C73.77 0, 147.55 0, 222.53 0" stroke="#FFFFFF" stroke-width="2" fill="none"></path></g><g transform="translate(231.366911333515 193.57716251938524) rotate(0 111.2635961859175 0)"><path d="M199.03 8.55 C204.64 6.51, 210.25 4.47, 222.53 0 M199.03 8.55 C206.82 5.72, 214.61 2.88, 222.53 0" stroke="#FFFFFF" stroke-width="2" fill="none"></path></g><g transform="translate(231.366911333515 193.57716251938524) rotate(0 111.2635961859175 0)"><path d="M199.03 -8.55 C204.64 -6.51, 210.25 -4.47, 222.53 0 M199.03 -8.55 C206.82 -5.72, 214.61 -2.88, 222.53 0" stroke="#FFFFFF" stroke-width="2" fill="none"></path></g></g><mask></mask><g stroke-linecap="round"><g transform="translate(232.52719237183507 192.68434283795176) rotate(0 -111.26359618591754 0)"><path d="M0 0 C-72.78 0, -145.55 0, -222.53 0 M0 0 C-46.94 0, -93.87 0, -222.53 0" stroke="#FFFFFF" stroke-width="2" fill="none"></path></g><g transform="translate(232.52719237183507 192.68434283795176) rotate(0 -111.26359618591754 0)"><path d="M-199.03 -8.55 C-206.72 -5.75, -214.4 -2.96, -222.53 0 M-199.03 -8.55 C-203.99 -6.75, -208.94 -4.94, -222.53 0" stroke="#FFFFFF" stroke-width="2" fill="none"></path></g><g transform="translate(232.52719237183507 192.68434283795176) rotate(0 -111.26359618591754 0)"><path d="M-199.03 8.55 C-206.72 5.75, -214.4 2.96, -222.53 0 M-199.03 8.55 C-203.99 6.75, -208.94 4.94, -222.53 0" stroke="#FFFFFF" stroke-width="2" fill="none"></path></g></g><mask></mask></svg>